# Blender 4.4.1
# www.blender.org
mtllib enemy.mtl
o Cube
v -0.690147 0.050000 -0.831568
v -0.690147 -0.050000 -0.831568
v 0.831568 0.050000 0.690147
v 0.831568 -0.050000 0.690147
v -0.831568 0.050000 -0.690147
v -0.831568 -0.050000 -0.690147
v 0.690147 0.050000 0.831568
v 0.690147 -0.050000 0.831568
v 0.831568 0.049866 -0.690147
v 0.831568 -0.050134 -0.690147
v -0.690147 0.049866 0.831568
v -0.690147 -0.050134 0.831568
v 0.690147 0.049866 -0.831568
v 0.690147 -0.050134 -0.831568
v -0.831568 0.049866 0.690147
v -0.831568 -0.050134 0.690147
v -0.107876 0.285830 0.107876
v -0.107876 0.501583 0.107876
v -0.107876 0.285830 -0.107876
v -0.107876 0.501583 -0.107876
v 0.107876 0.285830 0.107876
v 0.107876 0.501583 0.107876
v 0.107876 0.285830 -0.107876
v 0.107876 0.501583 -0.107876
v -0.000000 -0.090608 -0.500000
v -0.000000 0.198086 -0.500000
v 0.097545 -0.090608 -0.490393
v 0.097545 0.198086 -0.490393
v 0.191342 -0.090608 -0.461940
v 0.191342 0.198086 -0.461940
v 0.277785 -0.090608 -0.415735
v 0.277785 0.198086 -0.415735
v 0.353553 -0.090608 -0.353553
v 0.353553 0.198086 -0.353553
v 0.415735 -0.090608 -0.277785
v 0.415735 0.198086 -0.277785
v 0.461940 -0.090608 -0.191342
v 0.461940 0.198086 -0.191342
v 0.490393 -0.090608 -0.097545
v 0.490393 0.198086 -0.097545
v 0.500000 -0.090608 0.000000
v 0.500000 0.198086 0.000000
v 0.490393 -0.090608 0.097545
v 0.490393 0.198086 0.097545
v 0.461940 -0.090608 0.191342
v 0.461940 0.198086 0.191342
v 0.415735 -0.090608 0.277785
v 0.415735 0.198086 0.277785
v 0.353553 -0.090608 0.353553
v 0.353553 0.198086 0.353553
v 0.277785 -0.090608 0.415735
v 0.277785 0.198086 0.415735
v 0.191342 -0.090608 0.461940
v 0.191342 0.198086 0.461940
v 0.097545 -0.090608 0.490393
v 0.097545 0.198086 0.490393
v 0.000000 -0.090608 0.500000
v 0.000000 0.198086 0.500000
v -0.097545 -0.090608 0.490393
v -0.097545 0.198086 0.490393
v -0.191342 -0.090608 0.461940
v -0.191342 0.198086 0.461940
v -0.277785 -0.090608 0.415735
v -0.277785 0.198086 0.415735
v -0.353553 -0.090608 0.353553
v -0.353553 0.198086 0.353553
v -0.415735 -0.090608 0.277785
v -0.415735 0.198086 0.277785
v -0.461940 -0.090608 0.191342
v -0.461940 0.198086 0.191342
v -0.490393 -0.090608 0.097545
v -0.490393 0.198086 0.097545
v -0.500000 -0.090608 -0.000000
v -0.500000 0.198086 -0.000000
v -0.490393 -0.090608 -0.097545
v -0.490393 0.198086 -0.097545
v -0.461940 -0.090608 -0.191342
v -0.461940 0.198086 -0.191342
v -0.415735 -0.090608 -0.277785
v -0.415735 0.198086 -0.277785
v -0.353553 -0.090608 -0.353553
v -0.353553 0.198086 -0.353553
v -0.277785 -0.090608 -0.415735
v -0.277785 0.198086 -0.415735
v -0.191342 -0.090608 -0.461940
v -0.191342 0.198086 -0.461940
v -0.097545 -0.090608 -0.490393
v -0.097545 0.198086 -0.490393
v 0.729249 -0.123672 0.729249
v 0.729249 -0.023672 0.729249
v 0.759556 -0.123672 0.704377
v 0.759556 -0.023672 0.704377
v 0.794134 -0.123672 0.685894
v 0.794134 -0.023672 0.685894
v 0.831652 -0.123672 0.674513
v 0.831652 -0.023672 0.674513
v 0.870670 -0.123672 0.670671
v 0.870670 -0.023672 0.670671
v 0.909688 -0.123672 0.674513
v 0.909688 -0.023672 0.674513
v 0.947207 -0.123672 0.685894
v 0.947207 -0.023672 0.685894
v 0.981784 -0.123672 0.704376
v 0.981784 -0.023672 0.704376
v 1.012092 -0.123672 0.729249
v 1.012092 -0.023672 0.729249
v 1.036964 -0.123672 0.759556
v 1.036964 -0.023672 0.759556
v 1.055446 -0.123672 0.794134
v 1.055446 -0.023672 0.794134
v 1.066828 -0.123672 0.831652
v 1.066828 -0.023672 0.831652
v 1.070670 -0.123672 0.870670
v 1.070670 -0.023672 0.870670
v 1.066828 -0.123672 0.909688
v 1.066828 -0.023672 0.909688
v 1.055446 -0.123672 0.947207
v 1.055446 -0.023672 0.947207
v 1.036964 -0.123672 0.981784
v 1.036964 -0.023672 0.981784
v 1.012092 -0.123672 1.012092
v 1.012092 -0.023672 1.012092
v 0.981784 -0.123672 1.036964
v 0.981784 -0.023672 1.036964
v 0.947207 -0.123672 1.055446
v 0.947207 -0.023672 1.055446
v 0.909688 -0.123672 1.066828
v 0.909688 -0.023672 1.066828
v 0.870670 -0.123672 1.070670
v 0.870670 -0.023672 1.070670
v 0.831652 -0.123672 1.066828
v 0.831652 -0.023672 1.066828
v 0.794134 -0.123672 1.055446
v 0.794134 -0.023672 1.055446
v 0.759556 -0.123672 1.036964
v 0.759556 -0.023672 1.036964
v 0.729249 -0.123672 1.012092
v 0.729249 -0.023672 1.012092
v 0.704376 -0.123672 0.981784
v 0.704376 -0.023672 0.981784
v 0.685894 -0.123672 0.947207
v 0.685894 -0.023672 0.947207
v 0.674513 -0.123672 0.909688
v 0.674513 -0.023672 0.909688
v 0.670671 -0.123672 0.870670
v 0.670671 -0.023672 0.870670
v 0.674513 -0.123672 0.831652
v 0.674513 -0.023672 0.831652
v 0.685894 -0.123672 0.794134
v 0.685894 -0.023672 0.794134
v 0.704377 -0.123672 0.759556
v 0.704377 -0.023672 0.759556
v -1.035951 -0.129635 0.739102
v -1.035951 -0.029635 0.739102
v -1.005644 -0.129635 0.714230
v -1.005644 -0.029635 0.714230
v -0.971067 -0.129635 0.695747
v -0.971067 -0.029635 0.695747
v -0.933548 -0.129635 0.684366
v -0.933548 -0.029635 0.684366
v -0.894530 -0.129635 0.680523
v -0.894530 -0.029635 0.680523
v -0.855512 -0.129635 0.684366
v -0.855512 -0.029635 0.684366
v -0.817994 -0.129635 0.695747
v -0.817994 -0.029635 0.695747
v -0.783416 -0.129635 0.714229
v -0.783416 -0.029635 0.714229
v -0.753109 -0.129635 0.739102
v -0.753109 -0.029635 0.739102
v -0.728236 -0.129635 0.769409
v -0.728236 -0.029635 0.769409
v -0.709754 -0.129635 0.803987
v -0.709754 -0.029635 0.803987
v -0.698373 -0.129635 0.841505
v -0.698373 -0.029635 0.841505
v -0.694530 -0.129635 0.880523
v -0.694530 -0.029635 0.880523
v -0.698373 -0.129635 0.919541
v -0.698373 -0.029635 0.919541
v -0.709754 -0.129635 0.957060
v -0.709754 -0.029635 0.957060
v -0.728236 -0.129635 0.991637
v -0.728236 -0.029635 0.991637
v -0.753109 -0.129635 1.021945
v -0.753109 -0.029635 1.021945
v -0.783416 -0.129635 1.046817
v -0.783416 -0.029635 1.046817
v -0.817994 -0.129635 1.065299
v -0.817994 -0.029635 1.065299
v -0.855512 -0.129635 1.076680
v -0.855512 -0.029635 1.076680
v -0.894530 -0.129635 1.080523
v -0.894530 -0.029635 1.080523
v -0.933548 -0.129635 1.076680
v -0.933548 -0.029635 1.076680
v -0.971067 -0.129635 1.065299
v -0.971067 -0.029635 1.065299
v -1.005644 -0.129635 1.046817
v -1.005644 -0.029635 1.046817
v -1.035952 -0.129635 1.021945
v -1.035952 -0.029635 1.021945
v -1.060824 -0.129635 0.991637
v -1.060824 -0.029635 0.991637
v -1.079306 -0.129635 0.957060
v -1.079306 -0.029635 0.957060
v -1.090687 -0.129635 0.919541
v -1.090687 -0.029635 0.919541
v -1.094530 -0.129635 0.880523
v -1.094530 -0.029635 0.880523
v -1.090687 -0.129635 0.841505
v -1.090687 -0.029635 0.841505
v -1.079306 -0.129635 0.803987
v -1.079306 -0.029635 0.803987
v -1.060824 -0.129635 0.769409
v -1.060824 -0.029635 0.769409
v 0.738097 -0.127561 -1.034947
v 0.738097 -0.027561 -1.034947
v 0.768404 -0.127561 -1.059819
v 0.768404 -0.027561 -1.059819
v 0.802982 -0.127561 -1.078301
v 0.802982 -0.027561 -1.078301
v 0.840500 -0.127561 -1.089682
v 0.840500 -0.027561 -1.089682
v 0.879518 -0.127561 -1.093525
v 0.879518 -0.027561 -1.093525
v 0.918536 -0.127561 -1.089682
v 0.918536 -0.027561 -1.089682
v 0.956055 -0.127561 -1.078301
v 0.956055 -0.027561 -1.078301
v 0.990632 -0.127561 -1.059819
v 0.990632 -0.027561 -1.059819
v 1.020940 -0.127561 -1.034946
v 1.020940 -0.027561 -1.034946
v 1.045812 -0.127561 -1.004639
v 1.045812 -0.027561 -1.004639
v 1.064294 -0.127561 -0.970062
v 1.064294 -0.027561 -0.970062
v 1.075675 -0.127561 -0.932543
v 1.075675 -0.027561 -0.932543
v 1.079518 -0.127561 -0.893525
v 1.079518 -0.027561 -0.893525
v 1.075675 -0.127561 -0.854507
v 1.075675 -0.027561 -0.854507
v 1.064294 -0.127561 -0.816989
v 1.064294 -0.027561 -0.816989
v 1.045812 -0.127561 -0.782411
v 1.045812 -0.027561 -0.782411
v 1.020940 -0.127561 -0.752104
v 1.020940 -0.027561 -0.752104
v 0.990632 -0.127561 -0.727231
v 0.990632 -0.027561 -0.727231
v 0.956055 -0.127561 -0.708749
v 0.956055 -0.027561 -0.708749
v 0.918536 -0.127561 -0.697368
v 0.918536 -0.027561 -0.697368
v 0.879518 -0.127561 -0.693525
v 0.879518 -0.027561 -0.693525
v 0.840500 -0.127561 -0.697368
v 0.840500 -0.027561 -0.697368
v 0.802982 -0.127561 -0.708749
v 0.802982 -0.027561 -0.708749
v 0.768404 -0.127561 -0.727231
v 0.768404 -0.027561 -0.727231
v 0.738097 -0.127561 -0.752104
v 0.738097 -0.027561 -0.752104
v 0.713224 -0.127561 -0.782411
v 0.713224 -0.027561 -0.782411
v 0.694742 -0.127561 -0.816989
v 0.694742 -0.027561 -0.816989
v 0.683361 -0.127561 -0.854507
v 0.683361 -0.027561 -0.854507
v 0.679518 -0.127561 -0.893525
v 0.679518 -0.027561 -0.893525
v 0.683361 -0.127561 -0.932543
v 0.683361 -0.027561 -0.932543
v 0.694742 -0.127561 -0.970062
v 0.694742 -0.027561 -0.970062
v 0.713224 -0.127561 -1.004639
v 0.713224 -0.027561 -1.004639
v -1.031412 -0.127561 -1.031412
v -1.031412 -0.027561 -1.031412
v -1.001105 -0.127561 -1.056285
v -1.001105 -0.027561 -1.056285
v -0.966528 -0.127561 -1.074767
v -0.966528 -0.027561 -1.074767
v -0.929009 -0.127561 -1.086148
v -0.929009 -0.027561 -1.086148
v -0.889991 -0.127561 -1.089991
v -0.889991 -0.027561 -1.089991
v -0.850973 -0.127561 -1.086148
v -0.850973 -0.027561 -1.086148
v -0.813455 -0.127561 -1.074767
v -0.813455 -0.027561 -1.074767
v -0.778877 -0.127561 -1.056285
v -0.778877 -0.027561 -1.056285
v -0.748570 -0.127561 -1.031412
v -0.748570 -0.027561 -1.031412
v -0.723697 -0.127561 -1.001105
v -0.723697 -0.027561 -1.001105
v -0.705215 -0.127561 -0.966528
v -0.705215 -0.027561 -0.966528
v -0.693834 -0.127561 -0.929009
v -0.693834 -0.027561 -0.929009
v -0.689991 -0.127561 -0.889991
v -0.689991 -0.027561 -0.889991
v -0.693834 -0.127561 -0.850973
v -0.693834 -0.027561 -0.850973
v -0.705215 -0.127561 -0.813454
v -0.705215 -0.027561 -0.813454
v -0.723697 -0.127561 -0.778877
v -0.723697 -0.027561 -0.778877
v -0.748570 -0.127561 -0.748570
v -0.748570 -0.027561 -0.748570
v -0.778877 -0.127561 -0.723697
v -0.778877 -0.027561 -0.723697
v -0.813454 -0.127561 -0.705215
v -0.813454 -0.027561 -0.705215
v -0.850973 -0.127561 -0.693834
v -0.850973 -0.027561 -0.693834
v -0.889991 -0.127561 -0.689991
v -0.889991 -0.027561 -0.689991
v -0.929009 -0.127561 -0.693834
v -0.929009 -0.027561 -0.693834
v -0.966528 -0.127561 -0.705215
v -0.966528 -0.027561 -0.705215
v -1.001105 -0.127561 -0.723697
v -1.001105 -0.027561 -0.723697
v -1.031412 -0.127561 -0.748570
v -1.031412 -0.027561 -0.748570
v -1.056285 -0.127561 -0.778877
v -1.056285 -0.027561 -0.778877
v -1.074767 -0.127561 -0.813455
v -1.074767 -0.027561 -0.813455
v -1.086148 -0.127561 -0.850973
v -1.086148 -0.027561 -0.850973
v -1.089991 -0.127561 -0.889991
v -1.089991 -0.027561 -0.889991
v -1.086148 -0.127561 -0.929009
v -1.086148 -0.027561 -0.929009
v -1.074767 -0.127561 -0.966528
v -1.074767 -0.027561 -0.966528
v -1.056285 -0.127561 -1.001105
v -1.056285 -0.027561 -1.001105
v 0.000000 -0.075675 -0.250000
v 0.000000 -0.114693 -0.245196
v 0.000000 -0.186789 -0.207867
v 0.048773 -0.075675 -0.245196
v 0.047835 -0.114693 -0.240485
v 0.045060 -0.152211 -0.226532
v 0.040553 -0.186789 -0.203873
v 0.034487 -0.217096 -0.173380
v 0.027097 -0.241969 -0.136224
v 0.018664 -0.260451 -0.093833
v 0.009515 -0.271832 -0.047835
v 0.095671 -0.075675 -0.230970
v 0.093833 -0.114693 -0.226532
v 0.088388 -0.152211 -0.213388
v 0.079547 -0.186789 -0.192044
v 0.067650 -0.217096 -0.163320
v 0.053152 -0.241969 -0.128320
v 0.036612 -0.260451 -0.088388
v 0.018664 -0.271832 -0.045060
v 0.138893 -0.075675 -0.207867
v 0.136224 -0.114693 -0.203873
v 0.128320 -0.152211 -0.192044
v 0.115485 -0.186789 -0.172835
v 0.098212 -0.217096 -0.146984
v 0.077165 -0.241969 -0.115485
v 0.053152 -0.260451 -0.079547
v 0.027097 -0.271832 -0.040553
v 0.176777 -0.075675 -0.176777
v 0.173380 -0.114693 -0.173380
v 0.163320 -0.152211 -0.163320
v 0.146985 -0.186789 -0.146984
v 0.125000 -0.217096 -0.125000
v 0.098212 -0.241969 -0.098212
v 0.067650 -0.260451 -0.067650
v 0.034487 -0.271832 -0.034487
v 0.207867 -0.075675 -0.138893
v 0.203873 -0.114693 -0.136224
v 0.192044 -0.152211 -0.128320
v 0.172835 -0.186789 -0.115485
v 0.146985 -0.217096 -0.098212
v 0.115485 -0.241969 -0.077165
v 0.079547 -0.260451 -0.053152
v 0.040553 -0.271832 -0.027097
v 0.230970 -0.075675 -0.095671
v 0.226532 -0.114693 -0.093833
v 0.213388 -0.152211 -0.088388
v 0.192045 -0.186789 -0.079547
v 0.163320 -0.217096 -0.067650
v 0.128320 -0.241969 -0.053152
v 0.088388 -0.260451 -0.036612
v 0.045060 -0.271832 -0.018664
v 0.245196 -0.075675 -0.048773
v 0.240485 -0.114693 -0.047835
v 0.226532 -0.152211 -0.045060
v 0.203873 -0.186789 -0.040553
v 0.173380 -0.217096 -0.034487
v 0.136224 -0.241969 -0.027097
v 0.093833 -0.260451 -0.018664
v 0.047835 -0.271832 -0.009515
v 0.250000 -0.075675 0.000000
v 0.245196 -0.114693 0.000000
v 0.230970 -0.152211 0.000000
v 0.207867 -0.186789 0.000000
v 0.176777 -0.217096 0.000000
v 0.138893 -0.241969 0.000000
v 0.095671 -0.260451 0.000000
v 0.048773 -0.271832 0.000000
v 0.245196 -0.075675 0.048773
v 0.240485 -0.114693 0.047835
v 0.226532 -0.152211 0.045060
v 0.203873 -0.186789 0.040553
v 0.173380 -0.217096 0.034487
v 0.136224 -0.241969 0.027097
v 0.093833 -0.260451 0.018664
v 0.047835 -0.271832 0.009515
v 0.230970 -0.075675 0.095671
v 0.226532 -0.114693 0.093833
v 0.213388 -0.152211 0.088388
v 0.192044 -0.186789 0.079547
v 0.163320 -0.217096 0.067650
v 0.128320 -0.241969 0.053152
v 0.088388 -0.260451 0.036612
v 0.045060 -0.271832 0.018664
v 0.207867 -0.075675 0.138893
v 0.203873 -0.114693 0.136224
v 0.192044 -0.152211 0.128320
v 0.172835 -0.186789 0.115485
v 0.146985 -0.217096 0.098212
v 0.115485 -0.241969 0.077165
v 0.079547 -0.260451 0.053152
v 0.040553 -0.271832 0.027097
v 0.176777 -0.075675 0.176777
v 0.173380 -0.114693 0.173380
v 0.163320 -0.152211 0.163320
v 0.146984 -0.186789 0.146984
v 0.125000 -0.217096 0.125000
v 0.098212 -0.241969 0.098212
v 0.067650 -0.260451 0.067650
v 0.034487 -0.271832 0.034487
v 0.138893 -0.075675 0.207867
v 0.136224 -0.114693 0.203873
v 0.128320 -0.152211 0.192044
v 0.115485 -0.186789 0.172835
v 0.098212 -0.217096 0.146984
v 0.077165 -0.241969 0.115485
v 0.053152 -0.260451 0.079547
v 0.027097 -0.271832 0.040553
v 0.095671 -0.075675 0.230970
v 0.093833 -0.114693 0.226532
v 0.088388 -0.152211 0.213388
v 0.079547 -0.186789 0.192044
v 0.067650 -0.217096 0.163320
v 0.053152 -0.241969 0.128320
v 0.036612 -0.260451 0.088388
v 0.018664 -0.271832 0.045060
v 0.048773 -0.075675 0.245196
v 0.047835 -0.114693 0.240485
v 0.045060 -0.152211 0.226532
v 0.040553 -0.186789 0.203873
v 0.034487 -0.217096 0.173380
v 0.027097 -0.241969 0.136224
v 0.018664 -0.260451 0.093833
v 0.009515 -0.271832 0.047835
v -0.000000 -0.075675 0.250000
v -0.000000 -0.114693 0.245196
v 0.000000 -0.152211 0.230970
v -0.000000 -0.186789 0.207867
v 0.000000 -0.217096 0.176777
v -0.000000 -0.241969 0.138893
v -0.000000 -0.260451 0.095671
v 0.000000 -0.271832 0.048773
v -0.048773 -0.075675 0.245196
v -0.047835 -0.114693 0.240485
v -0.045060 -0.152211 0.226532
v -0.040553 -0.186789 0.203873
v -0.034487 -0.217096 0.173380
v -0.027097 -0.241969 0.136224
v -0.018664 -0.260451 0.093833
v -0.009515 -0.271832 0.047835
v -0.095671 -0.075675 0.230970
v -0.093833 -0.114693 0.226532
v -0.088388 -0.152211 0.213388
v -0.079547 -0.186789 0.192044
v -0.067650 -0.217096 0.163320
v -0.053152 -0.241969 0.128320
v -0.036612 -0.260451 0.088388
v -0.018664 -0.271832 0.045060
v -0.138893 -0.075675 0.207867
v -0.136224 -0.114693 0.203873
v -0.128320 -0.152211 0.192044
v -0.115485 -0.186789 0.172835
v -0.098212 -0.217096 0.146984
v -0.077165 -0.241969 0.115485
v -0.053152 -0.260451 0.079547
v -0.027097 -0.271832 0.040553
v -0.176777 -0.075675 0.176777
v -0.173380 -0.114693 0.173380
v -0.163320 -0.152211 0.163320
v -0.146984 -0.186789 0.146984
v -0.125000 -0.217096 0.125000
v -0.098212 -0.241969 0.098212
v -0.067650 -0.260451 0.067650
v -0.034487 -0.271832 0.034487
v 0.000000 -0.275675 0.000000
v -0.207867 -0.075675 0.138892
v -0.203873 -0.114693 0.136224
v -0.192044 -0.152211 0.128320
v -0.172835 -0.186789 0.115485
v -0.146984 -0.217096 0.098212
v -0.115485 -0.241969 0.077165
v -0.079547 -0.260451 0.053152
v -0.040553 -0.271832 0.027097
v -0.230970 -0.075675 0.095671
v -0.226532 -0.114693 0.093833
v -0.213388 -0.152211 0.088388
v -0.192044 -0.186789 0.079547
v -0.163320 -0.217096 0.067649
v -0.128320 -0.241969 0.053152
v -0.088388 -0.260451 0.036612
v -0.045060 -0.271832 0.018664
v -0.245196 -0.075675 0.048772
v -0.240485 -0.114693 0.047835
v -0.226532 -0.152211 0.045060
v -0.203873 -0.186789 0.040553
v -0.173380 -0.217096 0.034487
v -0.136224 -0.241969 0.027097
v -0.093833 -0.260451 0.018664
v -0.047835 -0.271832 0.009515
v -0.250000 -0.075675 -0.000000
v -0.245196 -0.114693 -0.000000
v -0.230970 -0.152211 -0.000000
v -0.207867 -0.186789 -0.000000
v -0.176777 -0.217096 -0.000000
v -0.138893 -0.241969 -0.000000
v -0.095671 -0.260451 -0.000000
v -0.048773 -0.271832 -0.000000
v -0.245196 -0.075675 -0.048773
v -0.240485 -0.114693 -0.047835
v -0.226532 -0.152211 -0.045060
v -0.203873 -0.186789 -0.040553
v -0.173380 -0.217096 -0.034487
v -0.136224 -0.241969 -0.027097
v -0.093833 -0.260451 -0.018664
v -0.047835 -0.271832 -0.009515
v -0.230970 -0.075675 -0.095671
v -0.226532 -0.114693 -0.093833
v -0.213388 -0.152211 -0.088388
v -0.192044 -0.186789 -0.079547
v -0.163320 -0.217096 -0.067650
v -0.128320 -0.241969 -0.053152
v -0.088388 -0.260451 -0.036612
v -0.045060 -0.271832 -0.018664
v -0.207867 -0.075675 -0.138893
v -0.203873 -0.114693 -0.136224
v -0.192044 -0.152211 -0.128320
v -0.172835 -0.186789 -0.115485
v -0.146984 -0.217096 -0.098212
v -0.115485 -0.241969 -0.077165
v -0.079547 -0.260451 -0.053152
v -0.040553 -0.271832 -0.027097
v -0.176777 -0.075675 -0.176777
v -0.173380 -0.114693 -0.173380
v -0.163320 -0.152211 -0.163320
v -0.146984 -0.186789 -0.146984
v -0.125000 -0.217096 -0.125000
v -0.098212 -0.241969 -0.098212
v -0.067650 -0.260451 -0.067650
v -0.034487 -0.271832 -0.034487
v -0.138892 -0.075675 -0.207867
v -0.136224 -0.114693 -0.203873
v -0.128320 -0.152211 -0.192044
v -0.115485 -0.186789 -0.172835
v -0.098212 -0.217096 -0.146984
v -0.077164 -0.241969 -0.115485
v -0.053152 -0.260451 -0.079547
v -0.027097 -0.271832 -0.040553
v -0.095671 -0.075675 -0.230970
v -0.093832 -0.114693 -0.226532
v -0.088388 -0.152211 -0.213388
v -0.079547 -0.186789 -0.192044
v -0.067650 -0.217096 -0.163320
v -0.053152 -0.241969 -0.128320
v -0.036612 -0.260451 -0.088388
v -0.018664 -0.271832 -0.045060
v -0.048772 -0.075675 -0.245196
v -0.047835 -0.114693 -0.240485
v -0.045060 -0.152211 -0.226532
v -0.040553 -0.186789 -0.203873
v -0.034487 -0.217096 -0.173380
v -0.027097 -0.241969 -0.136224
v -0.018664 -0.260451 -0.093833
v -0.009515 -0.271832 -0.047835
v 0.000000 -0.152211 -0.230970
v 0.000000 -0.217096 -0.176777
v 0.000000 -0.241969 -0.138892
v 0.000000 -0.260451 -0.095671
v 0.000000 -0.271832 -0.048773
v 0.705567 -0.067882 0.705567
v 0.705567 0.069998 0.705567
v 0.740950 -0.067882 0.676530
v 0.740950 0.069998 0.676530
v 0.781317 -0.067882 0.654953
v 0.781317 0.069998 0.654953
v 0.825119 -0.067882 0.641666
v 0.825119 0.069998 0.641666
v 0.870670 -0.067882 0.637179
v 0.870670 0.069998 0.637179
v 0.916222 -0.067882 0.641666
v 0.916222 0.069998 0.641666
v 0.960024 -0.067882 0.654953
v 0.960024 0.069998 0.654953
v 1.000391 -0.067882 0.676530
v 1.000391 0.069998 0.676530
v 1.035774 -0.067882 0.705567
v 1.035774 0.069998 0.705567
v 1.064811 -0.067882 0.740950
v 1.064811 0.069998 0.740950
v 1.086388 -0.067882 0.781317
v 1.086388 0.069998 0.781317
v 1.099675 -0.067882 0.825119
v 1.099675 0.069998 0.825119
v 1.104162 -0.067882 0.870670
v 1.104162 0.069998 0.870670
v 1.099675 -0.067882 0.916222
v 1.099675 0.069998 0.916222
v 1.086388 -0.067882 0.960024
v 1.086388 0.069998 0.960024
v 1.064811 -0.067882 1.000391
v 1.064811 0.069998 1.000391
v 1.035774 -0.067882 1.035774
v 1.035774 0.069998 1.035774
v 1.000391 -0.067882 1.064811
v 1.000391 0.069998 1.064811
v 0.960024 -0.067882 1.086388
v 0.960024 0.069998 1.086388
v 0.916222 -0.067882 1.099675
v 0.916222 0.069998 1.099675
v 0.870670 -0.067882 1.104162
v 0.870670 0.069998 1.104162
v 0.825119 -0.067882 1.099675
v 0.825119 0.069998 1.099675
v 0.781317 -0.067882 1.086388
v 0.781317 0.069998 1.086388
v 0.740950 -0.067882 1.064811
v 0.740950 0.069998 1.064811
v 0.705567 -0.067882 1.035774
v 0.705567 0.069998 1.035774
v 0.676530 -0.067882 1.000391
v 0.676530 0.069998 1.000391
v 0.654953 -0.067882 0.960024
v 0.654953 0.069998 0.960024
v 0.641666 -0.067882 0.916222
v 0.641666 0.069998 0.916222
v 0.637179 -0.067882 0.870670
v 0.637179 0.069998 0.870670
v 0.641666 -0.067882 0.825119
v 0.641666 0.069998 0.825119
v 0.654953 -0.067882 0.781317
v 0.654953 0.069998 0.781317
v 0.676530 -0.067882 0.740950
v 0.676530 0.069998 0.740950
v 0.000000 0.180208 -0.378958
v 0.000000 0.302293 -0.378958
v 0.073931 0.180208 -0.371676
v 0.073931 0.302293 -0.371676
v 0.145021 0.180208 -0.350112
v 0.145021 0.302293 -0.350112
v 0.210538 0.180208 -0.315092
v 0.210538 0.302293 -0.315092
v 0.267964 0.180208 -0.267964
v 0.267964 0.302293 -0.267964
v 0.315092 0.180208 -0.210538
v 0.315092 0.302293 -0.210538
v 0.350112 0.180208 -0.145021
v 0.350112 0.302293 -0.145021
v 0.371677 0.180208 -0.073931
v 0.371677 0.302293 -0.073931
v 0.378958 0.180208 0.000000
v 0.378958 0.302293 0.000000
v 0.371676 0.180208 0.073931
v 0.371676 0.302293 0.073931
v 0.350112 0.180208 0.145021
v 0.350112 0.302293 0.145021
v 0.315092 0.180208 0.210538
v 0.315092 0.302293 0.210538
v 0.267964 0.180208 0.267964
v 0.267964 0.302293 0.267964
v 0.210538 0.180208 0.315092
v 0.210538 0.302293 0.315092
v 0.145021 0.180208 0.350112
v 0.145021 0.302293 0.350112
v 0.073931 0.180208 0.371676
v 0.073931 0.302293 0.371676
v 0.000000 0.180208 0.378958
v 0.000000 0.302293 0.378958
v -0.073931 0.180208 0.371677
v -0.073931 0.302293 0.371677
v -0.145021 0.180208 0.350112
v -0.145021 0.302293 0.350112
v -0.210538 0.180208 0.315092
v -0.210538 0.302293 0.315092
v -0.267964 0.180208 0.267964
v -0.267964 0.302293 0.267964
v -0.315092 0.180208 0.210538
v -0.315092 0.302293 0.210538
v -0.350111 0.180208 0.145021
v -0.350111 0.302293 0.145021
v -0.371676 0.180208 0.073931
v -0.371676 0.302293 0.073931
v -0.378958 0.180208 0.000000
v -0.378958 0.302293 0.000000
v -0.371676 0.180208 -0.073931
v -0.371676 0.302293 -0.073931
v -0.350111 0.180208 -0.145021
v -0.350111 0.302293 -0.145021
v -0.315092 0.180208 -0.210538
v -0.315092 0.302293 -0.210538
v -0.267964 0.180208 -0.267964
v -0.267964 0.302293 -0.267964
v -0.210538 0.180208 -0.315092
v -0.210538 0.302293 -0.315092
v -0.145021 0.180208 -0.350112
v -0.145021 0.302293 -0.350112
v -0.073931 0.180208 -0.371676
v -0.073931 0.302293 -0.371676
v -1.055094 -0.067882 -1.055094
v -1.055094 0.069998 -1.055094
v -1.019712 -0.067882 -1.084132
v -1.019712 0.069998 -1.084132
v -0.979344 -0.067882 -1.105708
v -0.979344 0.069998 -1.105708
v -0.935543 -0.067882 -1.118996
v -0.935543 0.069998 -1.118996
v -0.889991 -0.067882 -1.123482
v -0.889991 0.069998 -1.123482
v -0.844439 -0.067882 -1.118996
v -0.844439 0.069998 -1.118996
v -0.800638 -0.067882 -1.105708
v -0.800638 0.069998 -1.105708
v -0.760270 -0.067882 -1.084132
v -0.760270 0.069998 -1.084132
v -0.724888 -0.067882 -1.055094
v -0.724888 0.069998 -1.055094
v -0.695850 -0.067882 -1.019711
v -0.695850 0.069998 -1.019711
v -0.674273 -0.067882 -0.979344
v -0.674273 0.069998 -0.979344
v -0.660986 -0.067882 -0.935542
v -0.660986 0.069998 -0.935542
v -0.656500 -0.067882 -0.889991
v -0.656500 0.069998 -0.889991
v -0.660986 -0.067882 -0.844439
v -0.660986 0.069998 -0.844439
v -0.674273 -0.067882 -0.800638
v -0.674273 0.069998 -0.800638
v -0.695850 -0.067882 -0.760270
v -0.695850 0.069998 -0.760270
v -0.724887 -0.067882 -0.724887
v -0.724887 0.069998 -0.724887
v -0.760270 -0.067882 -0.695850
v -0.760270 0.069998 -0.695850
v -0.800638 -0.067882 -0.674273
v -0.800638 0.069998 -0.674273
v -0.844439 -0.067882 -0.660986
v -0.844439 0.069998 -0.660986
v -0.889991 -0.067882 -0.656500
v -0.889991 0.069998 -0.656500
v -0.935543 -0.067882 -0.660986
v -0.935543 0.069998 -0.660986
v -0.979344 -0.067882 -0.674273
v -0.979344 0.069998 -0.674273
v -1.019712 -0.067882 -0.695850
v -1.019712 0.069998 -0.695850
v -1.055094 -0.067882 -0.724888
v -1.055094 0.069998 -0.724888
v -1.084132 -0.067882 -0.760270
v -1.084132 0.069998 -0.760270
v -1.105708 -0.067882 -0.800638
v -1.105708 0.069998 -0.800638
v -1.118996 -0.067882 -0.844439
v -1.118996 0.069998 -0.844439
v -1.123482 -0.067882 -0.889991
v -1.123482 0.069998 -0.889991
v -1.118995 -0.067882 -0.935543
v -1.118995 0.069998 -0.935543
v -1.105708 -0.067882 -0.979344
v -1.105708 0.069998 -0.979344
v -1.084132 -0.067882 -1.019712
v -1.084132 0.069998 -1.019712
v 0.714415 -0.067882 -1.058628
v 0.714415 0.069998 -1.058628
v 0.749798 -0.067882 -1.087666
v 0.749798 0.069998 -1.087666
v 0.790165 -0.067882 -1.109243
v 0.790165 0.069998 -1.109243
v 0.833966 -0.067882 -1.122530
v 0.833966 0.069998 -1.122530
v 0.879518 -0.067882 -1.127016
v 0.879518 0.069998 -1.127016
v 0.925070 -0.067882 -1.122530
v 0.925070 0.069998 -1.122530
v 0.968872 -0.067882 -1.109243
v 0.968872 0.069998 -1.109243
v 1.009239 -0.067882 -1.087666
v 1.009239 0.069998 -1.087666
v 1.044621 -0.067882 -1.058628
v 1.044621 0.069998 -1.058628
v 1.073659 -0.067882 -1.023246
v 1.073659 0.069998 -1.023246
v 1.095236 -0.067882 -0.982878
v 1.095236 0.069998 -0.982878
v 1.108523 -0.067882 -0.939077
v 1.108523 0.069998 -0.939077
v 1.113009 -0.067882 -0.893525
v 1.113009 0.069998 -0.893525
v 1.108523 -0.067882 -0.847973
v 1.108523 0.069998 -0.847973
v 1.095236 -0.067882 -0.804172
v 1.095236 0.069998 -0.804172
v 1.073659 -0.067882 -0.763804
v 1.073659 0.069998 -0.763804
v 1.044621 -0.067882 -0.728422
v 1.044621 0.069998 -0.728422
v 1.009239 -0.067882 -0.699384
v 1.009239 0.069998 -0.699384
v 0.968872 -0.067882 -0.677807
v 0.968872 0.069998 -0.677807
v 0.925070 -0.067882 -0.664520
v 0.925070 0.069998 -0.664520
v 0.879518 -0.067882 -0.660034
v 0.879518 0.069998 -0.660034
v 0.833966 -0.067882 -0.664520
v 0.833966 0.069998 -0.664520
v 0.790165 -0.067882 -0.677807
v 0.790165 0.069998 -0.677807
v 0.749798 -0.067882 -0.699384
v 0.749798 0.069998 -0.699384
v 0.714415 -0.067882 -0.728422
v 0.714415 0.069998 -0.728422
v 0.685377 -0.067882 -0.763804
v 0.685377 0.069998 -0.763804
v 0.663801 -0.067882 -0.804172
v 0.663801 0.069998 -0.804172
v 0.650514 -0.067882 -0.847973
v 0.650514 0.069998 -0.847973
v 0.646027 -0.067882 -0.893525
v 0.646027 0.069998 -0.893525
v 0.650514 -0.067882 -0.939077
v 0.650514 0.069998 -0.939077
v 0.663801 -0.067882 -0.982878
v 0.663801 0.069998 -0.982878
v 0.685377 -0.067882 -1.023246
v 0.685377 0.069998 -1.023246
v -1.059633 -0.067882 0.715420
v -1.059633 0.069998 0.715420
v -1.024251 -0.067882 0.686382
v -1.024251 0.069998 0.686382
v -0.983883 -0.067882 0.664806
v -0.983883 0.069998 0.664806
v -0.940082 -0.067882 0.651519
v -0.940082 0.069998 0.651519
v -0.894530 -0.067882 0.647032
v -0.894530 0.069998 0.647032
v -0.848978 -0.067882 0.651519
v -0.848978 0.069998 0.651519
v -0.805177 -0.067882 0.664806
v -0.805177 0.069998 0.664806
v -0.764809 -0.067882 0.686383
v -0.764809 0.069998 0.686383
v -0.729427 -0.067882 0.715420
v -0.729427 0.069998 0.715420
v -0.700389 -0.067882 0.750803
v -0.700389 0.069998 0.750803
v -0.678812 -0.067882 0.791170
v -0.678812 0.069998 0.791170
v -0.665525 -0.067882 0.834972
v -0.665525 0.069998 0.834972
v -0.661039 -0.067882 0.880523
v -0.661039 0.069998 0.880523
v -0.665525 -0.067882 0.926075
v -0.665525 0.069998 0.926075
v -0.678812 -0.067882 0.969877
v -0.678812 0.069998 0.969877
v -0.700389 -0.067882 1.010244
v -0.700389 0.069998 1.010244
v -0.729427 -0.067882 1.045627
v -0.729427 0.069998 1.045627
v -0.764809 -0.067882 1.074664
v -0.764809 0.069998 1.074664
v -0.805177 -0.067882 1.096241
v -0.805177 0.069998 1.096241
v -0.848978 -0.067882 1.109528
v -0.848978 0.069998 1.109528
v -0.894530 -0.067882 1.114015
v -0.894530 0.069998 1.114015
v -0.940082 -0.067882 1.109528
v -0.940082 0.069998 1.109528
v -0.983883 -0.067882 1.096241
v -0.983883 0.069998 1.096241
v -1.024251 -0.067882 1.074664
v -1.024251 0.069998 1.074664
v -1.059633 -0.067882 1.045627
v -1.059633 0.069998 1.045627
v -1.088670 -0.067882 1.010244
v -1.088670 0.069998 1.010244
v -1.110247 -0.067882 0.969876
v -1.110247 0.069998 0.969876
v -1.123535 -0.067882 0.926075
v -1.123535 0.069998 0.926075
v -1.128021 -0.067882 0.880523
v -1.128021 0.069998 0.880523
v -1.123535 -0.067882 0.834971
v -1.123535 0.069998 0.834971
v -1.110248 -0.067882 0.791170
v -1.110248 0.069998 0.791170
v -1.088670 -0.067882 0.750803
v -1.088670 0.069998 0.750803
v -0.050000 0.355179 -0.069030
v -0.050000 0.455179 -0.069030
v -0.050000 0.355179 -0.219030
v -0.050000 0.455179 -0.219030
v 0.050000 0.355179 -0.069030
v 0.050000 0.455179 -0.069030
v 0.050000 0.355179 -0.219030
v 0.050000 0.455179 -0.219030
v -0.035000 0.370179 -0.192399
v -0.035000 0.440179 -0.192399
v -0.035000 0.370179 -0.492399
v -0.035000 0.440179 -0.492399
v 0.035000 0.370179 -0.192399
v 0.035000 0.440179 -0.192399
v 0.035000 0.370179 -0.492399
v 0.035000 0.440179 -0.492399
vn -0.0000 1.0000 -0.0000
vn 0.7071 -0.0000 0.7071
vn -0.7071 -0.0000 0.7071
vn -0.0000 -1.0000 -0.0000
vn 0.7071 -0.0000 -0.7071
vn -0.7071 -0.0000 -0.7071
vn -1.0000 -0.0000 -0.0000
vn -0.0000 -0.0000 -1.0000
vn 1.0000 -0.0000 -0.0000
vn -0.0000 -0.0000 1.0000
vn 0.1951 -0.0000 -0.9808
vn 0.3827 -0.0000 -0.9239
vn 0.5556 -0.0000 -0.8315
vn 0.8315 -0.0000 -0.5556
vn 0.9239 -0.0000 -0.3827
vn 0.9808 -0.0000 -0.1951
vn 0.9808 -0.0000 0.1951
vn 0.9239 -0.0000 0.3827
vn 0.8315 -0.0000 0.5556
vn 0.5556 -0.0000 0.8315
vn 0.3827 -0.0000 0.9239
vn 0.1951 -0.0000 0.9808
vn -0.1951 -0.0000 0.9808
vn -0.3827 -0.0000 0.9239
vn -0.5556 -0.0000 0.8315
vn -0.8315 -0.0000 0.5556
vn -0.9239 -0.0000 0.3827
vn -0.9808 -0.0000 0.1951
vn -0.9808 -0.0000 -0.1951
vn -0.9239 -0.0000 -0.3827
vn -0.8315 -0.0000 -0.5556
vn -0.5556 -0.0000 -0.8315
vn -0.3827 -0.0000 -0.9239
vn -0.1951 -0.0000 -0.9808
vn -0.0000 -0.9867 -0.1625
vn -0.0000 -0.9473 -0.3202
vn 0.0625 -0.9473 -0.3141
vn 0.0317 -0.9867 -0.1594
vn -0.0000 -0.2384 -0.9712
vn -0.0000 -0.1222 -0.9925
vn 0.1936 -0.1222 -0.9734
vn 0.1895 -0.2384 -0.9525
vn -0.0000 -0.4551 -0.8904
vn 0.1737 -0.4551 -0.8733
vn -0.0000 -0.6361 -0.7716
vn 0.1505 -0.6361 -0.7568
vn -0.0000 -0.7767 -0.6299
vn 0.1229 -0.7767 -0.6178
vn -0.0000 -0.8788 -0.4771
vn 0.0931 -0.8788 -0.4679
vn 0.2411 -0.7767 -0.5820
vn 0.1826 -0.8788 -0.4408
vn 0.1225 -0.9473 -0.2959
vn 0.0622 -0.9867 -0.1502
vn 0.3798 -0.1222 -0.9170
vn 0.3717 -0.2384 -0.8972
vn 0.3407 -0.4551 -0.8226
vn 0.2953 -0.6361 -0.7129
vn 0.5396 -0.2384 -0.8075
vn 0.4947 -0.4551 -0.7404
vn 0.4287 -0.6361 -0.6416
vn 0.3500 -0.7767 -0.5237
vn 0.2651 -0.8788 -0.3967
vn 0.1779 -0.9473 -0.2663
vn 0.0903 -0.9867 -0.1351
vn 0.5514 -0.1222 -0.8252
vn 0.3374 -0.8788 -0.3374
vn 0.2264 -0.9473 -0.2264
vn 0.1149 -0.9867 -0.1149
vn 0.7018 -0.1222 -0.7018
vn 0.6867 -0.2384 -0.6867
vn 0.6296 -0.4551 -0.6296
vn 0.5456 -0.6361 -0.5456
vn 0.4454 -0.7767 -0.4454
vn 0.7404 -0.4551 -0.4947
vn 0.6416 -0.6361 -0.4287
vn 0.5237 -0.7767 -0.3500
vn 0.3967 -0.8788 -0.2651
vn 0.2663 -0.9473 -0.1779
vn 0.1351 -0.9867 -0.0903
vn 0.8252 -0.1222 -0.5514
vn 0.8075 -0.2384 -0.5396
vn 0.2959 -0.9473 -0.1225
vn 0.1502 -0.9867 -0.0622
vn 0.9170 -0.1222 -0.3798
vn 0.8972 -0.2384 -0.3717
vn 0.8226 -0.4551 -0.3407
vn 0.7129 -0.6361 -0.2953
vn 0.5820 -0.7767 -0.2411
vn 0.4408 -0.8788 -0.1826
vn 0.8733 -0.4551 -0.1737
vn 0.7568 -0.6361 -0.1505
vn 0.6178 -0.7767 -0.1229
vn 0.4679 -0.8788 -0.0931
vn 0.3141 -0.9473 -0.0625
vn 0.1594 -0.9867 -0.0317
vn 0.9734 -0.1222 -0.1936
vn 0.9525 -0.2384 -0.1895
vn 0.3202 -0.9473 -0.0000
vn 0.1625 -0.9867 -0.0000
vn 0.9925 -0.1222 -0.0000
vn 0.9712 -0.2384 -0.0000
vn 0.8904 -0.4551 -0.0000
vn 0.7716 -0.6361 -0.0000
vn 0.6299 -0.7767 -0.0000
vn 0.4771 -0.8788 -0.0000
vn 0.7568 -0.6361 0.1505
vn 0.6178 -0.7767 0.1229
vn 0.4679 -0.8788 0.0931
vn 0.3141 -0.9473 0.0625
vn 0.1594 -0.9867 0.0317
vn 0.9734 -0.1222 0.1936
vn 0.9525 -0.2384 0.1895
vn 0.8733 -0.4551 0.1737
vn 0.1502 -0.9867 0.0622
vn 0.9170 -0.1222 0.3798
vn 0.8972 -0.2384 0.3717
vn 0.8226 -0.4551 0.3407
vn 0.7129 -0.6361 0.2953
vn 0.5820 -0.7767 0.2411
vn 0.4408 -0.8788 0.1826
vn 0.2959 -0.9473 0.1225
vn 0.6416 -0.6361 0.4287
vn 0.5237 -0.7767 0.3500
vn 0.3967 -0.8788 0.2651
vn 0.2663 -0.9473 0.1779
vn 0.1351 -0.9867 0.0903
vn 0.8252 -0.1222 0.5514
vn 0.8075 -0.2384 0.5396
vn 0.7404 -0.4551 0.4947
vn 0.1149 -0.9867 0.1149
vn 0.7018 -0.1222 0.7018
vn 0.6867 -0.2384 0.6867
vn 0.6296 -0.4551 0.6296
vn 0.5456 -0.6361 0.5456
vn 0.4454 -0.7767 0.4454
vn 0.3374 -0.8788 0.3374
vn 0.2264 -0.9473 0.2264
vn 0.3500 -0.7767 0.5237
vn 0.2651 -0.8788 0.3967
vn 0.1779 -0.9473 0.2663
vn 0.0903 -0.9867 0.1351
vn 0.5514 -0.1222 0.8252
vn 0.5396 -0.2384 0.8075
vn 0.4947 -0.4551 0.7404
vn 0.4287 -0.6361 0.6416
vn 0.3717 -0.2384 0.8972
vn 0.3407 -0.4551 0.8226
vn 0.2953 -0.6361 0.7129
vn 0.2411 -0.7767 0.5820
vn 0.1826 -0.8788 0.4408
vn 0.1225 -0.9473 0.2959
vn 0.0622 -0.9867 0.1502
vn 0.3798 -0.1222 0.9170
vn 0.0931 -0.8788 0.4679
vn 0.0625 -0.9473 0.3141
vn 0.0317 -0.9867 0.1594
vn 0.1936 -0.1222 0.9734
vn 0.1895 -0.2384 0.9525
vn 0.1737 -0.4551 0.8733
vn 0.1505 -0.6361 0.7568
vn 0.1229 -0.7767 0.6178
vn -0.0000 -0.2384 0.9712
vn -0.0000 -0.4551 0.8904
vn -0.0000 -0.6361 0.7716
vn -0.0000 -0.7767 0.6299
vn -0.0000 -0.8788 0.4771
vn -0.0000 -0.9473 0.3202
vn -0.0000 -0.9867 0.1625
vn -0.0000 -0.1222 0.9925
vn -0.0931 -0.8788 0.4679
vn -0.0625 -0.9473 0.3141
vn -0.0317 -0.9867 0.1594
vn -0.1936 -0.1222 0.9734
vn -0.1895 -0.2384 0.9525
vn -0.1737 -0.4551 0.8733
vn -0.1505 -0.6361 0.7568
vn -0.1229 -0.7767 0.6178
vn -0.3407 -0.4551 0.8226
vn -0.2953 -0.6361 0.7129
vn -0.2411 -0.7767 0.5820
vn -0.1826 -0.8788 0.4408
vn -0.1225 -0.9473 0.2959
vn -0.0622 -0.9867 0.1502
vn -0.3798 -0.1222 0.9170
vn -0.3717 -0.2384 0.8972
vn -0.1779 -0.9473 0.2663
vn -0.0903 -0.9867 0.1351
vn -0.5514 -0.1222 0.8252
vn -0.5396 -0.2384 0.8075
vn -0.4947 -0.4551 0.7404
vn -0.4287 -0.6361 0.6416
vn -0.3500 -0.7767 0.5237
vn -0.2651 -0.8788 0.3967
vn -0.6296 -0.4551 0.6296
vn -0.5456 -0.6361 0.5456
vn -0.4454 -0.7767 0.4454
vn -0.3374 -0.8788 0.3374
vn -0.2264 -0.9473 0.2264
vn -0.1149 -0.9867 0.1149
vn -0.7018 -0.1222 0.7018
vn -0.6867 -0.2384 0.6867
vn -0.2663 -0.9473 0.1779
vn -0.1351 -0.9867 0.0903
vn -0.8252 -0.1222 0.5514
vn -0.8075 -0.2384 0.5396
vn -0.7404 -0.4551 0.4947
vn -0.6416 -0.6361 0.4287
vn -0.5237 -0.7767 0.3500
vn -0.3967 -0.8788 0.2651
vn -0.7129 -0.6361 0.2953
vn -0.5820 -0.7767 0.2411
vn -0.4408 -0.8788 0.1826
vn -0.2959 -0.9473 0.1225
vn -0.1502 -0.9867 0.0622
vn -0.9170 -0.1222 0.3798
vn -0.8972 -0.2384 0.3717
vn -0.8226 -0.4551 0.3407
vn -0.1594 -0.9867 0.0317
vn -0.9734 -0.1222 0.1936
vn -0.9525 -0.2384 0.1895
vn -0.8733 -0.4551 0.1737
vn -0.7568 -0.6361 0.1505
vn -0.6178 -0.7767 0.1229
vn -0.4679 -0.8788 0.0931
vn -0.3141 -0.9473 0.0625
vn -0.6299 -0.7767 -0.0000
vn -0.4771 -0.8788 -0.0000
vn -0.3202 -0.9473 -0.0000
vn -0.1625 -0.9867 -0.0000
vn -0.9925 -0.1222 -0.0000
vn -0.9712 -0.2384 -0.0000
vn -0.8904 -0.4551 -0.0000
vn -0.7716 -0.6361 -0.0000
vn -0.9734 -0.1222 -0.1936
vn -0.9525 -0.2384 -0.1895
vn -0.8733 -0.4551 -0.1737
vn -0.7568 -0.6361 -0.1505
vn -0.6178 -0.7767 -0.1229
vn -0.4679 -0.8788 -0.0931
vn -0.3141 -0.9473 -0.0625
vn -0.1594 -0.9867 -0.0317
vn -0.5820 -0.7767 -0.2411
vn -0.4408 -0.8788 -0.1826
vn -0.2959 -0.9473 -0.1225
vn -0.1502 -0.9867 -0.0622
vn -0.9170 -0.1222 -0.3798
vn -0.8972 -0.2384 -0.3717
vn -0.8226 -0.4551 -0.3407
vn -0.7129 -0.6361 -0.2953
vn -0.8075 -0.2384 -0.5396
vn -0.7404 -0.4551 -0.4947
vn -0.6416 -0.6361 -0.4287
vn -0.5237 -0.7767 -0.3500
vn -0.3967 -0.8788 -0.2651
vn -0.2663 -0.9473 -0.1779
vn -0.1351 -0.9867 -0.0903
vn -0.8252 -0.1222 -0.5514
vn -0.3374 -0.8788 -0.3374
vn -0.2264 -0.9473 -0.2264
vn -0.1149 -0.9867 -0.1149
vn -0.7018 -0.1222 -0.7018
vn -0.6867 -0.2384 -0.6867
vn -0.6296 -0.4551 -0.6296
vn -0.5456 -0.6361 -0.5456
vn -0.4454 -0.7767 -0.4454
vn -0.5396 -0.2384 -0.8075
vn -0.4947 -0.4551 -0.7404
vn -0.4287 -0.6361 -0.6416
vn -0.3500 -0.7767 -0.5237
vn -0.2651 -0.8788 -0.3967
vn -0.1779 -0.9473 -0.2663
vn -0.0903 -0.9867 -0.1351
vn -0.5514 -0.1222 -0.8252
vn -0.1826 -0.8788 -0.4408
vn -0.1225 -0.9473 -0.2959
vn -0.0622 -0.9867 -0.1502
vn -0.3798 -0.1222 -0.9170
vn -0.3717 -0.2384 -0.8972
vn -0.3407 -0.4551 -0.8226
vn -0.2953 -0.6361 -0.7129
vn -0.2411 -0.7767 -0.5820
vn -0.1737 -0.4551 -0.8733
vn -0.1505 -0.6361 -0.7568
vn -0.1229 -0.7767 -0.6178
vn -0.0931 -0.8788 -0.4679
vn -0.0625 -0.9473 -0.3141
vn -0.0317 -0.9867 -0.1594
vn -0.1936 -0.1222 -0.9734
vn -0.1895 -0.2384 -0.9525
vt 0.625000 0.500000
vt 0.875000 0.500000
vt 0.875000 0.750000
vt 0.625000 0.750000
vt 0.375000 0.750000
vt 0.625000 1.000000
vt 0.375000 1.000000
vt 0.375000 0.000000
vt 0.625000 0.000000
vt 0.625000 0.250000
vt 0.375000 0.250000
vt 0.125000 0.500000
vt 0.375000 0.500000
vt 0.125000 0.750000
vt 0.000000 0.000000
s 0
usemtl マテリアル.001
f 1/1/1 5/2/1 7/3/1 3/4/1
f 4/5/2 3/4/2 7/6/2 8/7/2
f 8/8/3 7/9/3 5/10/3 6/11/3
f 6/12/4 2/13/4 4/5/4 8/14/4
f 2/13/5 1/1/5 3/4/5 4/5/5
f 6/11/6 5/10/6 1/1/6 2/13/6
f 9/1/1 13/2/1 15/3/1 11/4/1
f 12/5/3 11/4/3 15/6/3 16/7/3
f 16/8/6 15/9/6 13/10/6 14/11/6
f 14/12/4 10/13/4 12/5/4 16/14/4
f 10/13/2 9/1/2 11/4/2 12/5/2
f 14/11/5 13/10/5 9/1/5 10/13/5
f 17/15/7 18/15/7 20/15/7 19/15/7
f 19/15/8 20/15/8 24/15/8 23/15/8
f 23/15/9 24/15/9 22/15/9 21/15/9
f 21/15/10 22/15/10 18/15/10 17/15/10
f 19/15/4 23/15/4 21/15/4 17/15/4
f 24/15/1 20/15/1 18/15/1 22/15/1
s 1
f 25/15/8 26/15/8 28/15/11 27/15/11
f 27/15/11 28/15/11 30/15/12 29/15/12
f 29/15/12 30/15/12 32/15/13 31/15/13
f 31/15/13 32/15/13 34/15/5 33/15/5
f 33/15/5 34/15/5 36/15/14 35/15/14
f 35/15/14 36/15/14 38/15/15 37/15/15
f 37/15/15 38/15/15 40/15/16 39/15/16
f 39/15/16 40/15/16 42/15/9 41/15/9
f 41/15/9 42/15/9 44/15/17 43/15/17
f 43/15/17 44/15/17 46/15/18 45/15/18
f 45/15/18 46/15/18 48/15/19 47/15/19
f 47/15/19 48/15/19 50/15/2 49/15/2
f 49/15/2 50/15/2 52/15/20 51/15/20
f 51/15/20 52/15/20 54/15/21 53/15/21
f 53/15/21 54/15/21 56/15/22 55/15/22
f 55/15/22 56/15/22 58/15/10 57/15/10
f 57/15/10 58/15/10 60/15/23 59/15/23
f 59/15/23 60/15/23 62/15/24 61/15/24
f 61/15/24 62/15/24 64/15/25 63/15/25
f 63/15/25 64/15/25 66/15/3 65/15/3
f 65/15/3 66/15/3 68/15/26 67/15/26
f 67/15/26 68/15/26 70/15/27 69/15/27
f 69/15/27 70/15/27 72/15/28 71/15/28
f 71/15/28 72/15/28 74/15/7 73/15/7
f 73/15/7 74/15/7 76/15/29 75/15/29
f 75/15/29 76/15/29 78/15/30 77/15/30
f 77/15/30 78/15/30 80/15/31 79/15/31
f 79/15/31 80/15/31 82/15/6 81/15/6
f 81/15/6 82/15/6 84/15/32 83/15/32
f 83/15/32 84/15/32 86/15/33 85/15/33
s 0
f 28/15/1 26/15/1 88/15/1 86/15/1 84/15/1 82/15/1 80/15/1 78/15/1 76/15/1 74/15/1 72/15/1 70/15/1 68/15/1 66/15/1 64/15/1 62/15/1 60/15/1 58/15/1 56/15/1 54/15/1 52/15/1 50/15/1 48/15/1 46/15/1 44/15/1 42/15/1 40/15/1 38/15/1 36/15/1 34/15/1 32/15/1 30/15/1
s 1
f 85/15/33 86/15/33 88/15/34 87/15/34
f 87/15/34 88/15/34 26/15/8 25/15/8
s 0
f 25/15/4 27/15/4 29/15/4 31/15/4 33/15/4 35/15/4 37/15/4 39/15/4 41/15/4 43/15/4 45/15/4 47/15/4 49/15/4 51/15/4 53/15/4 55/15/4 57/15/4 59/15/4 61/15/4 63/15/4 65/15/4 67/15/4 69/15/4 71/15/4 73/15/4 75/15/4 77/15/4 79/15/4 81/15/4 83/15/4 85/15/4 87/15/4
s 1
f 89/15/6 90/15/6 92/15/32 91/15/32
f 91/15/32 92/15/32 94/15/33 93/15/33
f 93/15/33 94/15/33 96/15/34 95/15/34
f 95/15/34 96/15/34 98/15/8 97/15/8
f 97/15/8 98/15/8 100/15/11 99/15/11
f 99/15/11 100/15/11 102/15/12 101/15/12
f 101/15/12 102/15/12 104/15/13 103/15/13
f 103/15/13 104/15/13 106/15/5 105/15/5
f 105/15/5 106/15/5 108/15/14 107/15/14
f 107/15/14 108/15/14 110/15/15 109/15/15
f 109/15/15 110/15/15 112/15/16 111/15/16
f 111/15/16 112/15/16 114/15/9 113/15/9
f 113/15/9 114/15/9 116/15/17 115/15/17
f 115/15/17 116/15/17 118/15/18 117/15/18
f 117/15/18 118/15/18 120/15/19 119/15/19
f 119/15/19 120/15/19 122/15/2 121/15/2
f 121/15/2 122/15/2 124/15/20 123/15/20
f 123/15/20 124/15/20 126/15/21 125/15/21
f 125/15/21 126/15/21 128/15/22 127/15/22
f 127/15/22 128/15/22 130/15/10 129/15/10
f 129/15/10 130/15/10 132/15/23 131/15/23
f 131/15/23 132/15/23 134/15/24 133/15/24
f 133/15/24 134/15/24 136/15/25 135/15/25
f 135/15/25 136/15/25 138/15/3 137/15/3
f 137/15/3 138/15/3 140/15/26 139/15/26
f 139/15/26 140/15/26 142/15/27 141/15/27
f 141/15/27 142/15/27 144/15/28 143/15/28
f 143/15/28 144/15/28 146/15/7 145/15/7
f 145/15/7 146/15/7 148/15/29 147/15/29
f 147/15/29 148/15/29 150/15/30 149/15/30
s 0
f 92/15/1 90/15/1 152/15/1 150/15/1 148/15/1 146/15/1 144/15/1 142/15/1 140/15/1 138/15/1 136/15/1 134/15/1 132/15/1 130/15/1 128/15/1 126/15/1 124/15/1 122/15/1 120/15/1 118/15/1 116/15/1 114/15/1 112/15/1 110/15/1 108/15/1 106/15/1 104/15/1 102/15/1 100/15/1 98/15/1 96/15/1 94/15/1
s 1
f 149/15/30 150/15/30 152/15/31 151/15/31
f 151/15/31 152/15/31 90/15/6 89/15/6
s 0
f 89/15/4 91/15/4 93/15/4 95/15/4 97/15/4 99/15/4 101/15/4 103/15/4 105/15/4 107/15/4 109/15/4 111/15/4 113/15/4 115/15/4 117/15/4 119/15/4 121/15/4 123/15/4 125/15/4 127/15/4 129/15/4 131/15/4 133/15/4 135/15/4 137/15/4 139/15/4 141/15/4 143/15/4 145/15/4 147/15/4 149/15/4 151/15/4
s 1
f 153/15/6 154/15/6 156/15/32 155/15/32
f 155/15/32 156/15/32 158/15/33 157/15/33
f 157/15/33 158/15/33 160/15/34 159/15/34
f 159/15/34 160/15/34 162/15/8 161/15/8
f 161/15/8 162/15/8 164/15/11 163/15/11
f 163/15/11 164/15/11 166/15/12 165/15/12
f 165/15/12 166/15/12 168/15/13 167/15/13
f 167/15/13 168/15/13 170/15/5 169/15/5
f 169/15/5 170/15/5 172/15/14 171/15/14
f 171/15/14 172/15/14 174/15/15 173/15/15
f 173/15/15 174/15/15 176/15/16 175/15/16
f 175/15/16 176/15/16 178/15/9 177/15/9
f 177/15/9 178/15/9 180/15/17 179/15/17
f 179/15/17 180/15/17 182/15/18 181/15/18
f 181/15/18 182/15/18 184/15/19 183/15/19
f 183/15/19 184/15/19 186/15/2 185/15/2
f 185/15/2 186/15/2 188/15/20 187/15/20
f 187/15/20 188/15/20 190/15/21 189/15/21
f 189/15/21 190/15/21 192/15/22 191/15/22
f 191/15/22 192/15/22 194/15/10 193/15/10
f 193/15/10 194/15/10 196/15/23 195/15/23
f 195/15/23 196/15/23 198/15/24 197/15/24
f 197/15/24 198/15/24 200/15/25 199/15/25
f 199/15/25 200/15/25 202/15/3 201/15/3
f 201/15/3 202/15/3 204/15/26 203/15/26
f 203/15/26 204/15/26 206/15/27 205/15/27
f 205/15/27 206/15/27 208/15/28 207/15/28
f 207/15/28 208/15/28 210/15/7 209/15/7
f 209/15/7 210/15/7 212/15/29 211/15/29
f 211/15/29 212/15/29 214/15/30 213/15/30
s 0
f 156/15/1 154/15/1 216/15/1 214/15/1 212/15/1 210/15/1 208/15/1 206/15/1 204/15/1 202/15/1 200/15/1 198/15/1 196/15/1 194/15/1 192/15/1 190/15/1 188/15/1 186/15/1 184/15/1 182/15/1 180/15/1 178/15/1 176/15/1 174/15/1 172/15/1 170/15/1 168/15/1 166/15/1 164/15/1 162/15/1 160/15/1 158/15/1
s 1
f 213/15/30 214/15/30 216/15/31 215/15/31
f 215/15/31 216/15/31 154/15/6 153/15/6
s 0
f 153/15/4 155/15/4 157/15/4 159/15/4 161/15/4 163/15/4 165/15/4 167/15/4 169/15/4 171/15/4 173/15/4 175/15/4 177/15/4 179/15/4 181/15/4 183/15/4 185/15/4 187/15/4 189/15/4 191/15/4 193/15/4 195/15/4 197/15/4 199/15/4 201/15/4 203/15/4 205/15/4 207/15/4 209/15/4 211/15/4 213/15/4 215/15/4
s 1
f 217/15/6 218/15/6 220/15/32 219/15/32
f 219/15/32 220/15/32 222/15/33 221/15/33
f 221/15/33 222/15/33 224/15/34 223/15/34
f 223/15/34 224/15/34 226/15/8 225/15/8
f 225/15/8 226/15/8 228/15/11 227/15/11
f 227/15/11 228/15/11 230/15/12 229/15/12
f 229/15/12 230/15/12 232/15/13 231/15/13
f 231/15/13 232/15/13 234/15/5 233/15/5
f 233/15/5 234/15/5 236/15/14 235/15/14
f 235/15/14 236/15/14 238/15/15 237/15/15
f 237/15/15 238/15/15 240/15/16 239/15/16
f 239/15/16 240/15/16 242/15/9 241/15/9
f 241/15/9 242/15/9 244/15/17 243/15/17
f 243/15/17 244/15/17 246/15/18 245/15/18
f 245/15/18 246/15/18 248/15/19 247/15/19
f 247/15/19 248/15/19 250/15/2 249/15/2
f 249/15/2 250/15/2 252/15/20 251/15/20
f 251/15/20 252/15/20 254/15/21 253/15/21
f 253/15/21 254/15/21 256/15/22 255/15/22
f 255/15/22 256/15/22 258/15/10 257/15/10
f 257/15/10 258/15/10 260/15/23 259/15/23
f 259/15/23 260/15/23 262/15/24 261/15/24
f 261/15/24 262/15/24 264/15/25 263/15/25
f 263/15/25 264/15/25 266/15/3 265/15/3
f 265/15/3 266/15/3 268/15/26 267/15/26
f 267/15/26 268/15/26 270/15/27 269/15/27
f 269/15/27 270/15/27 272/15/28 271/15/28
f 271/15/28 272/15/28 274/15/7 273/15/7
f 273/15/7 274/15/7 276/15/29 275/15/29
f 275/15/29 276/15/29 278/15/30 277/15/30
s 0
f 220/15/1 218/15/1 280/15/1 278/15/1 276/15/1 274/15/1 272/15/1 270/15/1 268/15/1 266/15/1 264/15/1 262/15/1 260/15/1 258/15/1 256/15/1 254/15/1 252/15/1 250/15/1 248/15/1 246/15/1 244/15/1 242/15/1 240/15/1 238/15/1 236/15/1 234/15/1 232/15/1 230/15/1 228/15/1 226/15/1 224/15/1 222/15/1
s 1
f 277/15/30 278/15/30 280/15/31 279/15/31
f 279/15/31 280/15/31 218/15/6 217/15/6
s 0
f 217/15/4 219/15/4 221/15/4 223/15/4 225/15/4 227/15/4 229/15/4 231/15/4 233/15/4 235/15/4 237/15/4 239/15/4 241/15/4 243/15/4 245/15/4 247/15/4 249/15/4 251/15/4 253/15/4 255/15/4 257/15/4 259/15/4 261/15/4 263/15/4 265/15/4 267/15/4 269/15/4 271/15/4 273/15/4 275/15/4 277/15/4 279/15/4
s 1
f 281/15/6 282/15/6 284/15/32 283/15/32
f 283/15/32 284/15/32 286/15/33 285/15/33
f 285/15/33 286/15/33 288/15/34 287/15/34
f 287/15/34 288/15/34 290/15/8 289/15/8
f 289/15/8 290/15/8 292/15/11 291/15/11
f 291/15/11 292/15/11 294/15/12 293/15/12
f 293/15/12 294/15/12 296/15/13 295/15/13
f 295/15/13 296/15/13 298/15/5 297/15/5
f 297/15/5 298/15/5 300/15/14 299/15/14
f 299/15/14 300/15/14 302/15/15 301/15/15
f 301/15/15 302/15/15 304/15/16 303/15/16
f 303/15/16 304/15/16 306/15/9 305/15/9
f 305/15/9 306/15/9 308/15/17 307/15/17
f 307/15/17 308/15/17 310/15/18 309/15/18
f 309/15/18 310/15/18 312/15/19 311/15/19
f 311/15/19 312/15/19 314/15/2 313/15/2
f 313/15/2 314/15/2 316/15/20 315/15/20
f 315/15/20 316/15/20 318/15/21 317/15/21
f 317/15/21 318/15/21 320/15/22 319/15/22
f 319/15/22 320/15/22 322/15/10 321/15/10
f 321/15/10 322/15/10 324/15/23 323/15/23
f 323/15/23 324/15/23 326/15/24 325/15/24
f 325/15/24 326/15/24 328/15/25 327/15/25
f 327/15/25 328/15/25 330/15/3 329/15/3
f 329/15/3 330/15/3 332/15/26 331/15/26
f 331/15/26 332/15/26 334/15/27 333/15/27
f 333/15/27 334/15/27 336/15/28 335/15/28
f 335/15/28 336/15/28 338/15/7 337/15/7
f 337/15/7 338/15/7 340/15/29 339/15/29
f 339/15/29 340/15/29 342/15/30 341/15/30
s 0
f 284/15/1 282/15/1 344/15/1 342/15/1 340/15/1 338/15/1 336/15/1 334/15/1 332/15/1 330/15/1 328/15/1 326/15/1 324/15/1 322/15/1 320/15/1 318/15/1 316/15/1 314/15/1 312/15/1 310/15/1 308/15/1 306/15/1 304/15/1 302/15/1 300/15/1 298/15/1 296/15/1 294/15/1 292/15/1 290/15/1 288/15/1 286/15/1
s 1
f 341/15/30 342/15/30 344/15/31 343/15/31
f 343/15/31 344/15/31 282/15/6 281/15/6
s 0
f 281/15/4 283/15/4 285/15/4 287/15/4 289/15/4 291/15/4 293/15/4 295/15/4 297/15/4 299/15/4 301/15/4 303/15/4 305/15/4 307/15/4 309/15/4 311/15/4 313/15/4 315/15/4 317/15/4 319/15/4 321/15/4 323/15/4 325/15/4 327/15/4 329/15/4 331/15/4 333/15/4 335/15/4 337/15/4 339/15/4 341/15/4 343/15/4
s 1
usemtl マテリアル
f 601/15/35 600/15/36 354/15/37 355/15/38
f 508/15/4 601/15/35 355/15/38
f 346/15/39 345/15/40 348/15/41 349/15/42
f 597/15/43 346/15/39 349/15/42 350/15/44
f 347/15/45 597/15/43 350/15/44 351/15/46
f 598/15/47 347/15/45 351/15/46 352/15/48
f 599/15/49 598/15/47 352/15/48 353/15/50
f 600/15/36 599/15/49 353/15/50 354/15/37
f 353/15/50 352/15/48 360/15/51 361/15/52
f 354/15/37 353/15/50 361/15/52 362/15/53
f 355/15/38 354/15/37 362/15/53 363/15/54
f 508/15/4 355/15/38 363/15/54
f 349/15/42 348/15/41 356/15/55 357/15/56
f 350/15/44 349/15/42 357/15/56 358/15/57
f 351/15/46 350/15/44 358/15/57 359/15/58
f 352/15/48 351/15/46 359/15/58 360/15/51
f 358/15/57 357/15/56 365/15/59 366/15/60
f 359/15/58 358/15/57 366/15/60 367/15/61
f 360/15/51 359/15/58 367/15/61 368/15/62
f 361/15/52 360/15/51 368/15/62 369/15/63
f 362/15/53 361/15/52 369/15/63 370/15/64
f 363/15/54 362/15/53 370/15/64 371/15/65
f 508/15/4 363/15/54 371/15/65
f 357/15/56 356/15/55 364/15/66 365/15/59
f 370/15/64 369/15/63 377/15/67 378/15/68
f 371/15/65 370/15/64 378/15/68 379/15/69
f 508/15/4 371/15/65 379/15/69
f 365/15/59 364/15/66 372/15/70 373/15/71
f 366/15/60 365/15/59 373/15/71 374/15/72
f 367/15/61 366/15/60 374/15/72 375/15/73
f 368/15/62 367/15/61 375/15/73 376/15/74
f 369/15/63 368/15/62 376/15/74 377/15/67
f 375/15/73 374/15/72 382/15/75 383/15/76
f 376/15/74 375/15/73 383/15/76 384/15/77
f 377/15/67 376/15/74 384/15/77 385/15/78
f 378/15/68 377/15/67 385/15/78 386/15/79
f 379/15/69 378/15/68 386/15/79 387/15/80
f 508/15/4 379/15/69 387/15/80
f 373/15/71 372/15/70 380/15/81 381/15/82
f 374/15/72 373/15/71 381/15/82 382/15/75
f 387/15/80 386/15/79 394/15/83 395/15/84
f 508/15/4 387/15/80 395/15/84
f 381/15/82 380/15/81 388/15/85 389/15/86
f 382/15/75 381/15/82 389/15/86 390/15/87
f 383/15/76 382/15/75 390/15/87 391/15/88
f 384/15/77 383/15/76 391/15/88 392/15/89
f 385/15/78 384/15/77 392/15/89 393/15/90
f 386/15/79 385/15/78 393/15/90 394/15/83
f 391/15/88 390/15/87 398/15/91 399/15/92
f 392/15/89 391/15/88 399/15/92 400/15/93
f 393/15/90 392/15/89 400/15/93 401/15/94
f 394/15/83 393/15/90 401/15/94 402/15/95
f 395/15/84 394/15/83 402/15/95 403/15/96
f 508/15/4 395/15/84 403/15/96
f 389/15/86 388/15/85 396/15/97 397/15/98
f 390/15/87 389/15/86 397/15/98 398/15/91
f 403/15/96 402/15/95 410/15/99 411/15/100
f 508/15/4 403/15/96 411/15/100
f 397/15/98 396/15/97 404/15/101 405/15/102
f 398/15/91 397/15/98 405/15/102 406/15/103
f 399/15/92 398/15/91 406/15/103 407/15/104
f 400/15/93 399/15/92 407/15/104 408/15/105
f 401/15/94 400/15/93 408/15/105 409/15/106
f 402/15/95 401/15/94 409/15/106 410/15/99
f 408/15/105 407/15/104 415/15/107 416/15/108
f 409/15/106 408/15/105 416/15/108 417/15/109
f 410/15/99 409/15/106 417/15/109 418/15/110
f 411/15/100 410/15/99 418/15/110 419/15/111
f 508/15/4 411/15/100 419/15/111
f 405/15/102 404/15/101 412/15/112 413/15/113
f 406/15/103 405/15/102 413/15/113 414/15/114
f 407/15/104 406/15/103 414/15/114 415/15/107
f 508/15/4 419/15/111 427/15/115
f 413/15/113 412/15/112 420/15/116 421/15/117
f 414/15/114 413/15/113 421/15/117 422/15/118
f 415/15/107 414/15/114 422/15/118 423/15/119
f 416/15/108 415/15/107 423/15/119 424/15/120
f 417/15/109 416/15/108 424/15/120 425/15/121
f 418/15/110 417/15/109 425/15/121 426/15/122
f 419/15/111 418/15/110 426/15/122 427/15/115
f 424/15/120 423/15/119 431/15/123 432/15/124
f 425/15/121 424/15/120 432/15/124 433/15/125
f 426/15/122 425/15/121 433/15/125 434/15/126
f 427/15/115 426/15/122 434/15/126 435/15/127
f 508/15/4 427/15/115 435/15/127
f 421/15/117 420/15/116 428/15/128 429/15/129
f 422/15/118 421/15/117 429/15/129 430/15/130
f 423/15/119 422/15/118 430/15/130 431/15/123
f 508/15/4 435/15/127 443/15/131
f 429/15/129 428/15/128 436/15/132 437/15/133
f 430/15/130 429/15/129 437/15/133 438/15/134
f 431/15/123 430/15/130 438/15/134 439/15/135
f 432/15/124 431/15/123 439/15/135 440/15/136
f 433/15/125 432/15/124 440/15/136 441/15/137
f 434/15/126 433/15/125 441/15/137 442/15/138
f 435/15/127 434/15/126 442/15/138 443/15/131
f 441/15/137 440/15/136 448/15/139 449/15/140
f 442/15/138 441/15/137 449/15/140 450/15/141
f 443/15/131 442/15/138 450/15/141 451/15/142
f 508/15/4 443/15/131 451/15/142
f 437/15/133 436/15/132 444/15/143 445/15/144
f 438/15/134 437/15/133 445/15/144 446/15/145
f 439/15/135 438/15/134 446/15/145 447/15/146
f 440/15/136 439/15/135 447/15/146 448/15/139
f 446/15/145 445/15/144 453/15/147 454/15/148
f 447/15/146 446/15/145 454/15/148 455/15/149
f 448/15/139 447/15/146 455/15/149 456/15/150
f 449/15/140 448/15/139 456/15/150 457/15/151
f 450/15/141 449/15/140 457/15/151 458/15/152
f 451/15/142 450/15/141 458/15/152 459/15/153
f 508/15/4 451/15/142 459/15/153
f 445/15/144 444/15/143 452/15/154 453/15/147
f 458/15/152 457/15/151 465/15/155 466/15/156
f 459/15/153 458/15/152 466/15/156 467/15/157
f 508/15/4 459/15/153 467/15/157
f 453/15/147 452/15/154 460/15/158 461/15/159
f 454/15/148 453/15/147 461/15/159 462/15/160
f 455/15/149 454/15/148 462/15/160 463/15/161
f 456/15/150 455/15/149 463/15/161 464/15/162
f 457/15/151 456/15/150 464/15/162 465/15/155
f 462/15/160 461/15/159 469/15/163 470/15/164
f 463/15/161 462/15/160 470/15/164 471/15/165
f 464/15/162 463/15/161 471/15/165 472/15/166
f 465/15/155 464/15/162 472/15/166 473/15/167
f 466/15/156 465/15/155 473/15/167 474/15/168
f 467/15/157 466/15/156 474/15/168 475/15/169
f 508/15/4 467/15/157 475/15/169
f 461/15/159 460/15/158 468/15/170 469/15/163
f 474/15/168 473/15/167 481/15/171 482/15/172
f 475/15/169 474/15/168 482/15/172 483/15/173
f 508/15/4 475/15/169 483/15/173
f 469/15/163 468/15/170 476/15/174 477/15/175
f 470/15/164 469/15/163 477/15/175 478/15/176
f 471/15/165 470/15/164 478/15/176 479/15/177
f 472/15/166 471/15/165 479/15/177 480/15/178
f 473/15/167 472/15/166 480/15/178 481/15/171
f 479/15/177 478/15/176 486/15/179 487/15/180
f 480/15/178 479/15/177 487/15/180 488/15/181
f 481/15/171 480/15/178 488/15/181 489/15/182
f 482/15/172 481/15/171 489/15/182 490/15/183
f 483/15/173 482/15/172 490/15/183 491/15/184
f 508/15/4 483/15/173 491/15/184
f 477/15/175 476/15/174 484/15/185 485/15/186
f 478/15/176 477/15/175 485/15/186 486/15/179
f 491/15/184 490/15/183 498/15/187 499/15/188
f 508/15/4 491/15/184 499/15/188
f 485/15/186 484/15/185 492/15/189 493/15/190
f 486/15/179 485/15/186 493/15/190 494/15/191
f 487/15/180 486/15/179 494/15/191 495/15/192
f 488/15/181 487/15/180 495/15/192 496/15/193
f 489/15/182 488/15/181 496/15/193 497/15/194
f 490/15/183 489/15/182 497/15/194 498/15/187
f 495/15/192 494/15/191 502/15/195 503/15/196
f 496/15/193 495/15/192 503/15/196 504/15/197
f 497/15/194 496/15/193 504/15/197 505/15/198
f 498/15/187 497/15/194 505/15/198 506/15/199
f 499/15/188 498/15/187 506/15/199 507/15/200
f 508/15/4 499/15/188 507/15/200
f 493/15/190 492/15/189 500/15/201 501/15/202
f 494/15/191 493/15/190 501/15/202 502/15/195
f 507/15/200 506/15/199 515/15/203 516/15/204
f 508/15/4 507/15/200 516/15/204
f 501/15/202 500/15/201 509/15/205 510/15/206
f 502/15/195 501/15/202 510/15/206 511/15/207
f 503/15/196 502/15/195 511/15/207 512/15/208
f 504/15/197 503/15/196 512/15/208 513/15/209
f 505/15/198 504/15/197 513/15/209 514/15/210
f 506/15/199 505/15/198 514/15/210 515/15/203
f 513/15/209 512/15/208 520/15/211 521/15/212
f 514/15/210 513/15/209 521/15/212 522/15/213
f 515/15/203 514/15/210 522/15/213 523/15/214
f 516/15/204 515/15/203 523/15/214 524/15/215
f 508/15/4 516/15/204 524/15/215
f 510/15/206 509/15/205 517/15/216 518/15/217
f 511/15/207 510/15/206 518/15/217 519/15/218
f 512/15/208 511/15/207 519/15/218 520/15/211
f 508/15/4 524/15/215 532/15/219
f 518/15/217 517/15/216 525/15/220 526/15/221
f 519/15/218 518/15/217 526/15/221 527/15/222
f 520/15/211 519/15/218 527/15/222 528/15/223
f 521/15/212 520/15/211 528/15/223 529/15/224
f 522/15/213 521/15/212 529/15/224 530/15/225
f 523/15/214 522/15/213 530/15/225 531/15/226
f 524/15/215 523/15/214 531/15/226 532/15/219
f 530/15/225 529/15/224 537/15/227 538/15/228
f 531/15/226 530/15/225 538/15/228 539/15/229
f 532/15/219 531/15/226 539/15/229 540/15/230
f 508/15/4 532/15/219 540/15/230
f 526/15/221 525/15/220 533/15/231 534/15/232
f 527/15/222 526/15/221 534/15/232 535/15/233
f 528/15/223 527/15/222 535/15/233 536/15/234
f 529/15/224 528/15/223 536/15/234 537/15/227
f 534/15/232 533/15/231 541/15/235 542/15/236
f 535/15/233 534/15/232 542/15/236 543/15/237
f 536/15/234 535/15/233 543/15/237 544/15/238
f 537/15/227 536/15/234 544/15/238 545/15/239
f 538/15/228 537/15/227 545/15/239 546/15/240
f 539/15/229 538/15/228 546/15/240 547/15/241
f 540/15/230 539/15/229 547/15/241 548/15/242
f 508/15/4 540/15/230 548/15/242
f 546/15/240 545/15/239 553/15/243 554/15/244
f 547/15/241 546/15/240 554/15/244 555/15/245
f 548/15/242 547/15/241 555/15/245 556/15/246
f 508/15/4 548/15/242 556/15/246
f 542/15/236 541/15/235 549/15/247 550/15/248
f 543/15/237 542/15/236 550/15/248 551/15/249
f 544/15/238 543/15/237 551/15/249 552/15/250
f 545/15/239 544/15/238 552/15/250 553/15/243
f 551/15/249 550/15/248 558/15/251 559/15/252
f 552/15/250 551/15/249 559/15/252 560/15/253
f 553/15/243 552/15/250 560/15/253 561/15/254
f 554/15/244 553/15/243 561/15/254 562/15/255
f 555/15/245 554/15/244 562/15/255 563/15/256
f 556/15/246 555/15/245 563/15/256 564/15/257
f 508/15/4 556/15/246 564/15/257
f 550/15/248 549/15/247 557/15/258 558/15/251
f 563/15/256 562/15/255 570/15/259 571/15/260
f 564/15/257 563/15/256 571/15/260 572/15/261
f 508/15/4 564/15/257 572/15/261
f 558/15/251 557/15/258 565/15/262 566/15/263
f 559/15/252 558/15/251 566/15/263 567/15/264
f 560/15/253 559/15/252 567/15/264 568/15/265
f 561/15/254 560/15/253 568/15/265 569/15/266
f 562/15/255 561/15/254 569/15/266 570/15/259
f 567/15/264 566/15/263 574/15/267 575/15/268
f 568/15/265 567/15/264 575/15/268 576/15/269
f 569/15/266 568/15/265 576/15/269 577/15/270
f 570/15/259 569/15/266 577/15/270 578/15/271
f 571/15/260 570/15/259 578/15/271 579/15/272
f 572/15/261 571/15/260 579/15/272 580/15/273
f 508/15/4 572/15/261 580/15/273
f 566/15/263 565/15/262 573/15/274 574/15/267
f 579/15/272 578/15/271 586/15/275 587/15/276
f 580/15/273 579/15/272 587/15/276 588/15/277
f 508/15/4 580/15/273 588/15/277
f 574/15/267 573/15/274 581/15/278 582/15/279
f 575/15/268 574/15/267 582/15/279 583/15/280
f 576/15/269 575/15/268 583/15/280 584/15/281
f 577/15/270 576/15/269 584/15/281 585/15/282
f 578/15/271 577/15/270 585/15/282 586/15/275
f 584/15/281 583/15/280 591/15/283 592/15/284
f 585/15/282 584/15/281 592/15/284 593/15/285
f 586/15/275 585/15/282 593/15/285 594/15/286
f 587/15/276 586/15/275 594/15/286 595/15/287
f 588/15/277 587/15/276 595/15/287 596/15/288
f 508/15/4 588/15/277 596/15/288
f 582/15/279 581/15/278 589/15/289 590/15/290
f 583/15/280 582/15/279 590/15/290 591/15/283
f 596/15/288 595/15/287 600/15/36 601/15/35
f 508/15/4 596/15/288 601/15/35
f 590/15/290 589/15/289 345/15/40 346/15/39
f 591/15/283 590/15/290 346/15/39 597/15/43
f 592/15/284 591/15/283 597/15/43 347/15/45
f 593/15/285 592/15/284 347/15/45 598/15/47
f 594/15/286 593/15/285 598/15/47 599/15/49
f 595/15/287 594/15/286 599/15/49 600/15/36
f 602/15/6 603/15/6 605/15/32 604/15/32
f 604/15/32 605/15/32 607/15/33 606/15/33
f 606/15/33 607/15/33 609/15/34 608/15/34
f 608/15/34 609/15/34 611/15/8 610/15/8
f 610/15/8 611/15/8 613/15/11 612/15/11
f 612/15/11 613/15/11 615/15/12 614/15/12
f 614/15/12 615/15/12 617/15/13 616/15/13
f 616/15/13 617/15/13 619/15/5 618/15/5
f 618/15/5 619/15/5 621/15/14 620/15/14
f 620/15/14 621/15/14 623/15/15 622/15/15
f 622/15/15 623/15/15 625/15/16 624/15/16
f 624/15/16 625/15/16 627/15/9 626/15/9
f 626/15/9 627/15/9 629/15/17 628/15/17
f 628/15/17 629/15/17 631/15/18 630/15/18
f 630/15/18 631/15/18 633/15/19 632/15/19
f 632/15/19 633/15/19 635/15/2 634/15/2
f 634/15/2 635/15/2 637/15/20 636/15/20
f 636/15/20 637/15/20 639/15/21 638/15/21
f 638/15/21 639/15/21 641/15/22 640/15/22
f 640/15/22 641/15/22 643/15/10 642/15/10
f 642/15/10 643/15/10 645/15/23 644/15/23
f 644/15/23 645/15/23 647/15/24 646/15/24
f 646/15/24 647/15/24 649/15/25 648/15/25
f 648/15/25 649/15/25 651/15/3 650/15/3
f 650/15/3 651/15/3 653/15/26 652/15/26
f 652/15/26 653/15/26 655/15/27 654/15/27
f 654/15/27 655/15/27 657/15/28 656/15/28
f 656/15/28 657/15/28 659/15/7 658/15/7
f 658/15/7 659/15/7 661/15/29 660/15/29
f 660/15/29 661/15/29 663/15/30 662/15/30
s 0
f 605/15/1 603/15/1 665/15/1 663/15/1 661/15/1 659/15/1 657/15/1 655/15/1 653/15/1 651/15/1 649/15/1 647/15/1 645/15/1 643/15/1 641/15/1 639/15/1 637/15/1 635/15/1 633/15/1 631/15/1 629/15/1 627/15/1 625/15/1 623/15/1 621/15/1 619/15/1 617/15/1 615/15/1 613/15/1 611/15/1 609/15/1 607/15/1
s 1
f 662/15/30 663/15/30 665/15/31 664/15/31
f 664/15/31 665/15/31 603/15/6 602/15/6
s 0
f 602/15/4 604/15/4 606/15/4 608/15/4 610/15/4 612/15/4 614/15/4 616/15/4 618/15/4 620/15/4 622/15/4 624/15/4 626/15/4 628/15/4 630/15/4 632/15/4 634/15/4 636/15/4 638/15/4 640/15/4 642/15/4 644/15/4 646/15/4 648/15/4 650/15/4 652/15/4 654/15/4 656/15/4 658/15/4 660/15/4 662/15/4 664/15/4
s 1
f 666/15/8 667/15/8 669/15/11 668/15/11
f 668/15/11 669/15/11 671/15/12 670/15/12
f 670/15/12 671/15/12 673/15/13 672/15/13
f 672/15/13 673/15/13 675/15/5 674/15/5
f 674/15/5 675/15/5 677/15/14 676/15/14
f 676/15/14 677/15/14 679/15/15 678/15/15
f 678/15/15 679/15/15 681/15/16 680/15/16
f 680/15/16 681/15/16 683/15/9 682/15/9
f 682/15/9 683/15/9 685/15/17 684/15/17
f 684/15/17 685/15/17 687/15/18 686/15/18
f 686/15/18 687/15/18 689/15/19 688/15/19
f 688/15/19 689/15/19 691/15/2 690/15/2
f 690/15/2 691/15/2 693/15/20 692/15/20
f 692/15/20 693/15/20 695/15/21 694/15/21
f 694/15/21 695/15/21 697/15/22 696/15/22
f 696/15/22 697/15/22 699/15/10 698/15/10
f 698/15/10 699/15/10 701/15/23 700/15/23
f 700/15/23 701/15/23 703/15/24 702/15/24
f 702/15/24 703/15/24 705/15/25 704/15/25
f 704/15/25 705/15/25 707/15/3 706/15/3
f 706/15/3 707/15/3 709/15/26 708/15/26
f 708/15/26 709/15/26 711/15/27 710/15/27
f 710/15/27 711/15/27 713/15/28 712/15/28
f 712/15/28 713/15/28 715/15/7 714/15/7
f 714/15/7 715/15/7 717/15/29 716/15/29
f 716/15/29 717/15/29 719/15/30 718/15/30
f 718/15/30 719/15/30 721/15/31 720/15/31
f 720/15/31 721/15/31 723/15/6 722/15/6
f 722/15/6 723/15/6 725/15/32 724/15/32
f 724/15/32 725/15/32 727/15/33 726/15/33
s 0
f 669/15/1 667/15/1 729/15/1 727/15/1 725/15/1 723/15/1 721/15/1 719/15/1 717/15/1 715/15/1 713/15/1 711/15/1 709/15/1 707/15/1 705/15/1 703/15/1 701/15/1 699/15/1 697/15/1 695/15/1 693/15/1 691/15/1 689/15/1 687/15/1 685/15/1 683/15/1 681/15/1 679/15/1 677/15/1 675/15/1 673/15/1 671/15/1
s 1
f 726/15/33 727/15/33 729/15/34 728/15/34
f 728/15/34 729/15/34 667/15/8 666/15/8
s 0
f 666/15/4 668/15/4 670/15/4 672/15/4 674/15/4 676/15/4 678/15/4 680/15/4 682/15/4 684/15/4 686/15/4 688/15/4 690/15/4 692/15/4 694/15/4 696/15/4 698/15/4 700/15/4 702/15/4 704/15/4 706/15/4 708/15/4 710/15/4 712/15/4 714/15/4 716/15/4 718/15/4 720/15/4 722/15/4 724/15/4 726/15/4 728/15/4
s 1
f 730/15/6 731/15/6 733/15/32 732/15/32
f 732/15/32 733/15/32 735/15/33 734/15/33
f 734/15/33 735/15/33 737/15/34 736/15/34
f 736/15/34 737/15/34 739/15/8 738/15/8
f 738/15/8 739/15/8 741/15/11 740/15/11
f 740/15/11 741/15/11 743/15/12 742/15/12
f 742/15/12 743/15/12 745/15/13 744/15/13
f 744/15/13 745/15/13 747/15/5 746/15/5
f 746/15/5 747/15/5 749/15/14 748/15/14
f 748/15/14 749/15/14 751/15/15 750/15/15
f 750/15/15 751/15/15 753/15/16 752/15/16
f 752/15/16 753/15/16 755/15/9 754/15/9
f 754/15/9 755/15/9 757/15/17 756/15/17
f 756/15/17 757/15/17 759/15/18 758/15/18
f 758/15/18 759/15/18 761/15/19 760/15/19
f 760/15/19 761/15/19 763/15/2 762/15/2
f 762/15/2 763/15/2 765/15/20 764/15/20
f 764/15/20 765/15/20 767/15/21 766/15/21
f 766/15/21 767/15/21 769/15/22 768/15/22
f 768/15/22 769/15/22 771/15/10 770/15/10
f 770/15/10 771/15/10 773/15/23 772/15/23
f 772/15/23 773/15/23 775/15/24 774/15/24
f 774/15/24 775/15/24 777/15/25 776/15/25
f 776/15/25 777/15/25 779/15/3 778/15/3
f 778/15/3 779/15/3 781/15/26 780/15/26
f 780/15/26 781/15/26 783/15/27 782/15/27
f 782/15/27 783/15/27 785/15/28 784/15/28
f 784/15/28 785/15/28 787/15/7 786/15/7
f 786/15/7 787/15/7 789/15/29 788/15/29
f 788/15/29 789/15/29 791/15/30 790/15/30
s 0
f 733/15/1 731/15/1 793/15/1 791/15/1 789/15/1 787/15/1 785/15/1 783/15/1 781/15/1 779/15/1 777/15/1 775/15/1 773/15/1 771/15/1 769/15/1 767/15/1 765/15/1 763/15/1 761/15/1 759/15/1 757/15/1 755/15/1 753/15/1 751/15/1 749/15/1 747/15/1 745/15/1 743/15/1 741/15/1 739/15/1 737/15/1 735/15/1
s 1
f 790/15/30 791/15/30 793/15/31 792/15/31
f 792/15/31 793/15/31 731/15/6 730/15/6
s 0
f 730/15/4 732/15/4 734/15/4 736/15/4 738/15/4 740/15/4 742/15/4 744/15/4 746/15/4 748/15/4 750/15/4 752/15/4 754/15/4 756/15/4 758/15/4 760/15/4 762/15/4 764/15/4 766/15/4 768/15/4 770/15/4 772/15/4 774/15/4 776/15/4 778/15/4 780/15/4 782/15/4 784/15/4 786/15/4 788/15/4 790/15/4 792/15/4
s 1
f 794/15/6 795/15/6 797/15/32 796/15/32
f 796/15/32 797/15/32 799/15/33 798/15/33
f 798/15/33 799/15/33 801/15/34 800/15/34
f 800/15/34 801/15/34 803/15/8 802/15/8
f 802/15/8 803/15/8 805/15/11 804/15/11
f 804/15/11 805/15/11 807/15/12 806/15/12
f 806/15/12 807/15/12 809/15/13 808/15/13
f 808/15/13 809/15/13 811/15/5 810/15/5
f 810/15/5 811/15/5 813/15/14 812/15/14
f 812/15/14 813/15/14 815/15/15 814/15/15
f 814/15/15 815/15/15 817/15/16 816/15/16
f 816/15/16 817/15/16 819/15/9 818/15/9
f 818/15/9 819/15/9 821/15/17 820/15/17
f 820/15/17 821/15/17 823/15/18 822/15/18
f 822/15/18 823/15/18 825/15/19 824/15/19
f 824/15/19 825/15/19 827/15/2 826/15/2
f 826/15/2 827/15/2 829/15/20 828/15/20
f 828/15/20 829/15/20 831/15/21 830/15/21
f 830/15/21 831/15/21 833/15/22 832/15/22
f 832/15/22 833/15/22 835/15/10 834/15/10
f 834/15/10 835/15/10 837/15/23 836/15/23
f 836/15/23 837/15/23 839/15/24 838/15/24
f 838/15/24 839/15/24 841/15/25 840/15/25
f 840/15/25 841/15/25 843/15/3 842/15/3
f 842/15/3 843/15/3 845/15/26 844/15/26
f 844/15/26 845/15/26 847/15/27 846/15/27
f 846/15/27 847/15/27 849/15/28 848/15/28
f 848/15/28 849/15/28 851/15/7 850/15/7
f 850/15/7 851/15/7 853/15/29 852/15/29
f 852/15/29 853/15/29 855/15/30 854/15/30
s 0
f 797/15/1 795/15/1 857/15/1 855/15/1 853/15/1 851/15/1 849/15/1 847/15/1 845/15/1 843/15/1 841/15/1 839/15/1 837/15/1 835/15/1 833/15/1 831/15/1 829/15/1 827/15/1 825/15/1 823/15/1 821/15/1 819/15/1 817/15/1 815/15/1 813/15/1 811/15/1 809/15/1 807/15/1 805/15/1 803/15/1 801/15/1 799/15/1
s 1
f 854/15/30 855/15/30 857/15/31 856/15/31
f 856/15/31 857/15/31 795/15/6 794/15/6
s 0
f 794/15/4 796/15/4 798/15/4 800/15/4 802/15/4 804/15/4 806/15/4 808/15/4 810/15/4 812/15/4 814/15/4 816/15/4 818/15/4 820/15/4 822/15/4 824/15/4 826/15/4 828/15/4 830/15/4 832/15/4 834/15/4 836/15/4 838/15/4 840/15/4 842/15/4 844/15/4 846/15/4 848/15/4 850/15/4 852/15/4 854/15/4 856/15/4
s 1
f 858/15/6 859/15/6 861/15/32 860/15/32
f 860/15/32 861/15/32 863/15/33 862/15/33
f 862/15/33 863/15/33 865/15/34 864/15/34
f 864/15/34 865/15/34 867/15/8 866/15/8
f 866/15/8 867/15/8 869/15/11 868/15/11
f 868/15/11 869/15/11 871/15/12 870/15/12
f 870/15/12 871/15/12 873/15/13 872/15/13
f 872/15/13 873/15/13 875/15/5 874/15/5
f 874/15/5 875/15/5 877/15/14 876/15/14
f 876/15/14 877/15/14 879/15/15 878/15/15
f 878/15/15 879/15/15 881/15/16 880/15/16
f 880/15/16 881/15/16 883/15/9 882/15/9
f 882/15/9 883/15/9 885/15/17 884/15/17
f 884/15/17 885/15/17 887/15/18 886/15/18
f 886/15/18 887/15/18 889/15/19 888/15/19
f 888/15/19 889/15/19 891/15/2 890/15/2
f 890/15/2 891/15/2 893/15/20 892/15/20
f 892/15/20 893/15/20 895/15/21 894/15/21
f 894/15/21 895/15/21 897/15/22 896/15/22
f 896/15/22 897/15/22 899/15/10 898/15/10
f 898/15/10 899/15/10 901/15/23 900/15/23
f 900/15/23 901/15/23 903/15/24 902/15/24
f 902/15/24 903/15/24 905/15/25 904/15/25
f 904/15/25 905/15/25 907/15/3 906/15/3
f 906/15/3 907/15/3 909/15/26 908/15/26
f 908/15/26 909/15/26 911/15/27 910/15/27
f 910/15/27 911/15/27 913/15/28 912/15/28
f 912/15/28 913/15/28 915/15/7 914/15/7
f 914/15/7 915/15/7 917/15/29 916/15/29
f 916/15/29 917/15/29 919/15/30 918/15/30
s 0
f 861/15/1 859/15/1 921/15/1 919/15/1 917/15/1 915/15/1 913/15/1 911/15/1 909/15/1 907/15/1 905/15/1 903/15/1 901/15/1 899/15/1 897/15/1 895/15/1 893/15/1 891/15/1 889/15/1 887/15/1 885/15/1 883/15/1 881/15/1 879/15/1 877/15/1 875/15/1 873/15/1 871/15/1 869/15/1 867/15/1 865/15/1 863/15/1
s 1
f 918/15/30 919/15/30 921/15/31 920/15/31
f 920/15/31 921/15/31 859/15/6 858/15/6
s 0
f 858/15/4 860/15/4 862/15/4 864/15/4 866/15/4 868/15/4 870/15/4 872/15/4 874/15/4 876/15/4 878/15/4 880/15/4 882/15/4 884/15/4 886/15/4 888/15/4 890/15/4 892/15/4 894/15/4 896/15/4 898/15/4 900/15/4 902/15/4 904/15/4 906/15/4 908/15/4 910/15/4 912/15/4 914/15/4 916/15/4 918/15/4 920/15/4
f 922/15/7 923/15/7 925/15/7 924/15/7
f 924/15/8 925/15/8 929/15/8 928/15/8
f 928/15/9 929/15/9 927/15/9 926/15/9
f 926/15/10 927/15/10 923/15/10 922/15/10
f 924/15/4 928/15/4 926/15/4 922/15/4
f 929/15/1 925/15/1 923/15/1 927/15/1
f 930/15/7 931/15/7 933/15/7 932/15/7
f 932/15/8 933/15/8 937/15/8 936/15/8
f 936/15/9 937/15/9 935/15/9 934/15/9
f 934/15/10 935/15/10 931/15/10 930/15/10
f 932/15/4 936/15/4 934/15/4 930/15/4
f 937/15/1 933/15/1 931/15/1 935/15/1
