# Laser Beam Bolt Model
mtllib beam.mtl
o Beam

# Vertices
v 0.0000 0.0000 1.2000
v 0.1500 0.0000 0.8000
v 0.1061 0.1061 0.8000
v 0.0000 0.1500 0.8000
v -0.1061 0.1061 0.8000
v -0.1500 0.0000 0.8000
v -0.1061 -0.1061 0.8000
v 0.0000 -0.1500 0.8000
v 0.1061 -0.1061 0.8000

v 0.1500 0.0000 -0.8000
v 0.1061 0.1061 -0.8000
v 0.0000 0.1500 -0.8000
v -0.1061 0.1061 -0.8000
v -0.1500 0.0000 -0.8000
v -0.1061 -0.1061 -0.8000
v 0.0000 -0.1500 -0.8000
v 0.1061 -0.1061 -0.8000
v 0.0000 0.0000 -1.0000

# Texture coordinates
vt 0.0 0.0
vt 1.0 0.0
vt 1.0 1.0
vt 0.0 1.0

# Normals
vn 0.0 0.0 1.0
vn 0.0 0.0 -1.0
vn 1.0 0.0 0.0
vn 0.7071 0.7071 0.0
vn 0.0 1.0 0.0
vn -0.7071 0.7071 0.0
vn -1.0 0.0 0.0
vn -0.7071 -0.7071 0.0
vn 0.0 -1.0 0.0
vn 0.7071 -0.7071 0.0

usemtl beam
s 1

# Front Cone (Cap)
f 1/1/1 2/2/3 3/3/4
f 1/1/1 3/2/4 4/3/5
f 1/1/1 4/2/5 5/3/6
f 1/1/1 5/2/6 6/3/7
f 1/1/1 6/2/7 7/3/8
f 1/1/1 7/2/8 8/3/9
f 1/1/1 8/2/9 9/3/10
f 1/1/1 9/2/10 2/3/3

# Cylinder Body
f 2/1/3 10/2/3 11/3/4 3/4/4
f 3/1/4 11/2/4 12/3/5 4/4/5
f 4/1/5 12/2/5 13/3/6 5/4/6
f 5/1/6 13/2/6 14/3/7 6/4/7
f 6/1/7 14/2/7 15/3/8 7/4/8
f 7/1/8 15/2/8 16/3/9 8/4/9
f 8/1/9 16/2/9 17/3/10 9/4/10
f 9/1/10 17/2/10 10/3/3 2/4/3

# Back Cone (Tail)
f 18/1/2 11/2/4 10/3/3
f 18/1/2 12/2/5 11/3/4
f 18/1/2 13/2/6 12/3/5
f 18/1/2 14/2/7 13/3/6
f 18/1/2 15/2/8 14/3/7
f 18/1/2 16/2/9 15/3/8
f 18/1/2 17/2/10 16/3/9
f 18/1/2 10/2/3 17/3/10
