# Blender 4.4.1
# www.blender.org
mtllib bo.mtl
o bo
v 0.000000 -1.000000 -1.000000
v 0.000000 1.000000 -1.000000
v 0.195090 -1.000000 -0.980785
v 0.195090 1.000000 -0.980785
v 0.382683 -1.000000 -0.923880
v 0.382683 1.000000 -0.923880
v 0.555570 -1.000000 -0.831470
v 0.555570 1.000000 -0.831470
v 0.707107 -1.000000 -0.707107
v 0.707107 1.000000 -0.707107
v 0.831470 -1.000000 -0.555570
v 0.831470 1.000000 -0.555570
v 0.923880 -1.000000 -0.382683
v 0.923880 1.000000 -0.382683
v 0.980785 -1.000000 -0.195090
v 0.980785 1.000000 -0.195090
v 1.000000 -1.000000 0.000000
v 1.000000 1.000000 0.000000
v 0.980785 -1.000000 0.195090
v 0.980785 1.000000 0.195090
v 0.923880 -1.000000 0.382683
v 0.923880 1.000000 0.382683
v 0.831470 -1.000000 0.555570
v 0.831470 1.000000 0.555570
v 0.707107 -1.000000 0.707107
v 0.707107 1.000000 0.707107
v 0.555570 -1.000000 0.831470
v 0.555570 1.000000 0.831470
v 0.382683 -1.000000 0.923880
v 0.382683 1.000000 0.923880
v 0.195090 -1.000000 0.980785
v 0.195090 1.000000 0.980785
v 0.000000 -1.000000 1.000000
v 0.000000 1.000000 1.000000
v -0.195090 -1.000000 0.980785
v -0.195090 1.000000 0.980785
v -0.382683 -1.000000 0.923880
v -0.382683 1.000000 0.923880
v -0.555570 -1.000000 0.831470
v -0.555570 1.000000 0.831470
v -0.707107 -1.000000 0.707107
v -0.707107 1.000000 0.707107
v -0.831470 -1.000000 0.555570
v -0.831470 1.000000 0.555570
v -0.923880 -1.000000 0.382683
v -0.923880 1.000000 0.382683
v -0.980785 -1.000000 0.195090
v -0.980785 1.000000 0.195090
v -1.000000 -1.000000 0.000000
v -1.000000 1.000000 0.000000
v -0.980785 -1.000000 -0.195090
v -0.980785 1.000000 -0.195090
v -0.923880 -1.000000 -0.382683
v -0.923880 1.000000 -0.382683
v -0.831470 -1.000000 -0.555570
v -0.831470 1.000000 -0.555570
v -0.707107 -1.000000 -0.707107
v -0.707107 1.000000 -0.707107
v -0.555570 -1.000000 -0.831470
v -0.555570 1.000000 -0.831470
v -0.382683 -1.000000 -0.923880
v -0.382683 1.000000 -0.923880
v -0.195090 -1.000000 -0.980785
v -0.195090 1.000000 -0.980785
v 4.121598 -1.016471 -5.324284
v 4.121598 0.983529 -5.324284
v 4.316689 -1.016471 -5.305069
v 4.316689 0.983529 -5.305069
v 4.504282 -1.016471 -5.248163
v 4.504282 0.983529 -5.248163
v 4.677168 -1.016471 -5.155753
v 4.677168 0.983529 -5.155753
v 4.828705 -1.016471 -5.031390
v 4.828705 0.983529 -5.031390
v 4.953068 -1.016471 -4.879854
v 4.953068 0.983529 -4.879854
v 5.045478 -1.016471 -4.706967
v 5.045478 0.983529 -4.706967
v 5.102384 -1.016471 -4.519374
v 5.102384 0.983529 -4.519374
v 5.121598 -1.016471 -4.324284
v 5.121598 0.983529 -4.324284
v 5.102384 -1.016471 -4.129193
v 5.102384 0.983529 -4.129193
v 5.045478 -1.016471 -3.941600
v 5.045478 0.983529 -3.941600
v 4.953068 -1.016471 -3.768713
v 4.953068 0.983529 -3.768713
v 4.828705 -1.016471 -3.617177
v 4.828705 0.983529 -3.617177
v 4.677168 -1.016471 -3.492814
v 4.677168 0.983529 -3.492814
v 4.504282 -1.016471 -3.400404
v 4.504282 0.983529 -3.400404
v 4.316689 -1.016471 -3.343498
v 4.316689 0.983529 -3.343498
v 4.121598 -1.016471 -3.324284
v 4.121598 0.983529 -3.324284
v 3.926508 -1.016471 -3.343498
v 3.926508 0.983529 -3.343498
v 3.738915 -1.016471 -3.400404
v 3.738915 0.983529 -3.400404
v 3.566028 -1.016471 -3.492814
v 3.566028 0.983529 -3.492814
v 3.414492 -1.016471 -3.617177
v 3.414492 0.983529 -3.617177
v 3.290129 -1.016471 -3.768713
v 3.290129 0.983529 -3.768713
v 3.197719 -1.016471 -3.941600
v 3.197719 0.983529 -3.941600
v 3.140813 -1.016471 -4.129193
v 3.140813 0.983529 -4.129193
v 3.121598 -1.016471 -4.324284
v 3.121598 0.983529 -4.324284
v 3.140813 -1.016471 -4.519374
v 3.140813 0.983529 -4.519374
v 3.197719 -1.016471 -4.706967
v 3.197719 0.983529 -4.706967
v 3.290129 -1.016471 -4.879854
v 3.290129 0.983529 -4.879854
v 3.414492 -1.016471 -5.031390
v 3.414492 0.983529 -5.031390
v 3.566028 -1.016471 -5.155753
v 3.566028 0.983529 -5.155753
v 3.738915 -1.016471 -5.248163
v 3.738915 0.983529 -5.248163
v 3.926508 -1.016471 -5.305069
v 3.926508 0.983529 -5.305069
v 0.431259 -1.016471 -10.432896
v 0.431259 0.983529 -10.432896
v 0.626349 -1.016471 -10.413681
v 0.626349 0.983529 -10.413681
v 0.813942 -1.016471 -10.356775
v 0.813942 0.983529 -10.356775
v 0.986829 -1.016471 -10.264365
v 0.986829 0.983529 -10.264365
v 1.138365 -1.016471 -10.140002
v 1.138365 0.983529 -10.140002
v 1.262728 -1.016471 -9.988466
v 1.262728 0.983529 -9.988466
v 1.355138 -1.016471 -9.815579
v 1.355138 0.983529 -9.815579
v 1.412044 -1.016471 -9.627986
v 1.412044 0.983529 -9.627986
v 1.431258 -1.016471 -9.432896
v 1.431258 0.983529 -9.432896
v 1.412044 -1.016471 -9.237805
v 1.412044 0.983529 -9.237805
v 1.355138 -1.016471 -9.050212
v 1.355138 0.983529 -9.050212
v 1.262728 -1.016471 -8.877325
v 1.262728 0.983529 -8.877325
v 1.138365 -1.016471 -8.725789
v 1.138365 0.983529 -8.725789
v 0.986829 -1.016471 -8.601426
v 0.986829 0.983529 -8.601426
v 0.813942 -1.016471 -8.509016
v 0.813942 0.983529 -8.509016
v 0.626349 -1.016471 -8.452110
v 0.626349 0.983529 -8.452110
v 0.431259 -1.016471 -8.432896
v 0.431259 0.983529 -8.432896
v 0.236168 -1.016471 -8.452110
v 0.236168 0.983529 -8.452110
v 0.048575 -1.016471 -8.509016
v 0.048575 0.983529 -8.509016
v -0.124312 -1.016471 -8.601426
v -0.124312 0.983529 -8.601426
v -0.275848 -1.016471 -8.725789
v -0.275848 0.983529 -8.725789
v -0.400211 -1.016471 -8.877325
v -0.400211 0.983529 -8.877325
v -0.492621 -1.016471 -9.050212
v -0.492621 0.983529 -9.050212
v -0.549527 -1.016471 -9.237805
v -0.549527 0.983529 -9.237805
v -0.568741 -1.016471 -9.432896
v -0.568741 0.983529 -9.432896
v -0.549527 -1.016471 -9.627986
v -0.549527 0.983529 -9.627986
v -0.492621 -1.016471 -9.815579
v -0.492621 0.983529 -9.815579
v -0.400211 -1.016471 -9.988466
v -0.400211 0.983529 -9.988466
v -0.275848 -1.016471 -10.140002
v -0.275848 0.983529 -10.140002
v -0.124312 -1.016471 -10.264365
v -0.124312 0.983529 -10.264365
v 0.048575 -1.016471 -10.356775
v 0.048575 0.983529 -10.356775
v 0.236168 -1.016471 -10.413681
v 0.236168 0.983529 -10.413681
vn 0.0980 -0.0000 -0.9952
vn 0.2903 -0.0000 -0.9569
vn 0.4714 -0.0000 -0.8819
vn 0.6344 -0.0000 -0.7730
vn 0.7730 -0.0000 -0.6344
vn 0.8819 -0.0000 -0.4714
vn 0.9569 -0.0000 -0.2903
vn 0.9952 -0.0000 -0.0980
vn 0.9952 -0.0000 0.0980
vn 0.9569 -0.0000 0.2903
vn 0.8819 -0.0000 0.4714
vn 0.7730 -0.0000 0.6344
vn 0.6344 -0.0000 0.7730
vn 0.4714 -0.0000 0.8819
vn 0.2903 -0.0000 0.9569
vn 0.0980 -0.0000 0.9952
vn -0.0980 -0.0000 0.9952
vn -0.2903 -0.0000 0.9569
vn -0.4714 -0.0000 0.8819
vn -0.6344 -0.0000 0.7730
vn -0.7730 -0.0000 0.6344
vn -0.8819 -0.0000 0.4714
vn -0.9569 -0.0000 0.2903
vn -0.9952 -0.0000 0.0980
vn -0.9952 -0.0000 -0.0980
vn -0.9569 -0.0000 -0.2903
vn -0.8819 -0.0000 -0.4714
vn -0.7730 -0.0000 -0.6344
vn -0.6344 -0.0000 -0.7730
vn -0.4714 -0.0000 -0.8819
vn -0.0000 1.0000 -0.0000
vn -0.2903 -0.0000 -0.9569
vn -0.0980 -0.0000 -0.9952
vn -0.0000 -1.0000 -0.0000
vt 1.000000 1.000000
vt 0.968750 0.500000
vt 1.000000 0.500000
vt 0.968750 1.000000
vt 0.937500 0.500000
vt 0.937500 1.000000
vt 0.906250 0.500000
vt 0.906250 1.000000
vt 0.875000 0.500000
vt 0.875000 1.000000
vt 0.843750 0.500000
vt 0.843750 1.000000
vt 0.812500 0.500000
vt 0.812500 1.000000
vt 0.781250 0.500000
vt 0.781250 1.000000
vt 0.750000 0.500000
vt 0.750000 1.000000
vt 0.718750 0.500000
vt 0.718750 1.000000
vt 0.687500 0.500000
vt 0.687500 1.000000
vt 0.656250 0.500000
vt 0.656250 1.000000
vt 0.625000 0.500000
vt 0.625000 1.000000
vt 0.593750 0.500000
vt 0.593750 1.000000
vt 0.562500 0.500000
vt 0.562500 1.000000
vt 0.531250 0.500000
vt 0.531250 1.000000
vt 0.500000 0.500000
vt 0.500000 1.000000
vt 0.468750 0.500000
vt 0.468750 1.000000
vt 0.437500 0.500000
vt 0.437500 1.000000
vt 0.406250 0.500000
vt 0.406250 1.000000
vt 0.375000 0.500000
vt 0.375000 1.000000
vt 0.343750 0.500000
vt 0.343750 1.000000
vt 0.312500 0.500000
vt 0.312500 1.000000
vt 0.281250 0.500000
vt 0.281250 1.000000
vt 0.250000 0.500000
vt 0.250000 1.000000
vt 0.218750 0.500000
vt 0.218750 1.000000
vt 0.187500 0.500000
vt 0.187500 1.000000
vt 0.156250 0.500000
vt 0.156250 1.000000
vt 0.125000 0.500000
vt 0.125000 1.000000
vt 0.093750 0.500000
vt 0.093750 1.000000
vt 0.062500 0.500000
vt 0.158156 0.028269
vt 0.471731 0.158156
vt 0.341844 0.471731
vt 0.062500 1.000000
vt 0.031250 0.500000
vt 0.031250 1.000000
vt 0.000000 0.500000
vt 0.796822 0.014612
vt 0.514612 0.203178
vt 0.703178 0.485388
vt 0.616663 0.050447
vt 0.296822 0.485388
vt 0.250000 0.490000
vt 0.203178 0.485388
vt 0.158156 0.471731
vt 0.116663 0.449553
vt 0.080294 0.419706
vt 0.050447 0.383337
vt 0.028269 0.341844
vt 0.014612 0.296822
vt 0.010000 0.250000
vt 0.014612 0.203178
vt 0.028269 0.158156
vt 0.050447 0.116663
vt 0.080294 0.080294
vt 0.116663 0.050447
vt 0.203178 0.014612
vt 0.341844 0.028269
vt 0.250000 0.010000
vt 0.296822 0.014612
vt 0.383337 0.050447
vt 0.419706 0.080294
vt 0.449553 0.116663
vt 0.485388 0.203178
vt 0.471731 0.341844
vt 0.490000 0.250000
vt 0.485388 0.296822
vt 0.449553 0.383337
vt 0.419706 0.419706
vt 0.383337 0.449553
vt 0.000000 1.000000
vt 0.750000 0.490000
vt 0.796822 0.485388
vt 0.841844 0.471731
vt 0.883337 0.449553
vt 0.919706 0.419706
vt 0.949553 0.383337
vt 0.971731 0.341844
vt 0.985388 0.296822
vt 0.990000 0.250000
vt 0.985388 0.203178
vt 0.971731 0.158156
vt 0.949553 0.116663
vt 0.919706 0.080294
vt 0.883337 0.050447
vt 0.841844 0.028269
vt 0.750000 0.010000
vt 0.703178 0.014612
vt 0.658156 0.028269
vt 0.580294 0.080294
vt 0.550447 0.116663
vt 0.528269 0.158156
vt 0.510000 0.250000
vt 0.514612 0.296822
vt 0.528269 0.341844
vt 0.550447 0.383337
vt 0.580294 0.419706
vt 0.616663 0.449553
vt 0.658156 0.471731
s 0
f 2/1/1 3/2/1 1/3/1
f 4/4/2 5/5/2 3/2/2
f 6/6/3 7/7/3 5/5/3
f 8/8/4 9/9/4 7/7/4
f 10/10/5 11/11/5 9/9/5
f 12/12/6 13/13/6 11/11/6
f 14/14/7 15/15/7 13/13/7
f 16/16/8 17/17/8 15/15/8
f 18/18/9 19/19/9 17/17/9
f 20/20/10 21/21/10 19/19/10
f 22/22/11 23/23/11 21/21/11
f 24/24/12 25/25/12 23/23/12
f 26/26/13 27/27/13 25/25/13
f 28/28/14 29/29/14 27/27/14
f 30/30/15 31/31/15 29/29/15
f 32/32/16 33/33/16 31/31/16
f 34/34/17 35/35/17 33/33/17
f 36/36/18 37/37/18 35/35/18
f 38/38/19 39/39/19 37/37/19
f 40/40/20 41/41/20 39/39/20
f 42/42/21 43/43/21 41/41/21
f 44/44/22 45/45/22 43/43/22
f 46/46/23 47/47/23 45/45/23
f 48/48/24 49/49/24 47/47/24
f 50/50/25 51/51/25 49/49/25
f 52/52/26 53/53/26 51/51/26
f 54/54/27 55/55/27 53/53/27
f 56/56/28 57/57/28 55/55/28
f 58/58/29 59/59/29 57/57/29
f 60/60/30 61/61/30 59/59/30
f 38/62/31 22/63/31 6/64/31
f 62/65/32 63/66/32 61/61/32
f 64/67/33 1/68/33 63/66/33
f 31/69/34 47/70/34 63/71/34
f 66/1/1 67/2/1 65/3/1
f 68/4/2 69/5/2 67/2/2
f 70/6/3 71/7/3 69/5/3
f 72/8/4 73/9/4 71/7/4
f 74/10/5 75/11/5 73/9/5
f 76/12/6 77/13/6 75/11/6
f 78/14/7 79/15/7 77/13/7
f 80/16/8 81/17/8 79/15/8
f 82/18/9 83/19/9 81/17/9
f 84/20/10 85/21/10 83/19/10
f 86/22/11 87/23/11 85/21/11
f 88/24/12 89/25/12 87/23/12
f 90/26/13 91/27/13 89/25/13
f 92/28/14 93/29/14 91/27/14
f 94/30/15 95/31/15 93/29/15
f 96/32/16 97/33/16 95/31/16
f 98/34/17 99/35/17 97/33/17
f 100/36/18 101/37/18 99/35/18
f 102/38/19 103/39/19 101/37/19
f 104/40/20 105/41/20 103/39/20
f 106/42/21 107/43/21 105/41/21
f 108/44/22 109/45/22 107/43/22
f 110/46/23 111/47/23 109/45/23
f 112/48/24 113/49/24 111/47/24
f 114/50/25 115/51/25 113/49/25
f 116/52/26 117/53/26 115/51/26
f 118/54/27 119/55/27 117/53/27
f 120/56/28 121/57/28 119/55/28
f 122/58/29 123/59/29 121/57/29
f 124/60/30 125/61/30 123/59/30
f 102/62/31 86/63/31 70/64/31
f 126/65/32 127/66/32 125/61/32
f 128/67/33 65/68/33 127/66/33
f 95/69/34 111/70/34 127/71/34
f 130/1/1 131/2/1 129/3/1
f 132/4/2 133/5/2 131/2/2
f 134/6/3 135/7/3 133/5/3
f 136/8/4 137/9/4 135/7/4
f 138/10/5 139/11/5 137/9/5
f 140/12/6 141/13/6 139/11/6
f 142/14/7 143/15/7 141/13/7
f 144/16/8 145/17/8 143/15/8
f 146/18/9 147/19/9 145/17/9
f 148/20/10 149/21/10 147/19/10
f 150/22/11 151/23/11 149/21/11
f 152/24/12 153/25/12 151/23/12
f 154/26/13 155/27/13 153/25/13
f 156/28/14 157/29/14 155/27/14
f 158/30/15 159/31/15 157/29/15
f 160/32/16 161/33/16 159/31/16
f 162/34/17 163/35/17 161/33/17
f 164/36/18 165/37/18 163/35/18
f 166/38/19 167/39/19 165/37/19
f 168/40/20 169/41/20 167/39/20
f 170/42/21 171/43/21 169/41/21
f 172/44/22 173/45/22 171/43/22
f 174/46/23 175/47/23 173/45/23
f 176/48/24 177/49/24 175/47/24
f 178/50/25 179/51/25 177/49/25
f 180/52/26 181/53/26 179/51/26
f 182/54/27 183/55/27 181/53/27
f 184/56/28 185/57/28 183/55/28
f 186/58/29 187/59/29 185/57/29
f 188/60/30 189/61/30 187/59/30
f 166/62/31 150/63/31 134/64/31
f 190/65/32 191/66/32 189/61/32
f 192/67/33 129/68/33 191/66/33
f 167/72/34 175/70/34 191/71/34
f 2/1/1 4/4/1 3/2/1
f 4/4/2 6/6/2 5/5/2
f 6/6/3 8/8/3 7/7/3
f 8/8/4 10/10/4 9/9/4
f 10/10/5 12/12/5 11/11/5
f 12/12/6 14/14/6 13/13/6
f 14/14/7 16/16/7 15/15/7
f 16/16/8 18/18/8 17/17/8
f 18/18/9 20/20/9 19/19/9
f 20/20/10 22/22/10 21/21/10
f 22/22/11 24/24/11 23/23/11
f 24/24/12 26/26/12 25/25/12
f 26/26/13 28/28/13 27/27/13
f 28/28/14 30/30/14 29/29/14
f 30/30/15 32/32/15 31/31/15
f 32/32/16 34/34/16 33/33/16
f 34/34/17 36/36/17 35/35/17
f 36/36/18 38/38/18 37/37/18
f 38/38/19 40/40/19 39/39/19
f 40/40/20 42/42/20 41/41/20
f 42/42/21 44/44/21 43/43/21
f 44/44/22 46/46/22 45/45/22
f 46/46/23 48/48/23 47/47/23
f 48/48/24 50/50/24 49/49/24
f 50/50/25 52/52/25 51/51/25
f 52/52/26 54/54/26 53/53/26
f 54/54/27 56/56/27 55/55/27
f 56/56/28 58/58/28 57/57/28
f 58/58/29 60/60/29 59/59/29
f 60/60/30 62/65/30 61/61/30
f 6/64/31 4/73/31 2/74/31
f 2/74/31 64/75/31 6/64/31
f 64/75/31 62/76/31 6/64/31
f 62/76/31 60/77/31 58/78/31
f 58/78/31 56/79/31 54/80/31
f 54/80/31 52/81/31 50/82/31
f 50/82/31 48/83/31 54/80/31
f 48/83/31 46/84/31 54/80/31
f 46/84/31 44/85/31 42/86/31
f 42/86/31 40/87/31 38/62/31
f 38/62/31 36/88/31 30/89/31
f 36/88/31 34/90/31 30/89/31
f 34/90/31 32/91/31 30/89/31
f 30/89/31 28/92/31 26/93/31
f 26/93/31 24/94/31 22/63/31
f 22/63/31 20/95/31 14/96/31
f 20/95/31 18/97/31 14/96/31
f 18/97/31 16/98/31 14/96/31
f 14/96/31 12/99/31 10/100/31
f 10/100/31 8/101/31 6/64/31
f 62/76/31 58/78/31 6/64/31
f 58/78/31 54/80/31 6/64/31
f 46/84/31 42/86/31 54/80/31
f 42/86/31 38/62/31 54/80/31
f 30/89/31 26/93/31 38/62/31
f 26/93/31 22/63/31 38/62/31
f 14/96/31 10/100/31 22/63/31
f 10/100/31 6/64/31 22/63/31
f 6/64/31 54/80/31 38/62/31
f 62/65/32 64/67/32 63/66/32
f 64/67/33 2/102/33 1/68/33
f 63/71/34 1/103/34 3/104/34
f 3/104/34 5/105/34 7/106/34
f 7/106/34 9/107/34 11/108/34
f 11/108/34 13/109/34 15/110/34
f 15/110/34 17/111/34 19/112/34
f 19/112/34 21/113/34 23/114/34
f 23/114/34 25/115/34 27/116/34
f 27/116/34 29/117/34 31/69/34
f 31/69/34 33/118/34 35/119/34
f 35/119/34 37/120/34 39/72/34
f 39/72/34 41/121/34 43/122/34
f 43/122/34 45/123/34 47/70/34
f 47/70/34 49/124/34 51/125/34
f 51/125/34 53/126/34 55/127/34
f 55/127/34 57/128/34 59/129/34
f 59/129/34 61/130/34 63/71/34
f 63/71/34 3/104/34 15/110/34
f 3/104/34 7/106/34 15/110/34
f 7/106/34 11/108/34 15/110/34
f 15/110/34 19/112/34 31/69/34
f 19/112/34 23/114/34 31/69/34
f 23/114/34 27/116/34 31/69/34
f 31/69/34 35/119/34 47/70/34
f 35/119/34 39/72/34 47/70/34
f 39/72/34 43/122/34 47/70/34
f 47/70/34 51/125/34 63/71/34
f 51/125/34 55/127/34 63/71/34
f 55/127/34 59/129/34 63/71/34
f 63/71/34 15/110/34 31/69/34
f 66/1/1 68/4/1 67/2/1
f 68/4/2 70/6/2 69/5/2
f 70/6/3 72/8/3 71/7/3
f 72/8/4 74/10/4 73/9/4
f 74/10/5 76/12/5 75/11/5
f 76/12/6 78/14/6 77/13/6
f 78/14/7 80/16/7 79/15/7
f 80/16/8 82/18/8 81/17/8
f 82/18/9 84/20/9 83/19/9
f 84/20/10 86/22/10 85/21/10
f 86/22/11 88/24/11 87/23/11
f 88/24/12 90/26/12 89/25/12
f 90/26/13 92/28/13 91/27/13
f 92/28/14 94/30/14 93/29/14
f 94/30/15 96/32/15 95/31/15
f 96/32/16 98/34/16 97/33/16
f 98/34/17 100/36/17 99/35/17
f 100/36/18 102/38/18 101/37/18
f 102/38/19 104/40/19 103/39/19
f 104/40/20 106/42/20 105/41/20
f 106/42/21 108/44/21 107/43/21
f 108/44/22 110/46/22 109/45/22
f 110/46/23 112/48/23 111/47/23
f 112/48/24 114/50/24 113/49/24
f 114/50/25 116/52/25 115/51/25
f 116/52/26 118/54/26 117/53/26
f 118/54/27 120/56/27 119/55/27
f 120/56/28 122/58/28 121/57/28
f 122/58/29 124/60/29 123/59/29
f 124/60/30 126/65/30 125/61/30
f 70/64/31 68/73/31 66/74/31
f 66/74/31 128/75/31 126/76/31
f 126/76/31 124/77/31 122/78/31
f 122/78/31 120/79/31 118/80/31
f 118/80/31 116/81/31 114/82/31
f 114/82/31 112/83/31 118/80/31
f 112/83/31 110/84/31 118/80/31
f 110/84/31 108/85/31 106/86/31
f 106/86/31 104/87/31 102/62/31
f 102/62/31 100/88/31 94/89/31
f 100/88/31 98/90/31 94/89/31
f 98/90/31 96/91/31 94/89/31
f 94/89/31 92/92/31 90/93/31
f 90/93/31 88/94/31 86/63/31
f 86/63/31 84/95/31 82/97/31
f 82/97/31 80/98/31 78/96/31
f 78/96/31 76/99/31 74/100/31
f 74/100/31 72/101/31 70/64/31
f 70/64/31 66/74/31 126/76/31
f 126/76/31 122/78/31 70/64/31
f 122/78/31 118/80/31 70/64/31
f 110/84/31 106/86/31 118/80/31
f 106/86/31 102/62/31 118/80/31
f 94/89/31 90/93/31 102/62/31
f 90/93/31 86/63/31 102/62/31
f 86/63/31 82/97/31 78/96/31
f 78/96/31 74/100/31 86/63/31
f 74/100/31 70/64/31 86/63/31
f 70/64/31 118/80/31 102/62/31
f 126/65/32 128/67/32 127/66/32
f 128/67/33 66/102/33 65/68/33
f 127/71/34 65/103/34 71/106/34
f 65/103/34 67/104/34 71/106/34
f 67/104/34 69/105/34 71/106/34
f 71/106/34 73/107/34 79/110/34
f 73/107/34 75/108/34 79/110/34
f 75/108/34 77/109/34 79/110/34
f 79/110/34 81/111/34 87/114/34
f 81/111/34 83/112/34 87/114/34
f 83/112/34 85/113/34 87/114/34
f 87/114/34 89/115/34 95/69/34
f 89/115/34 91/116/34 95/69/34
f 91/116/34 93/117/34 95/69/34
f 95/69/34 97/118/34 99/119/34
f 99/119/34 101/120/34 103/72/34
f 103/72/34 105/121/34 111/70/34
f 105/121/34 107/122/34 111/70/34
f 107/122/34 109/123/34 111/70/34
f 111/70/34 113/124/34 115/125/34
f 115/125/34 117/126/34 111/70/34
f 117/126/34 119/127/34 111/70/34
f 119/127/34 121/128/34 127/71/34
f 121/128/34 123/129/34 127/71/34
f 123/129/34 125/130/34 127/71/34
f 95/69/34 99/119/34 111/70/34
f 99/119/34 103/72/34 111/70/34
f 127/71/34 71/106/34 95/69/34
f 71/106/34 79/110/34 95/69/34
f 79/110/34 87/114/34 95/69/34
f 111/70/34 119/127/34 127/71/34
f 130/1/1 132/4/1 131/2/1
f 132/4/2 134/6/2 133/5/2
f 134/6/3 136/8/3 135/7/3
f 136/8/4 138/10/4 137/9/4
f 138/10/5 140/12/5 139/11/5
f 140/12/6 142/14/6 141/13/6
f 142/14/7 144/16/7 143/15/7
f 144/16/8 146/18/8 145/17/8
f 146/18/9 148/20/9 147/19/9
f 148/20/10 150/22/10 149/21/10
f 150/22/11 152/24/11 151/23/11
f 152/24/12 154/26/12 153/25/12
f 154/26/13 156/28/13 155/27/13
f 156/28/14 158/30/14 157/29/14
f 158/30/15 160/32/15 159/31/15
f 160/32/16 162/34/16 161/33/16
f 162/34/17 164/36/17 163/35/17
f 164/36/18 166/38/18 165/37/18
f 166/38/19 168/40/19 167/39/19
f 168/40/20 170/42/20 169/41/20
f 170/42/21 172/44/21 171/43/21
f 172/44/22 174/46/22 173/45/22
f 174/46/23 176/48/23 175/47/23
f 176/48/24 178/50/24 177/49/24
f 178/50/25 180/52/25 179/51/25
f 180/52/26 182/54/26 181/53/26
f 182/54/27 184/56/27 183/55/27
f 184/56/28 186/58/28 185/57/28
f 186/58/29 188/60/29 187/59/29
f 188/60/30 190/65/30 189/61/30
f 134/64/31 132/73/31 130/74/31
f 130/74/31 192/75/31 190/76/31
f 190/76/31 188/77/31 186/78/31
f 186/78/31 184/79/31 182/80/31
f 182/80/31 180/81/31 178/82/31
f 178/82/31 176/83/31 182/80/31
f 176/83/31 174/84/31 182/80/31
f 174/84/31 172/85/31 170/86/31
f 170/86/31 168/87/31 166/62/31
f 166/62/31 164/88/31 162/90/31
f 162/90/31 160/91/31 158/89/31
f 158/89/31 156/92/31 154/93/31
f 154/93/31 152/94/31 150/63/31
f 150/63/31 148/95/31 146/97/31
f 146/97/31 144/98/31 142/96/31
f 142/96/31 140/99/31 138/100/31
f 138/100/31 136/101/31 134/64/31
f 134/64/31 130/74/31 190/76/31
f 190/76/31 186/78/31 134/64/31
f 186/78/31 182/80/31 134/64/31
f 174/84/31 170/86/31 166/62/31
f 166/62/31 162/90/31 158/89/31
f 158/89/31 154/93/31 166/62/31
f 154/93/31 150/63/31 166/62/31
f 150/63/31 146/97/31 142/96/31
f 142/96/31 138/100/31 150/63/31
f 138/100/31 134/64/31 150/63/31
f 182/80/31 174/84/31 134/64/31
f 174/84/31 166/62/31 134/64/31
f 190/65/32 192/67/32 191/66/32
f 192/67/33 130/102/33 129/68/33
f 191/71/34 129/103/34 135/106/34
f 129/103/34 131/104/34 135/106/34
f 131/104/34 133/105/34 135/106/34
f 135/106/34 137/107/34 143/110/34
f 137/107/34 139/108/34 143/110/34
f 139/108/34 141/109/34 143/110/34
f 143/110/34 145/111/34 151/114/34
f 145/111/34 147/112/34 151/114/34
f 147/112/34 149/113/34 151/114/34
f 151/114/34 153/115/34 155/116/34
f 155/116/34 157/117/34 159/69/34
f 159/69/34 161/118/34 167/72/34
f 161/118/34 163/119/34 167/72/34
f 163/119/34 165/120/34 167/72/34
f 167/72/34 169/121/34 175/70/34
f 169/121/34 171/122/34 175/70/34
f 171/122/34 173/123/34 175/70/34
f 175/70/34 177/124/34 179/125/34
f 179/125/34 181/126/34 183/127/34
f 183/127/34 185/128/34 191/71/34
f 185/128/34 187/129/34 191/71/34
f 187/129/34 189/130/34 191/71/34
f 151/114/34 155/116/34 143/110/34
f 155/116/34 159/69/34 143/110/34
f 175/70/34 179/125/34 191/71/34
f 179/125/34 183/127/34 191/71/34
f 191/71/34 135/106/34 159/69/34
f 135/106/34 143/110/34 159/69/34
f 159/69/34 167/72/34 191/71/34
