# Blender 4.4.1
# www.blender.org
mtllib top_building.mtl
o top_building
v -34.114697 -10.136139 44.216911
v -34.114697 -2.956024 44.216911
v -34.114697 -10.136139 -44.216911
v -34.114697 -2.956024 -44.216911
v 34.114697 -10.136139 44.216911
v 34.114697 -2.956024 44.216911
v 34.114697 -10.136139 -44.216911
v 34.114697 -2.956024 -44.216911
v -85.366386 32.181847 141.784042
v -85.366386 54.338699 141.784042
v -85.366386 32.181847 104.880112
v -85.366386 54.338699 104.880112
v -40.664413 32.181847 141.784042
v -40.664413 54.338699 141.784042
v -40.664413 32.181847 104.880112
v -40.664413 54.338699 104.880112
v -130.156403 71.625732 46.831902
v -130.156403 93.782585 46.831902
v -130.156403 71.625732 -5.889078
v -130.156403 93.782585 -5.889078
v -100.987617 71.625732 46.831902
v -100.987617 93.782585 46.831902
v -100.987617 71.625732 -5.889078
v -100.987617 93.782585 -5.889078
v 39.633389 32.181847 122.451454
v 39.633389 54.338699 122.451454
v 39.633389 32.181847 95.825516
v 39.633389 54.338699 95.825516
v 98.754173 32.181847 122.451454
v 98.754173 54.338699 122.451454
v 98.754173 32.181847 95.825516
v 98.754173 54.338699 95.825516
v -230.466293 56.402405 125.763367
v -230.466293 78.559265 125.763367
v -230.466293 56.402405 73.042397
v -230.466293 78.559265 73.042397
v -201.297531 56.402405 125.763367
v -201.297531 78.559265 125.763367
v -201.297531 56.402405 73.042397
v -201.297531 78.559265 73.042397
v -85.366386 37.765991 -528.505493
v -85.366386 59.922848 -528.505493
v -85.366386 37.765991 -565.409424
v -85.366386 59.922848 -565.409424
v -40.664413 37.765991 -528.505493
v -40.664413 59.922848 -528.505493
v -40.664413 37.765991 -565.409424
v -40.664413 59.922848 -565.409424
v 27.209742 37.765991 -471.793427
v 27.209742 59.922848 -471.793427
v 27.209742 37.765991 -498.419373
v 27.209742 59.922848 -498.419373
v 86.330521 37.765991 -471.793427
v 86.330521 59.922848 -471.793427
v 86.330521 37.765991 -498.419373
v 86.330521 59.922848 -498.419373
v -26.226662 -4.267142 36.785923
v -26.226662 0.714779 36.785923
v -26.226662 -4.267142 -36.786091
v -26.226662 0.714779 -36.786091
v 26.226662 -4.267142 36.785923
v 26.226662 0.714779 36.785923
v 26.226662 -4.267142 -36.786091
v 26.226662 0.714779 -36.786091
vn -1.0000 -0.0000 -0.0000
vn -0.0000 -0.0000 -1.0000
vn 1.0000 -0.0000 -0.0000
vn -0.0000 -0.0000 1.0000
vn -0.0000 -1.0000 -0.0000
vn -0.0000 1.0000 -0.0000
vt 0.625000 0.000000
vt 0.375000 0.250000
vt 0.375000 0.000000
vt 0.625000 0.250000
vt 0.375000 0.500000
vt 0.625000 0.500000
vt 0.375000 0.750000
vt 0.625000 0.750000
vt 0.375000 1.000000
vt 0.125000 0.750000
vt 0.125000 0.500000
vt 0.875000 0.500000
vt 0.625000 1.000000
vt 0.875000 0.750000
s 0
usemtl マテリアル.002
f 2/1/1 3/2/1 1/3/1
f 4/4/2 7/5/2 3/2/2
f 8/6/3 5/7/3 7/5/3
f 6/8/4 1/9/4 5/7/4
f 7/5/5 1/10/5 3/11/5
f 4/12/6 6/8/6 8/6/6
f 10/1/1 11/2/1 9/3/1
f 12/4/2 15/5/2 11/2/2
f 16/6/3 13/7/3 15/5/3
f 14/8/4 9/9/4 13/7/4
f 15/5/5 9/10/5 11/11/5
f 12/12/6 14/8/6 16/6/6
f 18/1/1 19/2/1 17/3/1
f 20/4/2 23/5/2 19/2/2
f 24/6/3 21/7/3 23/5/3
f 22/8/4 17/9/4 21/7/4
f 23/5/5 17/10/5 19/11/5
f 20/12/6 22/8/6 24/6/6
f 26/1/1 27/2/1 25/3/1
f 28/4/2 31/5/2 27/2/2
f 32/6/3 29/7/3 31/5/3
f 30/8/4 25/9/4 29/7/4
f 31/5/5 25/10/5 27/11/5
f 28/12/6 30/8/6 32/6/6
f 34/1/1 35/2/1 33/3/1
f 36/4/2 39/5/2 35/2/2
f 40/6/3 37/7/3 39/5/3
f 38/8/4 33/9/4 37/7/4
f 39/5/5 33/10/5 35/11/5
f 36/12/6 38/8/6 40/6/6
f 42/1/1 43/2/1 41/3/1
f 44/4/2 47/5/2 43/2/2
f 48/6/3 45/7/3 47/5/3
f 46/8/4 41/9/4 45/7/4
f 47/5/5 41/10/5 43/11/5
f 44/12/6 46/8/6 48/6/6
f 50/1/1 51/2/1 49/3/1
f 52/4/2 55/5/2 51/2/2
f 56/6/3 53/7/3 55/5/3
f 54/8/4 49/9/4 53/7/4
f 55/5/5 49/10/5 51/11/5
f 52/12/6 54/8/6 56/6/6
f 58/1/1 59/2/1 57/3/1
f 60/4/2 63/5/2 59/2/2
f 64/6/3 61/7/3 63/5/3
f 62/8/4 57/9/4 61/7/4
f 63/5/5 57/10/5 59/11/5
f 60/12/6 62/8/6 64/6/6
f 2/1/1 4/4/1 3/2/1
f 4/4/2 8/6/2 7/5/2
f 8/6/3 6/8/3 5/7/3
f 6/8/4 2/13/4 1/9/4
f 7/5/5 5/7/5 1/10/5
f 4/12/6 2/14/6 6/8/6
f 10/1/1 12/4/1 11/2/1
f 12/4/2 16/6/2 15/5/2
f 16/6/3 14/8/3 13/7/3
f 14/8/4 10/13/4 9/9/4
f 15/5/5 13/7/5 9/10/5
f 12/12/6 10/14/6 14/8/6
f 18/1/1 20/4/1 19/2/1
f 20/4/2 24/6/2 23/5/2
f 24/6/3 22/8/3 21/7/3
f 22/8/4 18/13/4 17/9/4
f 23/5/5 21/7/5 17/10/5
f 20/12/6 18/14/6 22/8/6
f 26/1/1 28/4/1 27/2/1
f 28/4/2 32/6/2 31/5/2
f 32/6/3 30/8/3 29/7/3
f 30/8/4 26/13/4 25/9/4
f 31/5/5 29/7/5 25/10/5
f 28/12/6 26/14/6 30/8/6
f 34/1/1 36/4/1 35/2/1
f 36/4/2 40/6/2 39/5/2
f 40/6/3 38/8/3 37/7/3
f 38/8/4 34/13/4 33/9/4
f 39/5/5 37/7/5 33/10/5
f 36/12/6 34/14/6 38/8/6
f 42/1/1 44/4/1 43/2/1
f 44/4/2 48/6/2 47/5/2
f 48/6/3 46/8/3 45/7/3
f 46/8/4 42/13/4 41/9/4
f 47/5/5 45/7/5 41/10/5
f 44/12/6 42/14/6 46/8/6
f 50/1/1 52/4/1 51/2/1
f 52/4/2 56/6/2 55/5/2
f 56/6/3 54/8/3 53/7/3
f 54/8/4 50/13/4 49/9/4
f 55/5/5 53/7/5 49/10/5
f 52/12/6 50/14/6 54/8/6
f 58/1/1 60/4/1 59/2/1
f 60/4/2 64/6/2 63/5/2
f 64/6/3 62/8/3 61/7/3
f 62/8/4 58/13/4 57/9/4
f 63/5/5 61/7/5 57/10/5
f 60/12/6 58/14/6 62/8/6
