# Blender 4.4.1
# www.blender.org
mtllib object.mtl
o object
v -25.062630 15.289646 118.791397
v -25.062630 15.289646 -118.791412
v 24.937378 15.289644 118.791397
v -25.062630 -15.291967 118.791397
v -25.062630 -15.291967 -118.791412
v 24.937363 -15.291971 118.791397
v -9.475044 -9.610771 118.791397
v 0.138283 -13.592743 118.791397
v -13.457016 0.002557 118.791397
v -9.475044 -9.610767 -118.791412
v -9.917946 -8.541521 -118.791412
v 0.138283 -13.592737 -118.791412
v 9.751602 -9.610765 -118.791412
v 24.937363 -15.291971 -118.791412
v 13.733582 0.002562 -118.791412
v 9.751602 -9.610771 118.791397
v 13.733582 0.002556 118.791397
v 9.751602 9.615885 118.791397
v 0.138283 13.597856 118.791397
v 9.751602 9.615891 -118.791412
v 0.138283 13.597861 -118.791412
v -9.475052 9.615890 -118.791412
v -13.457016 0.002562 -118.791412
v -9.475052 9.615885 118.791397
v 24.937378 15.289644 -118.791412
v -279.511414 23.462238 151.064926
v -168.839798 23.462234 151.064926
v -279.511414 23.462238 119.783211
v -168.839798 23.462234 119.783211
v -279.511414 -31.873566 151.064926
v -168.839798 -31.873569 151.064926
v -279.511414 -31.873566 119.783211
v -168.839798 -31.873569 119.783211
v -3.008484 -29.455959 284.504333
v -3.008484 -29.455959 253.222626
v -3.008484 81.215637 284.504333
v 52.327301 -29.455963 284.504333
v 52.327301 -29.455963 253.222626
v 52.327301 81.215630 284.504333
v 52.327301 81.215630 253.222626
v -3.008484 81.215637 253.222626
v 61.868683 -29.455959 212.056549
v 61.868683 -29.455959 180.774826
v 61.868683 81.215637 212.056549
v 117.204498 -29.455961 212.056549
v 117.204498 -29.455961 180.774826
v 117.204498 81.215637 212.056549
v 117.204498 81.215637 180.774826
v 61.868683 81.215637 180.774826
v -68.921326 -29.455961 232.616196
v -68.921326 -29.455961 201.334473
v -68.921326 81.215637 232.616196
v -13.585510 -29.455963 232.616196
v -13.585510 -29.455963 201.334473
v -13.585510 81.215637 232.616196
v -13.585510 81.215637 201.334473
v -68.921326 81.215637 201.334473
v 175.274200 23.462234 151.737946
v 175.274200 23.462234 120.456238
v 285.945831 23.462229 151.737946
v 175.274200 -31.873564 151.737946
v 175.274200 -31.873564 120.456238
v 285.945831 -31.873569 151.737946
v 285.945831 -31.873569 120.456238
v 285.945831 23.462229 120.456238
v 71.915863 -29.455959 20.993973
v 71.915863 -29.455959 -10.287750
v 71.915863 81.215637 20.993973
v 127.251678 -29.455963 20.993973
v 127.251678 -29.455963 -10.287750
v 127.251678 81.215637 20.993973
v 127.251678 81.215637 -10.287750
v 71.915863 81.215637 -10.287750
v -135.475739 -29.455961 41.553383
v -135.475739 -29.455961 10.271667
v -135.475739 81.215637 41.553383
v -80.139938 -29.455965 41.553383
v -80.139938 -29.455965 10.271667
v -80.139938 81.215637 41.553383
v -80.139938 81.215637 10.271667
v -135.475739 81.215637 10.271667
vn -1.0000 -0.0000 -0.0000
vn -0.0000 1.0000 -0.0000
vn -0.0000 -0.0000 1.0000
vn -0.0000 -1.0000 -0.0000
vn 0.3827 0.9239 -0.0000
vn 0.9239 0.3827 -0.0000
vn -0.0000 -0.0000 -1.0000
vn -0.3827 0.9239 -0.0000
vn -0.9239 0.3827 -0.0000
vn -0.9239 -0.3827 -0.0000
vn -0.3827 -0.9239 -0.0000
vn 0.3827 -0.9239 -0.0000
vn 0.9239 -0.3827 -0.0000
vn 1.0000 -0.0000 -0.0000
vt 0.375000 0.500000
vt 0.125000 0.750000
vt 0.125000 0.500000
vt 0.625000 0.000000
vt 0.375000 0.250000
vt 0.375000 0.000000
vt 0.625000 1.000000
vt 0.375000 1.000000
vt 0.501005 0.894449
vt 0.625000 0.500000
vt 0.375000 0.750000
vt 0.625000 0.750000
vt 0.501005 0.758496
vt 0.500000 0.555613
vt 0.375000 0.902739
vt 0.500000 0.902739
vt 0.375000 0.555613
vt 0.361097 0.555613
vt 0.250000 0.902739
vt 0.452938 0.471594
vt 0.501005 0.491504
vt 0.625000 0.555613
vt 0.625000 0.902739
vt 0.625000 0.250000
vt 0.501005 0.355551
vt 0.750000 0.902739
vt 0.750000 0.555613
vt 0.875000 0.902739
vt 0.875000 0.555613
vt 1.000000 0.902739
vt 1.000000 0.555613
vt 0.000000 0.555613
vt 0.125000 0.902739
vt 0.125000 0.555613
vt 0.250000 0.555613
vt 0.875000 0.500000
vt 0.568981 0.826473
vt 0.549071 0.778406
vt 0.452938 0.778406
vt 0.433028 0.826473
vt 0.549071 0.874539
vt 0.452938 0.874539
vt 0.549071 0.471594
vt 0.450723 0.466248
vt 0.568981 0.423527
vt 0.433028 0.423527
vt 0.452938 0.375461
vt 0.549071 0.375461
vt 0.000000 0.902739
vt 0.875000 0.750000
s 0
usemtl 岩
f 5/1/1 1/2/1 2/3/1
f 3/4/2 2/5/2 1/6/2
f 3/7/3 1/8/3 19/9/3
f 14/10/4 4/11/4 5/1/4
f 4/11/3 6/12/3 8/13/3
f 12/14/5 7/15/5 8/16/5
f 10/17/6 11/18/6 9/19/6
f 5/1/7 10/20/7 12/21/7
f 13/22/8 8/16/8 16/23/8
f 2/5/7 25/24/7 21/25/7
f 13/22/9 17/26/9 15/27/9
f 15/27/10 18/28/10 20/29/10
f 20/29/11 19/30/11 21/31/11
f 21/32/12 24/33/12 22/34/12
f 23/35/13 24/33/13 9/19/13
f 25/36/14 6/12/14 14/10/14
f 27/4/2 28/5/2 26/6/2
f 29/24/7 32/1/7 28/5/7
f 33/10/4 30/11/4 32/1/4
f 31/12/3 26/8/3 30/11/3
f 32/1/1 26/2/1 28/3/1
f 29/36/14 31/12/14 33/10/14
f 38/1/4 34/2/4 35/3/4
f 36/4/1 35/5/1 34/6/1
f 39/12/3 34/8/3 37/11/3
f 40/10/14 37/11/14 38/1/14
f 41/36/2 39/12/2 40/10/2
f 41/24/7 38/1/7 35/5/7
f 46/1/4 42/2/4 43/3/4
f 44/4/1 43/5/1 42/6/1
f 47/12/3 42/8/3 45/11/3
f 48/10/14 45/11/14 46/1/14
f 49/36/2 47/12/2 48/10/2
f 49/24/7 46/1/7 43/5/7
f 54/1/4 50/2/4 51/3/4
f 52/4/1 51/5/1 50/6/1
f 55/12/3 50/8/3 53/11/3
f 56/10/14 53/11/14 54/1/14
f 57/36/2 55/12/2 56/10/2
f 57/24/7 54/1/7 51/5/7
f 62/1/1 58/2/1 59/3/1
f 60/4/2 59/5/2 58/6/2
f 63/12/3 58/8/3 61/11/3
f 64/10/4 61/11/4 62/1/4
f 65/36/14 63/12/14 64/10/14
f 65/24/7 62/1/7 59/5/7
f 70/1/4 66/2/4 67/3/4
f 68/4/1 67/5/1 66/6/1
f 71/12/3 66/8/3 69/11/3
f 72/10/14 69/11/14 70/1/14
f 73/36/2 71/12/2 72/10/2
f 73/24/7 70/1/7 67/5/7
f 78/1/4 74/2/4 75/3/4
f 76/4/1 75/5/1 74/6/1
f 79/12/3 74/8/3 77/11/3
f 80/10/14 77/11/14 78/1/14
f 81/36/2 79/12/2 80/10/2
f 81/24/7 78/1/7 75/5/7
f 5/1/1 4/11/1 1/2/1
f 3/4/2 25/24/2 2/5/2
f 17/37/3 16/38/3 6/12/3
f 1/8/3 4/11/3 7/39/3
f 1/8/3 7/39/3 9/40/3
f 17/37/3 6/12/3 3/7/3
f 18/41/3 17/37/3 3/7/3
f 1/8/3 9/40/3 24/42/3
f 19/9/3 18/41/3 3/7/3
f 1/8/3 24/42/3 19/9/3
f 14/10/4 6/12/4 4/11/4
f 8/13/3 7/39/3 4/11/3
f 6/12/3 16/38/3 8/13/3
f 12/14/5 10/17/5 7/15/5
f 9/19/6 7/15/6 10/17/6
f 11/18/6 23/35/6 9/19/6
f 12/21/7 13/43/7 14/10/7
f 5/1/7 11/44/7 10/20/7
f 12/21/7 14/10/7 5/1/7
f 13/22/8 12/14/8 8/16/8
f 11/44/7 5/1/7 2/5/7
f 25/24/7 14/10/7 13/43/7
f 25/24/7 13/43/7 15/45/7
f 23/46/7 11/44/7 2/5/7
f 22/47/7 23/46/7 2/5/7
f 25/24/7 15/45/7 20/48/7
f 21/25/7 22/47/7 2/5/7
f 25/24/7 20/48/7 21/25/7
f 13/22/9 16/23/9 17/26/9
f 15/27/10 17/26/10 18/28/10
f 20/29/11 18/28/11 19/30/11
f 21/32/12 19/49/12 24/33/12
f 23/35/13 22/34/13 24/33/13
f 25/36/14 3/50/14 6/12/14
f 27/4/2 29/24/2 28/5/2
f 29/24/7 33/10/7 32/1/7
f 33/10/4 31/12/4 30/11/4
f 31/12/3 27/7/3 26/8/3
f 32/1/1 30/11/1 26/2/1
f 29/36/14 27/50/14 31/12/14
f 38/1/4 37/11/4 34/2/4
f 36/4/1 41/24/1 35/5/1
f 39/12/3 36/7/3 34/8/3
f 40/10/14 39/12/14 37/11/14
f 41/36/2 36/50/2 39/12/2
f 41/24/7 40/10/7 38/1/7
f 46/1/4 45/11/4 42/2/4
f 44/4/1 49/24/1 43/5/1
f 47/12/3 44/7/3 42/8/3
f 48/10/14 47/12/14 45/11/14
f 49/36/2 44/50/2 47/12/2
f 49/24/7 48/10/7 46/1/7
f 54/1/4 53/11/4 50/2/4
f 52/4/1 57/24/1 51/5/1
f 55/12/3 52/7/3 50/8/3
f 56/10/14 55/12/14 53/11/14
f 57/36/2 52/50/2 55/12/2
f 57/24/7 56/10/7 54/1/7
f 62/1/1 61/11/1 58/2/1
f 60/4/2 65/24/2 59/5/2
f 63/12/3 60/7/3 58/8/3
f 64/10/4 63/12/4 61/11/4
f 65/36/14 60/50/14 63/12/14
f 65/24/7 64/10/7 62/1/7
f 70/1/4 69/11/4 66/2/4
f 68/4/1 73/24/1 67/5/1
f 71/12/3 68/7/3 66/8/3
f 72/10/14 71/12/14 69/11/14
f 73/36/2 68/50/2 71/12/2
f 73/24/7 72/10/7 70/1/7
f 78/1/4 77/11/4 74/2/4
f 76/4/1 81/24/1 75/5/1
f 79/12/3 76/7/3 74/8/3
f 80/10/14 79/12/14 77/11/14
f 81/36/2 76/50/2 79/12/2
f 81/24/7 80/10/7 78/1/7
