# Blender 4.4.1
# www.blender.org
mtllib Obstacle_Rock.mtl
o Obstacle_Rock
v -1.000000 -1.531557 1.000000
v -1.000000 1.000000 1.000000
v -0.392472 0.257627 1.000000
v -1.000000 -1.531557 -1.000000
v -1.000000 1.000000 -1.000000
v -0.392472 0.257627 -1.000000
v 1.000000 -1.531557 1.000000
v 1.000000 1.000000 1.000000
v 0.392472 0.257627 1.000000
v 1.000000 -1.531557 -1.000000
v 1.000000 1.000000 -1.000000
v 0.392472 0.257627 -1.000000
v -0.392472 -1.531557 -1.000000
v 0.392472 -1.531557 -1.000000
v -0.392472 -1.531557 1.000000
v 0.392472 -1.531557 1.000000
v -0.392472 0.257627 -1.000000
v -0.392472 -1.000000 -1.000000
v 0.392472 0.257627 -1.000000
v 0.392472 -1.000000 -1.000000
v 0.392472 0.257627 1.000000
v -0.392472 -1.000000 1.000000
v 0.392472 -1.000000 1.000000
v -0.392472 0.257627 1.000000
v 0.392472 -0.814584 -1.000000
v 0.235931 0.257627 -1.000000
v -0.392472 -0.009471 -1.000000
v -0.392472 -0.814584 1.000000
v -0.235931 0.257627 1.000000
v 0.392472 -0.484692 -0.180508
vn -1.0000 -0.0000 -0.0000
vn -0.0000 -0.0000 -1.0000
vn 1.0000 -0.0000 -0.0000
vn -0.0000 -0.0000 1.0000
vn -0.0000 -1.0000 -0.0000
vn -0.0000 1.0000 -0.0000
vn 0.9293 -0.0000 -0.3694
vt 0.625000 0.000000
vt 0.375000 0.250000
vt 0.375000 0.000000
vt 0.625000 0.250000
vt 0.625000 0.500000
vt 0.532203 0.325941
vt 0.375000 0.750000
vt 0.375000 0.500000
vt 0.625000 0.750000
vt 0.625000 1.000000
vt 0.532203 0.825941
vt 0.200941 0.500000
vt 0.200941 0.750000
vt 0.125000 0.750000
vt 0.299059 0.750000
vt 0.299059 0.500000
vt 0.875000 0.500000
vt 0.575143 0.250000
vt 0.424857 0.000000
vt 0.390247 0.250000
vt 0.390247 0.000000
vt 0.390247 0.500000
vt 0.486436 0.602436
vt 0.424857 0.500000
vt 0.674857 0.500000
vt 0.825143 0.750000
vt 0.875000 0.750000
vt 0.390247 0.049858
vt 0.390247 0.049858
vt 0.424857 0.049858
vt 0.390247 0.200143
vt 0.625000 0.200143
vt 0.575143 0.200143
vt 0.390247 0.549857
vt 0.390247 0.549857
vt 0.424857 0.549857
vt 0.625000 0.700143
vt 0.390247 0.700143
vt 0.625000 0.549857
vt 0.674857 0.549858
vt 0.875000 0.700143
vt 0.825142 0.700143
vt 0.375000 0.325941
vt 0.532203 0.424059
vt 0.375000 0.424059
vt 0.375000 0.825941
vt 0.375000 1.000000
vt 0.532203 0.924059
vt 0.375000 0.924059
vt 0.125000 0.500000
vt 0.390247 0.750000
vt 0.625000 0.049858
vt 0.625000 0.049858
vt 0.390247 0.200142
vt 0.390247 0.700143
vt 0.875000 0.549857
s 0
usemtl マテリアル
f 2/1/1 4/2/1 1/3/1
f 5/4/2 11/5/2 17/6/2
f 11/5/3 7/7/3 10/8/3
f 8/9/4 2/10/4 21/11/4
f 13/12/5 15/13/5 1/14/5
f 7/7/5 16/15/5 14/16/5
f 1/14/4 15/13/4 22/13/4
f 7/7/4 23/15/4 16/15/4
f 5/17/6 8/9/6 11/5/6
f 27/18/3 3/1/3 28/19/3
f 13/20/3 28/19/3 15/21/3
f 14/22/1 30/23/1 25/24/1
f 12/5/1 25/24/1 30/23/1
f 9/9/5 26/25/5 12/5/5
f 6/17/5 29/26/5 3/27/5
f 22/28/3 15/29/3 28/30/3
f 18/31/7 17/32/7 27/33/7
f 20/34/1 14/35/1 25/36/1
f 9/37/1 23/38/1 21/37/1
f 19/39/5 12/39/5 26/40/5
f 24/41/5 3/41/5 29/42/5
f 2/1/1 5/4/1 4/2/1
f 18/43/2 4/2/2 17/6/2
f 4/2/2 5/4/2 17/6/2
f 11/5/2 10/8/2 19/44/2
f 10/8/2 20/45/2 19/44/2
f 11/5/2 19/44/2 17/6/2
f 11/5/3 8/9/3 7/7/3
f 21/11/4 23/46/4 7/7/4
f 2/10/4 1/47/4 24/48/4
f 1/47/4 22/49/4 24/48/4
f 21/11/4 7/7/4 8/9/4
f 2/10/4 24/48/4 21/11/4
f 1/14/5 4/50/5 13/12/5
f 4/50/2 18/12/2 13/12/2
f 14/16/2 20/16/2 10/8/2
f 10/8/5 7/7/5 14/16/5
f 5/17/6 2/27/6 8/9/6
f 27/18/3 6/4/3 3/1/3
f 13/20/3 27/18/3 28/19/3
f 30/23/1 14/22/1 16/51/1
f 16/51/1 9/9/1 30/23/1
f 9/9/1 12/5/1 30/23/1
f 9/9/5 29/26/5 26/25/5
f 6/17/5 26/25/5 29/26/5
f 28/30/3 3/52/3 24/53/3
f 24/53/3 22/28/3 28/30/3
f 17/32/3 6/32/3 27/33/3
f 27/33/3 13/54/3 18/31/3
f 25/36/1 12/39/1 19/39/1
f 19/39/1 20/34/1 25/36/1
f 9/37/1 16/55/1 23/38/1
f 6/56/5 17/56/5 26/40/5
f 17/56/5 19/39/5 26/40/5
f 9/37/5 21/37/5 29/42/5
f 21/37/5 24/41/5 29/42/5
