# Blender 4.4.1
# www.blender.org
mtllib fixedTurret.mtl
o Cube.002
v -0.000118 0.169822 -1.143169
v -0.260972 -0.091031 -1.143169
v 0.260735 -0.091031 -1.143169
v -0.000118 -0.351884 -1.143169
v -0.000118 0.169822 -1.243169
v -0.260972 -0.091031 -1.243169
v 0.260735 -0.091031 -1.243169
v -0.000118 -0.351884 -1.243169
v -0.000118 -0.303163 -1.243169
v -0.000118 0.121101 -1.243169
v 0.212014 -0.091031 -1.243169
v -0.212250 -0.091031 -1.243169
v -0.212250 -0.091031 -1.143169
v 0.212014 -0.091031 -1.143169
v -0.000118 0.121101 -1.143169
v -0.000118 -0.303163 -1.143169
v -0.431074 -0.142472 -0.151613
v -0.421031 -0.131484 -0.151613
v -0.421031 -0.142472 -0.191254
v -0.421031 -0.351255 -0.151613
v -0.431074 -0.340267 -0.151613
v -0.421031 -0.340267 -0.191254
v -0.240255 -0.142472 -0.191254
v -0.240255 -0.131484 -0.151613
v -0.230212 -0.142472 -0.151613
v -0.240255 -0.340267 -0.191254
v -0.230212 -0.340267 -0.151613
v -0.240255 -0.351255 -0.151613
v -0.431074 -0.142472 0.561939
v -0.421031 -0.142472 0.601581
v -0.421031 -0.131484 0.561939
v -0.421031 -0.340267 0.601581
v -0.431074 -0.340267 0.561939
v -0.421031 -0.351255 0.561939
v -0.240255 -0.142472 0.601581
v -0.230212 -0.142472 0.561939
v -0.240255 -0.131484 0.561939
v -0.240255 -0.351255 0.561939
v -0.230212 -0.340267 0.561939
v -0.240255 -0.340267 0.601581
v 0.231332 -0.142472 -0.151613
v 0.241375 -0.131484 -0.151613
v 0.241375 -0.142472 -0.191254
v 0.241375 -0.351255 -0.151613
v 0.231332 -0.340267 -0.151613
v 0.241375 -0.340267 -0.191254
v 0.422150 -0.142472 -0.191254
v 0.422150 -0.131484 -0.151613
v 0.432193 -0.142472 -0.151613
v 0.422150 -0.340267 -0.191254
v 0.432193 -0.340267 -0.151613
v 0.422150 -0.351255 -0.151613
v 0.231332 -0.142472 0.561939
v 0.241375 -0.142472 0.601581
v 0.241375 -0.131484 0.561939
v 0.241375 -0.340267 0.601581
v 0.231332 -0.340267 0.561939
v 0.241375 -0.351255 0.561939
v 0.422150 -0.142472 0.601581
v 0.432193 -0.142472 0.561939
v 0.422150 -0.131484 0.561939
v 0.422150 -0.351255 0.561939
v 0.432193 -0.340267 0.561939
v 0.422150 -0.340267 0.601581
v -0.000118 0.144844 -0.286987
v -0.235994 -0.091031 -0.286987
v 0.235757 -0.091031 -0.286987
v -0.000118 -0.326906 -0.286987
v -0.000118 0.144844 -0.386987
v -0.235994 -0.091031 -0.386987
v 0.235757 -0.091031 -0.386987
v -0.000118 -0.326906 -0.386987
v -0.000118 -0.282851 -0.386987
v -0.000118 0.100788 -0.386987
v 0.191701 -0.091031 -0.386987
v -0.191938 -0.091031 -0.386987
v -0.191938 -0.091031 -0.286987
v 0.191701 -0.091031 -0.286987
v -0.000118 0.100788 -0.286987
v -0.000118 -0.282851 -0.286987
v -0.313239 -0.213042 0.834850
v -0.313239 -0.353717 0.834850
v -0.313239 -0.213042 0.633989
v -0.313239 -0.353717 0.633989
v 0.313002 -0.213042 0.834850
v 0.313002 -0.353717 0.834850
v 0.313002 -0.213042 0.633989
v 0.313002 -0.353717 0.633989
v -0.281927 0.411760 0.615285
v -0.281927 0.418794 0.566928
v -0.313239 0.411760 0.566928
v -0.281927 0.278119 0.566928
v -0.281927 0.285153 0.615285
v -0.313239 0.285153 0.566928
v -0.313239 0.411760 -0.303511
v -0.281927 0.418794 -0.303511
v -0.281927 0.411760 -0.351869
v -0.313239 0.285153 -0.303511
v -0.281927 0.285153 -0.351869
v -0.281927 0.278119 -0.303511
v 0.281690 0.411760 0.615285
v 0.313002 0.411760 0.566928
v 0.281690 0.418794 0.566928
v 0.313003 0.285153 0.566928
v 0.281690 0.285153 0.615285
v 0.281690 0.278119 0.566928
v 0.313002 0.411760 -0.303511
v 0.281690 0.411760 -0.351869
v 0.281690 0.418794 -0.303511
v 0.281690 0.278119 -0.303511
v 0.281690 0.285153 -0.351869
v 0.313002 0.285153 -0.303511
v -0.232351 0.403906 -0.284374
v -0.232351 -0.353867 -0.284374
v 0.232114 0.403906 -0.284374
v 0.232114 -0.353867 -0.284374
v -0.232351 0.403906 0.715626
v -0.232351 -0.353867 0.715626
v 0.232114 0.403906 0.715626
v 0.232114 -0.353867 0.715626
v -0.000118 0.121101 -1.189766
v -0.212250 -0.091031 -1.189766
v 0.212014 -0.091031 -1.189766
v -0.000118 -0.303163 -1.189766
v -0.000118 0.121101 -0.189766
v -0.212250 -0.091031 -0.189766
v 0.212014 -0.091031 -0.189766
v -0.000118 -0.303163 -0.189766
vn 0.7071 0.7071 -0.0000
vn 0.7071 -0.7071 -0.0000
vn -0.0000 -0.0000 -1.0000
vn -0.7071 -0.7071 -0.0000
vn -0.0000 -0.0000 1.0000
vn -0.7071 0.7071 -0.0000
vn -0.0000 -1.0000 -0.0000
vn -1.0000 -0.0000 -0.0000
vn -0.0000 1.0000 -0.0000
vn -0.7256 0.6631 -0.1838
vn -0.7256 -0.6631 -0.1838
vn -0.7256 -0.6631 0.1838
vn 0.7256 -0.6631 -0.1838
vn -0.7256 0.6631 0.1838
vn 0.7256 -0.6631 0.1838
vn -0.0000 -0.9637 0.2671
vn -0.7382 -0.6746 -0.0000
vn -0.9694 -0.0000 -0.2456
vn 0.9694 -0.0000 -0.2456
vn -0.9694 -0.0000 0.2456
vn -0.0000 0.9637 -0.2671
vn 0.7382 -0.6746 -0.0000
vn -0.0000 0.9637 0.2671
vn -0.7382 0.6746 -0.0000
vn -0.0000 -0.9637 -0.2671
vn 1.0000 -0.0000 -0.0000
vn 0.7256 0.6631 -0.1838
vn 0.7256 0.6631 0.1838
vn 0.9694 -0.0000 0.2456
vn 0.7382 0.6746 -0.0000
vn 0.7381 -0.6746 -0.0000
vn -0.7381 0.6746 -0.0000
vn -0.2170 0.9660 0.1405
vn -0.2170 -0.9660 0.1405
vn -0.2170 0.9660 -0.1405
vn -0.2170 -0.9660 -0.1405
vn 0.2170 0.9660 0.1405
vn 0.2170 -0.9660 0.1405
vn 0.2170 0.9660 -0.1405
vn 0.2170 -0.9660 -0.1405
vn 0.2192 -0.9757 -0.0000
vn -0.0000 -0.9896 0.1439
vn -0.8394 -0.0000 0.5435
vn 0.8394 -0.0000 -0.5435
vn -0.8394 -0.0000 -0.5435
vn 0.8394 -0.0000 0.5435
vn -0.0000 0.9896 -0.1439
vn -0.2192 0.9757 -0.0000
vn -0.0000 -0.9896 -0.1439
vn 0.2192 0.9757 -0.0000
vn -0.0000 0.9896 0.1439
vn -0.2192 -0.9757 -0.0000
vt 0.625000 0.500000
vt 0.875000 0.500000
vt 0.875000 0.750000
vt 0.625000 0.750000
vt 0.375000 0.750000
vt 0.625000 1.000000
vt 0.375000 1.000000
vt 0.601653 0.023347
vt 0.625000 0.000000
vt 0.625000 0.250000
vt 0.375000 0.250000
vt 0.398347 0.226653
vt 0.601653 0.226653
vt 0.375000 0.000000
vt 0.398347 0.023347
vt 0.125000 0.500000
vt 0.375000 0.500000
vt 0.125000 0.750000
vt 0.398347 0.726653
vt 0.601653 0.726653
vt 0.601653 0.523347
vt 0.398347 0.523347
vt 0.637477 0.500000
vt 0.662477 0.500000
vt 0.662477 0.750000
vt 0.637477 0.750000
vt 0.375000 0.787477
vt 0.375000 0.762477
vt 0.625000 0.762477
vt 0.625000 0.787477
vt 0.362523 0.500000
vt 0.362523 0.750000
vt 0.337523 0.750000
vt 0.337523 0.500000
vt 0.625000 0.487523
vt 0.375000 0.487523
vt 0.375000 0.462523
vt 0.625000 0.462523
vt 0.137500 0.512500
vt 0.137500 0.737500
vt 0.362500 0.737500
vt 0.362500 0.512500
vt 0.387500 0.012500
vt 0.387500 0.237500
vt 0.612500 0.237500
vt 0.612500 0.012500
vt 0.387500 0.762500
vt 0.612500 0.762500
vt 0.612500 0.987500
vt 0.387500 0.987500
vt 0.637500 0.512500
vt 0.637500 0.737500
vt 0.862500 0.737500
vt 0.862500 0.512500
vt 0.387500 0.512500
vt 0.387500 0.737500
vt 0.612500 0.737500
vt 0.612500 0.512500
vt 0.612500 0.487500
vt 0.612500 0.500000
vt 0.625000 0.487500
vt 0.375000 0.512500
vt 0.362500 0.500000
vt 0.612500 0.750000
vt 0.625000 0.762500
vt 0.375000 0.737500
vt 0.362500 0.750000
vt 0.612500 0.250000
vt 0.625000 0.237500
vt 0.125000 0.512500
vt 0.137500 0.500000
vt 0.612500 0.000000
vt 0.625000 0.012500
vt 0.125000 0.737500
vt 0.137500 0.750000
vt 0.387500 0.487500
vt 0.387500 0.000000
vt 0.612500 0.262500
vt 0.387500 0.262500
vt 0.625000 0.987500
vt 0.625000 0.262500
s 0
usemtl マテリアル
f 1/1/1 3/4/1 7/3/1 5/2/1
f 4/5/2 8/7/2 7/6/2 3/4/2
f 11/8/3 10/13/3 12/12/3 6/11/3 5/10/3 7/9/3
f 12/12/3 9/15/3 11/8/3 7/9/3 8/14/3 6/11/3
f 6/16/4 8/18/4 4/5/4 2/17/4
f 2/17/5 13/22/5 15/21/5 14/20/5 16/19/5 4/5/5 3/4/5 1/1/5
f 16/19/5 13/22/5 2/17/5 4/5/5
f 6/11/6 2/17/6 1/1/6 5/10/6
f 10/23/4 11/26/4 14/25/4 15/24/4
f 16/27/6 14/30/6 11/29/6 9/28/6
f 12/31/1 13/34/1 16/33/1 9/32/1
f 10/35/2 15/38/2 13/37/2 12/36/2
f 34/39/7 20/42/7 28/41/7 38/40/7
f 40/43/5 35/46/5 30/45/5 32/44/5
f 27/47/8 39/50/8 36/49/8 25/48/8
f 18/51/9 31/54/9 37/53/9 24/52/9
f 22/55/3 19/58/3 23/57/3 26/56/3
f 17/59/10 18/61/10 19/60/10
f 20/42/11 21/63/11 22/62/11
f 23/64/12 25/48/12 24/65/12
f 26/66/13 27/67/13 28/41/13
f 29/68/14 30/45/14 31/69/14
f 32/70/12 33/71/12 34/39/12
f 35/46/11 37/73/11 36/72/11
f 38/40/15 39/75/15 40/74/15
f 34/39/16 38/40/16 40/74/16 32/70/16
f 20/42/17 34/39/17 33/71/17 21/63/17
f 19/58/18 22/55/18 21/76/18 17/59/18
f 39/77/18 40/43/18 35/46/18 36/72/18
f 25/48/19 27/47/19 26/56/19 23/57/19
f 29/78/20 33/79/20 32/44/20 30/45/20
f 24/65/17 25/48/17 36/49/17 37/80/17
f 18/51/21 24/52/21 23/57/21 19/58/21
f 38/40/22 28/41/22 27/67/22 39/75/22
f 37/73/23 31/69/23 30/45/23 35/46/23
f 31/81/24 18/61/24 17/59/24 29/78/24
f 28/41/25 20/42/25 22/55/25 26/56/25
f 33/79/8 29/78/8 17/59/8 21/76/8
f 58/39/7 44/42/7 52/41/7 62/40/7
f 64/43/5 59/46/5 54/45/5 56/44/5
f 51/47/26 49/48/26 60/49/26 63/50/26
f 42/51/9 55/54/9 61/53/9 48/52/9
f 46/55/3 43/58/3 47/57/3 50/56/3
f 41/59/15 43/60/15 42/61/15
f 44/42/11 45/63/11 46/62/11
f 47/64/27 48/65/27 49/48/27
f 50/66/13 51/67/13 52/41/13
f 53/68/14 54/45/14 55/69/14
f 56/70/12 57/71/12 58/39/12
f 59/46/28 60/72/28 61/73/28
f 62/40/15 63/75/15 64/74/15
f 58/39/16 62/40/16 64/74/16 56/70/16
f 44/42/17 58/39/17 57/71/17 45/63/17
f 43/58/29 41/59/29 45/76/29 46/55/29
f 63/77/29 60/72/29 59/46/29 64/43/29
f 49/48/19 51/47/19 50/56/19 47/57/19
f 53/78/20 57/79/20 56/44/20 54/45/20
f 48/65/30 61/80/30 60/49/30 49/48/30
f 42/51/21 48/52/21 47/57/21 43/58/21
f 62/40/31 52/41/31 51/67/31 63/75/31
f 61/73/23 55/69/23 54/45/23 59/46/23
f 55/81/32 42/61/32 41/59/32 53/78/32
f 52/41/25 44/42/25 46/55/25 50/56/25
f 57/79/26 45/76/26 41/59/26 53/78/26
f 65/1/1 67/4/1 71/3/1 69/2/1
f 68/5/2 72/7/2 71/6/2 67/4/2
f 75/8/3 74/13/3 76/12/3 70/11/3 69/10/3 71/9/3
f 76/12/3 73/15/3 75/8/3 71/9/3 72/14/3 70/11/3
f 70/16/4 72/18/4 68/5/4 66/17/4
f 66/17/5 77/22/5 79/21/5 78/20/5 80/19/5 68/5/5 67/4/5 65/1/5
f 80/19/5 77/22/5 66/17/5 68/5/5
f 70/11/6 66/17/6 65/1/6 69/10/6
f 74/23/4 75/26/4 78/25/4 79/24/4
f 80/27/6 78/30/6 75/29/6 73/28/6
f 76/31/1 77/34/1 80/33/1 73/32/1
f 74/35/2 79/38/2 77/37/2 76/36/2
f 81/1/9 85/2/9 87/3/9 83/4/9
f 84/5/3 83/4/3 87/6/3 88/7/3
f 88/14/26 87/9/26 85/10/26 86/11/26
f 86/16/7 82/17/7 84/5/7 88/18/7
f 82/17/8 81/1/8 83/4/8 84/5/8
f 86/11/5 85/10/5 81/1/5 82/17/5
f 106/39/7 92/42/7 100/41/7 110/40/7
f 112/43/26 107/46/26 102/45/26 104/44/26
f 99/47/3 97/48/3 108/49/3 111/50/3
f 90/51/9 103/54/9 109/53/9 96/52/9
f 94/55/8 91/58/8 95/57/8 98/56/8
f 89/59/33 90/61/33 91/60/33
f 92/42/34 93/63/34 94/62/34
f 95/64/35 96/65/35 97/48/35
f 98/66/36 99/67/36 100/41/36
f 101/68/37 102/45/37 103/69/37
f 104/70/38 105/71/38 106/39/38
f 107/46/39 108/72/39 109/73/39
f 110/40/40 111/75/40 112/74/40
f 106/39/41 110/40/41 112/74/41 104/70/41
f 92/42/42 106/39/42 105/71/42 93/63/42
f 91/58/43 94/55/43 93/76/43 89/59/43
f 111/77/44 108/72/44 107/46/44 112/43/44
f 97/48/45 99/47/45 98/56/45 95/57/45
f 101/78/46 105/79/46 104/44/46 102/45/46
f 96/65/47 109/80/47 108/49/47 97/48/47
f 90/51/48 96/52/48 95/57/48 91/58/48
f 110/40/49 100/41/49 99/67/49 111/75/49
f 109/73/50 103/69/50 102/45/50 107/46/50
f 103/81/51 90/61/51 89/59/51 101/78/51
f 100/41/52 92/42/52 94/55/52 98/56/52
f 105/79/5 101/78/5 89/59/5 93/76/5
usemtl Material
f 113/1/9 117/2/9 119/3/9 115/4/9
f 116/5/26 115/4/26 119/6/26 120/7/26
f 120/14/5 119/9/5 117/10/5 118/11/5
f 118/16/7 114/17/7 116/5/7 120/18/7
f 114/17/3 113/1/3 115/4/3 116/5/3
f 118/11/8 117/10/8 113/1/8 114/17/8
f 121/1/1 125/2/1 127/3/1 123/4/1
f 124/5/2 123/4/2 127/6/2 128/7/2
f 128/14/3 126/11/3 125/10/3 127/9/3
f 126/16/4 122/17/4 124/5/4 128/18/4
f 122/17/3 121/1/3 123/4/3 124/5/3
f 126/11/6 125/10/6 121/1/6 122/17/6
