# Blender 4.4.1
# www.blender.org
mtllib collapsed bridge.mtl
o collapsed_bridge
v 0.515543 13.315676 -18.772846
v 2.803249 10.242352 -19.922226
v -0.883358 13.090673 -20.955566
v 1.404349 10.017350 -22.104946
v -21.104151 -8.812519 -2.635797
v -18.816444 -11.885843 -3.785176
v -22.503050 -9.037521 -4.818516
v -20.215343 -12.110845 -5.967895
v 0.664330 10.220988 -22.817156
v 19.914047 13.317142 7.218400
v 2.380111 7.915996 -23.679190
v -20.955360 -11.907204 -6.680106
v -1.705645 -8.811051 23.355450
v -19.239580 -14.212196 -7.542140
v 0.010136 -11.116044 22.493416
v 21.629827 11.012149 6.356366
v 17.276041 16.011461 7.378752
v 15.877143 15.786461 5.196032
v 19.563749 12.938138 6.229373
v -4.343649 -6.116732 23.515800
v -5.742549 -6.341732 21.333080
v -2.055942 -9.190055 22.366421
v -3.454842 -9.415055 20.183701
v 18.164850 12.713138 4.046653
v 44.213257 28.527237 -125.216522
v 47.468369 26.397324 -126.148041
v 42.990891 27.573076 -127.306297
v 46.245995 25.443161 -128.237808
v 32.272316 1.907749 -106.077827
v 35.527428 -0.222157 -107.009338
v 31.049938 0.953587 -108.167618
v 34.305061 -1.176323 -109.099121
v 45.481590 25.284420 -128.935547
v 62.302162 38.414337 -100.178871
v 47.922924 23.686989 -129.634186
v 33.540649 -1.335064 -109.796844
v 50.361221 11.794857 -81.040184
v 35.981979 -2.932495 -110.495483
v 52.802551 10.197422 -81.738815
v 64.743500 36.816902 -100.877510
v 58.858727 39.959305 -100.178436
v 57.636360 39.005135 -102.268211
v 62.113838 37.829399 -101.109955
v 46.917786 13.339819 -81.039734
v 45.695419 12.385658 -83.129524
v 50.172897 11.209915 -81.971252
v 48.950531 10.255741 -84.061043
v 60.891472 36.875233 -103.199722
v 17.200981 15.705400 -86.862236
v 47.278645 19.441006 -78.577728
v 17.542360 12.271481 -86.553230
v 12.196089 16.798592 -69.184448
v 42.273743 20.534193 -60.899940
v 12.537467 13.364672 -68.875450
v 42.615124 17.100271 -60.590935
v 47.620022 16.007084 -78.268723
v 19.493633 -3.658308 -83.760605
v 48.211418 -0.091599 -75.850647
v 17.523010 16.164278 -85.544342
v 15.144354 -2.708323 -68.398537
v 43.862141 0.858387 -60.488579
v 13.173729 17.114262 -70.182274
v 41.891510 20.680969 -62.272316
v 46.240791 19.730988 -77.634392
v -9.430707 -8.370173 -7.621346
v 9.303467 16.567791 -11.413729
v -7.192196 -10.322973 -9.404458
v -0.660603 -12.582665 8.001981
v 18.073568 12.355299 4.209598
v 1.577906 -14.535465 6.218871
v 20.312080 10.402498 2.426488
v 11.541978 14.614992 -13.196840
v 4.492949 -19.279224 -16.459002
v 22.380110 4.531240 -20.079922
v -8.429026 -8.006529 -6.165856
v 12.114210 -22.939898 -2.882257
v 30.001369 0.870564 -6.503177
v -0.807764 -11.667204 7.410890
v 17.079397 12.143261 3.789969
v 9.458135 15.803936 -9.786776
v -9.821378 -1.987491 -79.677673
v -8.046686 -5.525452 -79.100357
v -11.043747 -2.941657 -81.767456
v -9.269056 -6.479618 -81.190140
v -36.451900 -12.053918 -59.504547
v -34.677208 -15.591877 -58.927231
v -37.674271 -13.008083 -61.594326
v -35.899582 -16.546043 -61.017014
v -9.894655 -6.506339 -82.029327
v 6.925917 6.623575 -53.272663
v -8.563638 -9.159811 -81.596344
v -36.525177 -16.572762 -61.856209
v -19.704601 -3.442850 -33.099537
v -35.194157 -19.226234 -61.423214
v -18.373585 -6.096320 -32.666550
v 8.256935 3.970102 -52.839680
v 4.824096 9.444570 -54.639595
v 3.601725 8.490403 -56.729370
v 6.598789 5.906609 -54.062271
v -21.806421 -0.621854 -34.466461
v -23.028791 -1.576021 -36.556248
v -20.031729 -4.159814 -33.889149
v -21.254099 -5.113980 -35.978928
v 5.376420 4.952444 -56.152054
vn 0.6196 0.6342 -0.4625
vn -0.5376 -0.0865 -0.8388
vn -0.6196 -0.6342 0.4625
vn 0.5376 0.0865 0.8388
vn -0.5719 0.7683 0.2873
vn 0.5719 -0.7683 -0.2873
vn 0.3422 0.7629 -0.5485
vn -0.4697 -0.3667 -0.8031
vn -0.3422 -0.7629 0.5485
vn 0.4697 0.3667 0.8031
vn -0.8138 0.5325 0.2329
vn 0.8138 -0.5325 -0.2329
vn -0.0985 0.9911 -0.0892
vn 0.2719 -0.0594 -0.9605
vn -0.9573 -0.1189 -0.2637
vn -0.2719 0.0594 0.9605
vn 0.0985 -0.9911 0.0892
vn 0.9573 0.1189 0.2637
vn -0.6461 0.5636 0.5147
vn -0.4765 0.2289 -0.8489
vn -0.5962 -0.7937 0.1207
vn 0.4765 -0.2289 0.8489
vn 0.6461 -0.5636 -0.5147
vn 0.5962 0.7937 -0.1207
vn 0.7632 0.2885 -0.5782
vn -0.7632 -0.2885 0.5782
vn -0.4437 0.8845 -0.1443
vn 0.4437 -0.8845 0.1443
vt 0.625000 0.000000
vt 0.375000 0.250000
vt 0.375000 0.000000
vt 0.625000 0.500000
vt 0.375000 0.500000
vt 0.625000 0.750000
vt 0.375000 0.750000
vt 0.625000 1.000000
vt 0.375000 1.000000
vt 0.125000 0.750000
vt 0.125000 0.500000
vt 0.875000 0.750000
vt 0.625000 0.250000
vt 0.875000 0.500000
s 0
usemtl 岩
f 2/1/1 3/2/1 1/3/1
f 3/2/2 8/4/2 7/5/2
f 7/5/3 6/6/3 5/7/3
f 5/7/4 2/8/4 1/9/4
f 7/5/5 1/10/5 3/11/5
f 8/4/6 2/12/6 6/6/6
f 9/10/5 13/5/5 10/11/5
f 9/3/1 16/13/1 11/1/1
f 9/9/2 14/6/2 12/7/2
f 13/5/3 14/6/3 15/4/3
f 15/4/6 11/12/6 16/14/6
f 10/2/4 15/4/4 16/13/4
f 21/5/5 17/10/5 18/11/5
f 17/3/1 24/13/1 18/2/1
f 20/7/4 19/8/4 17/9/4
f 23/4/3 20/7/3 21/5/3
f 24/14/6 22/6/6 23/4/6
f 24/13/2 21/5/2 18/2/2
f 25/3/7 28/13/7 27/2/7
f 28/13/8 31/5/8 27/2/8
f 32/4/9 29/7/9 31/5/9
f 29/7/10 26/8/10 25/9/10
f 31/5/11 25/10/11 27/11/11
f 28/14/12 30/6/12 32/4/12
f 33/10/11 37/5/11 34/11/11
f 33/3/7 40/13/7 35/1/7
f 33/9/8 38/6/8 36/7/8
f 37/5/9 38/6/9 39/4/9
f 38/6/12 40/14/12 39/4/12
f 37/5/10 40/13/10 34/2/10
f 45/5/11 41/10/11 42/11/11
f 41/3/7 48/13/7 42/2/7
f 46/6/10 41/9/10 44/7/10
f 45/5/9 46/6/9 44/7/9
f 48/14/12 46/6/12 47/4/12
f 42/2/8 47/4/8 45/5/8
f 49/10/13 53/5/13 50/11/13
f 50/2/14 51/1/14 49/3/14
f 49/9/15 54/6/15 52/7/15
f 53/5/16 54/6/16 55/4/16
f 54/6/17 56/14/17 55/4/17
f 53/5/18 56/13/18 50/2/18
f 61/5/17 57/10/17 58/11/17
f 59/1/14 58/2/14 57/3/14
f 60/7/15 59/8/15 57/9/15
f 61/5/16 62/6/16 60/7/16
f 64/14/13 62/6/13 63/4/13
f 64/13/18 61/5/18 58/2/18
f 65/10/19 69/5/19 66/11/19
f 66/2/20 67/1/20 65/3/20
f 65/9/21 70/6/21 68/7/21
f 69/5/22 70/6/22 71/4/22
f 70/6/23 72/14/23 71/4/23
f 69/5/24 72/13/24 66/2/24
f 77/5/23 73/10/23 74/11/23
f 75/1/20 74/2/20 73/3/20
f 78/6/21 73/9/21 76/7/21
f 77/5/22 78/6/22 76/7/22
f 80/14/19 78/6/19 79/4/19
f 80/13/24 77/5/24 74/2/24
f 82/1/25 83/2/25 81/3/25
f 83/2/8 88/4/8 87/5/8
f 87/5/26 86/6/26 85/7/26
f 86/6/10 81/9/10 85/7/10
f 87/5/27 81/10/27 83/11/27
f 84/14/28 86/6/28 88/4/28
f 89/10/27 93/5/27 90/11/27
f 90/2/25 91/1/25 89/3/25
f 89/9/8 94/6/8 92/7/8
f 92/7/26 95/4/26 93/5/26
f 94/6/28 96/14/28 95/4/28
f 90/2/10 95/4/10 96/13/10
f 101/5/27 97/10/27 98/11/27
f 97/3/25 104/13/25 98/2/25
f 102/6/10 97/9/10 100/7/10
f 101/5/26 102/6/26 100/7/26
f 103/4/28 99/12/28 102/6/28
f 98/2/8 103/4/8 101/5/8
f 2/1/1 4/13/1 3/2/1
f 3/2/2 4/13/2 8/4/2
f 7/5/3 8/4/3 6/6/3
f 5/7/4 6/6/4 2/8/4
f 7/5/5 5/7/5 1/10/5
f 8/4/6 4/14/6 2/12/6
f 9/10/5 12/7/5 13/5/5
f 9/3/1 10/2/1 16/13/1
f 9/9/2 11/8/2 14/6/2
f 13/5/3 12/7/3 14/6/3
f 15/4/6 14/6/6 11/12/6
f 10/2/4 13/5/4 15/4/4
f 21/5/5 20/7/5 17/10/5
f 17/3/1 19/1/1 24/13/1
f 20/7/4 22/6/4 19/8/4
f 23/4/3 22/6/3 20/7/3
f 24/14/6 19/12/6 22/6/6
f 24/13/2 23/4/2 21/5/2
f 25/3/7 26/1/7 28/13/7
f 28/13/8 32/4/8 31/5/8
f 32/4/9 30/6/9 29/7/9
f 29/7/10 30/6/10 26/8/10
f 31/5/11 29/7/11 25/10/11
f 28/14/12 26/12/12 30/6/12
f 33/10/11 36/7/11 37/5/11
f 33/3/7 34/2/7 40/13/7
f 33/9/8 35/8/8 38/6/8
f 37/5/9 36/7/9 38/6/9
f 38/6/12 35/12/12 40/14/12
f 37/5/10 39/4/10 40/13/10
f 45/5/11 44/7/11 41/10/11
f 41/3/7 43/1/7 48/13/7
f 46/6/10 43/8/10 41/9/10
f 45/5/9 47/4/9 46/6/9
f 48/14/12 43/12/12 46/6/12
f 42/2/8 48/13/8 47/4/8
f 49/10/13 52/7/13 53/5/13
f 50/2/14 56/13/14 51/1/14
f 49/9/15 51/8/15 54/6/15
f 53/5/16 52/7/16 54/6/16
f 54/6/17 51/12/17 56/14/17
f 53/5/18 55/4/18 56/13/18
f 61/5/17 60/7/17 57/10/17
f 59/1/14 64/13/14 58/2/14
f 60/7/15 62/6/15 59/8/15
f 61/5/16 63/4/16 62/6/16
f 64/14/13 59/12/13 62/6/13
f 64/13/18 63/4/18 61/5/18
f 65/10/19 68/7/19 69/5/19
f 66/2/20 72/13/20 67/1/20
f 65/9/21 67/8/21 70/6/21
f 69/5/22 68/7/22 70/6/22
f 70/6/23 67/12/23 72/14/23
f 69/5/24 71/4/24 72/13/24
f 77/5/23 76/7/23 73/10/23
f 75/1/20 80/13/20 74/2/20
f 78/6/21 75/8/21 73/9/21
f 77/5/22 79/4/22 78/6/22
f 80/14/19 75/12/19 78/6/19
f 80/13/24 79/4/24 77/5/24
f 82/1/25 84/13/25 83/2/25
f 83/2/8 84/13/8 88/4/8
f 87/5/26 88/4/26 86/6/26
f 86/6/10 82/8/10 81/9/10
f 87/5/27 85/7/27 81/10/27
f 84/14/28 82/12/28 86/6/28
f 89/10/27 92/7/27 93/5/27
f 90/2/25 96/13/25 91/1/25
f 89/9/8 91/8/8 94/6/8
f 92/7/26 94/6/26 95/4/26
f 94/6/28 91/12/28 96/14/28
f 90/2/10 93/5/10 95/4/10
f 101/5/27 100/7/27 97/10/27
f 97/3/25 99/1/25 104/13/25
f 102/6/10 99/8/10 97/9/10
f 101/5/26 103/4/26 102/6/26
f 103/4/28 104/14/28 99/12/28
f 98/2/8 104/13/8 103/4/8
