# Blender 4.4.1
# www.blender.org
mtllib missile.mtl
o 円柱.006
v -0.024768 0.083936 -0.907506
v 0.021541 0.083936 -0.907506
v -0.024768 0.144164 -0.907506
v -0.024768 0.083936 -0.755015
v 0.021541 0.083936 -0.755015
v 0.021541 0.144164 -0.907506
v 0.101892 -0.000126 -0.737519
v 0.099934 -0.020005 -0.737519
v 0.101892 -0.000126 -0.651474
v 0.099934 0.019753 -0.737519
v 0.099934 0.019753 -0.651474
v 0.094136 0.038868 -0.651474
v 0.084720 0.056484 -0.651474
v 0.094136 0.038868 -0.737519
v 0.072048 0.071925 -0.651474
v 0.056607 0.084597 -0.651474
v 0.038990 0.094013 -0.651474
v 0.094136 -0.039120 -0.651474
v 0.099934 -0.020005 -0.651474
v 0.094136 -0.039120 -0.737519
v 0.084720 -0.056736 -0.651474
v 0.084720 -0.056736 -0.737519
v 0.072048 -0.072177 -0.651474
v 0.038990 -0.094265 -0.651474
v -0.038997 -0.094265 -0.651474
v -0.094143 0.038868 -0.651474
v -0.099941 0.019753 -0.651474
v -0.094143 0.038868 -0.737519
v -0.084727 0.056484 -0.651474
v -0.084727 0.056484 -0.737519
v -0.072054 0.071925 -0.651474
v -0.101899 -0.000126 -0.651474
v -0.038997 0.094013 -0.651474
v -0.094143 -0.039120 -0.651474
v -0.084727 -0.056736 -0.651474
v -0.094143 -0.039120 -0.737519
v -0.099941 -0.020005 -0.651474
v -0.099941 -0.020005 -0.737519
v -0.072054 -0.072177 -0.651474
v -0.056614 -0.084849 -0.651474
v -0.072054 -0.072177 -0.737519
v -0.084727 -0.056736 -0.737519
v -0.056614 -0.084849 -0.737519
v -0.038997 -0.094265 -0.737519
v 0.019875 -0.100064 -0.737519
v 0.038990 -0.094265 -0.737519
v 0.019875 -0.100064 -0.651474
v -0.000003 -0.102022 -0.737519
v -0.019882 -0.100064 -0.737519
v -0.019882 -0.100064 -0.651474
v -0.000003 -0.102022 -0.651474
v 0.056607 -0.084849 -0.737519
v 0.056607 -0.084849 -0.651474
v 0.072048 -0.072177 -0.737519
v -0.101899 -0.000126 -0.737519
v -0.099941 0.019753 -0.737519
v -0.019882 0.099812 -0.737519
v -0.038997 0.094013 -0.737519
v -0.019882 0.099812 -0.651474
v -0.000003 0.101769 -0.737519
v 0.019875 0.099812 -0.737519
v 0.038990 0.094013 -0.737519
v 0.056607 0.084597 -0.737519
v 0.072048 0.071925 -0.737519
v 0.084720 0.056484 -0.737519
v 0.019875 0.099812 -0.651474
v -0.000003 0.101769 -0.651474
v -0.056614 0.084597 -0.737519
v -0.056614 0.084597 -0.651474
v -0.072054 0.071925 -0.737519
v 0.101892 -0.000126 0.653429
v 0.099934 -0.020005 0.653429
v 0.101892 -0.000126 0.739474
v 0.099934 0.019753 0.653429
v 0.099934 0.019753 0.739474
v 0.094136 0.038868 0.739474
v 0.084720 0.056484 0.739474
v 0.094136 0.038868 0.653429
v 0.072048 0.071925 0.739474
v 0.094136 -0.039120 0.739474
v 0.038990 0.094013 0.739474
v 0.019876 0.099812 0.739474
v 0.038990 0.094013 0.653429
v 0.056607 0.084597 0.739474
v 0.056607 0.084597 0.653429
v -0.000003 0.101769 0.739474
v -0.038997 0.094013 0.739474
v -0.094143 0.038868 0.739474
v -0.099941 0.019753 0.739474
v -0.094143 0.038868 0.653429
v -0.084726 0.056484 0.739474
v -0.084726 0.056484 0.653429
v -0.101899 -0.000126 0.739474
v -0.094143 -0.039120 0.739474
v -0.038997 -0.094265 0.739474
v -0.019882 -0.100064 0.739474
v -0.038997 -0.094265 0.653429
v -0.056614 -0.084849 0.739474
v -0.056614 -0.084849 0.653429
v -0.072054 -0.072177 0.739474
v -0.000003 -0.102022 0.739474
v 0.038990 -0.094265 0.739474
v 0.056607 -0.084849 0.739474
v 0.038990 -0.094265 0.653429
v 0.019876 -0.100064 0.739474
v 0.019875 -0.100064 0.653429
v -0.000003 -0.102022 0.653429
v 0.056607 -0.084849 0.653429
v -0.019882 -0.100064 0.653429
v -0.099941 -0.020005 0.653429
v -0.094143 -0.039120 0.653429
v -0.099941 -0.020005 0.739474
v -0.101899 -0.000126 0.653429
v -0.099941 0.019753 0.653429
v -0.019882 0.099812 0.653429
v -0.038997 0.094013 0.653429
v -0.019882 0.099812 0.739474
v -0.000003 0.101769 0.653429
v 0.019875 0.099812 0.653429
v -0.056614 0.084597 0.653429
v -0.056614 0.084597 0.739474
v -0.072054 0.071925 0.739474
v -0.072054 0.071925 0.653429
v -0.084726 -0.056736 0.653429
v -0.084726 -0.056736 0.739474
v -0.072054 -0.072177 0.653429
v 0.072048 -0.072177 0.653429
v 0.072048 -0.072177 0.739474
v 0.084720 -0.056736 0.653429
v 0.094136 -0.039120 0.653429
v 0.084720 -0.056736 0.739474
v 0.099934 -0.020005 0.739474
v 0.072048 0.071925 0.653429
v 0.084720 0.056484 0.653429
v 0.126347 -0.000126 -1.034383
v 0.123919 -0.024776 -1.034383
v 0.099081 -0.000126 -0.948338
v 0.123919 0.024524 -1.034383
v 0.097177 -0.019457 -0.948338
v 0.091538 -0.038044 -0.948338
v 0.116729 -0.048478 -1.034383
v 0.105053 -0.070323 -1.034383
v 0.082382 -0.055174 -0.948338
v 0.089340 -0.089469 -1.034383
v 0.024646 -0.124049 -1.034383
v 0.048349 -0.116859 -1.034383
v 0.019327 -0.097307 -0.948338
v -0.000003 -0.126477 -1.034383
v 0.037914 -0.091668 -0.948338
v 0.070193 -0.105183 -1.034383
v -0.024653 -0.124049 -1.034383
v -0.123926 -0.024776 -1.034383
v -0.116736 -0.048478 -1.034383
v -0.097184 -0.019457 -0.948338
v -0.126354 -0.000126 -1.034383
v -0.091546 -0.038044 -0.948338
v -0.070200 -0.105183 -1.034383
v -0.089347 -0.089469 -1.034383
v -0.105060 -0.070323 -1.034383
v -0.123926 0.024524 -1.034383
v -0.024653 0.123796 -1.034383
v -0.048356 0.116606 -1.034383
v -0.019334 0.097054 -0.948338
v -0.000003 0.126224 -1.034383
v -0.000004 0.098958 -0.948338
v -0.070200 0.104930 -1.034383
v 0.024646 0.123796 -1.034383
v 0.048349 0.116606 -1.034383
v 0.070193 0.104930 -1.034383
v -0.105060 0.070070 -1.034383
v -0.116736 0.048226 -1.034383
v -0.082389 0.054922 -0.948338
v -0.089347 0.089217 -1.034383
v -0.070067 0.069937 -0.948338
v -0.055052 0.082259 -0.948338
v -0.037922 0.091416 -0.948338
v -0.091546 0.037792 -0.948338
v 0.037914 0.091416 -0.948338
v 0.019327 0.097054 -0.948338
v 0.055045 0.082259 -0.948338
v 0.070060 0.069937 -0.948338
v 0.091538 0.037792 -0.948338
v 0.082382 0.054922 -0.948338
v 0.116729 0.048226 -1.034383
v 0.097177 0.019204 -0.948338
v 0.105053 0.070070 -1.034383
v 0.089340 0.089217 -1.034383
v -0.097184 0.019204 -0.948338
v -0.099088 -0.000126 -0.948338
v -0.070067 -0.070189 -0.948338
v -0.037922 -0.091668 -0.948338
v -0.019334 -0.097307 -0.948338
v -0.048356 -0.116859 -1.034383
v -0.055052 -0.082512 -0.948338
v -0.000004 -0.099210 -0.948338
v -0.082389 -0.055174 -0.948338
v 0.055045 -0.082512 -0.948338
v 0.070060 -0.070189 -0.948338
v 0.021541 -0.085276 -0.907506
v -0.024768 -0.085276 -0.907506
v 0.021541 -0.145505 -0.907506
v 0.021541 -0.085276 -0.755015
v -0.024768 -0.085276 -0.755015
v -0.024768 -0.145505 -0.907506
v -0.086073 -0.018027 -0.907506
v -0.086073 0.028282 -0.907506
v -0.146301 -0.018027 -0.907506
v -0.086073 -0.018027 -0.755015
v -0.086073 0.028282 -0.755015
v -0.146301 0.028282 -0.907506
v 0.089537 0.028282 -0.907506
v 0.089537 -0.018027 -0.907506
v 0.149766 0.028282 -0.907506
v 0.089537 0.028282 -0.755015
v 0.089537 -0.018027 -0.755015
v 0.149766 -0.018027 -0.907506
v 0.104715 -0.000126 -1.005203
v 0.102703 0.020303 -1.005203
v 0.082117 -0.000126 -1.091248
v 0.102703 -0.020556 -1.005203
v 0.080539 0.015895 -1.091248
v 0.087067 0.058052 -1.005203
v 0.096744 0.039948 -1.005203
v 0.068277 0.045497 -1.091248
v 0.074044 0.073921 -1.005203
v 0.075866 0.031300 -1.091248
v 0.058175 0.086944 -1.005203
v 0.020426 0.102580 -1.005203
v -0.102710 0.020303 -1.005203
v -0.096750 0.039948 -1.005203
v -0.080546 0.015895 -1.091248
v -0.104722 -0.000126 -1.005203
v -0.075873 0.031300 -1.091248
v -0.087073 0.058052 -1.005203
v -0.087073 -0.058304 -1.005203
v -0.020433 0.102580 -1.005203
v -0.058182 0.086944 -1.005203
v -0.040077 0.096621 -1.005203
v -0.045627 0.068154 -1.091248
v -0.074050 0.073921 -1.005203
v -0.031430 0.075743 -1.091248
v -0.016024 0.080416 -1.091248
v -0.058071 0.057942 -1.091248
v -0.000004 0.081994 -1.091248
v -0.075873 -0.031552 -1.091248
v -0.080546 -0.016147 -1.091248
v -0.096750 -0.040200 -1.005203
v -0.068284 -0.045750 -1.091248
v -0.058071 -0.058194 -1.091248
v -0.082124 -0.000126 -1.091248
v 0.031422 -0.075995 -1.091248
v -0.000004 -0.082247 -1.091248
v -0.031430 -0.075995 -1.091248
v -0.045627 -0.068407 -1.091248
v -0.040077 -0.096873 -1.005203
v -0.016024 -0.080669 -1.091248
v -0.058182 -0.087196 -1.005203
v -0.074050 -0.074173 -1.005203
v -0.020433 -0.102832 -1.005203
v -0.000003 -0.104844 -1.005203
v 0.058175 -0.087196 -1.005203
v 0.040071 -0.096873 -1.005203
v 0.045620 -0.068407 -1.091248
v 0.074044 -0.074173 -1.005203
v 0.058064 -0.058194 -1.091248
v 0.020426 -0.102832 -1.005203
v 0.087067 -0.058304 -1.005203
v 0.068277 -0.045750 -1.091248
v 0.096744 -0.040200 -1.005203
v 0.075866 -0.031552 -1.091248
v 0.080539 -0.016147 -1.091248
v 0.016017 -0.080669 -1.091248
v -0.102710 -0.020556 -1.005203
v 0.016017 0.080416 -1.091248
v -0.000003 0.104592 -1.005203
v 0.031422 0.075743 -1.091248
v 0.045620 0.068154 -1.091248
v 0.040071 0.096621 -1.005203
v 0.058064 0.057942 -1.091248
v -0.068284 0.045497 -1.091248
v -0.000003 -0.000126 1.626049
v 0.090247 -0.000126 1.136161
v 0.088513 -0.017733 1.136161
v 0.083377 -0.034664 1.136161
v 0.075037 -0.050267 1.136161
v 0.063814 -0.063943 1.136161
v 0.050137 -0.075167 1.136161
v 0.034534 -0.083507 1.136161
v 0.017604 -0.088642 1.136161
v -0.000003 -0.090377 1.136161
v -0.017610 -0.088642 1.136161
v -0.034540 -0.083507 1.136161
v -0.050143 -0.075167 1.136161
v -0.063820 -0.063943 1.136161
v -0.075043 -0.050267 1.136161
v -0.083383 -0.034664 1.136161
v -0.088519 -0.017733 1.136161
v -0.090253 -0.000126 1.136161
v -0.088519 0.017481 1.136161
v -0.083383 0.034411 1.136161
v -0.075043 0.050014 1.136161
v -0.063820 0.063690 1.136161
v -0.050143 0.074914 1.136161
v -0.034540 0.083254 1.136161
v -0.017610 0.088390 1.136161
v -0.000003 0.090124 1.136161
v 0.017604 0.088390 1.136161
v 0.034534 0.083254 1.136161
v 0.050137 0.074914 1.136161
v 0.063814 0.063690 1.136161
v 0.075037 0.050014 1.136161
v 0.083377 0.034411 1.136161
v 0.088513 0.017481 1.136161
v 0.090247 -0.000126 -1.006349
v 0.088513 -0.017733 -1.006349
v 0.090247 -0.000126 1.137403
v 0.088513 0.017481 -1.006349
v 0.088513 0.017481 1.137403
v 0.083377 0.034411 1.137403
v 0.075037 0.050014 1.137403
v 0.083377 0.034411 -1.006349
v 0.083377 -0.034664 1.137403
v 0.088513 -0.017733 1.137403
v 0.063813 0.063690 1.137403
v 0.050137 0.074914 1.137403
v 0.063813 0.063690 -1.006349
v 0.075037 0.050014 -1.006349
v 0.034534 0.083254 1.137403
v 0.017604 0.088390 1.137403
v 0.034534 0.083254 -1.006349
v 0.050137 0.074914 -1.006349
v -0.000003 0.090124 1.137403
v -0.017610 0.088390 1.137403
v -0.034541 0.083254 1.137403
v -0.083384 0.034411 1.137403
v -0.034541 -0.083507 1.137403
v -0.017610 -0.088642 1.137403
v -0.034541 -0.083507 -1.006349
v -0.050144 -0.075167 1.137403
v -0.050144 -0.075167 -1.006349
v -0.083384 -0.034664 1.137403
v -0.075044 -0.050267 1.137403
v -0.063820 -0.063943 1.137403
v 0.034534 -0.083507 1.137403
v -0.090254 -0.000126 1.137403
v 0.063813 -0.063943 1.137403
v 0.075037 -0.050267 1.137403
v 0.063813 -0.063943 -1.006349
v 0.050137 -0.075167 1.137403
v 0.050137 -0.075167 -1.006349
v 0.034534 -0.083507 -1.006349
v 0.075037 -0.050267 -1.006349
v 0.017604 -0.088642 -1.006349
v 0.017604 -0.088642 1.137403
v -0.000003 -0.090376 -1.006349
v -0.017610 -0.088642 -1.006349
v -0.088520 -0.017733 -1.006349
v -0.083384 -0.034663 -1.006349
v -0.088519 -0.017733 1.137403
v -0.090254 -0.000126 -1.006349
v -0.075044 -0.050267 -1.006349
v -0.088520 0.017481 -1.006349
v -0.083384 0.034411 -1.006349
v -0.075044 0.050014 -1.006349
v -0.017610 0.088390 -1.006349
v -0.034541 0.083254 -1.006349
v -0.000003 0.090124 -1.006349
v 0.017604 0.088390 -1.006349
v -0.050144 0.074914 -1.006349
v -0.050144 0.074914 1.137403
v -0.063820 0.063690 1.137403
v -0.075044 0.050014 1.137403
v -0.063820 0.063690 -1.006349
v -0.088519 0.017481 1.137403
v -0.063820 -0.063943 -1.006349
v -0.000003 -0.090377 1.137403
v 0.083377 -0.034663 -1.006349
vn -0.0000 1.0000 -0.0000
vn -0.0000 -0.0000 1.0000
vn 1.0000 -0.0000 -0.0000
vn -1.0000 -0.0000 -0.0000
vn -0.0000 -0.9301 -0.3673
vn -0.9808 0.1951 -0.0000
vn -0.9808 -0.1951 -0.0000
vn -0.9239 -0.3827 -0.0000
vn -0.0000 -0.0000 -1.0000
vn -0.8315 -0.5556 -0.0000
vn -0.9239 0.3827 -0.0000
vn -0.8315 0.5556 -0.0000
vn 0.9808 -0.1951 -0.0000
vn 0.9239 -0.3827 -0.0000
vn 0.8315 -0.5556 -0.0000
vn 0.8315 0.5556 -0.0000
vn 0.9239 0.3827 -0.0000
vn 0.9808 0.1951 -0.0000
vn 0.5556 0.8315 -0.0000
vn 0.7071 0.7071 -0.0000
vn 0.3827 0.9239 -0.0000
vn -0.3827 0.9239 -0.0000
vn -0.1951 0.9808 -0.0000
vn 0.1951 0.9808 -0.0000
vn -0.5556 0.8315 -0.0000
vn -0.7071 0.7071 -0.0000
vn 0.3827 -0.9239 -0.0000
vn 0.1951 -0.9808 -0.0000
vn -0.0000 -1.0000 -0.0000
vn -0.3827 -0.9239 -0.0000
vn -0.5556 -0.8315 -0.0000
vn -0.7071 -0.7071 -0.0000
vn -0.1951 -0.9808 -0.0000
vn 0.5556 -0.8315 -0.0000
vn 0.7071 -0.7071 -0.0000
vn -0.9533 -0.0000 -0.3021
vn -0.9350 0.1860 -0.3021
vn -0.9350 -0.1860 -0.3021
vn -0.8807 0.3648 -0.3021
vn -0.7926 0.5296 -0.3021
vn -0.6741 0.6741 -0.3021
vn -0.3648 0.8807 -0.3021
vn -0.1860 0.9350 -0.3021
vn -0.0000 0.9533 -0.3021
vn 0.8807 0.3648 -0.3021
vn 0.9350 0.1860 -0.3021
vn 0.9533 -0.0000 -0.3021
vn 0.3648 -0.8807 -0.3021
vn 0.1860 -0.9350 -0.3021
vn -0.0000 -0.9533 -0.3021
vn 0.8807 -0.3648 -0.3021
vn 0.7926 -0.5296 -0.3021
vn 0.6741 -0.6741 -0.3021
vn 0.5296 -0.7926 -0.3021
vn -0.0000 0.0001 -1.0000
vn -0.1860 -0.9350 -0.3021
vn -0.3648 -0.8807 -0.3021
vn -0.5296 -0.7926 -0.3021
vn -0.7926 -0.5296 -0.3021
vn -0.8807 -0.3648 -0.3021
vn -0.6741 -0.6741 -0.3021
vn 0.9350 -0.1860 -0.3021
vn 0.1860 0.9350 -0.3021
vn 0.3648 0.8807 -0.3021
vn 0.5296 0.7926 -0.3021
vn -0.0000 -0.0001 -1.0000
vn 0.6741 0.6741 -0.3021
vn 0.7926 0.5296 -0.3021
vn -0.5296 0.7926 -0.3021
vn -0.0000 0.9301 -0.3673
vn 0.9301 -0.0000 -0.3673
vn -0.9301 -0.0000 -0.3673
vn -0.9672 -0.0000 0.2540
vn -0.9486 -0.1887 0.2540
vn -0.9486 0.1887 0.2540
vn -0.8936 -0.3701 0.2540
vn -0.8042 -0.5373 0.2540
vn -0.6839 -0.6839 0.2540
vn 0.8936 -0.3701 0.2540
vn 0.9486 -0.1887 0.2540
vn 0.9672 -0.0000 0.2540
vn 0.3701 -0.8936 0.2540
vn 0.5373 -0.8042 0.2540
vn 0.6839 -0.6839 0.2540
vn 0.1887 -0.9486 0.2540
vn 0.9486 0.1887 0.2540
vn 0.8936 0.3701 0.2540
vn 0.8042 0.5373 0.2540
vn 0.5373 0.8042 0.2540
vn 0.3701 0.8936 0.2540
vn 0.1887 0.9486 0.2540
vn 0.6839 0.6839 0.2540
vn -0.0000 0.9672 0.2540
vn -0.3701 0.8936 0.2540
vn -0.5373 0.8042 0.2540
vn -0.6839 0.6839 0.2540
vn -0.8042 0.5373 0.2540
vn -0.8936 0.3701 0.2540
vn -0.1887 0.9486 0.2540
vn -0.1887 -0.9486 0.2540
vn -0.0000 -0.9672 0.2540
vn -0.5373 -0.8042 0.2540
vn -0.3701 -0.8936 0.2540
vn -0.0000 0.0001 1.0000
vn 0.8042 -0.5373 0.2540
vn 0.0002 -0.0002 1.0000
vn 0.9835 -0.0000 0.1812
vn 0.9646 -0.1919 0.1812
vn 0.9086 -0.3763 0.1812
vn 0.8177 -0.5464 0.1812
vn 0.6954 -0.6954 0.1812
vn 0.5464 -0.8177 0.1812
vn 0.3764 -0.9086 0.1812
vn 0.1919 -0.9646 0.1812
vn -0.0000 -0.9835 0.1812
vn -0.1919 -0.9646 0.1812
vn -0.3764 -0.9086 0.1812
vn -0.5464 -0.8177 0.1812
vn -0.6954 -0.6954 0.1812
vn -0.8177 -0.5464 0.1812
vn -0.9086 -0.3763 0.1812
vn -0.9646 -0.1919 0.1812
vn -0.9835 -0.0000 0.1812
vn -0.9646 0.1919 0.1812
vn -0.9086 0.3763 0.1812
vn -0.8177 0.5464 0.1812
vn -0.6954 0.6954 0.1812
vn -0.5464 0.8177 0.1812
vn -0.3764 0.9086 0.1812
vn -0.1919 0.9646 0.1812
vn -0.0000 0.9835 0.1812
vn 0.1919 0.9646 0.1812
vn 0.3764 0.9086 0.1812
vn 0.5464 0.8177 0.1812
vn 0.6954 0.6954 0.1812
vn 0.8177 0.5464 0.1812
vn 0.9086 0.3763 0.1812
vn 0.9646 0.1919 0.1812
vt 0.375000 0.500000
vt 0.125000 0.750000
vt 0.125000 0.500000
vt 0.625000 0.000000
vt 0.375000 0.250000
vt 0.375000 0.000000
vt 0.375000 0.750000
vt 0.625000 1.000000
vt 0.375000 1.000000
vt 0.625000 0.500000
vt 0.625000 0.750000
vt 0.625000 0.250000
vt 0.703178 0.485388
vt 0.750000 0.490000
vt 0.796822 0.485388
vt 1.000000 1.000000
vt 0.968750 0.500000
vt 1.000000 0.500000
vt 0.031250 1.000000
vt 0.000000 1.000000
vt 0.000000 0.500000
vt 0.031250 0.500000
vt 0.062500 1.000000
vt 0.250000 0.490000
vt 0.203178 0.485388
vt 0.158156 0.471731
vt 0.116663 0.449553
vt 0.080294 0.419706
vt 0.093750 1.000000
vt 0.062500 0.500000
vt 0.341844 0.471731
vt 0.050447 0.383337
vt 0.028269 0.341844
vt 0.296822 0.485388
vt 0.968750 1.000000
vt 0.937500 1.000000
vt 0.937500 0.500000
vt 0.906250 0.500000
vt 0.419706 0.419706
vt 0.383337 0.449553
vt 0.906250 1.000000
vt 0.471731 0.341844
vt 0.471731 0.158156
vt 0.158156 0.028269
vt 0.203178 0.014612
vt 0.250000 0.010000
vt 0.468750 1.000000
vt 0.437500 1.000000
vt 0.437500 0.500000
vt 0.406250 0.500000
vt 0.080294 0.080294
vt 0.116663 0.050447
vt 0.406250 1.000000
vt 0.028269 0.158156
vt 0.341844 0.028269
vt 0.383337 0.050447
vt 0.419706 0.080294
vt 0.593750 1.000000
vt 0.562500 1.000000
vt 0.562500 0.500000
vt 0.531250 0.500000
vt 0.296822 0.014612
vt 0.531250 1.000000
vt 0.449553 0.116663
vt 0.656250 1.000000
vt 0.593750 0.500000
vt 0.949553 0.116663
vt 0.919706 0.080294
vt 0.883337 0.050447
vt 0.841844 0.028269
vt 0.971731 0.158156
vt 0.985388 0.296822
vt 0.687500 1.000000
vt 0.656250 0.500000
vt 0.687500 0.500000
vt 0.796822 0.014612
vt 0.971731 0.341844
vt 0.883337 0.449553
vt 0.812500 1.000000
vt 0.781250 0.500000
vt 0.812500 0.500000
vt 0.781250 1.000000
vt 0.750000 0.500000
vt 0.990000 0.250000
vt 0.985388 0.203178
vt 0.750000 1.000000
vt 0.718750 0.500000
vt 0.718750 1.000000
vt 0.490000 0.250000
vt 0.485388 0.296822
vt 0.485388 0.203178
vt 0.949553 0.383337
vt 0.843750 1.000000
vt 0.843750 0.500000
vt 0.449553 0.383337
vt 0.875000 1.000000
vt 0.919706 0.419706
vt 0.875000 0.500000
vt 0.500000 0.500000
vt 0.750000 0.010000
vt 0.703178 0.014612
vt 0.658156 0.028269
vt 0.616663 0.050447
vt 0.514612 0.203178
vt 0.528269 0.158156
vt 0.312500 1.000000
vt 0.281250 0.500000
vt 0.312500 0.500000
vt 0.281250 1.000000
vt 0.250000 0.500000
vt 0.510000 0.250000
vt 0.514612 0.296822
vt 0.528269 0.341844
vt 0.550447 0.383337
vt 0.187500 1.000000
vt 0.156250 0.500000
vt 0.187500 0.500000
vt 0.156250 1.000000
vt 0.580294 0.419706
vt 0.616663 0.449553
vt 0.658156 0.471731
vt 0.125000 1.000000
vt 0.093750 0.500000
vt 0.218750 1.000000
vt 0.218750 0.500000
vt 0.014612 0.296822
vt 0.010000 0.250000
vt 0.250000 1.000000
vt 0.014612 0.203178
vt 0.550447 0.116663
vt 0.343750 1.000000
vt 0.343750 0.500000
vt 0.050447 0.116663
vt 0.580294 0.080294
vt 0.500000 1.000000
vt 0.468750 0.500000
vt 0.841844 0.471731
s 0
usemtl マテリアル.001
f 5/1/1 2/3/1 1/2/1
f 3/4/2 1/6/2 2/5/2
f 4/7/3 1/9/3 3/8/3
f 5/1/1 1/2/1 4/7/1
f 2/5/4 5/1/4 6/10/4
f 6/10/5 5/1/5 4/7/5
f 6/10/5 4/7/5 3/11/5
f 3/4/2 2/5/2 6/12/2
f 10/13/2 8/15/2 7/14/2
s 1
f 9/16/4 7/18/4 8/17/6
f 11/19/7 7/21/4 9/20/4
f 11/19/7 10/22/7 7/21/4
f 12/23/8 10/22/7 11/19/7
s 0
f 9/24/9 12/26/9 11/25/9
f 12/26/9 15/28/9 13/27/9
s 1
f 13/29/10 14/30/8 12/23/8
f 12/23/8 14/30/8 10/22/7
s 0
f 18/31/9 12/26/9 9/24/9
f 15/28/9 12/26/9 16/32/9
f 16/32/9 12/26/9 17/33/9
f 18/31/9 17/33/9 12/26/9
f 18/31/9 9/24/9 19/34/9
s 1
f 19/35/6 20/37/11 18/36/11
f 18/36/11 20/37/11 22/38/12
s 0
f 23/39/9 18/31/9 21/40/9
s 1
f 18/36/11 22/38/12 21/41/12
s 0
f 24/42/9 18/31/9 23/39/9
f 25/43/9 18/31/9 24/42/9
f 18/31/9 26/44/9 17/33/9
f 26/44/9 18/31/9 25/43/9
f 26/44/9 32/46/9 27/45/9
s 1
f 27/47/13 28/49/14 26/48/14
f 26/48/14 28/49/14 30/50/15
s 0
f 31/51/9 26/44/9 29/52/9
s 1
f 26/48/14 30/50/15 29/53/15
s 0
f 33/54/9 26/44/9 31/51/9
f 26/44/9 34/55/9 32/46/9
f 17/33/9 26/44/9 33/54/9
f 26/44/9 25/43/9 34/55/9
f 34/55/9 39/57/9 35/56/9
s 1
f 35/58/16 36/60/17 34/59/17
f 34/59/17 36/60/17 38/61/18
s 0
f 32/46/9 34/55/9 37/62/9
s 1
f 34/59/17 38/61/18 37/63/18
s 0
f 34/55/9 25/43/9 39/57/9
f 39/57/9 25/43/9 40/64/9
s 1
f 40/65/19 41/10/20 39/8/20
f 39/8/20 41/10/20 42/66/16
f 39/8/20 42/66/16 35/58/16
s 0
f 43/67/2 42/69/2 41/68/2
s 1
f 35/58/16 42/66/16 36/60/17
s 0
f 42/69/2 43/67/2 36/70/2
f 44/71/2 45/72/2 43/67/2
s 1
f 25/73/21 44/75/21 43/74/19
f 25/73/21 43/74/19 40/65/19
f 40/65/19 43/74/19 41/10/20
s 0
f 45/72/2 38/76/2 43/67/2
f 36/70/2 43/67/2 38/76/2
f 46/77/2 22/78/2 45/72/2
s 1
f 24/79/22 46/81/22 45/80/23
f 24/79/22 45/80/23 47/82/23
f 47/82/23 45/80/23 48/83/1
s 0
f 45/72/2 49/85/2 48/84/2
f 10/13/2 45/72/2 22/78/2
f 49/85/2 45/72/2 44/71/2
f 10/13/2 38/76/2 45/72/2
s 1
f 51/86/1 48/83/1 49/87/24
f 51/86/1 49/87/24 50/88/24
f 50/88/24 49/87/24 44/75/21
s 0
f 51/89/9 24/42/9 47/90/9
s 1
f 47/82/23 48/83/1 51/86/1
s 0
f 25/43/9 51/89/9 50/91/9
f 25/43/9 24/42/9 51/89/9
s 1
f 50/88/24 44/75/21 25/73/21
s 0
f 52/92/2 22/78/2 46/77/2
s 1
f 53/93/25 52/94/25 46/81/22
f 53/93/25 46/81/22 24/79/22
s 0
f 24/42/9 23/39/9 53/95/9
s 1
f 23/96/26 52/94/25 53/93/25
s 0
f 22/78/2 52/92/2 54/97/2
s 1
f 23/96/26 54/98/26 52/94/25
f 21/41/12 22/38/12 54/98/26
f 21/41/12 54/98/26 23/96/26
f 37/63/18 38/61/18 55/99/3
s 0
f 38/76/2 56/101/2 55/100/2
f 56/101/2 38/76/2 28/102/2
f 28/102/2 38/76/2 30/103/2
f 38/76/2 57/104/2 30/103/2
f 38/76/2 10/13/2 57/104/2
f 58/105/2 30/103/2 57/104/2
s 1
f 33/106/27 58/108/27 57/107/28
f 33/106/27 57/107/28 59/109/28
f 59/109/28 57/107/28 60/110/29
s 0
f 57/104/2 61/112/2 60/111/2
f 61/112/2 57/104/2 62/113/2
f 62/113/2 57/104/2 63/114/2
f 57/104/2 10/13/2 63/114/2
s 1
f 17/115/30 62/117/30 63/116/31
f 17/115/30 63/116/31 16/118/31
f 16/118/31 63/116/31 64/3/32
s 0
f 63/114/2 65/120/2 64/119/2
f 65/120/2 63/114/2 14/121/2
f 14/121/2 63/114/2 10/13/2
s 1
f 15/122/32 64/3/32 65/123/10
f 15/122/32 65/123/10 13/29/10
f 13/29/10 65/123/10 14/30/8
f 16/118/31 64/3/32 15/122/32
f 66/124/33 61/125/33 62/117/30
f 66/124/33 62/117/30 17/115/30
s 0
f 17/33/9 67/127/9 66/126/9
s 1
f 67/128/29 61/125/33 66/124/33
s 0
f 67/127/9 33/54/9 59/129/9
s 1
f 59/109/28 60/110/29 67/128/29
f 67/128/29 60/110/29 61/125/33
s 0
f 17/33/9 33/54/9 67/127/9
f 68/130/2 30/103/2 58/105/2
s 1
f 69/131/34 68/132/34 58/108/27
f 69/131/34 58/108/27 33/106/27
s 0
f 33/54/9 31/51/9 69/133/9
s 1
f 31/9/35 68/132/34 69/131/34
s 0
f 30/103/2 68/130/2 70/134/2
s 1
f 31/9/35 70/1/35 68/132/34
f 29/53/15 30/50/15 70/1/35
f 29/53/15 70/1/35 31/9/35
f 32/135/3 55/99/3 56/136/13
f 32/135/3 56/136/13 27/47/13
f 27/47/13 56/136/13 28/49/14
f 37/63/18 55/99/3 32/135/3
s 0
f 20/137/2 10/13/2 22/78/2
f 8/15/2 10/13/2 20/137/2
s 1
f 19/35/6 8/17/6 20/37/11
f 9/16/4 8/17/6 19/35/6
s 0
f 74/13/2 72/15/2 71/14/2
s 1
f 73/16/4 71/18/4 72/17/6
f 75/19/7 71/21/4 73/20/4
f 75/19/7 74/22/7 71/21/4
f 76/23/8 74/22/7 75/19/7
s 0
f 73/24/9 76/26/9 75/25/9
f 76/26/9 79/28/9 77/27/9
s 1
f 77/29/10 78/30/8 76/23/8
f 76/23/8 78/30/8 74/22/7
s 0
f 80/31/9 76/26/9 73/24/9
f 76/26/9 81/33/9 79/28/9
f 80/31/9 81/33/9 76/26/9
f 81/33/9 86/127/9 82/126/9
s 1
f 82/124/33 83/117/30 81/115/30
f 81/115/30 83/117/30 85/116/31
s 0
f 79/28/9 81/33/9 84/32/9
s 1
f 81/115/30 85/116/31 84/118/31
s 0
f 81/33/9 87/54/9 86/127/9
f 81/33/9 88/44/9 87/54/9
f 80/31/9 88/44/9 81/33/9
f 88/44/9 93/46/9 89/45/9
s 1
f 89/47/13 90/49/14 88/48/14
f 88/48/14 90/49/14 92/50/15
s 0
f 91/52/9 87/54/9 88/44/9
s 1
f 88/48/14 92/50/15 91/53/15
s 0
f 88/44/9 94/55/9 93/46/9
f 88/44/9 95/43/9 94/55/9
f 88/44/9 80/31/9 95/43/9
f 95/43/9 101/89/9 96/91/9
s 1
f 96/88/24 97/75/21 95/73/21
f 95/73/21 97/75/21 99/74/19
s 0
f 100/57/9 95/43/9 98/64/9
s 1
f 95/73/21 99/74/19 98/65/19
s 0
f 94/55/9 95/43/9 100/57/9
f 95/43/9 102/42/9 101/89/9
f 95/43/9 80/31/9 102/42/9
f 102/42/9 80/31/9 103/95/9
s 1
f 103/93/25 104/81/22 102/79/22
f 102/79/22 104/81/22 106/80/23
s 0
f 101/89/9 102/42/9 105/90/9
s 1
f 102/79/22 106/80/23 105/82/23
s 0
f 108/92/2 106/72/2 104/77/2
s 1
f 105/82/23 106/80/23 107/83/1
s 0
f 106/72/2 109/85/2 107/84/2
f 108/92/2 74/13/2 106/72/2
f 109/85/2 106/72/2 97/71/2
f 97/71/2 106/72/2 99/67/2
f 106/72/2 110/76/2 99/67/2
f 74/13/2 110/76/2 106/72/2
f 111/70/2 99/67/2 110/76/2
s 1
f 94/59/17 111/60/17 110/61/18
f 94/59/17 110/61/18 112/63/18
f 112/63/18 110/61/18 113/99/3
s 0
f 110/76/2 114/101/2 113/100/2
f 114/101/2 110/76/2 90/102/2
f 90/102/2 110/76/2 92/103/2
f 110/76/2 115/104/2 92/103/2
f 110/76/2 74/13/2 115/104/2
f 116/105/2 92/103/2 115/104/2
s 1
f 87/106/27 116/108/27 115/107/28
f 87/106/27 115/107/28 117/109/28
f 117/109/28 115/107/28 118/110/29
s 0
f 115/104/2 119/112/2 118/111/2
f 115/104/2 74/13/2 119/112/2
s 1
f 86/128/29 118/110/29 119/125/33
f 86/128/29 119/125/33 82/124/33
f 82/124/33 119/125/33 83/117/30
s 0
f 119/112/2 85/114/2 83/113/2
f 119/112/2 74/13/2 85/114/2
s 1
f 117/109/28 118/110/29 86/128/29
s 0
f 86/127/9 87/54/9 117/129/9
f 120/130/2 92/103/2 116/105/2
s 1
f 121/131/34 120/132/34 116/108/27
f 121/131/34 116/108/27 87/106/27
s 0
f 87/54/9 122/51/9 121/133/9
s 1
f 122/9/35 120/132/34 121/131/34
s 0
f 122/51/9 87/54/9 91/52/9
s 1
f 91/53/15 123/1/35 122/9/35
f 122/9/35 123/1/35 120/132/34
s 0
f 92/103/2 120/130/2 123/134/2
s 1
f 91/53/15 92/50/15 123/1/35
f 93/135/3 113/99/3 114/136/13
f 93/135/3 114/136/13 89/47/13
f 89/47/13 114/136/13 90/49/14
f 112/63/18 113/99/3 93/135/3
s 0
f 93/46/9 94/55/9 112/62/9
f 124/69/2 99/67/2 111/70/2
s 1
f 125/58/16 124/66/16 111/60/17
f 125/58/16 111/60/17 94/59/17
s 0
f 94/55/9 100/57/9 125/56/9
s 1
f 100/8/20 124/66/16 125/58/16
s 0
f 99/67/2 124/69/2 126/68/2
s 1
f 100/8/20 126/10/20 124/66/16
f 98/65/19 99/74/19 126/10/20
f 98/65/19 126/10/20 100/8/20
f 101/86/1 107/83/1 109/87/24
f 101/86/1 109/87/24 96/88/24
f 96/88/24 109/87/24 97/75/21
s 0
f 129/78/2 108/92/2 127/97/2
s 1
f 128/96/26 127/98/26 108/94/25
f 128/96/26 108/94/25 103/93/25
f 103/93/25 108/94/25 104/81/22
s 0
f 129/78/2 74/13/2 108/92/2
f 130/137/2 74/13/2 129/78/2
s 1
f 80/36/11 130/37/11 129/38/12
f 80/36/11 129/38/12 131/41/12
f 131/41/12 129/38/12 127/98/26
s 0
f 128/39/9 80/31/9 131/40/9
s 1
f 131/41/12 127/98/26 128/96/26
s 0
f 72/15/2 74/13/2 130/137/2
s 1
f 132/35/6 72/17/6 130/37/11
f 132/35/6 130/37/11 80/36/11
s 0
f 80/31/9 73/24/9 132/34/9
s 1
f 73/16/4 72/17/6 132/35/6
s 0
f 103/95/9 80/31/9 128/39/9
s 1
f 105/82/23 107/83/1 101/86/1
f 84/118/31 85/116/31 133/3/32
s 0
f 85/114/2 134/120/2 133/119/2
f 134/120/2 85/114/2 78/121/2
f 78/121/2 85/114/2 74/13/2
s 1
f 79/122/32 133/3/32 134/123/10
f 79/122/32 134/123/10 77/29/10
f 77/29/10 134/123/10 78/30/8
f 84/118/31 133/3/32 79/122/32
s 0
f 138/13/2 136/15/2 135/14/2
s 1
f 135/18/36 136/17/37 139/35/37
f 135/18/36 139/35/37 137/16/36
f 138/22/38 135/21/36 137/20/36
s 0
f 140/31/9 137/24/9 139/34/9
s 1
f 139/35/37 136/17/37 141/37/39
f 139/35/37 141/37/39 140/36/39
s 0
f 136/15/2 138/13/2 141/137/2
s 1
f 140/36/39 141/37/39 142/38/40
s 0
f 141/137/2 138/13/2 142/78/2
s 1
f 140/36/39 142/38/40 143/41/40
f 143/41/40 142/38/40 144/98/41
s 0
f 142/78/2 145/72/2 144/97/2
f 138/13/2 145/72/2 142/78/2
f 150/92/2 145/72/2 146/77/2
s 1
f 149/79/42 146/81/42 145/80/43
f 149/79/42 145/80/43 147/82/43
f 147/82/43 145/80/43 148/83/44
s 0
f 145/72/2 151/85/2 148/84/2
f 144/97/2 145/72/2 150/92/2
f 145/72/2 152/76/2 151/85/2
f 138/13/2 152/76/2 145/72/2
f 159/69/2 152/76/2 153/70/2
s 1
f 156/59/45 153/60/45 152/61/46
f 156/59/45 152/61/46 154/63/46
f 154/63/46 152/61/46 155/99/47
s 0
f 152/76/2 160/101/2 155/100/2
f 151/85/2 152/76/2 157/67/2
f 157/67/2 152/76/2 158/68/2
f 158/68/2 152/76/2 159/69/2
f 152/76/2 161/104/2 160/101/2
f 152/76/2 138/13/2 161/104/2
f 166/130/2 161/104/2 162/105/2
s 1
f 162/108/48 161/107/49 163/109/49
f 161/107/49 165/128/50 163/109/49
s 0
f 161/104/2 167/112/2 164/111/2
s 1
f 161/107/49 164/110/50 165/128/50
s 0
f 170/103/2 161/104/2 166/130/2
f 167/112/2 161/104/2 168/113/2
f 168/113/2 161/104/2 169/114/2
f 161/104/2 138/13/2 169/114/2
f 160/101/2 161/104/2 170/103/2
f 160/101/2 170/103/2 171/102/2
s 1
f 171/49/51 170/50/52 172/53/52
f 170/50/52 174/9/53 172/53/52
s 0
f 170/103/2 166/130/2 173/134/2
s 1
f 170/50/52 173/1/53 174/9/53
s 0
f 174/51/9 176/54/9 172/52/9
s 1
f 173/1/53 175/131/54 174/9/53
s 0
f 176/54/9 174/51/9 175/133/9
s 1
f 166/132/54 176/106/48 175/131/54
f 162/108/48 163/109/49 176/106/48
f 166/132/54 162/108/48 176/106/48
s 0
f 165/127/9 176/54/9 163/129/9
f 178/33/9 176/54/9 165/127/9
f 172/52/9 176/54/9 177/44/9
f 176/54/9 140/31/9 177/44/9
f 178/33/9 140/31/9 176/54/9
f 178/33/55 165/127/55 179/126/55
s 1
f 167/125/56 178/115/57 179/124/56
f 168/117/57 180/118/58 178/115/57
f 167/125/56 168/117/57 178/115/57
s 0
f 181/28/9 178/33/9 180/32/9
f 182/26/9 178/33/9 181/28/9
f 140/31/9 178/33/9 182/26/9
f 182/26/9 181/28/9 183/27/9
s 1
f 186/123/59 182/23/60 183/29/59
f 184/30/60 185/19/38 182/23/60
f 186/123/59 184/30/60 182/23/60
s 0
f 137/24/9 182/26/9 185/25/9
f 140/31/9 182/26/9 137/24/9
f 169/114/2 186/120/2 187/119/2
s 1
f 187/3/61 186/123/59 183/29/59
s 0
f 186/120/2 138/13/2 184/121/2
f 169/114/2 138/13/2 186/120/2
s 1
f 169/116/58 187/3/61 181/122/61
f 187/3/61 183/29/59 181/122/61
f 138/22/38 137/20/36 185/19/38
f 184/30/60 138/22/38 185/19/38
f 169/116/58 181/122/61 180/118/58
f 168/117/57 169/116/58 180/118/58
f 164/110/50 179/124/56 165/128/50
f 164/110/50 167/125/56 179/124/56
s 0
f 177/44/9 189/46/9 188/45/9
s 1
f 188/47/62 171/49/51 177/48/51
f 171/49/51 172/53/52 177/48/51
s 0
f 177/44/9 156/55/9 189/46/9
f 156/55/9 177/44/9 190/57/9
f 190/57/9 177/44/9 191/43/9
f 177/44/9 140/31/9 191/43/9
f 191/43/9 195/89/9 192/91/9
s 1
f 192/88/63 193/75/64 191/73/64
f 191/73/64 193/75/64 157/74/65
s 0
f 190/57/9 191/43/9 194/64/9
s 1
f 191/73/64 157/74/65 194/65/65
s 0
f 191/43/9 149/42/9 195/89/9
f 191/43/9 140/31/9 149/42/9
f 195/89/66 149/42/66 147/90/66
s 1
f 147/82/43 148/83/44 195/86/44
f 195/86/44 148/83/44 151/87/63
f 195/86/44 151/87/63 192/88/63
f 194/65/65 157/74/65 158/10/67
f 194/65/65 158/10/67 190/8/67
s 0
f 151/85/2 157/67/2 193/71/2
s 1
f 192/88/63 151/87/63 193/75/64
f 190/8/67 158/10/67 159/66/68
s 0
f 156/55/9 190/57/9 196/56/9
s 1
f 190/8/67 159/66/68 196/58/68
f 196/58/68 159/66/68 153/60/45
f 196/58/68 153/60/45 156/59/45
s 0
f 189/46/9 156/55/9 154/62/9
s 1
f 154/63/46 155/99/47 189/135/47
f 189/135/47 155/99/47 160/136/62
f 189/135/47 160/136/62 188/47/62
f 188/47/62 160/136/62 171/49/51
f 173/1/53 166/132/54 175/131/54
f 198/96/41 144/98/41 150/94/69
f 198/96/41 150/94/69 197/93/69
f 197/93/69 150/94/69 146/81/42
s 0
f 198/39/9 140/31/9 143/40/9
s 1
f 143/41/40 144/98/41 198/96/41
s 0
f 197/95/9 140/31/9 198/39/9
f 149/42/9 140/31/9 197/95/9
s 1
f 197/93/69 146/81/42 149/79/42
s 0
f 203/1/29 200/3/29 199/2/29
f 201/4/2 199/6/2 200/5/2
f 202/7/4 199/9/4 201/8/4
f 203/1/29 199/2/29 202/7/29
f 200/5/3 203/1/3 204/10/3
f 204/10/70 203/1/70 202/7/70
f 204/10/70 202/7/70 201/11/70
f 201/4/2 200/5/2 204/12/2
f 209/1/4 206/3/4 205/2/4
f 207/4/2 205/6/2 206/5/2
f 208/7/1 205/9/1 207/8/1
f 209/1/4 205/2/4 208/7/4
f 206/5/29 209/1/29 210/10/29
f 210/10/71 209/1/71 208/7/71
f 210/10/71 208/7/71 207/11/71
f 207/4/2 206/5/2 210/12/2
f 215/1/3 212/3/3 211/2/3
f 213/4/2 211/6/2 212/5/2
f 214/7/29 211/9/29 213/8/29
f 215/1/3 211/2/3 214/7/3
f 212/5/1 215/1/1 216/10/1
f 215/1/72 214/7/72 213/11/72
f 215/1/72 213/11/72 216/10/72
f 213/4/2 212/5/2 216/12/2
usemtl マテリアル
f 217/14/9 222/78/9 218/15/9
s 1
f 217/18/73 218/17/74 221/35/74
f 217/18/73 221/35/74 219/16/73
f 220/22/75 217/21/73 219/20/73
s 0
f 220/13/9 222/78/9 217/14/9
f 218/15/9 222/78/9 223/137/9
s 1
f 226/36/76 223/37/76 222/38/77
f 226/36/76 222/38/77 224/41/77
f 224/41/77 222/38/77 225/98/78
s 0
f 222/78/9 227/92/9 225/97/9
f 220/13/9 229/76/9 222/78/9
f 222/78/9 228/72/9 227/92/9
f 222/78/9 229/76/9 228/72/9
f 234/69/9 229/76/9 230/70/9
s 1
f 233/59/79 230/60/79 229/61/80
f 233/59/79 229/61/80 231/63/80
f 231/63/80 229/61/80 232/99/81
s 0
f 229/76/9 235/103/9 232/100/9
f 237/67/9 229/76/9 234/69/9
f 229/76/9 220/13/9 235/103/9
f 228/72/9 229/76/9 236/85/9
f 236/85/9 229/76/9 237/67/9
f 236/85/55 237/67/55 238/71/55
s 1
f 241/73/82 238/75/82 237/74/83
f 241/73/82 237/74/83 239/65/83
f 239/65/83 237/74/83 240/10/84
s 0
f 237/67/9 234/69/9 240/68/9
f 241/43/2 244/89/2 242/91/2
s 1
f 242/88/85 238/75/82 241/73/82
s 0
f 243/57/2 241/43/2 239/64/2
f 243/57/2 245/44/2 241/43/2
f 241/43/2 226/31/2 244/89/2
f 245/44/2 226/31/2 241/43/2
f 245/44/2 250/46/2 246/45/2
s 1
f 246/47/86 247/49/87 245/48/87
f 247/49/87 248/53/88 245/48/87
s 0
f 249/51/2 245/44/2 248/52/2
f 253/54/2 245/44/2 249/51/2
f 250/46/2 245/44/2 231/62/2
f 231/62/2 245/44/2 233/55/2
f 233/55/2 245/44/2 243/57/2
f 226/31/2 245/44/2 251/33/2
f 251/33/2 245/44/2 252/127/2
f 252/127/2 245/44/2 253/54/2
f 253/54/2 249/51/2 254/133/2
s 1
f 257/132/89 253/106/90 254/131/89
f 255/108/90 256/109/91 253/106/90
f 257/132/89 255/108/90 253/106/90
s 0
f 252/127/2 253/54/2 256/129/2
f 258/134/9 259/104/9 257/130/9
s 1
f 258/1/92 257/132/89 254/131/89
s 0
f 257/130/66 259/104/66 255/105/66
s 1
f 255/108/90 259/107/91 256/109/91
f 259/107/91 252/128/93 256/109/91
s 0
f 259/104/9 261/114/9 260/111/9
s 1
f 259/107/91 260/110/93 252/128/93
s 0
f 235/103/9 220/13/9 259/104/9
f 235/103/9 259/104/9 258/134/9
f 259/104/9 220/13/9 261/114/9
f 266/112/9 261/114/9 262/113/9
s 1
f 262/117/94 261/116/95 263/118/95
f 261/116/95 265/122/96 263/118/95
s 0
f 261/114/9 267/120/9 264/119/9
s 1
f 261/116/95 264/3/96 265/122/96
s 0
f 260/111/66 261/114/66 266/112/66
f 261/114/9 220/13/9 267/120/9
s 1
f 264/3/96 267/123/97 268/29/97
f 267/123/97 270/23/98 268/29/97
s 0
f 267/120/9 220/13/9 269/121/9
s 1
f 267/123/97 269/30/98 270/23/98
s 0
f 270/26/2 251/33/2 268/27/2
s 1
f 269/30/98 271/19/75 270/23/98
s 0
f 219/24/2 270/26/2 271/25/2
f 226/31/2 251/33/2 270/26/2
f 226/31/2 270/26/2 221/34/2
f 221/34/2 270/26/2 219/24/2
s 1
f 220/22/75 219/20/73 271/19/75
f 269/30/98 220/22/75 271/19/75
s 0
f 268/27/2 251/33/2 265/28/2
s 1
f 264/3/96 268/29/97 265/122/96
f 260/110/93 266/125/99 272/124/99
f 266/125/99 251/115/94 272/124/99
f 266/125/99 262/117/94 251/115/94
s 0
f 251/33/2 252/127/2 272/126/2
s 1
f 260/110/93 272/124/99 252/128/93
s 0
f 265/28/2 251/33/2 263/32/2
s 1
f 262/117/94 263/118/95 251/115/94
f 235/50/88 258/1/92 249/9/92
f 258/1/92 254/131/89 249/9/92
f 231/63/80 232/99/81 250/135/81
f 250/135/81 232/99/81 273/136/86
f 250/135/81 273/136/86 246/47/86
s 0
f 232/100/9 235/103/9 273/101/9
s 1
f 246/47/86 273/136/86 247/49/87
s 0
f 273/101/9 235/103/9 247/102/9
s 1
f 235/50/88 249/9/92 248/53/88
f 247/49/87 235/50/88 248/53/88
s 0
f 244/89/2 276/42/2 274/90/2
s 1
f 274/82/100 275/83/101 244/86/101
f 244/86/101 275/83/101 236/87/85
f 244/86/101 236/87/85 242/88/85
s 0
f 244/89/2 226/31/2 276/42/2
f 276/42/2 279/39/2 277/95/2
s 1
f 277/93/102 278/81/103 276/79/103
f 276/79/103 278/81/103 228/80/100
f 276/79/103 228/80/100 274/82/100
s 0
f 279/39/104 276/42/104 224/40/104
f 224/40/2 276/42/2 226/31/2
s 1
f 224/41/77 225/98/78 279/96/78
f 279/96/78 225/98/78 227/94/102
f 279/96/78 227/94/102 277/93/102
s 0
f 227/92/66 228/72/66 278/77/66
s 1
f 277/93/102 227/94/102 278/81/103
s 0
f 228/72/9 236/85/9 275/84/9
s 1
f 274/82/100 228/80/100 275/83/101
f 239/65/83 240/10/84 243/8/84
f 243/8/84 240/10/84 234/66/105
s 0
f 233/55/2 243/57/2 280/56/2
s 1
f 243/8/84 234/66/105 280/58/105
f 280/58/105 234/66/105 230/60/79
f 280/58/105 230/60/79 233/59/79
f 242/88/85 236/87/85 238/75/82
f 221/35/74 223/37/76 226/36/76
f 221/35/74 218/17/74 223/37/76
f 281/18/106 283/35/108 282/16/107
f 281/17/106 284/36/109 283/35/108
f 281/37/106 285/41/110 284/36/109
f 281/38/106 286/96/111 285/41/110
f 281/98/106 287/93/112 286/96/111
f 281/94/106 288/79/113 287/93/112
f 281/81/106 289/82/114 288/79/113
f 281/80/106 290/86/115 289/82/114
f 281/83/106 291/88/116 290/86/115
f 281/87/106 292/73/117 291/88/116
f 281/75/106 293/65/118 292/73/117
f 281/74/106 294/8/119 293/65/118
f 281/10/106 295/58/120 294/8/119
f 281/66/106 296/59/121 295/58/120
f 281/60/106 297/63/122 296/59/121
f 281/61/106 298/135/123 297/63/122
f 281/99/106 299/47/124 298/135/123
f 281/136/106 300/48/125 299/47/124
f 281/49/106 301/53/126 300/48/125
f 281/50/106 302/9/127 301/53/126
f 281/1/106 303/131/128 302/9/127
f 281/132/106 304/106/129 303/131/128
f 281/108/106 305/109/130 304/106/129
f 281/107/106 306/128/131 305/109/130
f 281/110/106 307/124/132 306/128/131
f 281/125/106 308/115/133 307/124/132
f 281/117/106 309/118/134 308/115/133
f 281/116/106 310/122/135 309/118/134
f 281/3/106 311/29/136 310/122/135
f 281/123/106 312/23/137 311/29/136
s 0
f 308/33/9 292/43/9 300/44/9
s 1
f 281/30/106 313/19/138 312/23/137
f 281/22/106 282/20/107 313/19/138
s 0
f 284/31/9 282/24/9 283/34/9
f 282/24/9 284/31/9 313/25/9
f 313/25/9 284/31/9 312/26/9
f 312/26/9 310/28/9 311/27/9
f 310/28/9 308/33/9 309/32/9
f 308/33/66 306/127/66 307/126/66
f 306/127/9 308/33/9 305/129/9
f 305/129/9 308/33/9 304/54/9
f 304/54/9 302/51/9 303/133/9
f 302/51/9 300/44/9 301/52/9
f 300/44/9 298/46/9 299/45/9
f 298/46/9 296/55/9 297/62/9
f 296/55/9 292/43/9 295/56/9
f 295/56/9 292/43/9 294/57/9
f 294/57/9 292/43/9 293/64/9
f 292/43/55 290/89/55 291/91/55
f 290/89/9 292/43/9 289/90/9
f 289/90/9 292/43/9 288/42/9
f 288/42/9 286/39/9 287/95/9
f 286/39/9 284/31/9 285/40/9
f 312/26/9 284/31/9 310/28/9
f 310/28/9 284/31/9 308/33/9
f 304/54/9 300/44/9 302/51/9
f 300/44/9 292/43/9 298/46/9
f 298/46/9 292/43/9 296/55/9
f 288/42/9 292/43/9 286/39/9
f 286/39/9 292/43/9 284/31/9
f 308/33/9 300/44/9 304/54/9
f 284/31/9 292/43/9 308/33/9
f 317/13/2 315/15/2 314/14/2
s 1
f 316/16/4 314/18/4 315/17/6
f 318/19/7 314/21/4 316/20/4
f 318/19/7 317/22/7 314/21/4
f 319/23/8 317/22/7 318/19/7
s 0
f 316/24/9 319/26/9 318/25/9
f 319/26/9 324/28/9 320/27/9
s 1
f 320/29/10 321/30/8 319/23/8
f 319/23/8 321/30/8 317/22/7
s 0
f 319/26/9 322/31/9 324/28/9
f 322/31/9 319/26/9 323/34/9
f 323/34/9 319/26/9 316/24/9
f 324/28/9 328/33/9 325/32/9
s 1
f 325/118/31 326/3/32 324/122/32
f 324/122/32 326/3/32 327/123/10
f 324/122/32 327/123/10 320/29/10
s 0
f 324/28/9 322/31/9 328/33/9
f 328/33/9 332/127/9 329/126/9
s 1
f 329/124/33 330/117/30 328/115/30
f 328/115/30 330/117/30 331/116/31
f 328/115/30 331/116/31 325/118/31
s 0
f 332/127/9 328/33/9 333/129/9
f 333/129/9 328/33/9 334/54/9
f 328/33/9 335/44/9 334/54/9
f 322/31/9 336/43/9 328/33/9
f 328/33/9 336/43/9 335/44/9
f 336/43/9 344/42/9 337/91/9
s 1
f 337/88/24 338/75/21 336/73/21
f 336/73/21 338/75/21 340/74/19
s 0
f 343/57/9 336/43/9 339/64/9
s 1
f 336/73/21 340/74/19 339/65/19
s 0
f 345/46/9 336/43/9 341/55/9
f 341/55/9 336/43/9 342/56/9
f 342/56/9 336/43/9 343/57/9
f 344/42/9 336/43/9 346/39/9
f 335/44/9 336/43/9 345/46/9
f 346/39/9 336/43/9 322/31/9
f 346/39/9 322/31/9 347/40/9
s 1
f 347/41/12 348/98/26 346/96/26
f 346/96/26 348/98/26 350/94/25
s 0
f 344/42/9 346/39/9 349/95/9
s 1
f 346/96/26 350/94/25 349/93/25
s 0
f 352/78/2 350/92/2 348/97/2
s 1
f 349/93/25 350/94/25 351/81/22
s 0
f 350/92/2 353/72/2 351/77/2
f 352/78/2 353/72/2 350/92/2
s 1
f 344/79/22 351/81/22 353/80/23
f 344/79/22 353/80/23 354/82/23
f 354/82/23 353/80/23 355/83/1
s 0
f 353/72/2 356/85/2 355/84/2
f 353/72/2 357/76/2 356/85/2
f 317/13/2 353/72/2 352/78/2
f 317/13/2 357/76/2 353/72/2
f 361/69/2 357/76/2 358/70/2
s 1
f 341/59/17 358/60/17 357/61/18
f 341/59/17 357/61/18 359/63/18
f 359/63/18 357/61/18 360/99/3
s 0
f 357/76/2 362/101/2 360/100/2
f 340/67/2 357/76/2 361/69/2
f 362/101/2 357/76/2 363/102/2
f 363/102/2 357/76/2 364/103/2
f 357/76/2 365/104/2 364/103/2
f 356/85/2 357/76/2 340/67/2
f 357/76/2 317/13/2 365/104/2
f 366/105/2 364/103/2 365/104/2
s 1
f 334/106/27 366/108/27 365/107/28
f 334/106/27 365/107/28 333/109/28
f 333/109/28 365/107/28 367/110/29
s 0
f 365/104/2 368/112/2 367/111/2
f 365/104/2 317/13/2 368/112/2
s 1
f 332/128/29 367/110/29 368/125/33
f 332/128/29 368/125/33 329/124/33
f 329/124/33 368/125/33 330/117/30
s 0
f 368/112/2 331/114/2 330/113/2
f 368/112/2 317/13/2 331/114/2
s 1
f 333/109/28 367/110/29 332/128/29
s 0
f 369/130/2 364/103/2 366/105/2
s 1
f 370/131/34 369/132/34 366/108/27
f 370/131/34 366/108/27 334/106/27
s 0
f 334/54/9 371/51/9 370/133/9
s 1
f 371/9/35 369/132/34 370/131/34
s 0
f 371/51/9 335/44/9 372/52/9
s 1
f 372/53/15 373/1/35 371/9/35
f 371/9/35 373/1/35 369/132/34
s 0
f 334/54/9 335/44/9 371/51/9
f 364/103/2 369/130/2 373/134/2
s 1
f 372/53/15 364/50/15 373/1/35
f 335/48/14 364/50/15 372/53/15
f 335/48/14 363/49/14 364/50/15
f 374/47/13 362/136/13 363/49/14
f 374/47/13 363/49/14 335/48/14
s 0
f 335/44/9 345/46/9 374/45/9
s 1
f 345/135/3 362/136/13 374/47/13
f 345/135/3 360/99/3 362/136/13
s 0
f 340/67/2 361/69/2 375/68/2
s 1
f 343/8/20 375/10/20 361/66/16
f 343/8/20 361/66/16 342/58/16
f 342/58/16 361/66/16 358/60/17
f 339/65/19 340/74/19 375/10/20
f 339/65/19 375/10/20 343/8/20
f 359/63/18 360/99/3 345/135/3
s 0
f 345/46/9 341/55/9 359/62/9
s 1
f 342/58/16 358/60/17 341/59/17
f 376/86/1 355/83/1 356/87/24
f 376/86/1 356/87/24 337/88/24
f 337/88/24 356/87/24 338/75/21
s 0
f 356/85/2 340/67/2 338/71/2
f 376/89/9 344/42/9 354/90/9
s 1
f 354/82/23 355/83/1 376/86/1
s 0
f 337/91/9 344/42/9 376/89/9
f 377/137/2 317/13/2 352/78/2
s 1
f 322/36/11 377/37/11 352/38/12
f 322/36/11 352/38/12 347/41/12
f 347/41/12 352/38/12 348/98/26
s 0
f 315/15/2 317/13/2 377/137/2
s 1
f 323/35/6 315/17/6 377/37/11
f 323/35/6 377/37/11 322/36/11
f 349/93/25 351/81/22 344/79/22
f 325/118/31 331/116/31 326/3/32
s 0
f 331/114/2 327/120/2 326/119/2
f 331/114/2 317/13/2 327/120/2
s 1
f 320/29/10 327/123/10 321/30/8
s 0
f 327/120/2 317/13/2 321/121/2
s 1
f 316/16/4 315/17/6 323/35/6
