# Blender 4.4.1
# www.blender.org
mtllib Obstacle_Rock.mtl
o Obstacle_Rock
v -1.000000 -1.531557 1.000000
v -1.000000 1.000000 1.000000
v -1.000000 -1.531557 -1.000000
v -1.000000 1.000000 -1.000000
v -0.392472 0.257627 -1.000000
v -0.392472 -1.531557 -1.000000
v -0.392472 -1.531557 1.000000
v -0.392472 0.257627 -1.000000
v -0.392472 0.257627 1.000000
v -0.392031 1.000000 1.000000
v -0.393659 1.000000 -1.000000
v -0.392472 0.257627 0.999998
v -0.392472 0.257627 -1.000002
v 0.392472 0.257627 0.999998
v 0.392472 0.257627 -1.000002
v -0.392472 0.257627 -1.000002
v 0.392472 0.257627 -1.000002
v 0.392472 0.257627 0.999998
v -0.392472 0.257627 0.999998
v -0.392031 1.000000 0.999998
v 0.396552 1.000000 0.999998
v 0.395718 1.000000 -1.000002
v -0.393659 1.000000 -1.000002
v 1.000000 -1.531557 0.999998
v 1.000000 1.000000 0.999998
v 0.392472 0.257627 0.999998
v 1.000000 -1.531557 -1.000002
v 1.000000 1.000000 -1.000002
v 0.392472 0.257627 -1.000002
v 0.392472 -1.531557 -1.000002
v 0.392472 -1.531557 0.999998
v 0.392472 0.257627 -1.000002
v 0.392472 0.257627 0.999998
v 0.392472 -0.814584 -1.000002
v 0.396552 1.000000 0.999998
v 0.395718 1.000000 -1.000002
vn -1.0000 -0.0000 -0.0000
vn -0.0000 -0.0000 -1.0000
vn -0.0000 -1.0000 -0.0000
vn 1.0000 -0.0000 -0.0000
vn -0.0000 -0.0000 1.0000
vn -0.0000 1.0000 -0.0000
vt 0.625000 0.000000
vt 0.375000 0.250000
vt 0.375000 0.000000
vt 0.625000 0.250000
vt 0.625000 0.325793
vt 0.532203 0.325941
vt 0.200941 0.500000
vt 0.200941 0.750000
vt 0.125000 0.750000
vt 0.000000 0.000000
vt 0.625000 1.000000
vt 0.375000 1.000000
vt 0.532203 0.924059
vt 0.125000 0.500000
vt 0.390247 0.250000
vt 0.390247 0.000000
vt 0.875000 0.750000
vt 0.799004 0.750000
vt 0.799207 0.500000
vt 0.875000 0.500000
vt 0.532203 0.424059
vt 0.875000 0.549857
vt 0.625000 0.549857
vt 0.532203 0.825941
vt 0.700431 0.750000
vt 0.700535 0.500000
vt 0.625000 0.500000
vt 0.375000 0.750000
vt 0.375000 0.500000
vt 0.299059 0.750000
vt 0.299059 0.500000
vt 0.625000 0.700143
vt 0.625000 0.750000
vt 0.390247 0.750000
vt 0.424857 0.500000
vt 0.424857 0.549857
vt 0.390247 0.549857
vt 0.625000 0.424465
vt 0.875000 0.700143
vt 0.390247 0.500000
s 0
usemtl マテリアル.001
f 2/1/1 3/2/1 1/3/1
f 4/4/2 11/5/2 8/6/2
f 6/7/3 7/8/3 1/9/3
f 7/10/4 8/10/4 9/10/4
f 2/1/1 4/4/1 3/2/1
f 3/2/2 4/4/2 8/6/2
f 2/11/5 1/12/5 9/13/5
f 1/9/3 3/14/3 6/7/3
f 6/15/4 5/4/4 7/16/4
f 2/17/5 9/13/5 10/18/5
f 2/17/6 11/19/6 4/20/6
f 8/6/2 6/7/2 3/2/2
f 9/13/5 1/9/5 7/8/5
f 23/5/2 17/21/2 16/6/2
f 12/17/3 13/22/3 17/23/3
f 18/24/5 20/18/5 19/13/5
f 18/24/5 21/25/5 20/18/5
f 20/18/6 22/26/6 23/19/6
f 28/27/4 24/28/4 27/29/4
f 24/28/3 31/30/3 30/31/3
f 24/28/5 26/32/5 31/30/5
f 35/25/6 28/27/6 36/26/6
f 28/27/2 27/29/2 32/21/2
f 28/27/4 25/33/4 24/28/4
f 33/24/5 24/28/5 25/33/5
f 27/29/3 24/28/3 30/31/3
f 31/34/1 29/27/1 34/35/1
f 34/36/2 27/29/2 30/37/2
f 25/33/5 35/25/5 33/24/5
f 32/21/2 36/38/2 28/27/2
f 2/17/6 10/18/6 11/19/6
f 23/5/2 22/38/2 17/21/2
f 18/32/6 19/39/6 12/17/6
f 14/32/3 18/32/3 12/17/3
f 17/23/6 15/27/6 14/32/6
f 17/23/3 14/32/3 12/17/3
f 13/22/6 16/22/6 17/23/6
f 20/18/6 21/25/6 22/26/6
f 24/28/1 33/32/1 26/32/1
f 35/25/6 25/33/6 28/27/6
f 34/35/1 30/40/1 31/34/1
f 31/34/1 26/33/1 29/27/1
f 34/36/2 32/21/2 27/29/2
