# Blender 4.4.1
# www.blender.org
mtllib collapsed_bridge.mtl
o collapsed_bridge
v 13.344458 25.503977 17.301956
v 14.815473 22.133783 15.727819
v 11.293324 24.184681 18.209770
v 12.764338 20.814487 16.635632
v 30.561703 19.157230 46.979527
v 32.032715 15.787037 45.405384
v 28.510571 17.837936 47.887333
v 29.981583 14.467743 46.313198
v 11.855867 20.634871 17.124260
v 40.080730 38.789162 4.632207
v 12.959130 18.107227 15.943654
v 29.073109 14.288125 46.801819
v 57.297977 32.442417 34.309772
v 30.176373 11.760482 45.621223
v 58.401237 29.914772 33.129166
v 41.183990 36.261517 3.451603
v 37.919506 41.310699 6.425278
v 35.868370 39.991405 7.333087
v 39.390522 37.940510 4.851138
v 55.136749 34.963955 36.102840
v 53.085617 33.644665 37.010654
v 56.607769 31.593765 34.528702
v 54.556629 30.274469 35.436512
v 37.339386 36.621216 5.758948
v -63.747231 -28.529936 -50.582848
v -62.285378 -31.105648 -53.271469
v -65.283051 -30.400181 -49.626194
v -63.821198 -32.975891 -52.314812
v -38.631695 -37.683811 -28.157650
v -37.169842 -40.259514 -30.846273
v -40.167538 -39.554070 -27.200994
v -38.705673 -42.129776 -29.889626
v -64.535240 -33.436989 -51.703346
v -43.401276 -7.701126 -64.867462
v -63.438854 -35.368774 -53.719818
v -39.419701 -42.590858 -29.278156
v -18.285751 -16.855003 -42.442268
v -38.323315 -44.522640 -31.294619
v -17.189358 -18.786785 -44.458733
v -42.304886 -9.632912 -66.883926
v -45.346146 -6.122026 -62.044678
v -46.881969 -7.992283 -61.088032
v -43.884300 -8.697737 -64.733307
v -20.230610 -15.275900 -39.619484
v -21.766449 -17.146156 -38.662842
v -18.768761 -17.851604 -42.308109
v -20.304594 -19.721872 -41.351463
v -45.420116 -10.567982 -63.776657
v -35.797115 -13.892038 -13.574237
v -21.400137 -8.953994 -41.062351
v -33.632042 -16.514425 -12.911373
v -24.163258 -2.216656 -5.383574
v -9.766281 2.721387 -32.871677
v -21.998194 -4.839047 -4.720709
v -7.601210 0.098998 -32.208817
v -19.235067 -11.576383 -40.399483
v -22.402569 -27.922390 -9.891172
v -8.656502 -23.207600 -36.136482
v -34.900585 -12.784431 -13.717626
v -12.292703 -17.776436 -2.773444
v 1.453366 -13.061645 -29.018761
v -24.790718 -2.638478 -6.599895
v -11.044654 2.076311 -32.845203
v -21.154528 -8.069645 -39.962936
v 30.253878 15.478263 34.826702
v 20.281691 31.569710 9.749331
v 30.621210 12.646976 32.863865
v 47.598000 20.345009 31.052544
v 37.625816 36.436455 5.975177
v 47.965340 17.513723 29.089714
v 37.993153 33.605164 4.012342
v 20.649027 28.738420 7.786497
v 33.652065 0.179796 22.768967
v 24.130745 15.543713 -1.174602
v 31.531588 16.523630 34.099571
v 48.724194 4.409023 19.489206
v 39.202873 19.772938 -4.454359
v 46.603710 20.752857 30.819809
v 37.082390 36.116772 6.876243
v 22.010267 31.887548 10.156003
v -29.708244 -21.360678 18.080292
v -26.807482 -24.049004 17.481569
v -31.244074 -23.230932 19.036943
v -28.343315 -25.919262 18.438221
v -17.333771 -15.140906 50.106213
v -14.433010 -17.829231 49.507488
v -18.869602 -17.011160 51.062866
v -15.968843 -19.699486 50.464142
v -29.192253 -26.369785 18.853737
v -8.058293 -0.633935 5.689625
v -27.016678 -28.386036 18.404694
v -16.817787 -20.150015 50.879654
v 4.316179 5.585837 37.715542
v -14.642208 -22.166260 50.430611
v 6.491750 3.569593 37.266502
v -5.882724 -2.650184 5.240582
v -11.307164 1.047218 6.618455
v -12.842990 -0.823033 7.575109
v -8.406395 -1.641104 6.019731
v 1.067313 7.266996 38.644375
v -0.468519 5.396737 39.601021
v 3.968073 4.578667 38.045647
v 2.432244 2.708415 39.002296
v -9.942227 -3.511358 6.976380
v -154.410889 0.613831 -35.003925
v -156.930099 -2.459496 -34.547516
v -153.685455 0.388832 -32.514961
v -156.204651 -2.684494 -32.058548
v -129.113586 -21.514374 -44.377403
v -131.632782 -24.587696 -43.920990
v -128.388153 -21.739368 -41.888439
v -130.907349 -24.812691 -41.432026
v -155.695923 -2.480858 -31.166321
v -165.678268 0.615303 -65.415985
v -157.585327 -4.785843 -30.824009
v -130.398636 -24.609047 -40.539795
v -140.380951 -21.512890 -74.789467
v -132.288025 -26.914043 -40.197491
v -142.270370 -23.817890 -74.447159
v -167.567657 -1.689690 -65.073669
v -163.102386 3.309616 -64.824699
v -162.376953 3.084610 -62.335732
v -165.621582 0.236290 -64.368286
v -137.805084 -18.818581 -74.198181
v -137.079666 -19.043579 -71.709213
v -140.324280 -21.891891 -73.741760
v -139.598862 -22.116901 -71.252792
v -164.896164 0.011284 -61.879322
v -226.394424 15.825394 54.763111
v -229.780090 13.695473 54.737282
v -225.812073 14.871223 57.113049
v -229.197739 12.741310 57.087219
v -209.533951 -10.794098 39.776436
v -212.919617 -12.923996 39.750610
v -208.951599 -11.748260 42.126389
v -212.337280 -13.878166 42.100548
v -228.661530 12.582573 57.972454
v -236.674866 25.712502 25.635715
v -231.200806 10.985146 57.953098
v -211.801071 -14.036903 42.985786
v -219.814407 -0.906990 10.649042
v -214.340332 -15.634346 42.966415
v -222.353653 -2.504433 10.629675
v -239.214111 24.115051 25.616352
v -233.371506 27.257454 26.607903
v -232.789185 26.303291 28.957844
v -236.757202 25.127548 26.582081
v -216.511047 0.637970 11.621216
v -215.928726 -0.316193 13.971180
v -219.896713 -1.491928 11.595398
v -219.314407 -2.446121 13.945356
v -236.174866 24.173386 28.932011
v -189.648834 3.003555 25.600174
v -216.161819 6.739159 9.157537
v -189.889038 -0.430367 25.207323
v -179.854614 4.096748 10.055828
v -206.367599 7.832352 -6.386806
v -180.094818 0.662819 9.662994
v -206.607788 4.398438 -6.779655
v -216.402008 3.305244 8.764690
v -190.972076 -16.360153 21.977280
v -216.286331 -12.793434 6.278034
v -189.585510 3.462425 24.244982
v -182.460861 -15.410164 8.469177
v -207.775116 -11.843460 -7.230064
v -181.074295 4.412407 10.736891
v -206.388565 7.979111 -4.962353
v -214.899780 7.029144 8.545752
v -141.719879 -21.072025 -42.892036
v -160.762390 3.865944 -44.545555
v -144.370880 -23.024815 -41.813797
v -145.720047 -25.284508 -60.356331
v -164.762558 -0.346550 -62.009850
v -148.371063 -27.237316 -59.278099
v -167.413574 -2.299355 -60.931614
v -163.413391 1.913147 -43.467319
v -157.572784 -31.981068 -38.346977
v -175.754349 -8.170609 -39.925739
v -142.269669 -20.708370 -44.571182
v -161.048965 -35.641739 -53.523537
v -179.230515 -11.831276 -55.102295
v -145.745850 -24.369053 -59.747742
v -163.927399 -0.558594 -61.326504
v -160.451233 3.102089 -46.149944
v -161.697495 -14.689339 26.340643
v -163.236847 -18.227299 25.285574
v -161.115143 -15.643505 28.690590
v -162.654510 -19.181461 27.635521
v -130.453400 -24.755760 14.510738
v -131.992767 -28.293720 13.455668
v -129.871048 -25.709930 16.860691
v -131.410416 -29.247890 15.805623
v -162.291412 -19.208187 28.617241
v -170.304733 -6.078278 -3.719494
v -163.445953 -21.861649 27.825939
v -131.047318 -29.274605 16.787344
v -139.060638 -16.144695 -15.549395
v -132.201843 -31.928078 15.996031
v -140.215179 -18.798172 -16.340698
v -171.459259 -8.731743 -4.510792
v -168.674591 -3.257278 -1.814558
v -168.092255 -4.211441 0.535385
v -170.213959 -6.795235 -2.869644
v -137.430496 -13.323700 -13.644470
v -136.848175 -14.277863 -11.294516
v -138.969879 -16.861664 -14.699539
v -138.387527 -17.815823 -12.349588
v -169.631622 -7.749397 -0.519688
v -366.738129 15.556870 -9.240101
v -364.809723 12.483536 -7.556126
v -365.245667 15.331879 -11.359913
v -363.317200 12.258545 -9.675934
v -389.846802 -6.571320 -23.161583
v -387.918304 -9.644638 -21.477600
v -388.354248 -6.796310 -25.281387
v -386.425781 -9.869644 -23.597412
v -362.937317 12.462189 -10.630169
v -383.475159 15.558334 18.539749
v -361.490997 10.157196 -9.367188
v -386.045929 -9.666000 -24.551647
v -406.583771 -6.569839 4.618267
v -384.599609 -11.970978 -23.288658
v -405.137451 -8.874847 5.881252
v -382.028809 13.253342 19.802715
v -384.620178 18.252686 16.157799
v -383.127686 18.027679 14.037979
v -382.691711 15.179337 17.841770
v -407.728790 -3.875534 2.236332
v -406.236298 -4.100525 0.116501
v -405.800385 -6.948837 3.920307
v -404.307831 -7.173843 1.800495
v -381.199219 14.954330 15.721970
v -251.716370 4.859413 -12.636417
v -252.346878 0.961174 -11.999020
v -251.739777 4.443184 -15.205070
v -252.370300 0.544968 -14.567669
v -286.171051 10.338326 -13.210094
v -286.801575 6.440094 -12.572678
v -286.194489 9.922089 -15.778755
v -286.824951 6.023857 -15.141338
v -252.319977 0.754112 -15.592400
v -251.997726 6.481544 19.753963
v -252.792847 -2.169563 -15.114338
v -286.774658 6.233032 -16.166058
v -286.452393 11.960464 19.180286
v -287.247528 3.309341 -15.688011
v -286.925293 9.036797 19.658348
v -252.470581 3.557877 20.232018
v -251.435791 9.846237 18.139229
v -251.459213 9.430000 15.570572
v -252.066284 5.948006 18.776638
v -285.890472 15.325150 17.565567
v -285.913879 14.908920 14.996899
v -286.520996 11.426918 18.202976
v -286.544373 11.010689 15.634308
v -252.089706 5.531784 16.207981
v -297.390991 17.946609 -19.513466
v -293.699066 21.682198 11.465046
v -297.548126 14.512688 -19.080650
v -315.649536 19.039795 -17.469280
v -311.957611 22.775391 13.509228
v -315.806702 15.605881 -17.036465
v -312.114746 19.341469 13.942043
v -293.856201 18.248291 11.897869
v -299.396698 -1.417099 -16.218990
v -295.871674 2.149590 13.358921
v -298.489563 18.405472 -18.717442
v -315.263428 -0.467117 -14.442596
v -311.738434 3.099594 15.135323
v -314.356323 19.355469 -16.941036
v -310.831329 22.922180 12.636871
v -294.964539 21.972183 10.860470
v -380.820740 -6.128983 -14.236565
v -370.232117 18.808990 1.676701
v -378.324066 -8.081772 -12.837540
v -391.973206 -10.341461 -0.214264
v -381.384583 14.596512 15.699017
v -389.476593 -12.294266 1.184753
v -378.887939 12.643723 17.098034
v -367.735504 16.856186 3.075718
v -367.377991 -17.038025 -4.683319
v -357.268066 6.772446 10.510483
v -381.789978 -5.765335 -12.759270
v -377.069550 -20.698700 7.502144
v -366.959656 3.111771 22.695927
v -391.481506 -9.425995 -0.573822
v -381.371613 14.384460 14.619999
v -371.680054 18.045135 2.434532
v -314.251495 0.802704 -41.349655
v -314.115601 -2.999237 -40.114052
v -312.778381 0.187485 -43.404694
v -312.642456 -3.614471 -42.169090
v -342.990082 -6.235031 -59.843925
v -342.854187 -10.036957 -58.608307
v -341.516937 -6.850250 -61.898956
v -341.381042 -10.652206 -60.663345
v -312.101807 -3.489105 -43.056931
v -332.373169 4.976700 -14.778431
v -311.999878 -6.340546 -42.130230
v -340.840363 -10.526825 -61.551201
v -361.111755 -2.061020 -33.272690
v -340.738464 -13.378296 -60.624485
v -361.009827 -4.912491 -32.345985
v -332.271240 2.125259 -13.851727
v -331.901550 8.173798 -16.727909
v -330.428406 7.558594 -18.782936
v -331.765656 4.371826 -15.492290
v -360.640137 1.136047 -35.222160
v -359.166992 0.520828 -37.277199
v -360.504181 -2.665909 -33.986542
v -359.031067 -3.281113 -36.041584
v -330.292511 3.756622 -17.547318
vn -0.4934 0.1819 -0.8505
vn -0.7882 -0.5070 0.3489
vn 0.4934 -0.1819 0.8505
vn 0.7882 0.5070 -0.3489
vn -0.3678 0.8425 0.3935
vn 0.3678 -0.8425 -0.3935
vn -0.7198 0.2623 -0.6427
vn -0.5902 -0.7187 0.3676
vn 0.7198 -0.2623 0.6427
vn 0.5902 0.7187 -0.3676
vn -0.3655 0.6439 0.6722
vn 0.3655 -0.6439 -0.6722
vn -0.6249 0.7569 -0.1913
vn -0.6321 -0.6344 -0.4450
vn -0.4582 -0.1572 0.8748
vn 0.6321 0.6344 0.4450
vn 0.6249 -0.7569 0.1913
vn 0.4582 0.1572 -0.8748
vn -0.1060 0.8172 0.5665
vn -0.9424 -0.2644 0.2051
vn 0.3174 -0.5121 0.7981
vn 0.9424 0.2644 -0.2051
vn 0.1060 -0.8172 -0.5665
vn -0.3174 0.5121 -0.7981
vn -0.3546 -0.1783 -0.9179
vn 0.3546 0.1783 0.9179
vn -0.7252 0.6721 0.1497
vn 0.7252 -0.6721 -0.1497
vn -0.3546 -0.1783 -0.9178
vn -0.7250 0.6342 0.2686
vn 0.2788 -0.0865 0.9565
vn 0.7250 -0.6342 -0.2686
vn -0.2788 0.0865 -0.9565
vn 0.6298 0.7683 -0.1141
vn -0.6298 -0.7683 0.1141
vn -0.4832 0.7629 0.4295
vn 0.2238 -0.3667 0.9030
vn 0.4832 -0.7629 -0.4295
vn -0.2238 0.3667 -0.9030
vn 0.8464 0.5325 0.0065
vn -0.8464 -0.5325 -0.0065
vn 0.0693 0.9911 0.1134
vn -0.5321 -0.0594 0.8446
vn 0.8438 -0.1189 0.5233
vn 0.5321 0.0594 -0.8446
vn -0.0693 -0.9911 -0.1134
vn -0.8438 0.1189 -0.5233
vn 0.7652 0.5636 -0.3112
vn 0.2173 0.2289 0.9489
vn 0.6061 -0.7937 0.0526
vn -0.2173 -0.2289 -0.9489
vn -0.7652 -0.5636 0.3112
vn -0.6061 0.7937 -0.0526
vn -0.8954 0.2885 0.3390
vn 0.8954 -0.2885 -0.3390
vn 0.3848 0.8845 0.2638
vn -0.3848 -0.8845 -0.2638
vn 0.6623 0.6342 0.3989
vn 0.5735 -0.0865 -0.8146
vn -0.6623 -0.6342 -0.3990
vn -0.5735 0.0865 0.8146
vn -0.4821 0.7683 -0.4210
vn 0.4821 -0.7683 0.4210
vn 0.6623 0.6342 0.3990
vn 0.9875 -0.1570 0.0164
vn -0.0090 -0.1599 -0.9871
vn -0.9875 0.1570 -0.0164
vn 0.0090 0.1599 0.9871
vn 0.1576 0.9746 -0.1594
vn -0.1576 -0.9746 0.1594
vn -0.9875 0.1570 -0.0165
vn 0.0454 0.9911 -0.1249
vn 0.9920 -0.0594 -0.1111
vn -0.1175 -0.1189 -0.9859
vn -0.9920 0.0594 0.1111
vn -0.0454 -0.9911 0.1249
vn 0.1175 0.1189 0.9859
vn -0.7206 0.5636 -0.4038
vn 0.6059 0.2289 -0.7619
vn -0.3370 -0.7937 -0.5065
vn -0.6059 -0.2289 0.7619
vn 0.7206 -0.5636 0.4038
vn 0.3370 0.7937 0.5065
vn 0.8236 0.2017 0.5300
vn 0.5661 -0.2364 -0.7897
vn -0.8236 -0.2017 -0.5300
vn -0.5661 0.2364 0.7897
vn -0.0340 0.9505 -0.3089
vn 0.0340 -0.9505 0.3089
vn -0.1576 -0.9746 0.1593
vt 0.625000 0.000000
vt 0.375000 0.250000
vt 0.375000 0.000000
vt 0.625000 0.250000
vt 0.375000 0.500000
vt 0.625000 0.750000
vt 0.375000 0.750000
vt 0.375000 1.000000
vt 0.125000 0.750000
vt 0.125000 0.500000
vt 0.875000 0.500000
vt 0.625000 0.500000
vt 0.875000 0.750000
vt 0.625000 1.000000
s 0
usemtl 岩
f 2/1/1 3/2/1 1/3/1
f 4/4/2 7/5/2 3/2/2
f 7/5/3 6/6/3 5/7/3
f 6/6/4 1/8/4 5/7/4
f 7/5/5 1/9/5 3/10/5
f 4/11/6 6/6/6 8/12/6
f 9/9/5 13/5/5 10/10/5
f 10/2/1 11/1/1 9/3/1
f 9/8/2 14/6/2 12/7/2
f 13/5/3 14/6/3 15/12/3
f 14/6/6 16/11/6 15/12/6
f 13/5/4 16/4/4 10/2/4
f 18/10/5 20/7/5 17/9/5
f 19/1/1 18/2/1 17/3/1
f 22/6/4 17/8/4 20/7/4
f 23/12/3 20/7/3 21/5/3
f 23/12/6 19/13/6 22/6/6
f 18/2/2 23/12/2 21/5/2
f 25/3/7 28/4/7 27/2/7
f 28/4/8 31/5/8 27/2/8
f 32/12/9 29/7/9 31/5/9
f 30/6/10 25/8/10 29/7/10
f 31/5/11 25/9/11 27/10/11
f 28/11/12 30/6/12 32/12/12
f 33/9/11 37/5/11 34/10/11
f 34/2/7 35/1/7 33/3/7
f 36/7/8 35/14/8 38/6/8
f 36/7/9 39/12/9 37/5/9
f 38/6/12 40/11/12 39/12/12
f 37/5/10 40/4/10 34/2/10
f 45/5/11 41/9/11 42/10/11
f 43/1/7 42/2/7 41/3/7
f 44/7/10 43/14/10 41/8/10
f 45/5/9 46/6/9 44/7/9
f 47/12/12 43/13/12 46/6/12
f 48/4/8 45/5/8 42/2/8
f 49/9/13 53/5/13 50/10/13
f 49/3/14 56/4/14 51/1/14
f 52/7/15 51/14/15 54/6/15
f 53/5/16 54/6/16 55/12/16
f 54/6/17 56/11/17 55/12/17
f 53/5/18 56/4/18 50/2/18
f 61/5/17 57/9/17 58/10/17
f 59/1/14 58/2/14 57/3/14
f 60/7/15 59/14/15 57/8/15
f 63/12/16 60/7/16 61/5/16
f 63/12/13 59/13/13 62/6/13
f 64/4/18 61/5/18 58/2/18
f 65/9/19 69/5/19 66/10/19
f 66/2/20 67/1/20 65/3/20
f 65/8/21 70/6/21 68/7/21
f 68/7/22 71/12/22 69/5/22
f 70/6/23 72/11/23 71/12/23
f 69/5/24 72/4/24 66/2/24
f 77/5/23 73/9/23 74/10/23
f 75/1/20 74/2/20 73/3/20
f 78/6/21 73/8/21 76/7/21
f 77/5/22 78/6/22 76/7/22
f 80/11/19 78/6/19 79/12/19
f 80/4/24 77/5/24 74/2/24
f 82/1/25 83/2/25 81/3/25
f 83/2/8 88/12/8 87/5/8
f 88/12/26 85/7/26 87/5/26
f 86/6/10 81/8/10 85/7/10
f 87/5/27 81/9/27 83/10/27
f 84/11/28 86/6/28 88/12/28
f 89/9/27 93/5/27 90/10/27
f 89/3/25 96/4/25 91/1/25
f 92/7/8 91/14/8 94/6/8
f 93/5/26 94/6/26 95/12/26
f 94/6/28 96/11/28 95/12/28
f 93/5/10 96/4/10 90/2/10
f 101/5/27 97/9/27 98/10/27
f 97/3/29 104/4/29 98/2/29
f 102/6/10 97/8/10 100/7/10
f 101/5/26 102/6/26 100/7/26
f 104/11/28 102/6/28 103/12/28
f 104/4/8 101/5/8 98/2/8
f 105/3/30 108/4/30 107/2/30
f 107/2/31 112/12/31 111/5/31
f 112/12/32 109/7/32 111/5/32
f 110/6/33 105/8/33 109/7/33
f 107/10/34 109/7/34 105/9/34
f 108/11/35 110/6/35 112/12/35
f 113/9/34 117/5/34 114/10/34
f 113/3/30 120/4/30 115/1/30
f 116/7/31 115/14/31 118/6/31
f 117/5/32 118/6/32 119/12/32
f 118/6/35 120/11/35 119/12/35
f 114/2/33 119/12/33 120/4/33
f 122/10/34 124/7/34 121/9/34
f 121/3/30 128/4/30 122/2/30
f 124/7/33 123/14/33 121/8/33
f 125/5/32 126/6/32 124/7/32
f 127/12/35 123/13/35 126/6/35
f 122/2/31 127/12/31 125/5/31
f 129/3/36 132/4/36 131/2/36
f 132/4/37 135/5/37 131/2/37
f 136/12/38 133/7/38 135/5/38
f 133/7/39 130/14/39 129/8/39
f 131/10/40 133/7/40 129/9/40
f 132/11/41 134/6/41 136/12/41
f 137/9/40 141/5/40 138/10/40
f 137/3/36 144/4/36 139/1/36
f 137/8/37 142/6/37 140/7/37
f 140/7/38 143/12/38 141/5/38
f 142/6/41 144/11/41 143/12/41
f 141/5/39 144/4/39 138/2/39
f 149/5/40 145/9/40 146/10/40
f 145/3/36 152/4/36 146/2/36
f 150/6/39 145/8/39 148/7/39
f 149/5/38 150/6/38 148/7/38
f 152/11/41 150/6/41 151/12/41
f 152/4/37 149/5/37 146/2/37
f 153/9/42 157/5/42 154/10/42
f 153/3/43 160/4/43 155/1/43
f 153/8/44 158/6/44 156/7/44
f 157/5/45 158/6/45 159/12/45
f 158/6/46 160/11/46 159/12/46
f 157/5/47 160/4/47 154/2/47
f 162/10/46 164/7/46 161/9/46
f 163/1/43 162/2/43 161/3/43
f 164/7/44 163/14/44 161/8/44
f 167/12/45 164/7/45 165/5/45
f 168/11/42 166/6/42 167/12/42
f 162/2/47 167/12/47 165/5/47
f 169/9/48 173/5/48 170/10/48
f 170/2/49 171/1/49 169/3/49
f 169/8/50 174/6/50 172/7/50
f 173/5/51 174/6/51 175/12/51
f 174/6/52 176/11/52 175/12/52
f 173/5/53 176/4/53 170/2/53
f 178/10/52 180/7/52 177/9/52
f 179/1/49 178/2/49 177/3/49
f 180/7/50 179/14/50 177/8/50
f 181/5/51 182/6/51 180/7/51
f 183/12/48 179/13/48 182/6/48
f 184/4/53 181/5/53 178/2/53
f 186/1/54 187/2/54 185/3/54
f 187/2/37 192/12/37 191/5/37
f 191/5/55 190/6/55 189/7/55
f 190/6/39 185/8/39 189/7/39
f 187/10/56 189/7/56 185/9/56
f 188/11/57 190/6/57 192/12/57
f 193/9/56 197/5/56 194/10/56
f 194/2/54 195/1/54 193/3/54
f 196/7/37 195/14/37 198/6/37
f 196/7/55 199/12/55 197/5/55
f 198/6/57 200/11/57 199/12/57
f 194/2/39 199/12/39 200/4/39
f 205/5/56 201/9/56 202/10/56
f 201/3/54 208/4/54 202/2/54
f 206/6/39 201/8/39 204/7/39
f 207/12/55 204/7/55 205/5/55
f 208/11/57 206/6/57 207/12/57
f 202/2/37 207/12/37 205/5/37
f 209/3/58 212/4/58 211/2/58
f 211/2/59 216/12/59 215/5/59
f 215/5/60 214/6/60 213/7/60
f 214/6/61 209/8/61 213/7/61
f 215/5/62 209/9/62 211/10/62
f 216/12/63 210/13/63 214/6/63
f 218/10/62 220/7/62 221/5/62
f 217/3/64 224/4/64 219/1/64
f 217/8/59 222/6/59 220/7/59
f 221/5/60 222/6/60 223/12/60
f 222/6/63 224/11/63 223/12/63
f 221/5/61 224/4/61 218/2/61
f 226/10/62 228/7/62 225/9/62
f 225/3/64 232/4/64 226/2/64
f 228/7/61 227/14/61 225/8/61
f 231/12/60 228/7/60 229/5/60
f 231/12/63 227/13/63 230/6/63
f 226/2/59 231/12/59 229/5/59
f 234/1/65 235/2/65 233/3/65
f 235/2/66 240/12/66 239/5/66
f 239/5/67 238/6/67 237/7/67
f 237/7/68 234/14/68 233/8/68
f 239/5/69 233/9/69 235/10/69
f 240/12/70 234/13/70 238/6/70
f 241/9/69 245/5/69 242/10/69
f 242/2/65 243/1/65 241/3/65
f 241/8/66 246/6/66 244/7/66
f 244/7/67 247/12/67 245/5/67
f 247/12/70 243/13/70 248/11/70
f 245/5/68 248/4/68 242/2/68
f 250/10/69 252/7/69 249/9/69
f 251/1/65 250/2/65 249/3/65
f 252/7/68 251/14/68 249/8/68
f 253/5/71 254/6/71 252/7/71
f 255/12/70 251/13/70 254/6/70
f 250/2/66 255/12/66 253/5/66
f 258/10/72 260/7/72 261/5/72
f 258/2/73 259/1/73 257/3/73
f 260/7/74 259/14/74 262/6/74
f 261/5/75 262/6/75 263/12/75
f 262/6/76 264/11/76 263/12/76
f 258/2/77 263/12/77 264/4/77
f 266/10/76 268/7/76 265/9/76
f 265/3/73 272/4/73 266/2/73
f 270/6/74 265/8/74 268/7/74
f 269/5/75 270/6/75 268/7/75
f 271/12/72 267/13/72 270/6/72
f 272/4/77 269/5/77 266/2/77
f 274/10/78 276/7/78 277/5/78
f 274/2/79 275/1/79 273/3/79
f 273/8/80 278/6/80 276/7/80
f 276/7/81 279/12/81 277/5/81
f 278/6/82 280/11/82 279/12/82
f 277/5/83 280/4/83 274/2/83
f 285/5/82 281/9/82 282/10/82
f 281/3/79 288/4/79 282/2/79
f 286/6/80 281/8/80 284/7/80
f 285/5/81 286/6/81 284/7/81
f 288/11/78 286/6/78 287/12/78
f 282/2/83 287/12/83 285/5/83
f 290/1/84 291/2/84 289/3/84
f 291/2/85 296/12/85 295/5/85
f 295/5/86 294/6/86 293/7/86
f 294/6/87 289/8/87 293/7/87
f 295/5/88 289/9/88 291/10/88
f 296/12/89 290/13/89 294/6/89
f 298/10/88 300/7/88 301/5/88
f 297/3/84 304/4/84 299/1/84
f 300/7/85 299/14/85 302/6/85
f 301/5/86 302/6/86 303/12/86
f 303/12/89 299/13/89 304/11/89
f 298/2/87 303/12/87 304/4/87
f 309/5/88 305/9/88 306/10/88
f 305/3/84 312/4/84 306/2/84
f 310/6/87 305/8/87 308/7/87
f 311/12/86 308/7/86 309/5/86
f 312/11/89 310/6/89 311/12/89
f 306/2/85 311/12/85 309/5/85
f 2/1/1 4/4/1 3/2/1
f 4/4/2 8/12/2 7/5/2
f 7/5/3 8/12/3 6/6/3
f 6/6/4 2/14/4 1/8/4
f 7/5/5 5/7/5 1/9/5
f 4/11/6 2/13/6 6/6/6
f 9/9/5 12/7/5 13/5/5
f 10/2/1 16/4/1 11/1/1
f 9/8/2 11/14/2 14/6/2
f 13/5/3 12/7/3 14/6/3
f 14/6/6 11/13/6 16/11/6
f 13/5/4 15/12/4 16/4/4
f 18/10/5 21/5/5 20/7/5
f 19/1/1 24/4/1 18/2/1
f 22/6/4 19/14/4 17/8/4
f 23/12/3 22/6/3 20/7/3
f 23/12/6 24/11/6 19/13/6
f 18/2/2 24/4/2 23/12/2
f 25/3/7 26/1/7 28/4/7
f 28/4/8 32/12/8 31/5/8
f 32/12/9 30/6/9 29/7/9
f 30/6/10 26/14/10 25/8/10
f 31/5/11 29/7/11 25/9/11
f 28/11/12 26/13/12 30/6/12
f 33/9/11 36/7/11 37/5/11
f 34/2/7 40/4/7 35/1/7
f 36/7/8 33/8/8 35/14/8
f 36/7/9 38/6/9 39/12/9
f 38/6/12 35/13/12 40/11/12
f 37/5/10 39/12/10 40/4/10
f 45/5/11 44/7/11 41/9/11
f 43/1/7 48/4/7 42/2/7
f 44/7/10 46/6/10 43/14/10
f 45/5/9 47/12/9 46/6/9
f 47/12/12 48/11/12 43/13/12
f 48/4/8 47/12/8 45/5/8
f 49/9/13 52/7/13 53/5/13
f 49/3/14 50/2/14 56/4/14
f 52/7/15 49/8/15 51/14/15
f 53/5/16 52/7/16 54/6/16
f 54/6/17 51/13/17 56/11/17
f 53/5/18 55/12/18 56/4/18
f 61/5/17 60/7/17 57/9/17
f 59/1/14 64/4/14 58/2/14
f 60/7/15 62/6/15 59/14/15
f 63/12/16 62/6/16 60/7/16
f 63/12/13 64/11/13 59/13/13
f 64/4/18 63/12/18 61/5/18
f 65/9/19 68/7/19 69/5/19
f 66/2/20 72/4/20 67/1/20
f 65/8/21 67/14/21 70/6/21
f 68/7/22 70/6/22 71/12/22
f 70/6/23 67/13/23 72/11/23
f 69/5/24 71/12/24 72/4/24
f 77/5/23 76/7/23 73/9/23
f 75/1/20 80/4/20 74/2/20
f 78/6/21 75/14/21 73/8/21
f 77/5/22 79/12/22 78/6/22
f 80/11/19 75/13/19 78/6/19
f 80/4/24 79/12/24 77/5/24
f 82/1/25 84/4/25 83/2/25
f 83/2/8 84/4/8 88/12/8
f 88/12/26 86/6/26 85/7/26
f 86/6/10 82/14/10 81/8/10
f 87/5/27 85/7/27 81/9/27
f 84/11/28 82/13/28 86/6/28
f 89/9/27 92/7/27 93/5/27
f 89/3/25 90/2/25 96/4/25
f 92/7/8 89/8/8 91/14/8
f 93/5/26 92/7/26 94/6/26
f 94/6/28 91/13/28 96/11/28
f 93/5/10 95/12/10 96/4/10
f 101/5/27 100/7/27 97/9/27
f 97/3/25 99/1/25 104/4/25
f 102/6/10 99/14/10 97/8/10
f 101/5/26 103/12/26 102/6/26
f 104/11/28 99/13/28 102/6/28
f 104/4/8 103/12/8 101/5/8
f 105/3/30 106/1/30 108/4/30
f 107/2/31 108/4/31 112/12/31
f 112/12/32 110/6/32 109/7/32
f 110/6/33 106/14/33 105/8/33
f 107/10/34 111/5/34 109/7/34
f 108/11/35 106/13/35 110/6/35
f 113/9/34 116/7/34 117/5/34
f 113/3/30 114/2/30 120/4/30
f 116/7/31 113/8/31 115/14/31
f 117/5/32 116/7/32 118/6/32
f 118/6/35 115/13/35 120/11/35
f 114/2/33 117/5/33 119/12/33
f 122/10/34 125/5/34 124/7/34
f 121/3/30 123/1/30 128/4/30
f 124/7/33 126/6/33 123/14/33
f 125/5/32 127/12/32 126/6/32
f 127/12/35 128/11/35 123/13/35
f 122/2/31 128/4/31 127/12/31
f 129/3/36 130/1/36 132/4/36
f 132/4/37 136/12/37 135/5/37
f 136/12/38 134/6/38 133/7/38
f 133/7/39 134/6/39 130/14/39
f 131/10/40 135/5/40 133/7/40
f 132/11/41 130/13/41 134/6/41
f 137/9/40 140/7/40 141/5/40
f 137/3/36 138/2/36 144/4/36
f 137/8/37 139/14/37 142/6/37
f 140/7/38 142/6/38 143/12/38
f 142/6/41 139/13/41 144/11/41
f 141/5/39 143/12/39 144/4/39
f 149/5/40 148/7/40 145/9/40
f 145/3/36 147/1/36 152/4/36
f 150/6/39 147/14/39 145/8/39
f 149/5/38 151/12/38 150/6/38
f 152/11/41 147/13/41 150/6/41
f 152/4/37 151/12/37 149/5/37
f 153/9/42 156/7/42 157/5/42
f 153/3/43 154/2/43 160/4/43
f 153/8/44 155/14/44 158/6/44
f 157/5/45 156/7/45 158/6/45
f 158/6/46 155/13/46 160/11/46
f 157/5/47 159/12/47 160/4/47
f 162/10/46 165/5/46 164/7/46
f 163/1/43 168/4/43 162/2/43
f 164/7/44 166/6/44 163/14/44
f 167/12/45 166/6/45 164/7/45
f 168/11/42 163/13/42 166/6/42
f 162/2/47 168/4/47 167/12/47
f 169/9/48 172/7/48 173/5/48
f 170/2/49 176/4/49 171/1/49
f 169/8/50 171/14/50 174/6/50
f 173/5/51 172/7/51 174/6/51
f 174/6/52 171/13/52 176/11/52
f 173/5/53 175/12/53 176/4/53
f 178/10/52 181/5/52 180/7/52
f 179/1/49 184/4/49 178/2/49
f 180/7/50 182/6/50 179/14/50
f 181/5/51 183/12/51 182/6/51
f 183/12/48 184/11/48 179/13/48
f 184/4/53 183/12/53 181/5/53
f 186/1/54 188/4/54 187/2/54
f 187/2/37 188/4/37 192/12/37
f 191/5/55 192/12/55 190/6/55
f 190/6/39 186/14/39 185/8/39
f 187/10/56 191/5/56 189/7/56
f 188/11/57 186/13/57 190/6/57
f 193/9/56 196/7/56 197/5/56
f 194/2/54 200/4/54 195/1/54
f 196/7/37 193/8/37 195/14/37
f 196/7/55 198/6/55 199/12/55
f 198/6/57 195/13/57 200/11/57
f 194/2/39 197/5/39 199/12/39
f 205/5/56 204/7/56 201/9/56
f 201/3/54 203/1/54 208/4/54
f 206/6/39 203/14/39 201/8/39
f 207/12/55 206/6/55 204/7/55
f 208/11/57 203/13/57 206/6/57
f 202/2/37 208/4/37 207/12/37
f 209/3/64 210/1/64 212/4/64
f 211/2/59 212/4/59 216/12/59
f 215/5/60 216/12/60 214/6/60
f 214/6/61 210/14/61 209/8/61
f 215/5/62 213/7/62 209/9/62
f 216/12/63 212/11/63 210/13/63
f 218/10/62 217/9/62 220/7/62
f 217/3/64 218/2/64 224/4/64
f 217/8/59 219/14/59 222/6/59
f 221/5/60 220/7/60 222/6/60
f 222/6/63 219/13/63 224/11/63
f 221/5/61 223/12/61 224/4/61
f 226/10/62 229/5/62 228/7/62
f 225/3/64 227/1/64 232/4/64
f 228/7/61 230/6/61 227/14/61
f 231/12/60 230/6/60 228/7/60
f 231/12/63 232/11/63 227/13/63
f 226/2/59 232/4/59 231/12/59
f 234/1/65 236/4/65 235/2/65
f 235/2/66 236/4/66 240/12/66
f 239/5/71 240/12/71 238/6/71
f 237/7/68 238/6/68 234/14/68
f 239/5/69 237/7/69 233/9/69
f 240/12/90 236/11/90 234/13/90
f 241/9/69 244/7/69 245/5/69
f 242/2/65 248/4/65 243/1/65
f 241/8/66 243/14/66 246/6/66
f 244/7/67 246/6/67 247/12/67
f 247/12/70 246/6/70 243/13/70
f 245/5/68 247/12/68 248/4/68
f 250/10/69 253/5/69 252/7/69
f 251/1/65 256/4/65 250/2/65
f 252/7/68 254/6/68 251/14/68
f 253/5/71 255/12/71 254/6/71
f 255/12/70 256/11/70 251/13/70
f 250/2/66 256/4/66 255/12/66
f 258/10/72 257/9/72 260/7/72
f 258/2/73 264/4/73 259/1/73
f 260/7/74 257/8/74 259/14/74
f 261/5/75 260/7/75 262/6/75
f 262/6/76 259/13/76 264/11/76
f 258/2/77 261/5/77 263/12/77
f 266/10/76 269/5/76 268/7/76
f 265/3/73 267/1/73 272/4/73
f 270/6/74 267/14/74 265/8/74
f 269/5/75 271/12/75 270/6/75
f 271/12/72 272/11/72 267/13/72
f 272/4/77 271/12/77 269/5/77
f 274/10/78 273/9/78 276/7/78
f 274/2/79 280/4/79 275/1/79
f 273/8/80 275/14/80 278/6/80
f 276/7/81 278/6/81 279/12/81
f 278/6/82 275/13/82 280/11/82
f 277/5/83 279/12/83 280/4/83
f 285/5/82 284/7/82 281/9/82
f 281/3/79 283/1/79 288/4/79
f 286/6/80 283/14/80 281/8/80
f 285/5/81 287/12/81 286/6/81
f 288/11/78 283/13/78 286/6/78
f 282/2/83 288/4/83 287/12/83
f 290/1/84 292/4/84 291/2/84
f 291/2/85 292/4/85 296/12/85
f 295/5/86 296/12/86 294/6/86
f 294/6/87 290/14/87 289/8/87
f 295/5/88 293/7/88 289/9/88
f 296/12/89 292/11/89 290/13/89
f 298/10/88 297/9/88 300/7/88
f 297/3/84 298/2/84 304/4/84
f 300/7/85 297/8/85 299/14/85
f 301/5/86 300/7/86 302/6/86
f 303/12/89 302/6/89 299/13/89
f 298/2/87 301/5/87 303/12/87
f 309/5/88 308/7/88 305/9/88
f 305/3/84 307/1/84 312/4/84
f 310/6/87 307/14/87 305/8/87
f 311/12/86 310/6/86 308/7/86
f 312/11/89 307/13/89 310/6/89
f 306/2/85 312/4/85 311/12/85
