# Blender 4.4.1
# www.blender.org
mtllib terrain.mtl
o Plane
v 5000.000000 460.628876 4972.056641
v 5000.000000 599.999512 -4972.056641
v -5000.000000 298.666565 4972.056641
v -5000.000000 397.283813 -4972.056641
v -4523.809570 216.247635 4972.056641
v -4047.618896 402.728394 4972.056641
v -3571.428955 254.778122 4972.056641
v -3095.237549 402.728485 4972.056641
v -2619.046875 276.552795 4972.056641
v -2142.857666 320.621460 4972.056641
v -1666.666504 334.505951 4972.056641
v -1190.476562 432.805664 4972.056641
v -714.286011 402.728485 4972.056641
v -238.095505 402.728485 4972.056641
v 238.095001 402.728485 4972.056641
v 714.285522 245.149139 4972.056641
v 1190.475952 281.510437 4972.056641
v 1666.666504 414.688568 4972.056641
v 2142.857666 277.655853 4972.056641
v 2619.047363 245.149139 4972.056641
v 3095.238037 198.028183 4972.056641
v 3571.428955 455.660645 4972.056641
v 4047.618896 460.628876 4972.056641
v 4523.809570 460.628876 4972.056641
v 5000.000000 460.628845 4498.527344
v 5000.000000 460.628815 4024.998291
v 5000.000000 460.628784 3551.469727
v 5000.000000 315.481140 3077.939453
v 5000.000000 388.842346 2604.410156
v 5000.000000 512.804138 2130.881836
v 5000.000000 457.727844 1657.352417
v 5000.000000 532.176270 1183.823608
v 5000.000000 457.727783 710.294312
v 5000.000000 379.042511 236.764999
v 5000.000000 457.727692 -236.764236
v 5000.000000 538.504822 -710.293396
v 5000.000000 457.727631 -1183.822632
v 5000.000000 539.713501 -1657.351929
v 5000.000000 599.664795 -2130.881836
v 5000.000000 382.343994 -2604.410645
v 5000.000000 436.780731 -3077.939941
v 5000.000000 344.353485 -3551.469727
v 5000.000000 286.756989 -4024.998291
v 5000.000000 417.099121 -4498.527344
v 4523.809570 417.099091 -4972.056641
v 4047.618896 379.281097 -4972.056641
v 3571.428955 269.215332 -4972.056641
v 3095.237549 194.915833 -4972.056641
v 2619.046875 234.431747 -4972.056641
v 2142.857666 63.101795 -4972.056641
v 1666.666504 115.482635 -4972.056641
v 1190.476562 327.599609 -5027.942871
v 714.286011 234.599319 -4972.056641
v 238.095505 161.818527 -4972.056641
v -238.095001 143.480164 -4972.056641
v -714.285522 203.367340 -4972.056641
v -1190.475952 143.480164 -4972.056641
v -1666.666504 143.480164 -4972.056641
v -2142.857666 186.509964 -4972.056641
v -2619.047363 349.448669 -4972.056641
v -3095.238037 164.659027 -4972.056641
v -3571.428955 381.789154 -4972.056641
v -4047.618896 172.441086 -4972.056641
v -4523.809570 219.468689 -4972.056641
v -5000.000000 473.440094 -4498.527344
v -5000.000000 382.430817 -4024.998291
v -5000.000000 260.551453 -3551.469727
v -5000.000000 412.905304 -3077.939453
v -5000.000000 286.244659 -2604.410156
v -5000.000000 342.203644 -2130.881836
v -5000.000000 452.846222 -1657.351929
v -5000.000000 286.244751 -1183.823242
v -5000.000000 -0.000146 -710.294128
v -5000.000000 0.332603 -236.764877
v -5000.000000 -0.000074 236.764374
v -5000.000000 -0.000038 710.293640
v -5000.000000 -0.000003 1183.822876
v -5000.000000 0.319574 1657.352173
v -5000.000000 0.000069 2130.881836
v -5000.000000 0.268338 2604.410645
v -5000.000000 0.000140 3077.939941
v -5000.000000 179.448822 3551.469727
v -5000.000000 221.934540 4024.998291
v -5000.000000 221.934570 4498.527344
v 4523.809570 536.401794 4498.527344
v 4047.618896 493.053772 4498.527344
v 3571.429443 473.631378 4498.527344
v 3095.238037 199.538345 4498.527344
v 2619.047363 199.538345 4498.527344
v 2142.857910 84.783279 4498.527344
v 1666.666992 164.921417 4498.527344
v 1190.477051 0.000432 4498.527344
v 714.286011 0.719743 4498.527344
v 238.095505 0.719743 4498.527344
v -238.095001 164.765625 4498.527344
v -714.285522 44.311539 4498.527344
v -1190.475464 57.981075 4498.527344
v -1666.666504 85.997795 4498.527344
v -2142.857178 160.622833 4498.527344
v -2619.046875 132.364822 4498.527344
v -3095.237549 18.714323 4498.527344
v -3571.428467 40.054359 4498.527344
v -4047.618896 106.725029 4498.527344
v -4523.809570 162.788422 4498.527344
v 4523.809570 477.898468 4024.998291
v 4047.618896 403.917023 4024.998291
v 3571.429443 255.411301 4024.998291
v 3095.238037 320.847656 4024.998291
v 2619.047363 122.819931 4024.998291
v 2142.857910 57.383572 4024.998291
v 1666.666992 121.490967 4024.998291
v 1190.476562 27.333040 4024.998291
v 714.286011 58.501644 4024.998291
v 238.095505 58.501644 4024.998291
v -238.095001 27.333040 4024.998291
v -714.285522 0.719708 4024.998291
v -1190.475952 0.719708 4024.998291
v -1666.666504 0.000396 4024.998291
v -2142.857178 44.295002 4024.998291
v -2619.046875 0.754526 4024.998291
v -3095.237549 40.265450 4024.998291
v -3571.428467 74.771591 4024.998291
v -4047.618896 40.054325 4024.998291
v -4523.809570 70.861259 4024.998291
v 4523.809570 403.916992 3551.469727
v 4047.618896 255.411270 3551.469727
v 3571.428955 320.847412 3551.469727
v 3095.238037 240.722610 3551.469727
v 2619.047363 254.322113 3551.469727
v 2142.857666 166.480057 3551.469727
v 1666.666992 3.141603 3551.469727
v 1190.476562 58.501511 3551.469727
v 714.286011 109.207962 3551.469727
v 238.095505 122.900032 3551.469727
v -238.095001 81.764503 3551.469727
v -714.285522 68.473778 3551.469727
v -1190.475952 58.501511 3551.469727
v -1666.666504 27.333006 3551.469727
v -2142.857178 9.941764 3551.469727
v -2619.046875 29.567024 3551.469727
v -3095.237549 45.671535 3551.470215
v -3571.428467 48.132336 3551.470215
v -4047.618896 18.982210 3551.470215
v -4523.809570 92.120972 3551.470215
v 4523.809570 199.538239 3077.939453
v 4047.618896 320.847595 3077.939453
v 3571.428955 427.603577 3077.939453
v 3095.238037 253.777390 3077.939453
v 2619.047363 276.451233 3077.939941
v 2142.857666 208.740601 3077.939941
v 1666.666992 60.924423 3077.939941
v 1190.476562 75.187675 3077.939941
v 714.286011 109.568169 3077.939941
v 238.095505 138.513626 3077.939941
v -238.095001 163.914658 3077.939941
v -714.285522 138.513626 3077.939941
v -1190.475952 109.568169 3077.939941
v -1666.666504 59.118637 3077.939941
v -2142.857178 36.675636 3077.939941
v -2619.047363 86.370033 3077.939941
v -3095.238037 68.553322 3077.939941
v -3571.428467 27.271162 3077.939941
v -4047.618896 21.997959 3077.939941
v -4523.809570 10.191079 3077.939941
v 4523.809570 234.990967 2604.410156
v 4047.618896 57.383377 2604.410156
v 3571.428955 122.819550 2604.410156
v 3095.238037 240.722534 2604.410156
v 2619.047363 254.322037 2604.410645
v 2142.857666 166.479889 2604.410645
v 1666.666992 101.672760 2604.410645
v 1190.476562 77.897156 2604.410645
v 714.286011 58.501354 2604.410645
v 238.095505 68.473618 2604.410645
v -238.095001 138.513596 2604.410645
v -714.285522 122.899872 2604.410645
v -1190.475952 122.794952 2604.410645
v -1666.666504 86.619995 2604.410645
v -2142.857178 52.798164 2604.410645
v -2619.047363 87.334244 2604.410645
v -3095.238037 60.394188 2604.410645
v -3571.428467 30.115118 2604.410645
v -4047.618896 40.801628 2604.410645
v -4523.809570 21.812315 2604.410645
v 4523.809570 234.990936 2130.881836
v 4047.618896 69.634682 2130.881836
v 3571.428955 57.383339 2130.881836
v 3095.238037 127.294823 2130.881836
v 2619.047363 137.235504 2130.881836
v 2142.857666 97.076553 2130.881836
v 1666.666992 62.483002 2130.881836
v 1190.476562 25.006947 2130.881836
v 714.286011 0.719472 2130.881836
v 238.095505 27.332804 2130.881836
v -238.095001 58.513565 2130.881836
v -714.285522 58.858250 2130.881836
v -1190.475952 86.377144 2130.881836
v -1666.666504 76.682976 2130.881836
v -2142.857178 42.755215 2130.881836
v -2619.047363 76.821144 2130.881836
v -3095.238037 105.741356 2130.882324
v -3571.428467 62.833672 2130.882324
v -4047.618896 46.921310 2130.881836
v -4523.809570 22.245302 2130.881836
v 4523.809570 234.990891 1657.352295
v 4047.618896 125.209442 1657.352661
v 3571.428955 27.066254 1657.352661
v 3095.238037 44.613010 1657.352661
v 2619.047363 83.448471 1657.352661
v 2142.857666 67.612007 1657.352661
v 1666.666992 28.157091 1657.352661
v 1190.476562 0.336614 1657.352661
v 714.286011 0.000125 1657.352661
v 238.095505 0.000125 1657.352661
v -238.095001 0.719437 1657.352661
v -714.285522 0.719437 1657.352661
v -1190.475952 14.306587 1657.352661
v -1666.666504 29.081261 1657.352661
v -2142.857178 19.639847 1657.352661
v -2619.047363 109.689476 1657.352661
v -3095.238037 185.309219 1657.352661
v -3571.428467 108.972832 1657.352661
v -4047.618896 50.074768 1657.352173
v -4523.809570 26.022091 1657.352173
v 4523.809570 234.990860 1183.823486
v 4047.618896 100.063034 1183.823364
v 3571.428955 23.388527 1183.823364
v 3095.238037 34.534229 1183.823364
v 2619.047363 67.611977 1183.823364
v 2142.857666 58.808990 1183.823364
v 1666.666992 27.368567 1183.823364
v 1190.476562 0.336579 1183.823364
v 714.286011 0.000089 1183.823364
v 238.095505 0.000089 1183.823364
v -238.095001 0.000089 1183.823364
v -714.285522 0.000089 1183.823364
v -1190.475952 0.000089 1183.823364
v -1666.666504 0.374161 1183.823364
v -2142.857178 11.068959 1183.823364
v -2619.047363 71.413483 1183.823364
v -3095.238037 112.342857 1183.823364
v -3571.428467 78.240730 1183.823364
v -4047.618896 40.063320 1183.822876
v -4523.809570 12.157091 1183.822876
v 4523.809570 234.990829 710.294250
v 4047.618896 44.740932 710.294128
v 3571.428955 0.000146 710.294128
v 3095.238037 12.787017 710.294128
v 2619.047363 27.497488 710.294128
v 2142.857666 27.368530 710.294128
v 1666.666992 12.787017 710.294128
v 1190.476562 0.000054 710.294128
v 714.286011 0.000054 710.294128
v 238.095505 0.000054 710.294128
v -238.095001 0.000054 710.294128
v -714.285522 0.000054 710.294128
v -1190.475952 0.000054 710.294128
v -1666.666504 0.000054 710.294128
v -2142.857178 4.820703 710.294128
v -2619.047363 11.483891 710.294128
v -3095.238037 38.177456 710.294128
v -3571.428467 57.575378 710.294128
v -4047.618896 31.170776 710.293640
v -4523.809570 0.379191 710.293640
v 4523.809570 234.990784 236.764954
v 4047.618896 57.457035 236.764908
v 3571.428955 0.000110 236.764877
v 3095.238037 0.000018 236.764877
v 2619.047363 0.336507 236.764877
v 2142.857666 0.336507 236.764877
v 1666.666992 0.000018 236.764877
v 1190.476562 0.000018 236.764877
v 714.286011 0.000018 236.764877
v 238.095505 0.000018 236.764877
v -238.095001 0.000018 236.764877
v -714.285522 0.000018 236.764877
v -1190.475952 0.000018 236.764877
v -1666.666504 0.000018 236.764877
v -2142.857178 0.000018 236.764877
v -2619.047363 0.016506 236.764877
v -3095.238037 14.410015 236.764877
v -3571.428467 42.142433 236.764877
v -4047.618896 40.988712 236.764374
v -4523.809570 12.643470 236.764374
v 4523.809570 234.990753 -236.764297
v 4047.618896 43.560547 -236.764359
v 3571.428955 0.000074 -236.764374
v 3095.238037 -0.000018 -236.764374
v 2619.047363 -0.000018 -236.764374
v 2142.857666 -0.000018 -236.764374
v 1666.666992 -0.000018 -236.764374
v 1190.476562 -0.000018 -236.764374
v 714.286011 -0.000018 -236.764374
v 238.095505 -0.000018 -236.764374
v -238.095001 -0.000018 -236.764374
v -714.285522 -0.000018 -236.764374
v -1190.475952 -0.000018 -236.764374
v -1666.666504 -0.000018 -236.764374
v -2142.857178 -0.000018 -236.764374
v -2619.047363 -0.000018 -236.764877
v -3095.238037 0.332695 -236.764877
v -3571.428467 27.440306 -236.764877
v -4047.618896 50.517227 -236.764877
v -4523.809570 27.061352 -236.764877
v 4523.809570 234.990707 -710.293518
v 4047.618896 30.268904 -710.293640
v 3571.428955 0.775539 -710.293640
v 3095.238037 0.775447 -710.293640
v 2619.047363 -0.000054 -710.293640
v 2142.857666 -0.000054 -710.293640
v 1666.666992 -0.000054 -710.293640
v 1190.476562 -0.000054 -710.293640
v 714.286011 -0.000054 -710.293640
v 238.095505 -0.000054 -710.293640
v -238.095001 -0.000054 -710.293640
v -714.285522 -0.000054 -710.293640
v -1190.475952 -0.000054 -710.293640
v -1666.666504 -0.000054 -710.293640
v -2142.857178 -0.000054 -710.293640
v -2619.047363 -0.000054 -710.293640
v -3095.238037 -0.000054 -710.293640
v -3571.428467 12.643398 -710.293640
v -4047.618896 27.061409 -710.293640
v -4523.809570 12.643398 -710.294128
v 4523.809570 264.456207 -1183.822754
v 4047.618896 63.066284 -1183.822876
v 3571.428955 63.066284 -1183.822876
v 3095.238037 63.066193 -1183.822876
v 2619.047363 29.465433 -1183.822876
v 2142.857666 -0.000089 -1183.822876
v 1666.666992 -0.000089 -1183.822876
v 1190.476562 -0.000089 -1183.822876
v 714.286011 -0.000089 -1183.822876
v 238.095505 -0.000089 -1183.822876
v -238.095001 -0.000089 -1183.822876
v -714.285522 -0.000089 -1183.822876
v -1190.475952 -0.000089 -1183.822876
v -1666.666504 -0.000089 -1183.822876
v -2142.857178 -0.000089 -1183.822876
v -2619.047363 -0.000089 -1183.822876
v -3095.238037 -0.000089 -1183.822876
v -3571.428467 -0.000181 -1183.823364
v -4047.618896 0.332531 -1183.823364
v -4523.809570 128.654724 -1183.823364
v 4523.809570 298.056824 -1657.352051
v 4047.618896 117.729515 -1657.352173
v 3571.428955 117.729515 -1657.352173
v 3095.237549 117.729515 -1657.352173
v 2619.047363 63.066067 -1657.352173
v 2142.857666 29.465397 -1657.352173
v 1666.666992 -0.000125 -1657.352173
v 1190.476562 -0.000125 -1657.352173
v 714.286011 -0.000125 -1657.352173
v 238.095505 -0.000125 -1657.352173
v -238.095001 -0.000125 -1657.352173
v -714.285522 -0.000125 -1657.352173
v -1190.475952 -0.000125 -1657.352173
v -1666.666504 -0.000125 -1657.352173
v -2142.857178 -0.000125 -1657.352173
v -2619.047363 -0.000125 -1657.352173
v -3095.238037 -0.000125 -1657.352173
v -3571.428467 -0.000217 -1657.352173
v -4047.618896 -0.000217 -1657.352173
v -4523.809570 183.480469 -1657.352051
v 4523.809570 298.056793 -2130.881836
v 4047.618896 117.729477 -2130.881836
v 3571.428955 117.729477 -2130.881836
v 3095.237549 117.729477 -2130.881836
v 2619.046875 117.729385 -2130.881348
v 2142.857666 63.066120 -2130.881348
v 1666.666992 0.775340 -2130.881348
v 1190.476562 -0.000161 -2130.881348
v 714.286011 -0.000161 -2130.881348
v 238.095505 -0.000161 -2130.881348
v -238.095001 -0.000161 -2130.881348
v -714.285522 -0.000161 -2130.881348
v -1190.475952 -0.000161 -2130.881348
v -1666.666504 -0.000161 -2130.881348
v -2142.857178 -0.000161 -2130.881348
v -2619.047363 -0.000161 -2130.881348
v -3095.238037 -0.000161 -2130.881348
v -3571.428467 -0.000253 -2130.881348
v -4047.618896 -0.000253 -2130.881348
v -4523.809570 212.416840 -2130.881836
v 4523.809570 298.056763 -2604.410645
v 4047.618896 117.729439 -2604.410645
v 3571.428955 117.729439 -2604.410645
v 3095.237549 117.729439 -2604.410645
v 2619.046875 117.729347 -2604.410645
v 2142.857666 63.066082 -2604.410645
v 1666.666992 0.775304 -2604.410645
v 1190.476562 -0.000197 -2604.410645
v 714.286011 -0.000197 -2604.410645
v 238.095505 -0.000197 -2604.410645
v -238.095001 -0.000197 -2604.410645
v -714.285522 -0.000197 -2604.410645
v -1190.475952 -0.000197 -2604.410645
v -1666.666504 -0.000197 -2604.410645
v -2142.857178 -0.000197 -2604.410645
v -2619.047363 -0.000197 -2604.410645
v -3095.238037 -0.000197 -2604.410156
v -3571.428467 -0.000289 -2604.410156
v -4047.618896 -0.000289 -2604.410156
v -4523.809570 131.879303 -2604.410156
v 4523.809570 298.056610 -3077.939941
v 4047.618896 117.729408 -3077.939941
v 3571.428955 117.729408 -3077.939941
v 3095.237549 117.729408 -3077.939941
v 2619.046875 117.729317 -3077.939941
v 2142.857666 63.065960 -3077.939941
v 1666.666992 0.775268 -3077.939941
v 1190.476562 -0.000232 -3077.939941
v 714.286011 -0.000232 -3077.939941
v 238.095505 -0.000232 -3077.939941
v -238.095001 -0.000232 -3077.939941
v -714.285522 -0.000232 -3077.939941
v -1190.475952 -0.000232 -3077.939941
v -1666.666504 -0.000232 -3077.939941
v -2142.857666 -0.000232 -3077.939941
v -2619.047363 -0.000232 -3077.939941
v -3095.238037 -0.000232 -3077.939453
v -3571.428955 -0.000324 -3077.939453
v -4047.618896 148.651230 -3077.939453
v -4523.809570 177.267624 -3077.939453
v 4523.809570 185.499756 -3551.469727
v 4047.618896 182.731598 -3551.469727
v 3571.428955 117.729279 -3551.469727
v 3095.237549 117.729279 -3551.469727
v 2619.046875 117.729179 -3551.469238
v 2142.857666 63.065926 -3551.469238
v 1666.666992 0.775140 -3551.469238
v 1190.476562 -0.000360 -3551.469238
v 714.286011 -0.000360 -3551.469238
v 238.095505 -0.000360 -3551.469238
v -238.095001 -0.000360 -3551.469238
v -714.285522 -0.000360 -3551.469238
v -1190.475952 -0.000360 -3551.469238
v -1666.666504 -0.000360 -3551.469238
v -2142.857666 -0.000360 -3551.469238
v -2619.047363 77.276505 -3551.469238
v -3095.238037 61.673149 -3551.469238
v -3571.428955 103.202751 -3551.469238
v -4047.618896 288.562103 -3551.469238
v -4523.809570 222.148132 -3551.469727
v 4523.809570 269.215393 -4024.998291
v 4047.618896 260.238617 -4024.998291
v 3571.428955 167.310974 -4024.998291
v 3095.237549 231.281952 -4024.998291
v 2619.046875 63.065792 -4024.998291
v 2142.857666 29.465126 -4024.998291
v 1666.666992 -0.000396 -4024.998291
v 1190.476562 61.503147 -4024.998291
v 714.286011 43.747993 -4024.998291
v 238.095505 -0.000396 -4024.998291
v -238.095001 -0.000396 -4024.998291
v -714.285522 -0.000396 -4024.998291
v -1190.475952 -0.000396 -4024.998291
v -1666.666504 -0.000396 -4024.998291
v -2142.857666 -0.000396 -4024.998291
v -2619.047363 145.075546 -4024.998291
v -3095.238037 -0.000396 -4024.998291
v -3571.428955 84.569328 -4024.998291
v -4047.618896 240.882050 -4024.998291
v -4523.809570 203.318924 -4024.998291
v 4523.809570 409.060638 -4498.527344
v 4047.618896 328.097992 -4498.527344
v 3571.428955 269.990784 -4498.527344
v 3095.237549 155.790192 -4498.527344
v 2619.046875 163.515656 -4498.527344
v 2142.857666 -0.000432 -4498.527344
v 1666.666504 71.326263 -4498.527344
v 1190.476562 71.326263 -4498.527344
v 714.286011 71.326263 -4498.527344
v 238.095505 144.869492 -4498.527344
v -238.095001 71.326263 -4498.527344
v -714.285522 93.040558 -4498.527344
v -1190.475952 112.257706 -4498.527344
v -1666.666504 71.875427 -4498.527344
v -2142.857666 -0.000432 -4498.527344
v -2619.047363 -0.000432 -4498.527344
v -3095.238037 70.475929 -4498.527344
v -3571.428955 84.569290 -4498.527344
v -4047.618896 161.273376 -4498.527344
v -4523.809570 90.493431 -4498.527344
vn 0.3593 0.9108 0.2032
vn 0.5055 0.8625 0.0215
vn 0.0559 0.9984 -0.0123
vn 0.1695 0.9793 -0.1106
vn 0.1233 0.9924 -0.0000
vn 0.3021 0.9523 0.0428
vn 0.1690 0.9217 -0.3493
vn -0.0282 0.9995 0.0161
vn -0.0391 0.9992 0.0059
vn -0.0214 0.9998 0.0006
vn -0.0407 0.9991 0.0144
vn -0.0455 0.9990 -0.0001
vn -0.0486 0.9988 0.0050
vn -0.0448 0.9990 -0.0053
vn -0.0461 0.9987 -0.0226
vn -0.0534 0.9985 -0.0100
vn -0.0378 0.9993 0.0004
vn -0.0193 0.9998 -0.0066
vn -0.0201 0.9998 0.0068
vn -0.0008 1.0000 -0.0000
vn -0.0471 0.9986 0.0237
vn -0.0410 0.9992 -0.0000
vn -0.0347 0.9990 -0.0297
vn -0.0514 0.9987 -0.0038
vn -0.0258 0.9710 0.2379
vn 0.3123 0.9437 0.1093
vn 0.3109 0.9442 0.1085
vn 0.4917 0.8692 0.0531
vn 0.2595 0.9521 -0.1619
vn 0.3071 0.9473 0.0908
vn 0.4419 0.8931 0.0846
vn 0.0626 0.9930 -0.1000
vn 0.2143 0.9718 0.0981
vn 0.0259 0.9989 -0.0397
vn 0.5106 0.8501 0.1288
vn -0.0000 1.0000 -0.0000
vn -0.0000 0.9977 0.0683
vn -0.0104 0.9992 0.0379
vn -0.4756 0.8790 0.0334
vn 0.0980 0.9906 -0.0954
vn 0.0631 0.9243 -0.3765
vn 0.2467 0.8572 -0.4521
vn -0.2337 0.8358 -0.4969
vn -0.0655 0.8577 -0.5099
vn 0.2446 0.7392 -0.6275
vn 0.2431 0.7455 -0.6206
vn 0.2486 0.7295 -0.6372
vn -0.0025 0.8926 -0.4509
vn 0.0004 0.8965 -0.4431
vn -0.0000 0.8935 -0.4490
vn -0.0000 0.7973 -0.6035
vn 0.0003 0.8024 -0.5968
vn 0.0495 0.7831 -0.6199
vn 0.0496 0.7896 -0.6116
vn -0.1798 0.8710 -0.4571
vn -0.0276 0.9470 -0.3200
vn -0.0882 0.9529 -0.2902
vn 0.2457 0.9273 -0.2824
vn -0.2346 0.7550 -0.6123
vn 0.2548 0.8200 -0.5126
vn -0.3626 0.9260 -0.1045
vn 0.1571 0.9876 -0.0000
vn -0.0900 0.9884 -0.1221
vn -0.0401 0.9820 -0.1848
vn -0.4633 0.8049 -0.3709
vn 0.1075 0.9737 0.2010
vn -0.0000 0.9687 0.2482
vn 0.0416 0.9679 0.2480
vn -0.2339 0.9706 -0.0562
vn 0.1653 0.9821 -0.0901
vn -0.3260 0.9414 -0.0863
vn -0.0538 0.9983 0.0245
vn 0.0158 0.9945 0.1032
vn -0.0511 0.9970 0.0575
vn 0.0327 0.9929 0.1143
vn -0.0214 0.9924 0.1211
vn 0.3141 0.9118 -0.2646
vn -0.2469 0.9648 -0.0899
vn -0.2443 0.9656 -0.0889
vn -0.2431 0.9658 -0.0897
vn 0.0286 0.9954 -0.0916
vn 0.0293 0.9953 -0.0925
vn 0.0280 0.9953 -0.0923
vn 0.0564 0.9824 -0.1781
vn 0.0578 0.9823 -0.1784
vn 0.1524 0.9724 -0.1766
vn -0.0574 0.9702 -0.2354
vn -0.0575 0.9695 -0.2382
vn -0.2241 0.9390 -0.2610
vn 0.0511 0.9984 0.0242
vn 0.0434 0.9989 0.0174
vn 0.0447 0.9980 0.0454
vn -0.0214 0.9990 -0.0392
vn 0.1373 0.9809 -0.1381
vn 0.1148 0.9752 -0.1893
vn 0.0362 0.9993 -0.0000
vn -0.1517 0.9766 -0.1526
vn -0.2852 0.9145 -0.2868
vn 0.1349 0.9815 0.1356
vn 0.1341 0.9760 0.1715
vn -0.3794 0.9123 -0.1544
vn -0.3782 0.9123 -0.1572
vn -0.3856 0.9093 -0.1564
vn -0.1327 0.9659 0.2225
vn 0.1323 0.9826 -0.1305
vn 0.0585 0.9979 -0.0280
vn -0.0021 0.9907 -0.1364
vn 0.0652 0.9957 0.0655
vn 0.0540 0.9919 0.1152
vn -0.0310 0.9922 0.1211
vn -0.0550 0.9888 0.1387
vn -0.0556 0.9910 0.1220
vn -0.0320 0.9905 0.1338
vn -0.0301 0.9904 0.1352
vn -0.0458 0.9928 0.1108
vn -0.0158 0.9945 0.1032
vn -0.0437 0.9966 0.0694
vn 0.0123 0.9996 0.0264
vn 0.0019 0.9997 0.0244
vn 0.0006 0.9974 -0.0724
vn 0.0258 0.9993 0.0259
vn 0.0436 0.9969 0.0653
vn -0.0199 0.9990 -0.0398
vn -0.0002 1.0000 0.0071
vn 0.0645 0.9969 -0.0444
vn -0.1131 0.9500 -0.2912
vn -0.2753 0.8827 -0.3810
vn 0.1865 0.9732 0.1345
vn 0.1705 0.9761 0.1349
vn -0.1620 0.9626 0.2170
vn 0.0285 0.9992 0.0275
vn -0.1807 0.9796 0.0874
vn -0.3223 0.9397 0.1147
vn -0.0192 0.9985 0.0521
vn 0.0899 0.9934 0.0713
vn 0.1058 0.9938 0.0350
vn 0.0287 0.9996 0.0008
vn -0.0393 0.9888 0.1439
vn -0.0640 0.9833 0.1706
vn -0.0506 0.9967 0.0642
vn -0.0635 0.9959 0.0645
vn -0.0727 0.9953 0.0643
vn 0.0185 0.9983 0.0551
vn -0.0540 0.9982 0.0269
vn 0.0079 0.9998 0.0182
vn -0.0395 0.9992 -0.0043
vn -0.0428 0.9988 -0.0227
vn 0.1496 0.9743 -0.1686
vn -0.2359 0.9691 0.0726
vn 0.2173 0.8530 -0.4746
vn 0.1853 0.8263 -0.5319
vn -0.3428 0.9391 -0.0259
vn 0.0475 0.9978 -0.0466
vn -0.1008 0.9826 -0.1558
vn -0.2055 0.9758 -0.0745
vn -0.1406 0.9890 -0.0462
vn -0.1716 0.9788 -0.1119
vn -0.0381 0.9987 -0.0342
vn 0.0249 0.9997 -0.0034
vn 0.0061 0.9957 -0.0928
vn 0.0554 0.9914 -0.1188
vn 0.0689 0.9907 -0.1172
vn 0.0927 0.9850 -0.1457
vn 0.0532 0.9972 -0.0535
vn -0.0532 0.9972 -0.0535
vn -0.0149 0.9975 -0.0685
vn -0.0699 0.9975 0.0065
vn 0.0072 1.0000 0.0056
vn 0.0240 0.9981 0.0562
vn 0.0093 0.9999 -0.0123
vn -0.0523 0.9984 0.0233
vn -0.0300 0.9990 0.0332
vn -0.0156 0.9997 0.0168
vn -0.2983 0.9234 0.2417
vn -0.3494 0.9367 0.0242
vn 0.0493 0.9976 -0.0496
vn 0.0531 0.9949 -0.0853
vn 0.1644 0.9733 -0.1599
vn 0.0985 0.9793 -0.1768
vn 0.0875 0.9680 -0.2353
vn -0.0412 0.9864 -0.1589
vn -0.0782 0.9921 -0.0984
vn -0.0856 0.9963 -0.0070
vn -0.0728 0.9942 -0.0797
vn -0.0599 0.9947 -0.0836
vn 0.0476 0.9952 -0.0852
vn 0.0389 0.9910 -0.1278
vn 0.0438 0.9905 -0.1306
vn 0.0064 0.9947 -0.1022
vn -0.0354 0.9991 -0.0220
vn -0.0443 0.9974 -0.0574
vn 0.0654 0.9976 0.0234
vn -0.0683 0.9950 0.0733
vn -0.0352 0.9992 0.0171
vn -0.0099 0.9997 0.0245
vn -0.5014 0.8594 -0.1000
vn -0.3280 0.9447 -0.0000
vn -0.0257 0.9997 -0.0034
vn 0.0220 0.9988 -0.0429
vn 0.0674 0.9951 -0.0723
vn 0.0090 0.9972 -0.0741
vn -0.0542 0.9976 -0.0434
vn -0.0701 0.9969 -0.0349
vn -0.0349 0.9992 -0.0185
vn 0.0014 0.9977 -0.0678
vn 0.0074 0.9997 -0.0214
vn 0.0078 0.9988 -0.0490
vn 0.0101 0.9982 -0.0594
vn 0.0248 0.9910 -0.1318
vn 0.0284 0.9960 -0.0844
vn -0.0016 0.9973 -0.0740
vn 0.0067 0.9991 -0.0421
vn 0.0494 0.9984 -0.0281
vn 0.1409 0.9900 -0.0011
vn -0.0090 0.9940 0.1092
vn -0.1194 0.9928 0.0115
vn -0.0683 0.9977 -0.0015
vn -0.4195 0.8968 0.1410
vn -0.2246 0.9744 -0.0000
vn -0.2238 0.9746 -0.0002
vn -0.2020 0.9780 -0.0514
vn -0.2016 0.9781 -0.0519
vn -0.2022 0.9779 -0.0524
vn 0.0428 0.9984 -0.0367
vn 0.0234 0.9983 -0.0534
vn -0.0412 0.9983 -0.0418
vn -0.0572 0.9982 -0.0202
vn -0.0245 0.9997 -0.0039
vn -0.0007 1.0000 -0.0000
vn -0.0000 1.0000 -0.0004
vn 0.0005 1.0000 -0.0014
vn 0.0038 0.9999 -0.0115
vn 0.0136 0.9995 -0.0276
vn 0.0501 0.9981 -0.0345
vn 0.1095 0.9891 -0.0984
vn 0.0039 0.9917 -0.1285
vn -0.0003 1.0000 0.0032
vn -0.0670 0.9957 -0.0637
vn -0.0647 0.9976 -0.0240
vn -0.5248 0.8409 -0.1322
vn -0.2726 0.9621 -0.0000
vn -0.2714 0.9625 -0.0001
vn -0.1594 0.9860 -0.0490
vn -0.1588 0.9861 -0.0487
vn 0.0242 0.9993 -0.0276
vn 0.0246 0.9989 -0.0407
vn 0.0178 0.9978 -0.0634
vn -0.0198 0.9982 -0.0571
vn -0.0287 0.9992 -0.0289
vn -0.0099 0.9999 -0.0035
vn 0.0039 1.0000 -0.0016
vn 0.0119 0.9999 -0.0119
vn 0.0436 0.9973 -0.0586
vn 0.0421 0.9960 -0.0788
vn -0.0100 0.9993 -0.0351
vn -0.0517 0.9986 -0.0056
vn -0.4190 0.8957 -0.1488
vn -0.3710 0.9286 -0.0000
vn -0.0935 0.9953 0.0267
vn 0.0199 0.9993 -0.0308
vn 0.0036 0.9999 -0.0102
vn 0.0040 0.9997 -0.0246
vn -0.0041 0.9997 -0.0245
vn -0.0033 0.9999 -0.0102
vn 0.0013 1.0000 -0.0038
vn 0.0130 0.9998 -0.0140
vn 0.0469 0.9982 -0.0361
vn 0.0246 0.9995 -0.0206
vn -0.2860 0.9453 0.1571
vn -0.3493 0.9370 -0.0000
vn -0.1202 0.9923 -0.0280
vn -0.1197 0.9924 -0.0291
vn -0.0000 1.0000 0.0008
vn 0.0002 1.0000 -0.0007
vn -0.0004 1.0000 -0.0000
vn 0.0279 0.9995 -0.0145
vn 0.0506 0.9982 -0.0329
vn -0.0067 0.9998 -0.0201
vn -0.0290 0.9993 0.0217
vn -0.4187 0.8952 0.1527
vn -0.3751 0.9270 0.0020
vn -0.3686 0.9296 -0.0004
vn -0.3730 0.9278 -0.0000
vn -0.0918 0.9954 -0.0274
vn -0.0911 0.9955 -0.0279
vn -0.0920 0.9953 -0.0288
vn -0.0100 0.9974 0.0711
vn -0.0005 1.0000 0.0016
vn -0.0082 0.9997 0.0228
vn 0.0004 1.0000 -0.0005
vn 0.0100 0.9999 -0.0036
vn 0.0285 0.9992 -0.0289
vn -0.0001 0.9988 -0.0479
vn -0.5320 0.8347 -0.1424
vn -0.5244 0.8397 -0.1413
vn -0.3943 0.9172 0.0571
vn -0.0291 0.9944 0.1016
vn -0.0617 0.9957 0.0690
vn -0.0000 0.9922 0.1250
vn -0.0083 0.9986 0.0522
vn -0.0581 0.9955 0.0745
vn -0.0293 0.9991 0.0295
vn 0.0036 0.9999 -0.0100
vn 0.0004 0.9996 -0.0277
vn -0.3713 0.9149 0.1584
vn -0.3887 0.9191 0.0652
vn -0.0000 0.9934 0.1147
vn -0.0000 0.9986 0.0529
vn -0.0402 0.9925 0.1154
vn -0.0902 0.9918 0.0907
vn -0.0740 0.9955 0.0585
vn -0.0227 0.9997 0.0082
vn 0.0007 1.0000 -0.0002
vn 0.2595 0.9657 0.0001
vn 0.2613 0.9653 -0.0009
vn 0.2602 0.9656 -0.0007
vn -0.4497 0.8861 0.1122
vn -0.3541 0.9352 -0.0000
vn -0.0355 0.9973 0.0644
vn -0.0641 0.9973 0.0357
vn -0.1148 0.9926 0.0405
vn -0.0519 0.9986 0.0083
vn -0.0015 1.0000 0.0005
vn 0.3595 0.9331 -0.0000
vn 0.3580 0.9337 -0.0008
vn -0.4989 0.7877 -0.3615
vn -0.0526 0.9986 -0.0000
vn -0.1217 0.9926 -0.0000
vn -0.0595 0.9982 -0.0000
vn 0.4074 0.9133 -0.0000
vn -0.1732 0.9784 0.1125
vn -0.2992 0.9499 -0.0901
vn -0.0852 0.9964 -0.0000
vn -0.3209 0.9471 -0.0000
vn -0.0493 0.9988 -0.0000
vn 0.2555 0.9224 0.2896
vn -0.2902 0.9491 -0.1221
vn -0.2896 0.9350 -0.2049
vn -0.3513 0.9276 0.1273
vn -0.1196 0.9928 -0.0000
vn -0.0016 1.0000 0.0008
vn -0.0008 1.0000 0.0010
vn -0.0000 0.9869 0.1611
vn -0.0000 0.9916 0.1292
vn 0.2917 0.9346 0.2037
vn 0.0575 0.9574 0.2829
vn -0.3121 0.9355 0.1654
vn -0.0057 0.9869 0.1615
vn -0.1345 0.9855 0.1032
vn -0.0000 0.9946 0.1041
vn -0.0000 0.9724 0.2332
vn -0.1133 0.9870 -0.1139
vn -0.1294 0.9891 -0.0702
vn -0.0021 1.0000 -0.0007
vn -0.0007 1.0000 -0.0020
vn -0.0024 1.0000 -0.0016
vn -0.0000 0.9917 0.1288
vn -0.0008 0.9918 0.1278
vn -0.0000 0.9958 0.0920
vn 0.1602 0.9871 -0.0000
vn -0.0324 0.9894 0.1417
vn 0.0862 0.9879 -0.1287
vn 0.3625 0.9313 -0.0366
vn -0.1375 0.9855 -0.0992
vn -0.0355 0.9635 0.2652
vn -0.0187 0.9897 0.1418
vn -0.1873 0.9600 0.2082
vn 0.1302 0.9690 0.2101
vn -0.3294 0.9324 -0.1487
vn -0.0689 0.9759 0.2070
vn -0.0616 0.9962 -0.0620
vn 0.1267 0.9809 0.1477
vn 0.1254 0.9813 0.1462
vn -0.0373 0.9991 0.0207
vn -0.0913 0.9941 0.0579
vn -0.0000 0.9562 0.2926
vn -0.0000 0.9888 0.1489
vn -0.0000 0.9812 0.1928
vn -0.0000 0.9730 0.2307
vn -0.0000 0.9887 0.1501
vn 0.2914 0.9566 -0.0000
vn -0.2797 0.9180 -0.2812
vn -0.2855 0.9371 -0.2009
vn -0.2855 0.9372 -0.2002
vn 0.1730 0.9742 0.1450
vn 0.3119 0.9501 -0.0000
vn -0.1317 0.9873 -0.0886
vn -0.0782 0.9908 -0.1109
vn -0.0157 0.9327 0.3603
vn -0.1676 0.9857 0.0167
vn -0.1211 0.9926 -0.0016
vn -0.2332 0.9724 -0.0016
vn 0.0162 0.9965 0.0823
vn 0.0171 0.9965 0.0824
vn -0.3253 0.9348 0.1427
vn -0.3178 0.9380 0.1385
vn -0.3197 0.9374 0.1382
vn 0.1469 0.9805 0.1307
vn 0.1453 0.9809 0.1294
vn -0.0000 0.9957 0.0928
vn -0.0000 0.9001 0.4357
vn 0.1445 0.9355 0.3225
vn -0.1525 0.9877 0.0354
vn 0.0450 0.9876 0.1505
vn 0.0393 0.9732 0.2267
vn -0.0843 0.9943 0.0656
vn -0.1476 0.9779 0.1479
vn -0.0000 0.9304 0.3665
vn 0.1182 0.7990 0.5896
vn 0.0290 0.9804 0.1950
vn 0.1352 0.8392 0.5267
vn -0.0210 0.9885 0.1499
vn 0.3459 0.9264 -0.1490
vn 0.1217 0.9798 -0.1588
vn 0.2974 0.9373 -0.1820
vn 0.1797 0.9798 -0.0879
vn -0.0211 0.9851 -0.1704
vn -0.0265 0.9996 -0.0007
vn 0.2714 0.8233 0.4985
vn 0.2725 0.8234 0.4977
vn 0.4708 0.8322 0.2928
vn 0.2565 0.9412 -0.2199
vn 0.3064 0.9453 -0.1117
vn 0.4313 0.8716 0.2331
vn 0.0765 0.9491 -0.3054
vn 0.1552 0.9755 0.1561
vn -0.0895 0.9835 0.1574
vn 0.1540 0.9151 -0.3727
vn -0.2929 0.8457 -0.4461
vn 0.0013 0.8886 -0.4587
vn -0.0000 0.8886 -0.4587
vn 0.0020 0.8886 -0.4587
vn 0.2565 0.7282 -0.6356
vn 0.2513 0.7443 -0.6188
vn 0.2573 0.7378 -0.6241
vn -0.2205 0.8715 -0.4380
vn -0.2225 0.8721 -0.4358
vn -0.2177 0.8743 -0.4339
vn 0.0229 0.7971 -0.6034
vn 0.0211 0.8011 -0.5982
vn 0.0260 0.7966 -0.6039
vn 0.0461 0.7833 -0.6200
vn 0.0453 0.7899 -0.6115
vn 0.1374 0.8771 -0.4603
vn -0.0561 0.9459 -0.3196
vn -0.1823 0.7637 -0.6193
vn 0.0408 0.9100 -0.4126
vn 0.1265 0.9034 -0.4097
vn 0.0993 0.8438 -0.5274
vn 0.0360 0.9918 -0.1225
vn -0.1509 0.9715 -0.1829
vn 0.1332 0.9894 -0.0573
vn -0.0000 0.9928 -0.1201
vn -0.0000 0.9926 -0.1213
vn -0.0022 0.9926 -0.1211
vn -0.0015 0.9928 -0.1200
vn 0.0900 0.9672 -0.2376
vn 0.0918 0.9671 -0.2372
vn -0.0890 0.9602 -0.2649
vn -0.0878 0.9598 -0.2668
vn 0.0826 0.9956 0.0453
vn 0.0639 0.9882 -0.1391
vn -0.1169 0.9812 -0.1533
vn -0.3170 0.9242 0.2129
vn 0.1053 0.9888 0.1059
vn 0.1517 0.9874 0.0443
vn -0.2182 0.8960 -0.3867
vn 0.2447 0.9605 0.1327
vn -0.3428 0.9391 0.0259
vn 0.0475 0.9978 0.0466
vn -0.1406 0.9890 0.0462
vn -0.2954 0.9516 0.0849
vn 0.0720 0.9974 0.0008
vn 0.0606 0.9976 0.0329
vn 0.0532 0.9980 0.0329
vn -0.3042 0.9414 0.1458
vn -0.3486 0.9347 0.0700
vn 0.1192 0.8676 -0.4827
vn 0.2038 0.8232 -0.5299
vn 0.0285 0.9992 -0.0275
vn -0.5039 0.8638 -0.0000
vn -0.4237 0.9058 -0.0000
vn -0.2232 0.9681 0.1136
vn -0.2227 0.9682 0.1140
vn -0.2005 0.9730 0.1142
vn -0.2012 0.9728 0.1147
vn -0.5294 0.8483 -0.0000
vn -0.2723 0.9609 -0.0510
vn -0.2714 0.9611 -0.0504
vn -0.2718 0.9610 -0.0516
vn -0.1596 0.9871 -0.0075
vn -0.1590 0.9873 -0.0077
vn -0.3688 0.9232 -0.1079
vn -0.3681 0.9234 -0.1086
vn -0.0932 0.9889 -0.1161
vn -0.0929 0.9889 -0.1155
vn -0.2895 0.9572 -0.0000
vn -0.3492 0.9367 0.0252
vn -0.1198 0.9928 -0.0000
vn -0.3729 0.9275 -0.0272
vn -0.3695 0.9289 -0.0256
vn -0.0922 0.9957 0.0004
vn -0.0911 0.9958 -0.0000
vn -0.5375 0.8433 -0.0000
vn -0.5313 0.8472 0.0018
vn -0.3997 0.9163 -0.0255
vn -0.3945 0.9186 -0.0239
vn -0.3924 0.9194 -0.0276
vn -0.0627 0.9980 0.0016
vn -0.0618 0.9981 0.0016
vn -0.3755 0.9251 0.0576
vn -0.3887 0.9192 0.0637
vn 0.2532 0.9396 0.2302
vn -0.4516 0.8900 0.0632
vn -0.3521 0.9298 0.1073
vn 0.3553 0.9286 0.1072
vn 0.3575 0.9277 0.1074
vn 0.3577 0.9277 0.1065
vn -0.5351 0.8448 -0.0000
vn 0.4067 0.9118 0.0557
vn -0.1743 0.9847 -0.0000
vn 0.2634 0.9510 -0.1618
vn 0.2854 0.9144 0.2871
vn 0.0597 0.9937 0.0952
vn -0.3112 0.9328 -0.1821
vn -0.0057 0.9729 -0.2313
vn -0.1340 0.9818 0.1348
vn -0.1297 0.9916 -0.0000
vn 0.1581 0.9745 0.1590
vn -0.0325 0.9911 0.1291
vn 0.0849 0.9735 0.2122
vn 0.3497 0.8985 0.2655
vn -0.1375 0.9861 0.0935
vn -0.0365 0.9920 -0.1207
vn -0.0186 0.9846 0.1741
vn -0.1891 0.9691 0.1586
vn 0.1295 0.9642 0.2312
vn -0.3311 0.9374 -0.1082
vn -0.0702 0.9950 -0.0706
vn -0.0618 0.9981 -0.0016
vn 0.1255 0.9838 0.1279
vn 0.1270 0.9836 0.1278
vn 0.1273 0.9838 0.1263
vn -0.0371 0.9951 0.0919
vn -0.0915 0.9958 -0.0000
vn 0.2887 0.9477 0.1357
vn -0.2892 0.9493 -0.1236
vn 0.1747 0.9839 -0.0387
vn 0.3105 0.9458 -0.0952
vn -0.0162 0.9589 0.2832
vn -0.1609 0.9466 0.2795
vn -0.1199 0.9827 0.1408
vn -0.2305 0.9609 -0.1532
vn 0.0159 0.9781 0.2075
vn -0.3242 0.9442 -0.0588
vn 0.1450 0.9783 0.1477
vn 0.1465 0.9782 0.1473
vn 0.1469 0.9784 0.1458
vn -0.0000 0.9998 0.0207
vn -0.0000 0.9983 0.0581
vn 0.1461 0.9460 0.2894
vn -0.1510 0.9775 0.1472
vn 0.0447 0.9803 0.1926
vn 0.0392 0.9723 0.2305
vn -0.0835 0.9852 0.1495
vn -0.1492 0.9888 -0.0000
vn -0.0000 0.9561 -0.2929
vn 0.1448 0.9787 0.1457
vn 0.0296 0.9996 -0.0000
vn 0.1569 0.9739 -0.1637
vn -0.3585 0.9334 0.0158
vn -0.0787 0.9911 0.1071
vn -0.2240 0.9690 0.1047
vn -0.1537 0.9848 0.0814
vn 0.0818 0.9857 0.1476
vn 0.0827 0.9853 0.1494
vn 0.0825 0.9857 0.1467
vn -0.3405 0.9318 0.1259
vn -0.3359 0.9336 0.1244
vn -0.3330 0.9350 0.1220
vn 0.1089 0.9898 0.0923
vn 0.3302 0.8496 0.4113
vn -0.1448 0.9354 0.3225
vn -0.1510 0.9879 0.0354
vn -0.0380 0.9879 0.1505
vn 0.1216 0.9667 0.2252
vn -0.1245 0.9901 0.0653
vn -0.0000 0.9888 0.1495
vn 0.0838 0.9272 0.3652
vn 0.2654 0.7758 0.5725
vn -0.3557 0.9166 0.1823
vn 0.3603 0.7901 0.4959
vn -0.4024 0.9152 0.0216
vn -0.0407 0.9968 0.0683
vn -0.4989 0.8667 0.0028
vn -0.0000 1.0000 0.0032
vn -0.2333 0.9679 -0.0932
vn -0.2725 0.8738 -0.4027
vn -0.3851 0.9109 -0.1479
vn -0.3752 0.9149 -0.1488
vn -0.3798 0.9132 -0.1479
vn -0.1344 0.9782 -0.1585
vn -0.0536 0.9590 -0.2783
vn -0.1637 0.9727 -0.1646
vn 0.0275 0.9632 0.2675
vn -0.1750 0.9487 0.2635
vn 0.2136 0.9530 0.2148
vt 1.000000 0.952381
vt 0.952381 1.000000
vt 0.952381 0.952381
vt 0.047619 0.952381
vt 0.000000 1.000000
vt 0.000000 0.952381
vt 0.095238 1.000000
vt 0.047619 1.000000
vt 0.142857 0.952381
vt 0.095238 0.952381
vt 0.190476 1.000000
vt 0.142857 1.000000
vt 0.190476 0.952381
vt 0.238095 1.000000
vt 0.238095 0.952381
vt 0.285714 1.000000
vt 0.285714 0.952381
vt 0.333333 1.000000
vt 0.380952 0.952381
vt 0.333333 0.952381
vt 0.428571 0.952381
vt 0.380952 1.000000
vt 0.476190 1.000000
vt 0.428571 1.000000
vt 0.476190 0.952381
vt 0.523810 1.000000
vt 0.571429 0.952381
vt 0.523810 0.952381
vt 0.619048 0.952381
vt 0.571429 1.000000
vt 0.666667 0.952381
vt 0.619048 1.000000
vt 0.714286 0.952381
vt 0.666667 1.000000
vt 0.761905 0.952381
vt 0.714286 1.000000
vt 0.809524 0.952381
vt 0.761905 1.000000
vt 0.857143 0.952381
vt 0.809524 1.000000
vt 0.904762 0.952381
vt 0.857143 1.000000
vt 0.904762 1.000000
vt 0.047619 0.000000
vt 0.000000 0.047619
vt 0.000000 0.000000
vt 0.047619 0.095238
vt 0.000000 0.095238
vt 0.047619 0.142857
vt 0.000000 0.142857
vt 0.000000 0.190476
vt 0.047619 0.238095
vt 0.000000 0.238095
vt 0.047619 0.285714
vt 0.000000 0.285714
vt 0.047619 0.333333
vt 0.000000 0.333333
vt 0.047619 0.380952
vt 0.000000 0.380952
vt 0.000000 0.428571
vt 0.047619 0.476190
vt 0.000000 0.476190
vt 0.047619 0.523810
vt 0.000000 0.523810
vt 0.047619 0.571429
vt 0.000000 0.571429
vt 0.047619 0.619048
vt 0.000000 0.619048
vt 0.047619 0.666667
vt 0.000000 0.666667
vt 0.047619 0.714286
vt 0.000000 0.714286
vt 0.047619 0.761905
vt 0.000000 0.761905
vt 0.000000 0.809524
vt 0.047619 0.809524
vt 0.000000 0.857143
vt 0.047619 0.904762
vt 0.000000 0.904762
vt 0.095238 0.000000
vt 0.047619 0.047619
vt 0.095238 0.047619
vt 0.095238 0.095238
vt 0.095238 0.142857
vt 0.047619 0.190476
vt 0.095238 0.190476
vt 0.095238 0.285714
vt 0.095238 0.333333
vt 0.095238 0.380952
vt 0.047619 0.428571
vt 0.095238 0.428571
vt 0.095238 0.523810
vt 0.095238 0.571429
vt 0.095238 0.666667
vt 0.095238 0.714286
vt 0.095238 0.761905
vt 0.095238 0.809524
vt 0.047619 0.857143
vt 0.095238 0.904762
vt 0.142857 0.000000
vt 0.142857 0.047619
vt 0.142857 0.095238
vt 0.142857 0.142857
vt 0.142857 0.190476
vt 0.095238 0.238095
vt 0.142857 0.285714
vt 0.142857 0.333333
vt 0.142857 0.380952
vt 0.142857 0.428571
vt 0.095238 0.476190
vt 0.142857 0.523810
vt 0.142857 0.571429
vt 0.142857 0.619048
vt 0.095238 0.619048
vt 0.142857 0.666667
vt 0.142857 0.714286
vt 0.142857 0.761905
vt 0.142857 0.857143
vt 0.095238 0.857143
vt 0.142857 0.904762
vt 0.190476 0.000000
vt 0.190476 0.047619
vt 0.190476 0.095238
vt 0.190476 0.142857
vt 0.190476 0.190476
vt 0.142857 0.238095
vt 0.190476 0.285714
vt 0.190476 0.333333
vt 0.190476 0.380952
vt 0.190476 0.428571
vt 0.142857 0.476190
vt 0.190476 0.523810
vt 0.190476 0.571429
vt 0.190476 0.619048
vt 0.190476 0.666667
vt 0.190476 0.714286
vt 0.190476 0.809524
vt 0.142857 0.809524
vt 0.190476 0.857143
vt 0.238095 0.047619
vt 0.238095 0.095238
vt 0.238095 0.142857
vt 0.238095 0.190476
vt 0.238095 0.238095
vt 0.190476 0.238095
vt 0.238095 0.285714
vt 0.238095 0.380952
vt 0.238095 0.428571
vt 0.238095 0.476190
vt 0.190476 0.476190
vt 0.238095 0.523810
vt 0.238095 0.571429
vt 0.238095 0.666667
vt 0.238095 0.714286
vt 0.190476 0.761905
vt 0.238095 0.761905
vt 0.238095 0.809524
vt 0.238095 0.857143
vt 0.190476 0.904762
vt 0.285714 0.000000
vt 0.238095 0.000000
vt 0.285714 0.095238
vt 0.285714 0.142857
vt 0.285714 0.190476
vt 0.285714 0.238095
vt 0.285714 0.285714
vt 0.238095 0.333333
vt 0.285714 0.333333
vt 0.285714 0.380952
vt 0.285714 0.476190
vt 0.285714 0.523810
vt 0.285714 0.619048
vt 0.238095 0.619048
vt 0.285714 0.666667
vt 0.285714 0.761905
vt 0.285714 0.857143
vt 0.285714 0.904762
vt 0.238095 0.904762
vt 0.333333 0.000000
vt 0.285714 0.047619
vt 0.333333 0.047619
vt 0.333333 0.142857
vt 0.333333 0.190476
vt 0.333333 0.238095
vt 0.333333 0.285714
vt 0.333333 0.333333
vt 0.333333 0.380952
vt 0.285714 0.428571
vt 0.333333 0.476190
vt 0.333333 0.523810
vt 0.333333 0.571429
vt 0.285714 0.571429
vt 0.333333 0.619048
vt 0.333333 0.666667
vt 0.285714 0.714286
vt 0.333333 0.714286
vt 0.333333 0.761905
vt 0.285714 0.809524
vt 0.333333 0.857143
vt 0.333333 0.904762
vt 0.380952 0.000000
vt 0.380952 0.047619
vt 0.333333 0.095238
vt 0.380952 0.095238
vt 0.380952 0.190476
vt 0.380952 0.238095
vt 0.380952 0.285714
vt 0.380952 0.333333
vt 0.380952 0.380952
vt 0.333333 0.428571
vt 0.380952 0.428571
vt 0.380952 0.523810
vt 0.380952 0.619048
vt 0.380952 0.666667
vt 0.380952 0.714286
vt 0.380952 0.761905
vt 0.380952 0.809524
vt 0.333333 0.809524
vt 0.380952 0.857143
vt 0.380952 0.904762
vt 0.428571 0.000000
vt 0.428571 0.047619
vt 0.428571 0.142857
vt 0.380952 0.142857
vt 0.428571 0.190476
vt 0.428571 0.238095
vt 0.428571 0.285714
vt 0.428571 0.333333
vt 0.428571 0.380952
vt 0.428571 0.428571
vt 0.380952 0.476190
vt 0.428571 0.476190
vt 0.428571 0.523810
vt 0.380952 0.571429
vt 0.428571 0.571429
vt 0.428571 0.666667
vt 0.428571 0.714286
vt 0.428571 0.761905
vt 0.428571 0.809524
vt 0.428571 0.857143
vt 0.428571 0.904762
vt 0.476190 0.000000
vt 0.476191 0.047619
vt 0.428571 0.095238
vt 0.476191 0.095238
vt 0.476190 0.190476
vt 0.476190 0.238095
vt 0.476190 0.285714
vt 0.476190 0.333333
vt 0.476190 0.380952
vt 0.476190 0.428571
vt 0.476190 0.476190
vt 0.476190 0.523810
vt 0.476190 0.571429
vt 0.428571 0.619048
vt 0.476190 0.619048
vt 0.476190 0.714286
vt 0.476190 0.761905
vt 0.476190 0.809524
vt 0.476190 0.857143
vt 0.523810 0.000000
vt 0.523810 0.047619
vt 0.523810 0.095238
vt 0.476191 0.142857
vt 0.523810 0.142857
vt 0.523810 0.238095
vt 0.523810 0.285714
vt 0.523810 0.333333
vt 0.523810 0.380952
vt 0.523810 0.428571
vt 0.523810 0.476190
vt 0.523810 0.523810
vt 0.523810 0.571429
vt 0.523810 0.619048
vt 0.476190 0.666667
vt 0.523810 0.666667
vt 0.523810 0.714286
vt 0.523810 0.809524
vt 0.523810 0.857143
vt 0.523810 0.904762
vt 0.476190 0.904762
vt 0.571429 0.000000
vt 0.571429 0.047619
vt 0.571429 0.095238
vt 0.571429 0.142857
vt 0.523810 0.190476
vt 0.571429 0.238095
vt 0.571429 0.285714
vt 0.571429 0.333333
vt 0.571429 0.380952
vt 0.571429 0.428571
vt 0.571429 0.476190
vt 0.571429 0.523810
vt 0.571429 0.571429
vt 0.571429 0.619048
vt 0.571429 0.666667
vt 0.571429 0.761905
vt 0.523810 0.761905
vt 0.571429 0.809524
vt 0.571429 0.857143
vt 0.571429 0.904762
vt 0.619048 0.000000
vt 0.619048 0.047619
vt 0.619048 0.095238
vt 0.619048 0.142857
vt 0.571429 0.190476
vt 0.619048 0.238095
vt 0.619048 0.285714
vt 0.619048 0.333333
vt 0.619048 0.380952
vt 0.619048 0.428571
vt 0.619048 0.476190
vt 0.619048 0.523810
vt 0.619048 0.571429
vt 0.619048 0.619048
vt 0.619048 0.666667
vt 0.571429 0.714286
vt 0.619048 0.714286
vt 0.619048 0.761905
vt 0.619048 0.857143
vt 0.619048 0.904762
vt 0.666667 0.000000
vt 0.666667 0.047619
vt 0.666667 0.095238
vt 0.666667 0.142857
vt 0.619048 0.190476
vt 0.666667 0.238095
vt 0.666667 0.285714
vt 0.666667 0.333333
vt 0.666667 0.380952
vt 0.666667 0.428571
vt 0.666667 0.476190
vt 0.666667 0.523810
vt 0.666667 0.571429
vt 0.666667 0.619048
vt 0.666667 0.666667
vt 0.666667 0.714286
vt 0.666667 0.761905
vt 0.619048 0.809524
vt 0.666667 0.809524
vt 0.666667 0.904762
vt 0.714286 0.000000
vt 0.714286 0.047619
vt 0.714286 0.095238
vt 0.714286 0.142857
vt 0.666667 0.190476
vt 0.714286 0.238095
vt 0.714286 0.285714
vt 0.714286 0.333333
vt 0.714286 0.380952
vt 0.714286 0.428571
vt 0.714286 0.476190
vt 0.714286 0.523810
vt 0.714286 0.571429
vt 0.714286 0.619048
vt 0.714286 0.666667
vt 0.714286 0.714286
vt 0.714286 0.761905
vt 0.714286 0.809524
vt 0.666667 0.857143
vt 0.714286 0.857143
vt 0.714286 0.904762
vt 0.761905 0.000000
vt 0.761905 0.047619
vt 0.761905 0.095238
vt 0.761905 0.142857
vt 0.714286 0.190476
vt 0.761905 0.190476
vt 0.761905 0.238095
vt 0.761905 0.285714
vt 0.761905 0.333333
vt 0.761905 0.380952
vt 0.761905 0.428571
vt 0.761905 0.476190
vt 0.761905 0.523810
vt 0.761905 0.571429
vt 0.761905 0.619048
vt 0.761905 0.666667
vt 0.761905 0.714286
vt 0.761905 0.761905
vt 0.761905 0.809524
vt 0.761905 0.857143
vt 0.761905 0.904762
vt 0.809524 0.000000
vt 0.809524 0.047619
vt 0.809524 0.095238
vt 0.809524 0.142857
vt 0.809524 0.190476
vt 0.809524 0.238095
vt 0.809524 0.285714
vt 0.809524 0.333333
vt 0.809524 0.380952
vt 0.809524 0.428571
vt 0.809524 0.476190
vt 0.809524 0.523810
vt 0.809524 0.571429
vt 0.809524 0.619048
vt 0.809524 0.666667
vt 0.809524 0.714286
vt 0.809524 0.761905
vt 0.809524 0.809524
vt 0.809524 0.857143
vt 0.809524 0.904762
vt 0.857143 0.047619
vt 0.857143 0.095238
vt 0.857143 0.142857
vt 0.857143 0.190476
vt 0.857143 0.238095
vt 0.857143 0.285714
vt 0.857143 0.333333
vt 0.857143 0.380952
vt 0.857143 0.428571
vt 0.857143 0.476190
vt 0.857143 0.523810
vt 0.857143 0.571429
vt 0.857143 0.619048
vt 0.857143 0.666667
vt 0.857143 0.714286
vt 0.857143 0.761905
vt 0.857143 0.809524
vt 0.857143 0.857143
vt 0.857143 0.904762
vt 0.857143 0.000000
vt 0.904762 0.047619
vt 0.904762 0.095238
vt 0.904762 0.142857
vt 0.904762 0.190476
vt 0.904762 0.238095
vt 0.904762 0.285714
vt 0.904762 0.333333
vt 0.904762 0.380952
vt 0.904762 0.428571
vt 0.904762 0.476190
vt 0.904762 0.523810
vt 0.904762 0.571429
vt 0.904762 0.619048
vt 0.904762 0.666667
vt 0.904762 0.714286
vt 0.904762 0.761905
vt 0.904762 0.809524
vt 0.904762 0.857143
vt 0.904762 0.904762
vt 0.952381 0.000000
vt 0.904762 0.000000
vt 0.952381 0.095238
vt 0.952381 0.142857
vt 0.952381 0.190476
vt 0.952381 0.238095
vt 0.952381 0.285714
vt 0.952381 0.333333
vt 0.952381 0.380952
vt 0.952381 0.428571
vt 0.952381 0.476190
vt 0.952381 0.523810
vt 0.952381 0.571429
vt 0.952381 0.619048
vt 0.952381 0.666667
vt 0.952381 0.714286
vt 0.952381 0.761905
vt 0.952381 0.809524
vt 0.952381 0.857143
vt 0.952381 0.904762
vt 1.000000 0.000000
vt 0.952381 0.047619
vt 1.000000 0.047619
vt 1.000000 0.142857
vt 1.000000 0.190476
vt 1.000000 0.238095
vt 1.000000 0.285714
vt 1.000000 0.333333
vt 1.000000 0.380952
vt 1.000000 0.428571
vt 1.000000 0.476190
vt 1.000000 0.523810
vt 1.000000 0.571429
vt 1.000000 0.619048
vt 1.000000 0.666667
vt 1.000000 0.714286
vt 1.000000 0.761905
vt 1.000000 0.809524
vt 1.000000 0.857143
vt 1.000000 0.904762
vt 1.000000 1.000000
vt 1.000000 0.095238
s 1
usemtl Material.001
f 64/1/1 65/2/2 484/3/3
s 0
f 104/4/4 3/5/4 5/6/4
f 104/4/5 83/7/5 84/8/5
f 144/9/6 83/7/6 124/10/6
f 144/9/7 81/11/7 82/12/7
s 1
f 164/13/8 80/14/9 81/11/10
f 184/15/11 79/16/12 80/14/9
f 204/17/13 78/18/14 79/16/12
f 244/19/15 78/18/14 224/20/16
f 264/21/17 77/22/18 244/19/15
f 264/21/17 75/23/19 76/24/20
f 284/25/21 74/26/22 75/23/19
f 324/27/23 74/26/22 304/28/24
s 0
f 344/29/25 73/30/25 324/27/25
f 364/31/26 72/32/26 344/29/27
f 384/33/28 71/34/28 364/31/28
f 404/35/29 70/36/29 384/33/29
f 424/37/30 69/38/30 404/35/30
f 444/39/31 68/40/31 424/37/31
s 1
f 464/41/32 67/42/33 444/39/34
f 484/3/3 66/43/35 464/41/32
f 25/44/36 24/45/36 1/46/36
s 0
f 24/45/37 86/47/37 23/48/37
f 23/48/38 87/49/38 22/50/38
f 87/49/39 21/51/39 22/50/39
f 21/51/40 89/52/40 20/53/40
f 20/53/41 90/54/41 19/55/41
f 19/55/42 91/56/42 18/57/42
f 18/57/43 92/58/43 17/59/43
f 92/58/44 16/60/44 17/59/44
f 16/60/45 94/61/46 15/62/47
f 15/62/48 95/63/49 14/64/50
f 14/64/51 96/65/52 13/66/51
f 13/66/53 97/67/54 12/68/53
f 12/68/55 98/69/55 11/70/55
f 11/70/56 99/71/56 10/72/56
f 10/72/57 100/73/57 9/74/57
f 100/73/58 8/75/58 9/74/58
f 101/76/59 7/77/59 8/75/59
f 7/77/60 103/78/60 6/79/60
f 6/79/61 104/4/61 5/6/61
f 26/80/62 85/81/62 25/44/62
f 105/82/63 86/47/63 85/81/63
f 106/83/64 87/49/64 86/47/64
f 107/84/65 88/85/65 87/49/65
s 1
f 108/86/66 89/52/67 88/85/68
s 0
f 89/52/69 110/87/69 90/54/69
f 90/54/70 111/88/70 91/56/70
f 111/88/71 92/58/71 91/56/71
s 1
f 112/89/72 93/90/73 92/58/74
f 113/91/75 94/61/76 93/90/73
s 0
f 94/61/77 115/92/77 95/63/77
f 95/63/78 116/93/79 96/65/80
f 116/93/81 97/67/82 96/65/83
f 97/67/84 118/94/85 98/69/85
f 118/94/86 99/71/86 98/69/86
f 119/95/87 100/73/88 99/71/88
f 120/96/89 101/76/89 100/73/89
s 1
f 121/97/90 102/98/91 101/76/92
f 102/98/91 123/99/93 103/78/94
s 0
f 103/78/95 124/10/95 104/4/95
f 27/100/96 105/82/96 26/80/96
f 125/101/97 106/83/97 105/82/97
f 126/102/98 107/84/98 106/83/98
s 1
f 127/103/99 108/86/66 107/84/100
s 0
f 128/104/101 109/105/102 108/86/103
f 109/105/104 130/106/104 110/87/104
s 1
f 110/87/105 131/107/106 111/88/107
f 131/107/106 112/89/72 111/88/107
s 0
f 132/108/108 113/91/108 112/89/108
s 1
f 133/109/109 114/110/110 113/91/75
f 114/110/110 135/111/111 115/92/112
f 115/92/112 136/112/113 116/93/114
f 116/93/114 137/113/115 117/114/116
f 117/114/116 138/115/117 118/94/118
f 118/94/118 139/116/119 119/95/120
f 139/116/119 120/96/121 119/95/120
f 140/117/122 121/97/90 120/96/121
f 121/97/90 142/118/123 122/119/124
f 142/118/123 123/99/93 122/119/124
s 0
f 143/120/125 124/10/125 123/99/125
f 28/121/126 125/101/126 27/100/126
f 145/122/127 126/102/127 125/101/127
s 1
f 146/123/128 127/103/99 126/102/129
s 0
f 147/124/130 128/104/130 127/103/130
f 148/125/131 129/126/131 128/104/131
f 129/126/132 150/127/132 130/106/132
f 130/106/133 151/128/133 131/107/133
s 1
f 151/128/134 132/108/135 131/107/106
s 0
f 152/129/136 133/109/136 132/108/136
f 153/130/137 134/131/137 133/109/137
s 1
f 134/131/138 155/132/139 135/111/111
f 135/111/111 156/133/140 136/112/113
f 136/112/113 157/134/141 137/113/115
f 137/113/115 158/135/142 138/115/117
f 138/115/117 159/136/143 139/116/119
f 159/136/143 140/117/122 139/116/119
f 140/117/122 161/137/144 141/138/145
f 141/138/145 162/139/146 142/118/123
f 162/139/146 143/120/147 142/118/123
s 0
f 143/120/148 164/13/148 144/9/148
f 28/121/149 165/140/149 145/122/149
f 145/122/150 166/141/150 146/123/150
f 146/123/151 167/142/151 147/124/151
f 147/124/152 168/143/152 148/125/152
f 148/125/153 169/144/153 149/145/153
s 1
f 169/144/154 150/127/155 149/145/156
f 170/146/157 151/128/134 150/127/155
f 151/128/134 172/147/158 152/129/159
f 152/129/159 173/148/160 153/130/161
f 153/130/161 174/149/162 154/150/163
s 0
f 154/150/164 175/151/164 155/132/164
f 175/151/165 156/133/165 155/132/165
s 1
f 176/152/166 157/134/141 156/133/140
f 157/134/141 178/153/167 158/135/142
f 158/135/142 179/154/168 159/136/143
f 179/154/168 160/155/169 159/136/143
f 180/156/170 161/137/144 160/155/169
f 181/157/171 162/139/146 161/137/144
f 182/158/172 163/159/173 162/139/146
f 163/159/173 184/15/11 164/13/8
s 0
f 30/160/174 165/140/174 29/161/174
f 165/140/175 186/162/175 166/141/175
s 1
f 166/141/176 187/163/177 167/142/178
f 167/142/178 188/164/179 168/143/180
f 168/143/180 189/165/181 169/144/154
f 189/165/181 170/146/157 169/144/154
f 190/166/182 171/167/183 170/146/157
f 191/168/184 172/147/158 171/167/183
f 192/169/185 173/148/160 172/147/158
f 173/148/160 194/170/186 174/149/162
f 174/149/162 195/171/187 175/151/188
f 195/171/187 176/152/166 175/151/188
f 176/152/166 197/172/189 177/173/190
f 197/172/189 178/153/167 177/173/190
f 198/174/191 179/154/168 178/153/167
f 179/154/168 200/175/192 180/156/170
f 200/175/192 181/157/171 180/156/170
f 181/157/171 202/176/193 182/158/172
f 182/158/172 203/177/194 183/178/195
f 183/178/195 204/17/13 184/15/11
s 0
f 31/179/196 185/180/196 30/160/196
f 205/181/197 186/162/197 185/180/197
s 1
f 186/162/198 207/182/199 187/163/177
f 187/163/177 208/183/200 188/164/179
f 188/164/179 209/184/201 189/165/181
f 209/184/201 190/166/182 189/165/181
f 210/185/202 191/168/184 190/166/182
f 211/186/203 192/169/185 191/168/184
f 212/187/204 193/188/205 192/169/185
f 193/188/205 214/189/206 194/170/186
f 194/170/186 215/190/207 195/171/187
f 195/171/187 216/191/208 196/192/209
f 196/192/209 217/193/210 197/172/189
f 197/172/189 218/194/211 198/174/191
f 218/194/211 199/195/212 198/174/191
f 219/196/213 200/175/192 199/195/212
f 220/197/214 201/198/215 200/175/192
f 201/198/215 222/199/216 202/176/193
f 202/176/193 223/200/217 203/177/194
f 203/177/194 224/20/16 204/17/13
s 0
f 32/201/218 205/181/218 31/179/218
f 225/202/219 206/203/220 205/181/219
f 226/204/221 207/182/222 206/203/223
s 1
f 207/182/199 228/205/224 208/183/200
f 208/183/200 229/206/225 209/184/201
f 229/206/225 210/185/202 209/184/201
f 230/207/226 211/186/203 210/185/202
f 231/208/227 212/187/204 211/186/203
f 232/209/228 213/210/229 212/187/204
f 233/211/230 214/189/206 213/210/229
f 214/189/206 235/212/231 215/190/207
f 235/212/231 216/191/208 215/190/207
f 216/191/208 237/213/232 217/193/210
f 217/193/210 238/214/233 218/194/211
f 218/194/211 239/215/234 219/196/213
f 219/196/213 240/216/235 220/197/214
f 220/197/214 241/217/236 221/218/237
f 241/217/236 222/199/216 221/218/237
f 242/219/238 223/200/217 222/199/216
f 243/220/239 224/20/16 223/200/217
s 0
f 33/221/240 225/202/240 32/201/240
f 245/222/241 226/204/242 225/202/241
f 226/204/243 247/223/244 227/224/244
s 1
f 227/224/245 248/225/246 228/205/224
f 228/205/224 249/226/247 229/206/225
f 249/226/247 230/207/226 229/206/225
f 250/227/248 231/208/227 230/207/226
f 251/228/249 232/209/228 231/208/227
f 252/229/250 233/211/230 232/209/228
f 253/230/36 234/231/36 233/211/230
f 254/232/36 235/212/231 234/231/36
f 255/233/36 236/234/36 235/212/231
f 256/235/36 237/213/232 236/234/36
f 237/213/232 258/236/251 238/214/233
f 238/214/233 259/237/252 239/215/234
f 239/215/234 260/238/253 240/216/235
f 240/216/235 261/239/254 241/217/236
f 261/239/254 242/219/238 241/217/236
f 262/240/255 243/220/239 242/219/238
f 263/241/256 244/19/15 243/220/239
s 0
f 34/242/257 245/222/257 33/221/257
f 265/243/258 246/244/258 245/222/258
f 266/245/259 247/223/259 246/244/259
s 1
f 247/223/260 268/246/261 248/225/246
f 248/225/246 269/247/262 249/226/247
f 269/247/262 250/227/248 249/226/247
f 270/248/263 251/228/249 250/227/248
f 271/249/264 252/229/250 251/228/249
f 272/250/36 253/230/36 252/229/250
f 273/251/36 254/232/36 253/230/36
f 274/252/36 255/233/36 254/232/36
f 275/253/36 256/235/36 255/233/36
f 276/254/36 257/255/36 256/235/36
f 277/256/36 258/236/251 257/255/36
f 258/236/251 279/257/265 259/237/252
f 259/237/252 280/258/266 260/238/253
f 260/238/253 281/259/267 261/239/254
f 261/239/254 282/260/268 262/240/255
f 282/260/268 263/241/256 262/240/255
f 263/241/256 284/25/21 264/21/17
s 0
f 35/261/269 265/243/269 34/242/269
f 285/262/270 266/245/270 265/243/270
f 286/263/271 267/264/272 266/245/272
s 1
f 287/265/273 268/246/261 267/264/36
f 268/246/261 289/266/274 269/247/262
f 289/266/274 270/248/263 269/247/262
f 290/267/275 271/249/264 270/248/263
f 291/268/36 272/250/36 271/249/264
f 292/269/36 273/251/36 272/250/36
f 293/270/36 274/252/36 273/251/36
f 294/271/36 275/253/36 274/252/36
f 295/272/36 276/254/36 275/253/36
f 296/273/36 277/256/36 276/254/36
f 297/274/36 278/275/36 277/256/36
f 298/276/36 279/257/265 278/275/36
f 299/277/36 280/258/266 279/257/265
f 280/258/266 301/278/276 281/259/267
f 281/259/267 302/279/277 282/260/268
f 282/260/268 303/280/278 283/281/279
f 283/281/279 304/28/24 284/25/21
s 0
f 36/282/280 285/262/280 35/261/280
f 305/283/281 286/263/282 285/262/283
f 306/284/284 287/265/285 286/263/286
s 1
f 307/285/287 288/286/288 287/265/273
f 288/286/288 309/287/289 289/266/274
f 309/287/289 290/267/275 289/266/274
f 310/288/36 291/268/36 290/267/275
f 311/289/36 292/269/36 291/268/36
f 312/290/36 293/270/36 292/269/36
f 313/291/36 294/271/36 293/270/36
f 314/292/36 295/272/36 294/271/36
f 315/293/36 296/273/36 295/272/36
f 316/294/36 297/274/36 296/273/36
f 317/295/36 298/276/36 297/274/36
f 318/296/36 299/277/36 298/276/36
f 299/277/36 320/297/36 300/298/290
f 300/298/290 321/299/291 301/278/276
f 301/278/276 322/300/292 302/279/277
f 302/279/277 323/301/293 303/280/278
f 323/301/293 304/28/24 303/280/278
s 0
f 37/302/294 305/283/295 36/282/294
f 325/303/296 306/284/296 305/283/296
s 1
f 326/304/297 307/285/287 306/284/298
f 327/305/299 308/306/300 307/285/287
f 308/306/300 329/307/301 309/287/289
f 309/287/289 330/308/302 310/288/36
f 330/308/302 311/289/36 310/288/36
f 331/309/36 312/290/36 311/289/36
f 332/310/36 313/291/36 312/290/36
f 333/311/36 314/292/36 313/291/36
f 334/312/36 315/293/36 314/292/36
f 335/313/36 316/294/36 315/293/36
f 336/314/36 317/295/36 316/294/36
f 337/315/36 318/296/36 317/295/36
f 338/316/36 319/317/36 318/296/36
f 339/318/36 320/297/36 319/317/36
f 340/319/36 321/299/291 320/297/36
f 321/299/291 342/320/303 322/300/292
f 322/300/292 343/321/304 323/301/293
f 343/321/304 324/27/23 323/301/293
s 0
f 38/322/305 325/303/305 37/302/305
f 345/323/306 326/304/306 325/303/306
f 346/324/307 327/305/307 326/304/307
s 1
f 347/325/308 328/326/309 327/305/299
f 328/326/309 349/327/310 329/307/301
f 329/307/301 350/328/311 330/308/302
f 330/308/302 351/329/312 331/309/36
f 351/329/312 332/310/36 331/309/36
f 352/330/36 333/311/36 332/310/36
f 353/331/36 334/312/36 333/311/36
f 354/332/36 335/313/36 334/312/36
f 355/333/36 336/314/36 335/313/36
f 356/334/36 337/315/36 336/314/36
f 357/335/36 338/316/36 337/315/36
f 358/336/36 339/318/36 338/316/36
f 359/337/36 340/319/36 339/318/36
f 360/338/36 341/339/36 340/319/36
f 361/340/36 342/320/303 341/339/36
f 342/320/303 363/341/313 343/321/304
s 0
f 363/341/314 344/29/315 343/321/316
f 39/342/317 345/323/317 38/322/317
f 365/343/318 346/324/318 345/323/318
f 366/344/36 347/325/36 346/324/36
s 1
f 367/345/36 348/346/319 347/325/308
f 348/346/319 369/347/320 349/327/310
f 349/327/310 370/348/321 350/328/311
f 350/328/311 371/349/322 351/329/312
f 351/329/312 372/350/323 352/330/36
f 372/350/323 353/331/36 352/330/36
f 373/351/36 354/332/36 353/331/36
f 374/352/36 355/333/36 354/332/36
f 375/353/36 356/334/36 355/333/36
f 376/354/36 357/335/36 356/334/36
f 377/355/36 358/336/36 357/335/36
f 378/356/36 359/337/36 358/336/36
f 379/357/36 360/338/36 359/337/36
f 380/358/36 361/340/36 360/338/36
f 381/359/36 362/360/36 361/340/36
f 382/361/36 363/341/313 362/360/36
s 0
f 383/362/324 364/31/324 363/341/325
f 40/363/326 365/343/326 39/342/326
f 385/364/318 366/344/318 365/343/318
f 386/365/36 367/345/36 366/344/36
s 1
f 387/366/36 368/367/36 367/345/36
f 388/368/36 369/347/320 368/367/36
f 389/369/327 370/348/321 369/347/320
f 390/370/328 371/349/322 370/348/321
f 391/371/329 372/350/323 371/349/322
f 392/372/20 373/351/36 372/350/323
f 393/373/36 374/352/36 373/351/36
f 394/374/36 375/353/36 374/352/36
f 395/375/36 376/354/36 375/353/36
f 396/376/36 377/355/36 376/354/36
f 397/377/36 378/356/36 377/355/36
f 398/378/36 379/357/36 378/356/36
f 399/379/36 380/358/36 379/357/36
f 400/380/36 381/359/36 380/358/36
f 401/381/36 382/361/36 381/359/36
f 402/382/36 383/362/36 382/361/36
s 0
f 403/383/330 384/33/330 383/362/330
f 41/384/331 385/364/331 40/363/331
s 1
f 405/385/332 386/365/333 385/364/334
f 406/386/333 387/366/36 386/365/333
f 407/387/36 388/368/36 387/366/36
f 408/388/36 389/369/327 388/368/36
f 409/389/327 390/370/328 389/369/327
f 410/390/328 391/371/329 390/370/328
f 411/391/335 392/372/20 391/371/329
f 412/392/20 393/373/36 392/372/20
f 413/393/36 394/374/36 393/373/36
f 414/394/36 395/375/36 394/374/36
f 415/395/36 396/376/36 395/375/36
f 416/396/36 397/377/36 396/376/36
f 417/397/36 398/378/36 397/377/36
f 418/398/36 399/379/36 398/378/36
f 419/399/36 400/380/36 399/379/36
s 0
f 420/400/36 401/381/36 400/380/36
f 421/401/36 402/382/36 401/381/36
f 422/402/36 403/383/36 402/382/36
f 423/403/336 404/35/336 403/383/336
s 1
f 41/384/337 425/404/338 405/385/332
s 0
f 405/385/339 426/405/339 406/386/339
s 1
f 406/386/333 427/406/36 407/387/36
f 427/406/36 408/388/36 407/387/36
f 428/407/36 409/389/327 408/388/36
f 429/408/327 410/390/328 409/389/327
f 430/409/340 411/391/335 410/390/328
f 431/410/341 412/392/20 411/391/335
f 432/411/342 413/393/36 412/392/20
f 433/412/36 414/394/36 413/393/36
f 434/413/36 415/395/36 414/394/36
f 435/414/36 416/396/36 415/395/36
f 436/415/36 417/397/36 416/396/36
f 437/416/36 418/398/36 417/397/36
f 438/417/36 419/399/36 418/398/36
s 0
f 439/418/36 420/400/36 419/399/36
f 440/419/343 421/401/343 420/400/343
f 441/420/344 422/402/344 421/401/344
f 442/421/345 423/403/345 422/402/345
f 443/422/346 424/37/346 423/403/346
f 42/423/347 445/424/347 425/404/347
f 425/404/348 446/425/348 426/405/348
f 426/405/349 447/426/349 427/406/349
f 447/426/350 428/407/350 427/406/350
f 448/427/351 429/408/351 428/407/351
f 449/428/352 430/409/352 429/408/352
f 450/429/353 431/410/353 430/409/353
f 451/430/354 432/411/355 431/410/356
f 452/431/357 433/412/357 432/411/358
f 453/432/359 434/413/359 433/412/359
f 454/433/36 435/414/36 434/413/36
f 455/434/36 436/415/36 435/414/36
f 456/435/36 437/416/36 436/415/36
f 457/436/36 438/417/36 437/416/36
f 458/437/36 439/418/36 438/417/36
f 459/438/360 440/419/360 439/418/360
f 460/439/361 441/420/361 440/419/361
f 461/440/362 442/421/362 441/420/362
f 462/441/363 443/422/363 442/421/363
f 463/442/364 444/39/364 443/422/364
f 44/443/365 445/424/365 43/444/365
f 445/424/366 466/445/366 446/425/366
s 1
f 446/425/367 467/446/367 447/426/367
s 0
f 467/446/368 448/427/368 447/426/368
f 468/447/369 449/428/369 448/427/369
f 469/448/370 450/429/370 449/428/370
f 470/449/371 451/430/371 450/429/371
f 471/450/372 452/431/372 451/430/373
f 472/451/374 453/432/374 452/431/374
f 473/452/375 454/433/375 453/432/375
f 474/453/376 455/434/376 454/433/376
f 475/454/377 456/435/377 455/434/377
f 476/455/378 457/436/378 456/435/378
f 477/456/379 458/437/379 457/436/379
f 478/457/380 459/438/380 458/437/380
f 479/458/381 460/439/381 459/438/381
s 1
f 480/459/382 461/440/383 460/439/384
s 0
f 481/460/385 462/441/385 461/440/385
f 482/461/386 463/442/386 462/441/386
s 1
f 483/462/387 464/41/32 463/442/388
s 0
f 2/463/389 465/464/389 44/443/389
f 45/465/390 466/445/390 465/464/390
f 466/445/391 47/466/391 467/446/391
f 47/466/392 468/447/392 467/446/392
f 48/467/393 469/448/394 468/447/393
f 49/468/395 470/449/396 469/448/397
f 50/469/398 471/450/398 470/449/399
f 51/470/400 472/451/400 471/450/400
f 52/471/401 473/452/401 472/451/401
f 53/472/402 474/453/402 473/452/402
f 54/473/403 475/454/403 474/453/403
f 55/474/404 476/455/404 475/454/404
f 56/475/405 477/456/405 476/455/405
f 57/476/406 478/457/406 477/456/406
f 58/477/407 479/458/407 478/457/407
f 59/478/408 480/459/408 479/458/408
f 60/479/409 481/460/409 480/459/409
f 61/480/410 482/461/410 481/460/410
f 62/481/411 483/462/411 482/461/411
s 1
f 63/482/412 484/3/3 483/462/387
f 64/1/1 4/483/413 65/2/2
s 0
f 104/4/414 84/8/414 3/5/414
f 104/4/415 124/10/415 83/7/415
f 144/9/416 82/12/416 83/7/416
f 144/9/417 164/13/417 81/11/417
s 1
f 164/13/8 184/15/11 80/14/9
f 184/15/11 204/17/13 79/16/12
f 204/17/13 224/20/16 78/18/14
f 244/19/15 77/22/18 78/18/14
f 264/21/17 76/24/20 77/22/18
f 264/21/17 284/25/21 75/23/19
f 284/25/21 304/28/24 74/26/22
f 324/27/23 73/30/418 74/26/22
s 0
f 344/29/419 72/32/420 73/30/420
f 364/31/421 71/34/421 72/32/421
f 384/33/422 70/36/422 71/34/422
f 404/35/423 69/38/423 70/36/423
f 424/37/424 68/40/424 69/38/424
f 444/39/425 67/42/425 68/40/425
s 1
f 464/41/32 66/43/35 67/42/33
f 484/3/3 65/2/2 66/43/35
s 0
f 25/44/426 85/81/426 24/45/426
f 24/45/427 85/81/427 86/47/427
f 19/55/428 90/54/428 91/56/428
f 18/57/429 91/56/429 92/58/429
f 92/58/430 93/90/430 16/60/430
f 16/60/431 93/90/431 94/61/432
f 15/62/433 94/61/434 95/63/435
f 14/64/436 95/63/437 96/65/438
f 13/66/439 96/65/440 97/67/441
f 12/68/442 97/67/443 98/69/442
f 11/70/444 98/69/444 99/71/444
f 10/72/445 99/71/445 100/73/445
f 100/73/446 101/76/446 8/75/446
f 101/76/447 102/98/447 7/77/447
f 7/77/448 102/98/448 103/78/448
f 6/79/449 103/78/449 104/4/449
f 26/80/450 105/82/450 85/81/450
f 105/82/451 106/83/451 86/47/451
s 1
f 90/54/452 110/87/105 111/88/107
f 111/88/107 112/89/72 92/58/74
f 112/89/72 113/91/75 93/90/73
s 0
f 116/93/453 117/114/453 97/67/454
f 97/67/455 117/114/456 118/94/456
f 118/94/457 119/95/458 99/71/457
f 119/95/459 120/96/460 100/73/460
f 120/96/461 121/97/461 101/76/461
s 1
f 121/97/90 122/119/124 102/98/91
f 102/98/91 122/119/124 123/99/93
s 0
f 103/78/462 123/99/462 124/10/462
f 27/100/463 125/101/463 105/82/463
f 125/101/98 126/102/98 106/83/98
f 110/87/464 130/106/464 131/107/464
s 1
f 131/107/106 132/108/135 112/89/72
f 132/108/465 133/109/109 113/91/75
f 117/114/116 137/113/115 138/115/117
f 118/94/118 138/115/117 139/116/119
f 139/116/119 140/117/122 120/96/121
f 140/117/122 141/138/145 121/97/90
f 121/97/90 141/138/145 142/118/123
f 142/118/123 143/120/147 123/99/93
s 0
f 143/120/466 144/9/466 124/10/466
f 28/121/467 145/122/467 125/101/467
s 1
f 145/122/468 146/123/128 126/102/129
s 0
f 147/124/469 148/125/469 128/104/469
f 148/125/470 149/145/470 129/126/470
f 129/126/471 149/145/471 150/127/471
f 130/106/472 150/127/472 151/128/472
s 1
f 151/128/134 152/129/159 132/108/135
s 0
f 152/129/473 153/130/473 133/109/473
f 153/130/474 154/150/474 134/131/474
f 134/131/475 154/150/475 155/132/475
s 1
f 137/113/115 157/134/141 158/135/142
f 138/115/117 158/135/142 159/136/143
f 159/136/143 160/155/169 140/117/122
f 140/117/122 160/155/169 161/137/144
f 141/138/145 161/137/144 162/139/146
f 162/139/146 163/159/173 143/120/147
f 143/120/147 163/159/173 164/13/8
s 0
f 28/121/476 29/161/476 165/140/476
f 145/122/477 165/140/477 166/141/477
f 146/123/478 166/141/478 167/142/478
f 147/124/479 167/142/479 168/143/479
f 148/125/480 168/143/480 169/144/480
s 1
f 169/144/154 170/146/157 150/127/155
f 170/146/157 171/167/183 151/128/134
f 151/128/134 171/167/183 172/147/158
f 152/129/159 172/147/158 173/148/160
f 153/130/161 173/148/160 174/149/162
f 154/150/163 174/149/162 175/151/188
f 175/151/188 176/152/166 156/133/140
f 176/152/166 177/173/190 157/134/141
f 157/134/141 177/173/190 178/153/167
f 158/135/142 178/153/167 179/154/168
f 179/154/168 180/156/170 160/155/169
f 180/156/170 181/157/171 161/137/144
f 181/157/171 182/158/172 162/139/146
f 182/158/172 183/178/195 163/159/173
f 163/159/173 183/178/195 184/15/11
s 0
f 30/160/481 185/180/481 165/140/481
f 165/140/197 185/180/197 186/162/197
s 1
f 166/141/176 186/162/198 187/163/177
f 167/142/178 187/163/177 188/164/179
f 168/143/180 188/164/179 189/165/181
f 189/165/181 190/166/182 170/146/157
f 190/166/182 191/168/184 171/167/183
f 191/168/184 192/169/185 172/147/158
f 192/169/185 193/188/205 173/148/160
f 173/148/160 193/188/205 194/170/186
f 174/149/162 194/170/186 195/171/187
f 195/171/187 196/192/209 176/152/166
f 176/152/166 196/192/209 197/172/189
f 197/172/189 198/174/191 178/153/167
f 198/174/191 199/195/212 179/154/168
f 179/154/168 199/195/212 200/175/192
f 200/175/192 201/198/215 181/157/171
f 182/158/172 202/176/193 203/177/194
f 183/178/195 203/177/194 204/17/13
s 0
f 31/179/482 205/181/482 185/180/482
f 205/181/483 206/203/484 186/162/483
f 186/162/485 206/203/486 207/182/485
s 1
f 187/163/177 207/182/199 208/183/200
f 188/164/179 208/183/200 209/184/201
f 209/184/201 210/185/202 190/166/182
f 210/185/202 211/186/203 191/168/184
f 211/186/203 212/187/204 192/169/185
f 212/187/204 213/210/229 193/188/205
f 193/188/205 213/210/229 214/189/206
f 194/170/186 214/189/206 215/190/207
f 195/171/187 215/190/207 216/191/208
f 196/192/209 216/191/208 217/193/210
f 197/172/189 217/193/210 218/194/211
f 218/194/211 219/196/213 199/195/212
f 219/196/213 220/197/214 200/175/192
f 220/197/214 221/218/237 201/198/215
f 202/176/193 222/199/216 223/200/217
f 203/177/194 223/200/217 224/20/16
s 0
f 32/201/487 225/202/487 205/181/487
f 225/202/488 226/204/489 206/203/490
f 226/204/491 227/224/492 207/182/492
s 1
f 207/182/199 227/224/245 228/205/224
f 208/183/200 228/205/224 229/206/225
f 229/206/225 230/207/226 210/185/202
f 230/207/226 231/208/227 211/186/203
f 231/208/227 232/209/228 212/187/204
f 232/209/228 233/211/230 213/210/229
f 233/211/230 234/231/36 214/189/206
f 214/189/206 234/231/36 235/212/231
f 235/212/231 236/234/36 216/191/208
f 216/191/208 236/234/36 237/213/232
f 217/193/210 237/213/232 238/214/233
f 218/194/211 238/214/233 239/215/234
f 219/196/213 239/215/234 240/216/235
f 220/197/214 240/216/235 241/217/236
f 241/217/236 242/219/238 222/199/216
f 242/219/238 243/220/239 223/200/217
f 243/220/239 244/19/15 224/20/16
s 0
f 33/221/482 245/222/482 225/202/482
f 245/222/493 246/244/493 226/204/494
f 226/204/495 246/244/496 247/223/496
s 1
f 227/224/245 247/223/260 248/225/246
f 228/205/224 248/225/246 249/226/247
f 249/226/247 250/227/248 230/207/226
f 250/227/248 251/228/249 231/208/227
f 251/228/249 252/229/250 232/209/228
f 252/229/250 253/230/36 233/211/230
f 253/230/36 254/232/36 234/231/36
f 254/232/36 255/233/36 235/212/231
f 255/233/36 256/235/36 236/234/36
f 256/235/36 257/255/36 237/213/232
f 237/213/232 257/255/36 258/236/251
f 238/214/233 258/236/251 259/237/252
f 239/215/234 259/237/252 260/238/253
f 240/216/235 260/238/253 261/239/254
f 261/239/254 262/240/255 242/219/238
f 262/240/255 263/241/256 243/220/239
f 263/241/256 264/21/17 244/19/15
s 0
f 34/242/497 265/243/497 245/222/497
f 265/243/498 266/245/498 246/244/498
f 266/245/499 267/264/499 247/223/499
s 1
f 247/223/260 267/264/36 268/246/261
f 248/225/246 268/246/261 269/247/262
f 269/247/262 270/248/263 250/227/248
f 270/248/263 271/249/264 251/228/249
f 271/249/264 272/250/36 252/229/250
f 272/250/36 273/251/36 253/230/36
f 273/251/36 274/252/36 254/232/36
f 274/252/36 275/253/36 255/233/36
f 275/253/36 276/254/36 256/235/36
f 276/254/36 277/256/36 257/255/36
f 277/256/36 278/275/36 258/236/251
f 258/236/251 278/275/36 279/257/265
f 259/237/252 279/257/265 280/258/266
f 260/238/253 280/258/266 281/259/267
f 261/239/254 281/259/267 282/260/268
f 282/260/268 283/281/279 263/241/256
f 263/241/256 283/281/279 284/25/21
s 0
f 35/261/482 285/262/482 265/243/482
f 285/262/500 286/263/501 266/245/500
f 286/263/502 287/265/503 267/264/503
s 1
f 287/265/273 288/286/288 268/246/261
f 268/246/261 288/286/288 289/266/274
f 289/266/274 290/267/275 270/248/263
f 290/267/275 291/268/36 271/249/264
f 291/268/36 292/269/36 272/250/36
f 292/269/36 293/270/36 273/251/36
f 293/270/36 294/271/36 274/252/36
f 294/271/36 295/272/36 275/253/36
f 295/272/36 296/273/36 276/254/36
f 296/273/36 297/274/36 277/256/36
f 297/274/36 298/276/36 278/275/36
f 298/276/36 299/277/36 279/257/265
f 299/277/36 300/298/290 280/258/266
f 280/258/266 300/298/290 301/278/276
f 281/259/267 301/278/276 302/279/277
f 282/260/268 302/279/277 303/280/278
f 283/281/279 303/280/278 304/28/24
s 0
f 36/282/504 305/283/505 285/262/504
f 305/283/506 306/284/507 286/263/508
f 306/284/509 307/285/510 287/265/510
s 1
f 307/285/287 308/306/300 288/286/288
f 288/286/288 308/306/300 309/287/289
f 309/287/289 310/288/36 290/267/275
f 310/288/36 311/289/36 291/268/36
f 311/289/36 312/290/36 292/269/36
f 312/290/36 313/291/36 293/270/36
f 313/291/36 314/292/36 294/271/36
f 314/292/36 315/293/36 295/272/36
f 315/293/36 316/294/36 296/273/36
f 316/294/36 317/295/36 297/274/36
f 317/295/36 318/296/36 298/276/36
f 318/296/36 319/317/36 299/277/36
f 299/277/36 319/317/36 320/297/36
f 300/298/290 320/297/36 321/299/291
f 301/278/276 321/299/291 322/300/292
f 302/279/277 322/300/292 323/301/293
f 323/301/293 324/27/23 304/28/24
s 0
f 37/302/511 325/303/511 305/283/511
f 325/303/512 326/304/512 306/284/512
s 1
f 308/306/300 328/326/309 329/307/301
f 309/287/289 329/307/301 330/308/302
f 330/308/302 331/309/36 311/289/36
f 331/309/36 332/310/36 312/290/36
f 332/310/36 333/311/36 313/291/36
f 333/311/36 334/312/36 314/292/36
f 334/312/36 335/313/36 315/293/36
f 335/313/36 336/314/36 316/294/36
f 336/314/36 337/315/36 317/295/36
f 337/315/36 338/316/36 318/296/36
f 338/316/36 339/318/36 319/317/36
f 339/318/36 340/319/36 320/297/36
f 340/319/36 341/339/36 321/299/291
f 321/299/291 341/339/36 342/320/303
f 322/300/292 342/320/303 343/321/304
s 0
f 343/321/513 344/29/513 324/27/513
f 38/322/514 345/323/514 325/303/514
f 345/323/515 346/324/515 326/304/515
f 346/324/307 347/325/307 327/305/307
s 1
f 347/325/308 348/346/319 328/326/309
f 328/326/309 348/346/319 349/327/310
f 329/307/301 349/327/310 350/328/311
f 330/308/302 350/328/311 351/329/312
f 351/329/312 352/330/36 332/310/36
f 352/330/36 353/331/36 333/311/36
f 353/331/36 354/332/36 334/312/36
f 354/332/36 355/333/36 335/313/36
f 355/333/36 356/334/36 336/314/36
f 356/334/36 357/335/36 337/315/36
f 357/335/36 358/336/36 338/316/36
f 358/336/36 359/337/36 339/318/36
f 359/337/36 360/338/36 340/319/36
f 360/338/36 361/340/36 341/339/36
f 361/340/36 362/360/36 342/320/303
f 342/320/303 362/360/36 363/341/313
s 0
f 363/341/516 364/31/517 344/29/518
f 39/342/519 365/343/519 345/323/519
f 365/343/318 366/344/318 346/324/318
f 366/344/36 367/345/36 347/325/36
s 1
f 367/345/36 368/367/36 348/346/319
f 348/346/319 368/367/36 369/347/320
f 349/327/310 369/347/320 370/348/321
f 350/328/311 370/348/321 371/349/322
f 351/329/312 371/349/322 372/350/323
f 372/350/323 373/351/36 353/331/36
f 373/351/36 374/352/36 354/332/36
f 374/352/36 375/353/36 355/333/36
f 375/353/36 376/354/36 356/334/36
f 376/354/36 377/355/36 357/335/36
f 377/355/36 378/356/36 358/336/36
f 378/356/36 379/357/36 359/337/36
f 379/357/36 380/358/36 360/338/36
f 380/358/36 381/359/36 361/340/36
f 381/359/36 382/361/36 362/360/36
f 382/361/36 383/362/36 363/341/313
s 0
f 383/362/520 384/33/520 364/31/520
f 40/363/521 385/364/521 365/343/521
f 385/364/318 386/365/318 366/344/318
s 1
f 386/365/333 387/366/36 367/345/36
f 387/366/36 388/368/36 368/367/36
f 388/368/36 389/369/327 369/347/320
f 389/369/327 390/370/328 370/348/321
f 390/370/328 391/371/329 371/349/322
f 391/371/329 392/372/20 372/350/323
f 392/372/20 393/373/36 373/351/36
f 393/373/36 394/374/36 374/352/36
f 394/374/36 395/375/36 375/353/36
f 395/375/36 396/376/36 376/354/36
f 396/376/36 397/377/36 377/355/36
f 397/377/36 398/378/36 378/356/36
f 398/378/36 399/379/36 379/357/36
f 399/379/36 400/380/36 380/358/36
f 400/380/36 401/381/36 381/359/36
f 401/381/36 402/382/36 382/361/36
f 402/382/36 403/383/36 383/362/36
s 0
f 403/383/522 404/35/522 384/33/522
s 1
f 41/384/337 405/385/332 385/364/334
f 405/385/332 406/386/333 386/365/333
f 406/386/333 407/387/36 387/366/36
f 407/387/36 408/388/36 388/368/36
f 408/388/36 409/389/327 389/369/327
f 409/389/327 410/390/328 390/370/328
f 410/390/328 411/391/335 391/371/329
f 411/391/335 412/392/20 392/372/20
f 412/392/20 413/393/36 393/373/36
f 413/393/36 414/394/36 394/374/36
f 414/394/36 415/395/36 395/375/36
f 415/395/36 416/396/36 396/376/36
f 416/396/36 417/397/36 397/377/36
f 417/397/36 418/398/36 398/378/36
f 418/398/36 419/399/36 399/379/36
s 0
f 419/399/36 420/400/36 400/380/36
f 420/400/36 421/401/36 401/381/36
f 421/401/36 422/402/36 402/382/36
f 422/402/523 423/403/523 403/383/523
f 423/403/524 424/37/524 404/35/524
s 1
f 41/384/337 42/423/525 425/404/338
s 0
f 405/385/526 425/404/526 426/405/526
f 406/386/527 426/405/527 427/406/527
s 1
f 427/406/36 428/407/36 408/388/36
f 428/407/36 429/408/327 409/389/327
f 429/408/327 430/409/340 410/390/328
s 0
f 430/409/528 431/410/528 411/391/528
s 1
f 431/410/341 432/411/342 412/392/20
f 432/411/342 433/412/36 413/393/36
f 433/412/36 434/413/36 414/394/36
f 434/413/36 435/414/36 415/395/36
f 435/414/36 436/415/36 416/396/36
f 436/415/36 437/416/36 417/397/36
f 437/416/36 438/417/36 418/398/36
f 438/417/36 439/418/36 419/399/36
s 0
f 439/418/529 440/419/529 420/400/529
f 440/419/530 441/420/530 421/401/530
f 441/420/531 442/421/531 422/402/531
f 442/421/532 443/422/532 423/403/532
f 443/422/533 444/39/533 424/37/533
f 42/423/534 43/444/534 445/424/534
f 425/404/535 445/424/535 446/425/535
f 426/405/536 446/425/536 447/426/536
f 447/426/537 448/427/537 428/407/537
f 448/427/538 449/428/538 429/408/538
f 449/428/539 450/429/539 430/409/539
f 450/429/540 451/430/540 431/410/540
f 451/430/541 452/431/542 432/411/543
f 452/431/544 453/432/544 433/412/544
f 453/432/545 454/433/545 434/413/545
f 454/433/36 455/434/36 435/414/36
f 455/434/36 456/435/36 436/415/36
f 456/435/36 457/436/36 437/416/36
f 457/436/36 458/437/36 438/417/36
f 458/437/36 459/438/36 439/418/36
f 459/438/546 460/439/546 440/419/546
s 1
f 460/439/384 461/440/383 441/420/547
s 0
f 461/440/548 462/441/548 442/421/548
f 462/441/549 463/442/549 443/422/549
s 1
f 463/442/388 464/41/32 444/39/34
s 0
f 44/443/550 465/464/550 445/424/550
f 445/424/551 465/464/551 466/445/551
f 446/425/552 466/445/552 467/446/552
f 467/446/553 468/447/553 448/427/553
f 468/447/554 469/448/554 449/428/554
f 469/448/555 470/449/555 450/429/555
f 470/449/556 471/450/557 451/430/558
f 471/450/559 472/451/559 452/431/559
f 472/451/560 473/452/560 453/432/560
f 473/452/561 474/453/561 454/433/561
f 474/453/562 475/454/562 455/434/562
f 475/454/563 476/455/563 456/435/563
f 476/455/564 477/456/564 457/436/564
f 477/456/565 478/457/565 458/437/565
f 478/457/566 479/458/566 459/438/566
f 479/458/567 480/459/567 460/439/567
f 480/459/568 481/460/568 461/440/568
f 481/460/569 482/461/569 462/441/569
f 482/461/570 483/462/570 463/442/570
s 1
f 483/462/387 484/3/3 464/41/32
s 0
f 2/463/571 45/465/571 465/464/571
f 45/465/572 46/484/572 466/445/572
f 466/445/573 46/484/573 47/466/573
f 47/466/574 48/467/574 468/447/574
f 48/467/575 49/468/576 469/448/577
f 49/468/578 50/469/579 470/449/580
f 50/469/581 51/470/581 471/450/581
f 51/470/582 52/471/582 472/451/582
f 52/471/583 53/472/583 473/452/583
f 53/472/584 54/473/584 474/453/584
f 54/473/585 55/474/585 475/454/585
f 55/474/586 56/475/586 476/455/586
f 56/475/587 57/476/587 477/456/587
f 57/476/588 58/477/588 478/457/588
f 58/477/589 59/478/589 479/458/589
f 59/478/590 60/479/590 480/459/590
f 60/479/591 61/480/591 481/460/591
f 61/480/592 62/481/592 482/461/592
f 62/481/593 63/482/593 483/462/593
s 1
f 63/482/412 64/1/1 484/3/3
s 0
f 23/48/594 86/47/594 87/49/594
f 87/49/595 88/85/595 21/51/595
f 21/51/596 88/85/596 89/52/596
f 20/53/597 89/52/597 90/54/597
f 106/83/598 107/84/598 87/49/598
s 1
f 107/84/100 108/86/66 88/85/68
s 0
f 108/86/599 109/105/600 89/52/601
f 89/52/602 109/105/602 110/87/602
s 1
f 113/91/75 114/110/110 94/61/76
f 94/61/76 114/110/110 115/92/112
s 0
f 95/63/603 115/92/603 116/93/603
s 1
f 126/102/129 127/103/99 107/84/100
s 0
f 127/103/604 128/104/604 108/86/604
f 128/104/605 129/126/605 109/105/605
f 109/105/606 129/126/606 130/106/606
s 1
f 133/109/109 134/131/138 114/110/110
f 114/110/110 134/131/138 135/111/111
f 115/92/112 135/111/111 136/112/113
f 116/93/114 136/112/113 137/113/115
s 0
f 146/123/607 147/124/607 127/103/607
s 1
f 135/111/111 155/132/139 156/133/140
f 136/112/113 156/133/140 157/134/141
f 181/157/171 201/198/215 202/176/193
f 201/198/215 221/218/237 222/199/216
f 326/304/297 327/305/299 307/285/287
f 327/305/299 328/326/309 308/306/300
