# Blender 4.4.1
# www.blender.org
mtllib wall.mtl
o wall
v 16.093157 -0.950912 0.814841
v 16.093157 1.049088 0.814841
v 16.093157 -0.950912 -1.185159
v 16.093157 1.049088 -1.185159
v 18.093157 -0.950912 0.814841
v 18.093157 1.049088 0.814841
v 18.093157 -0.950912 -1.185159
v 18.093157 1.049088 -1.185159
v -31.046160 -0.743754 0.717696
v -31.046160 0.693265 0.717696
v -31.046160 -0.743754 -0.615480
v -31.046160 0.693265 -0.615480
v 31.125311 -0.743754 0.717696
v 31.125311 0.693265 0.717696
v 31.125311 -0.743754 -0.615480
v 31.125311 0.693265 -0.615480
v -11.345442 0.352100 -0.615480
v -13.736261 0.352100 -0.615480
v -11.345442 -0.743754 -0.615480
v -13.736261 -0.743754 -0.615480
v -13.736261 0.352100 0.717696
v -11.345442 0.352100 0.717696
v -13.736261 -0.743754 0.717696
v -11.345442 -0.743754 0.717696
v -2.310593 -0.743754 -0.615480
v 0.822206 -0.743754 -0.615480
v 0.822206 0.693265 -0.615480
v -2.310593 0.693265 -0.615480
v -2.310593 -0.743754 0.717696
v 0.822206 -0.743754 0.717696
v -2.310593 0.693265 0.717696
v 0.822206 0.693265 0.717696
v 0.754721 -0.950912 0.814825
v 0.754721 1.049088 0.814825
v 0.754721 -0.950912 -1.185175
v 0.754721 1.049088 -1.185175
v 2.224096 -0.950912 0.814825
v 2.224096 1.049088 0.814825
v 2.224096 -0.950912 -1.185175
v 2.224096 1.049088 -1.185175
v -4.221985 -0.950912 0.814825
v -4.221985 1.049088 0.814825
v -4.221985 -0.950912 -1.185175
v -4.221985 1.049088 -1.185175
v -2.221985 -0.950912 0.814825
v -2.221985 1.049088 0.814825
v -2.221985 -0.950912 -1.185175
v -2.221985 1.049088 -1.185175
v -18.302160 -0.950912 0.814825
v -18.302160 1.049088 0.814825
v -18.302160 -0.950912 -1.185175
v -18.302160 1.049088 -1.185175
v -16.302160 -0.950912 0.814825
v -16.302160 1.049088 0.814825
v -16.302160 -0.950912 -1.185175
v -16.302160 1.049088 -1.185175
vn -1.0000 -0.0000 -0.0000
vn -0.0000 -0.0000 -1.0000
vn 1.0000 -0.0000 -0.0000
vn -0.0000 -0.0000 1.0000
vn -0.0000 -1.0000 -0.0000
vn -0.0000 1.0000 -0.0000
vt 0.625000 0.000000
vt 0.375000 0.250000
vt 0.375000 0.000000
vt 0.625000 0.250000
vt 0.375000 0.500000
vt 0.625000 0.500000
vt 0.375000 0.750000
vt 0.625000 0.750000
vt 0.375000 1.000000
vt 0.125000 0.750000
vt 0.125000 0.500000
vt 0.875000 0.500000
vt 0.565647 0.319605
vt 0.625000 0.365550
vt 0.625000 0.378147
vt 0.625000 0.871853
vt 0.375000 0.871853
vt 0.625000 1.000000
vt 0.565647 0.920781
vt 0.625000 0.884450
vt 0.253147 0.750000
vt 0.253147 0.500000
vt 0.204219 0.500000
vt 0.240550 0.750000
vt 0.204219 0.750000
vt 0.194605 0.750000
vt 0.875000 0.750000
vt 0.759450 0.500000
vt 0.746853 0.500000
vt 0.746853 0.750000
vt 0.625000 0.165891
vt 0.398976 0.043748
vt 0.398976 0.165891
vt 0.625000 0.584109
vt 0.398976 0.706252
vt 0.625000 0.706252
vt 0.875000 0.706252
vt 0.875000 0.584109
vt 0.580522 0.157219
vt 0.400895 0.057399
vt 0.400895 0.157219
vt 0.400895 0.692601
vt 0.580522 0.592781
vt 0.400895 0.592781
vt 0.375000 0.365550
vt 0.375000 0.329219
vt 0.565647 0.329219
vt 0.375000 0.319605
vt 0.375000 0.378147
vt 0.375000 0.930395
vt 0.565647 0.930395
vt 0.375000 0.920781
vt 0.375000 0.884450
vt 0.240550 0.500000
vt 0.194605 0.500000
vt 0.759450 0.750000
vt 0.625000 0.043748
vt 0.398976 0.584109
vt 0.580522 0.057399
vt 0.580522 0.692601
s 0
usemtl 壁
f 2/1/1 3/2/1 1/3/1
f 4/4/2 7/5/2 3/2/2
f 8/6/3 5/7/3 7/5/3
f 6/8/4 1/9/4 5/7/4
f 7/5/5 1/10/5 3/11/5
f 4/12/6 6/8/6 8/6/6
f 10/1/1 11/2/1 9/3/1
f 18/13/2 12/4/2 28/14/2
f 15/5/2 27/15/2 16/6/2
f 16/6/3 13/7/3 15/5/3
f 13/7/4 32/16/4 30/17/4
f 10/18/4 22/19/4 31/20/4
f 15/5/5 30/21/5 26/22/5
f 19/23/5 29/24/5 24/25/5
f 11/11/5 23/26/5 9/10/5
f 10/27/6 28/28/6 12/12/6
f 14/8/6 27/29/6 32/30/6
f 18/31/3 23/32/3 20/33/3
f 17/34/1 24/35/1 22/36/1
f 17/34/5 21/37/5 18/38/5
f 28/39/3 29/40/3 25/41/3
f 30/42/1 27/43/1 26/44/1
f 34/1/1 35/2/1 33/3/1
f 36/4/2 39/5/2 35/2/2
f 40/6/3 37/7/3 39/5/3
f 38/8/4 33/9/4 37/7/4
f 39/5/5 33/10/5 35/11/5
f 36/12/6 38/8/6 40/6/6
f 42/1/1 43/2/1 41/3/1
f 44/4/2 47/5/2 43/2/2
f 48/6/3 45/7/3 47/5/3
f 46/8/4 41/9/4 45/7/4
f 47/5/5 41/10/5 43/11/5
f 44/12/6 46/8/6 48/6/6
f 50/1/1 51/2/1 49/3/1
f 52/4/2 55/5/2 51/2/2
f 56/6/3 53/7/3 55/5/3
f 54/8/4 49/9/4 53/7/4
f 55/5/5 49/10/5 51/11/5
f 52/12/6 54/8/6 56/6/6
f 2/1/1 4/4/1 3/2/1
f 4/4/2 8/6/2 7/5/2
f 8/6/3 6/8/3 5/7/3
f 6/8/4 2/18/4 1/9/4
f 7/5/5 5/7/5 1/10/5
f 4/12/6 2/27/6 6/8/6
f 10/1/1 12/4/1 11/2/1
f 25/45/2 19/46/2 17/47/2
f 18/13/2 20/48/2 11/2/2
f 28/14/2 25/45/2 17/47/2
f 18/13/2 11/2/2 12/4/2
f 28/14/2 17/47/2 18/13/2
f 15/5/2 26/49/2 27/15/2
f 16/6/3 14/8/3 13/7/3
f 13/7/4 14/8/4 32/16/4
f 10/18/4 9/9/4 23/50/4
f 10/18/4 23/50/4 21/51/4
f 24/52/4 29/53/4 31/20/4
f 10/18/4 21/51/4 22/19/4
f 22/19/4 24/52/4 31/20/4
f 15/5/5 13/7/5 30/21/5
f 19/23/5 25/54/5 29/24/5
f 11/11/5 20/55/5 23/26/5
f 10/27/6 31/56/6 28/28/6
f 14/8/6 16/6/6 27/29/6
f 18/31/3 21/57/3 23/32/3
f 17/34/1 19/58/1 24/35/1
f 17/34/5 22/36/5 21/37/5
f 28/39/3 31/59/3 29/40/3
f 30/42/1 32/60/1 27/43/1
f 34/1/1 36/4/1 35/2/1
f 36/4/2 40/6/2 39/5/2
f 40/6/3 38/8/3 37/7/3
f 38/8/4 34/18/4 33/9/4
f 39/5/5 37/7/5 33/10/5
f 36/12/6 34/27/6 38/8/6
f 42/1/1 44/4/1 43/2/1
f 44/4/2 48/6/2 47/5/2
f 48/6/3 46/8/3 45/7/3
f 46/8/4 42/18/4 41/9/4
f 47/5/5 45/7/5 41/10/5
f 44/12/6 42/27/6 46/8/6
f 50/1/1 52/4/1 51/2/1
f 52/4/2 56/6/2 55/5/2
f 56/6/3 54/8/3 53/7/3
f 54/8/4 50/18/4 49/9/4
f 55/5/5 53/7/5 49/10/5
f 52/12/6 50/27/6 54/8/6
