# Blender 4.4.1
# www.blender.org
mtllib billding.mtl
o billding
v -32.799999 -22.250000 34.155933
v -32.799999 22.250000 34.155933
v -32.799999 -22.250000 -34.155933
v -32.799999 22.250000 -34.155933
v 32.799999 -22.250000 34.155933
v 32.799999 22.250000 34.155933
v 32.799999 -22.250000 -34.155933
v 32.799999 22.250000 -34.155933
v -131.700623 -23.004751 1044.410278
v -131.700623 32.995247 1044.410278
v -131.700623 -23.004751 988.410339
v -131.700623 32.995247 988.410339
v -101.700623 -23.004751 1044.410278
v -101.700623 32.995247 1044.410278
v -101.700623 -23.004751 988.410339
v -101.700623 32.995247 988.410339
v -180.431885 -22.250000 962.557190
v -180.431885 22.249998 962.557190
v -180.431885 -22.250000 936.257263
v -180.431885 22.249998 936.257263
v -114.831886 -22.250000 962.557190
v -114.831886 22.249998 962.557190
v -114.831886 -22.250000 936.257263
v -114.831886 22.249998 936.257263
v -19.959761 -23.004751 1044.410278
v -19.959761 32.995247 1044.410278
v -19.959761 -23.004751 988.410339
v -19.959761 32.995247 988.410339
v 10.040239 -23.004751 1044.410278
v 10.040239 32.995247 1044.410278
v 10.040239 -23.004751 988.410339
v 10.040239 32.995247 988.410339
v -68.375580 -22.250000 962.557190
v -68.375580 22.249998 962.557190
v -68.375580 -22.250000 936.257263
v -68.375580 22.249998 936.257263
v -2.775578 -22.250000 962.557190
v -2.775578 22.249998 962.557190
v -2.775578 -22.250000 936.257263
v -2.775578 22.249998 936.257263
v -145.912537 -23.004751 901.547791
v -145.912537 32.995247 901.547791
v -145.912537 -23.004751 845.547852
v -145.912537 32.995247 845.547852
v -115.912544 -23.004751 901.547791
v -115.912544 32.995247 901.547791
v -115.912544 -23.004751 845.547852
v -115.912544 32.995247 845.547852
v 15.375360 -24.085863 881.804626
v 15.375360 45.914131 881.804626
v 15.375360 -24.085863 853.304626
v 15.375360 45.914131 853.304626
v 45.375362 -24.085863 881.804626
v 45.375362 45.914131 881.804626
v 45.375362 -24.085863 853.304626
v 45.375362 45.914131 853.304626
v -34.867928 -22.578156 916.318909
v -34.867928 21.446293 916.318909
v -34.867928 -22.578156 830.776672
v -34.867928 21.446293 830.776672
v -4.867926 -22.578156 916.318909
v -4.867926 21.446293 916.318909
v -4.867926 -22.578156 830.776672
v -4.867926 21.446293 830.776672
v -131.700623 -23.004751 640.146423
v -131.700623 32.995247 640.146423
v -131.700623 -23.004751 584.146484
v -131.700623 32.995247 584.146484
v -101.700623 -23.004751 640.146423
v -101.700623 32.995247 640.146423
v -101.700623 -23.004751 584.146484
v -101.700623 32.995247 584.146484
v -180.431885 -22.250000 558.293396
v -180.431885 22.249998 558.293396
v -180.431885 -22.250000 531.993408
v -180.431885 22.249998 531.993408
v -114.831886 -22.250000 558.293396
v -114.831886 22.249998 558.293396
v -114.831886 -22.250000 531.993408
v -114.831886 22.249998 531.993408
v -19.959761 -23.004751 640.146423
v -19.959761 32.995247 640.146423
v -19.959761 -23.004751 584.146484
v -19.959761 32.995247 584.146484
v 10.040239 -23.004751 640.146423
v 10.040239 32.995247 640.146423
v 10.040239 -23.004751 584.146484
v 10.040239 32.995247 584.146484
v -41.520329 -22.250000 558.293396
v -41.520329 22.249998 558.293396
v -41.520329 -22.250000 531.993408
v -41.520329 22.249998 531.993408
v 24.079672 -22.250000 558.293396
v 24.079672 22.249998 558.293396
v 24.079672 -22.250000 531.993408
v 24.079672 22.249998 531.993408
v -145.912537 -23.004751 497.283966
v -145.912537 32.995247 497.283966
v -145.912537 -23.004751 441.283936
v -145.912537 32.995247 441.283936
v -115.912544 -23.004751 497.283966
v -115.912544 32.995247 497.283966
v -115.912544 -23.004751 441.283936
v -115.912544 32.995247 441.283936
v -92.341568 -24.085863 483.533936
v -92.341568 45.914131 483.533936
v -92.341568 -24.085863 455.033966
v -92.341568 45.914131 455.033966
v -62.341568 -24.085863 483.533936
v -62.341568 45.914131 483.533936
v -62.341568 -24.085863 455.033966
v -62.341568 45.914131 455.033966
v -34.867928 -29.640491 512.055115
v -34.867928 12.290633 512.055115
v -34.867928 -29.640491 426.512787
v -34.867928 12.290633 426.512787
v -4.867926 -29.640491 512.055115
v -4.867926 12.290633 512.055115
v -4.867926 -29.640491 426.512787
v -4.867926 12.290633 426.512787
v 50.146469 -23.004751 959.794495
v 50.146469 32.995247 959.794495
v 50.146469 -23.004751 903.794556
v 50.146469 32.995247 903.794556
v 80.146469 -23.004751 959.794495
v 80.146469 32.995247 959.794495
v 80.146469 -23.004751 903.794556
v 80.146469 32.995247 903.794556
v 37.591766 -23.004751 1065.430664
v 37.591766 32.995247 1065.430664
v 37.591766 -23.004751 992.772827
v 37.591766 32.995247 992.772827
v 67.591766 -23.004751 1065.430664
v 67.591766 32.995247 1065.430664
v 67.591766 -23.004751 992.772827
v 67.591766 32.995247 992.772827
v -186.521790 -24.085863 1011.141479
v -186.521790 45.914131 1011.141479
v -186.521790 -24.085863 982.641541
v -186.521790 45.914131 982.641541
v -156.521805 -24.085863 1011.141479
v -156.521805 45.914131 1011.141479
v -156.521805 -24.085863 982.641541
v -156.521805 45.914131 982.641541
v -195.555191 -22.250000 636.039368
v -195.555191 22.249998 636.039368
v -195.555191 -22.250000 609.739380
v -195.555191 22.249998 609.739380
v -129.955185 -22.250000 636.039368
v -129.955185 22.249998 636.039368
v -129.955185 -22.250000 609.739380
v -129.955185 22.249998 609.739380
v -131.700623 -23.004751 383.874268
v -131.700623 32.995247 383.874268
v -131.700623 -23.004751 327.874268
v -131.700623 32.995247 327.874268
v -101.700623 -23.004751 383.874268
v -101.700623 32.995247 383.874268
v -101.700623 -23.004751 327.874268
v -101.700623 32.995247 327.874268
v -180.431885 -22.250000 302.021240
v -180.431885 22.249998 302.021240
v -180.431885 -22.250000 275.721222
v -180.431885 22.249998 275.721222
v -114.831886 -22.250000 302.021240
v -114.831886 22.249998 302.021240
v -114.831886 -22.250000 275.721222
v -114.831886 22.249998 275.721222
v -19.959761 -23.004751 383.874268
v -19.959761 32.995247 383.874268
v -19.959761 -23.004751 327.874268
v -19.959761 32.995247 327.874268
v 10.040239 -23.004751 383.874268
v 10.040239 32.995247 383.874268
v 10.040239 -23.004751 327.874268
v 10.040239 32.995247 327.874268
v -41.520329 -22.250000 302.021240
v -41.520329 22.249998 302.021240
v -41.520329 -22.250000 275.721222
v -41.520329 22.249998 275.721222
v 24.079672 -22.250000 302.021240
v 24.079672 22.249998 302.021240
v 24.079672 -22.250000 275.721222
v 24.079672 22.249998 275.721222
v -145.912537 -23.004751 241.011780
v -145.912537 32.995247 241.011780
v -145.912537 -23.004751 185.011780
v -145.912537 32.995247 185.011780
v -115.912544 -23.004751 241.011780
v -115.912544 32.995247 241.011780
v -115.912544 -23.004751 185.011780
v -115.912544 32.995247 185.011780
v -140.108429 2.875089 158.146179
v -65.313080 72.823303 208.073624
v -124.285454 2.875089 134.442078
v -49.490108 72.823303 184.369553
v -124.789040 -20.804966 168.372177
v -49.993694 49.143250 218.299652
v -108.966072 -20.804966 144.668106
v -34.170723 49.143250 194.595551
v -39.238155 -24.640030 255.782944
v -39.238155 48.900322 255.782944
v -39.238155 -24.640030 170.240601
v -39.238155 48.900322 170.240601
v -9.238154 -24.640030 255.782944
v -9.238154 48.900322 255.782944
v -9.238154 -24.640030 170.240601
v -9.238154 48.900322 170.240601
v -166.453384 -30.234407 423.453064
v -166.453384 14.265592 423.453064
v -166.453384 -30.234407 397.153046
v -166.453384 14.265592 397.153046
v -100.853394 -30.234407 423.453064
v -100.853394 14.265592 423.453064
v -100.853394 -30.234407 397.153046
v -100.853394 14.265592 397.153046
v -109.299637 -17.050497 121.782578
v -109.299637 12.781681 121.782578
v -151.410355 -17.050497 121.782578
v -151.410355 12.781681 121.782578
v -109.299644 -17.050497 56.182575
v -109.299644 12.781681 56.182575
v -151.410370 -17.050497 56.182575
v -151.410370 12.781681 56.182575
v -32.799999 -22.250000 144.879333
v -32.799999 22.249998 144.879333
v -32.799999 -22.250000 76.567459
v -32.799999 22.249998 76.567459
v 32.799999 -22.250000 144.879333
v 32.799999 22.249998 144.879333
v 32.799999 -22.250000 76.567459
v 32.799999 22.249998 76.567459
v -25.703693 -4.195051 79.082985
v -25.703693 4.195049 79.082985
v -25.703693 -4.195051 28.903576
v -25.703693 4.195049 28.903576
v -13.658113 -4.195051 79.082985
v -13.658113 4.195049 79.082985
v -13.658113 -4.195051 28.903576
v -13.658113 4.195049 28.903576
v 15.721618 -4.195051 79.082985
v 15.721618 4.195049 79.082985
v 15.721618 -4.195051 28.903576
v 15.721618 4.195049 28.903576
v 27.767199 -4.195051 79.082985
v 27.767199 4.195049 79.082985
v 27.767199 -4.195051 28.903576
v 27.767199 4.195049 28.903576
v -6.502990 -23.004751 1268.787720
v -6.502990 32.995247 1268.787720
v -6.502982 -23.004751 1324.787720
v -6.502982 32.995247 1324.787720
v -36.502991 -23.004751 1268.787720
v -36.502991 32.995247 1268.787720
v -36.502983 -23.004751 1324.787720
v -36.502983 32.995247 1324.787720
v 42.228291 -22.250000 1350.640991
v 42.228291 22.249998 1350.640991
v 42.228294 -22.250000 1376.940918
v 42.228294 22.249998 1376.940918
v -23.371712 -22.250000 1350.640991
v -23.371712 22.249998 1350.640991
v -23.371706 -22.250000 1376.940918
v -23.371706 22.249998 1376.940918
v -118.243858 -23.004751 1268.787720
v -118.243858 32.995247 1268.787720
v -118.243851 -23.004751 1324.787720
v -118.243851 32.995247 1324.787720
v -148.243866 -23.004751 1268.787720
v -148.243866 32.995247 1268.787720
v -148.243851 -23.004751 1324.787720
v -148.243851 32.995247 1324.787720
v -96.683273 -22.250000 1350.640991
v -96.683273 22.249998 1350.640991
v -96.683273 -22.250000 1376.940918
v -96.683273 22.249998 1376.940918
v -162.283279 -22.250000 1350.640991
v -162.283279 22.249998 1350.640991
v -162.283279 -22.250000 1376.940918
v -162.283279 22.249998 1376.940918
v 7.708946 -23.004751 1411.650146
v 7.708946 32.995247 1411.650146
v 7.708953 -23.004751 1467.650269
v 7.708953 32.995247 1467.650269
v -22.291056 -23.004751 1411.650146
v -22.291056 32.995247 1411.650146
v -22.291048 -23.004751 1467.650269
v -22.291048 32.995247 1467.650269
v -45.862026 -24.085863 1425.400146
v -45.862026 45.914131 1425.400146
v -45.862022 -24.085863 1453.900269
v -45.862022 45.914131 1453.900269
v -75.862022 -24.085863 1425.400146
v -75.862022 45.914131 1425.400146
v -75.862022 -24.085863 1453.900269
v -75.862022 45.914131 1453.900269
v -134.313919 -9.883504 1642.845703
v -134.313919 32.047619 1642.845703
v -134.313904 -9.883504 1728.388062
v -134.313904 32.047619 1728.388062
v -164.313934 -9.883504 1642.845703
v -164.313934 32.047619 1642.845703
v -164.313919 -9.883504 1728.388062
v -164.313919 32.047619 1728.388062
v 57.351593 -22.250000 1272.895020
v 57.351593 22.249998 1272.895020
v 57.351597 -22.250000 1299.194946
v 57.351597 22.249998 1299.194946
v -8.248410 -22.250000 1272.895020
v -8.248410 22.249998 1272.895020
v -8.248405 -22.250000 1299.194946
v -8.248405 22.249998 1299.194946
v -155.106766 -23.004751 1878.274048
v -155.106766 32.995247 1878.274048
v -155.106750 -23.004751 1934.274170
v -155.106750 32.995247 1934.274170
v -221.159729 -23.004751 1878.274048
v -221.159729 32.995247 1878.274048
v -221.159714 -23.004751 1934.274170
v -221.159714 32.995247 1934.274170
v 42.228306 -22.250000 1606.913086
v 42.228306 22.249998 1606.913086
v 42.228310 -22.250000 1633.213135
v 42.228310 22.249998 1633.213135
v -23.371696 -22.250000 1606.913086
v -23.371696 22.249998 1606.913086
v -23.371689 -22.250000 1633.213135
v -23.371689 22.249998 1633.213135
v -118.243828 -23.004751 1762.568359
v -118.243828 32.995247 1762.568359
v -118.243820 -23.004751 1818.568359
v -118.243820 32.995247 1818.568359
v -148.243820 -23.004751 1762.568359
v -148.243820 32.995247 1762.568359
v -148.243805 -23.004751 1818.568359
v -148.243805 32.995247 1818.568359
v -96.683258 -22.250000 1606.913086
v -96.683258 22.249998 1606.913086
v -96.683258 -22.250000 1633.213135
v -96.683258 22.249998 1633.213135
v -162.283264 -22.250000 1606.913086
v -162.283264 22.249998 1606.913086
v -162.283264 -22.250000 1633.213135
v -162.283264 22.249998 1633.213135
v 7.708969 -23.004751 1667.922363
v 7.708969 32.995247 1667.922363
v 7.708977 -23.004751 1723.922485
v 7.708977 32.995247 1723.922485
v -22.291033 -23.004751 1667.922363
v -22.291033 32.995247 1667.922363
v -22.291023 -23.004751 1723.922485
v -22.291023 32.995247 1723.922485
v 1.904858 2.875089 1750.787964
v -72.890488 72.823303 1700.860596
v -13.918118 2.875089 1774.492065
v -88.713463 72.823303 1724.564697
v -13.414533 -20.804966 1740.562012
v -88.209877 49.143250 1690.634521
v -29.237507 -20.804966 1764.266113
v -104.032852 49.143250 1714.338623
v -98.965424 -24.640030 1653.151245
v -98.965424 48.900322 1653.151245
v -98.965408 -24.640030 1738.693604
v -98.965408 48.900322 1738.693604
v -128.965424 -24.640030 1653.151245
v -128.965424 48.900322 1653.151245
v -128.965408 -24.640030 1738.693604
v -128.965408 48.900322 1738.693604
v 28.249792 -30.234407 1485.481201
v 28.249792 14.265592 1485.481201
v 28.249798 -30.234407 1511.781128
v 28.249798 14.265592 1511.781128
v -37.350208 -30.234407 1485.481201
v -37.350208 14.265592 1485.481201
v -37.350204 -30.234407 1511.781128
v -37.350204 14.265592 1511.781128
v -28.903917 -17.050497 1787.151611
v -28.903917 12.781681 1787.151611
v 13.206802 -17.050497 1787.151611
v 13.206802 12.781681 1787.151611
v -28.903913 -17.050497 1852.751587
v -28.903913 12.781681 1852.751587
v 13.206806 -17.050497 1852.751587
v 13.206806 12.781681 1852.751587
v -105.403557 -22.250000 1415.731445
v -105.403557 31.271795 1415.731445
v -105.403549 -22.250000 1484.043335
v -105.403549 31.271795 1484.043335
v -171.003540 -22.250000 1415.731445
v -171.003540 31.271795 1415.731445
v -171.003540 -22.250000 1484.043335
v -171.003540 31.271795 1484.043335
v -105.403557 -22.250000 1526.454834
v -105.403557 52.846725 1526.454834
v -105.403549 -22.250000 1594.766724
v -105.403549 52.846725 1594.766724
v -171.003540 -22.250000 1526.454834
v -171.003540 52.846725 1526.454834
v -171.003540 -22.250000 1594.766724
v -171.003540 52.846725 1594.766724
v -41.525524 -22.250000 1524.696167
v -41.525524 22.249998 1524.696167
v 26.786346 -22.250000 1524.696167
v 26.786346 22.249998 1524.696167
v -41.525509 -22.250000 1590.296143
v -41.525509 22.249998 1590.296143
v 26.786364 -22.250000 1590.296143
v 26.786364 22.249998 1590.296143
v -109.922241 2.698995 1531.792603
v -109.922241 11.089096 1531.792603
v -40.428501 2.698995 1531.792603
v -40.428501 11.089096 1531.792603
v -109.922241 2.698995 1543.838013
v -109.922241 11.089096 1543.838013
v -40.428501 2.698995 1543.838013
v -40.428501 11.089096 1543.838013
v -109.445847 2.698995 1573.217896
v -109.445847 11.089096 1573.217896
v -43.532806 2.698995 1573.217896
v -43.532806 11.089096 1573.217896
v -109.445847 2.698995 1585.263428
v -109.445847 11.089096 1585.263428
v -43.532806 2.698995 1585.263428
v -43.532806 11.089096 1585.263428
v 29.568111 -23.004751 1887.843384
v 29.568111 32.995247 1887.843384
v 29.568119 -23.004751 1924.704590
v 29.568119 32.995247 1924.704590
v -36.484837 -23.004751 1887.843506
v -36.484837 32.995247 1887.843506
v -36.484829 -23.004751 1924.704834
v -36.484829 32.995247 1924.704834
v -112.499870 -4.195051 1481.527832
v -112.499870 4.195049 1481.527832
v -112.499863 -4.195051 1531.707153
v -112.499863 4.195049 1531.707153
v -124.545456 -4.195051 1481.527832
v -124.545456 4.195049 1481.527832
v -124.545448 -4.195051 1531.707153
v -124.545448 4.195049 1531.707153
v -153.925201 -4.195051 1481.527832
v -153.925201 4.195049 1481.527832
v -153.925186 -4.195051 1531.707153
v -153.925186 4.195049 1531.707153
v -165.970779 -4.195051 1481.527832
v -165.970779 4.195049 1481.527832
v -165.970764 -4.195051 1531.707153
v -165.970764 4.195049 1531.707153
vn -1.0000 -0.0000 -0.0000
vn -0.0000 -0.0000 -1.0000
vn 1.0000 -0.0000 -0.0000
vn -0.0000 -0.0000 1.0000
vn -0.0000 -1.0000 -0.0000
vn -0.0000 1.0000 -0.0000
vn -0.5106 0.7893 -0.3409
vn 0.5552 -0.0000 -0.8317
vn 0.5106 -0.7893 0.3409
vn -0.5552 -0.0000 0.8317
vn -0.6565 -0.6140 -0.4382
vn 0.6565 0.6140 0.4382
vn 0.5106 0.7893 0.3409
vn -0.5106 -0.7893 -0.3409
vn 0.6565 -0.6140 0.4382
vn -0.6565 0.6140 -0.4382
vt 0.625000 0.000000
vt 0.375000 0.250000
vt 0.375000 0.000000
vt 0.625000 0.250000
vt 0.375000 0.500000
vt 0.625000 0.500000
vt 0.375000 0.750000
vt 0.625000 0.750000
vt 0.375000 1.000000
vt 0.125000 0.750000
vt 0.125000 0.500000
vt 0.875000 0.500000
vt 0.625000 1.000000
vt 0.875000 0.750000
s 0
usemtl マテリアル
f 2/1/1 3/2/1 1/3/1
f 4/4/2 7/5/2 3/2/2
f 8/6/3 5/7/3 7/5/3
f 6/8/4 1/9/4 5/7/4
f 7/5/5 1/10/5 3/11/5
f 4/12/6 6/8/6 8/6/6
f 10/1/1 11/2/1 9/3/1
f 12/4/2 15/5/2 11/2/2
f 16/6/3 13/7/3 15/5/3
f 14/8/4 9/9/4 13/7/4
f 15/5/5 9/10/5 11/11/5
f 12/12/6 14/8/6 16/6/6
f 18/1/1 19/2/1 17/3/1
f 20/4/2 23/5/2 19/2/2
f 24/6/3 21/7/3 23/5/3
f 22/8/4 17/9/4 21/7/4
f 23/5/5 17/10/5 19/11/5
f 20/12/6 22/8/6 24/6/6
f 26/1/1 27/2/1 25/3/1
f 28/4/2 31/5/2 27/2/2
f 32/6/3 29/7/3 31/5/3
f 30/8/4 25/9/4 29/7/4
f 31/5/5 25/10/5 27/11/5
f 28/12/6 30/8/6 32/6/6
f 34/1/1 35/2/1 33/3/1
f 36/4/2 39/5/2 35/2/2
f 40/6/3 37/7/3 39/5/3
f 38/8/4 33/9/4 37/7/4
f 39/5/5 33/10/5 35/11/5
f 36/12/6 38/8/6 40/6/6
f 42/1/1 43/2/1 41/3/1
f 44/4/2 47/5/2 43/2/2
f 48/6/3 45/7/3 47/5/3
f 46/8/4 41/9/4 45/7/4
f 47/5/5 41/10/5 43/11/5
f 44/12/6 46/8/6 48/6/6
f 50/1/1 51/2/1 49/3/1
f 52/4/2 55/5/2 51/2/2
f 56/6/3 53/7/3 55/5/3
f 54/8/4 49/9/4 53/7/4
f 55/5/5 49/10/5 51/11/5
f 52/12/6 54/8/6 56/6/6
f 58/1/1 59/2/1 57/3/1
f 60/4/2 63/5/2 59/2/2
f 64/6/3 61/7/3 63/5/3
f 62/8/4 57/9/4 61/7/4
f 63/5/5 57/10/5 59/11/5
f 60/12/6 62/8/6 64/6/6
f 66/1/1 67/2/1 65/3/1
f 68/4/2 71/5/2 67/2/2
f 72/6/3 69/7/3 71/5/3
f 70/8/4 65/9/4 69/7/4
f 71/5/5 65/10/5 67/11/5
f 68/12/6 70/8/6 72/6/6
f 74/1/1 75/2/1 73/3/1
f 76/4/2 79/5/2 75/2/2
f 80/6/3 77/7/3 79/5/3
f 78/8/4 73/9/4 77/7/4
f 79/5/5 73/10/5 75/11/5
f 76/12/6 78/8/6 80/6/6
f 82/1/1 83/2/1 81/3/1
f 84/4/2 87/5/2 83/2/2
f 88/6/3 85/7/3 87/5/3
f 86/8/4 81/9/4 85/7/4
f 87/5/5 81/10/5 83/11/5
f 84/12/6 86/8/6 88/6/6
f 90/1/1 91/2/1 89/3/1
f 92/4/2 95/5/2 91/2/2
f 96/6/3 93/7/3 95/5/3
f 94/8/4 89/9/4 93/7/4
f 95/5/5 89/10/5 91/11/5
f 92/12/6 94/8/6 96/6/6
f 98/1/1 99/2/1 97/3/1
f 100/4/2 103/5/2 99/2/2
f 104/6/3 101/7/3 103/5/3
f 102/8/4 97/9/4 101/7/4
f 103/5/5 97/10/5 99/11/5
f 100/12/6 102/8/6 104/6/6
f 106/1/1 107/2/1 105/3/1
f 108/4/2 111/5/2 107/2/2
f 112/6/3 109/7/3 111/5/3
f 110/8/4 105/9/4 109/7/4
f 111/5/5 105/10/5 107/11/5
f 108/12/6 110/8/6 112/6/6
f 114/1/1 115/2/1 113/3/1
f 116/4/2 119/5/2 115/2/2
f 120/6/3 117/7/3 119/5/3
f 118/8/4 113/9/4 117/7/4
f 119/5/5 113/10/5 115/11/5
f 116/12/6 118/8/6 120/6/6
f 122/1/1 123/2/1 121/3/1
f 124/4/2 127/5/2 123/2/2
f 128/6/3 125/7/3 127/5/3
f 126/8/4 121/9/4 125/7/4
f 127/5/5 121/10/5 123/11/5
f 124/12/6 126/8/6 128/6/6
f 130/1/1 131/2/1 129/3/1
f 132/4/2 135/5/2 131/2/2
f 136/6/3 133/7/3 135/5/3
f 134/8/4 129/9/4 133/7/4
f 135/5/5 129/10/5 131/11/5
f 132/12/6 134/8/6 136/6/6
f 138/1/1 139/2/1 137/3/1
f 140/4/2 143/5/2 139/2/2
f 144/6/3 141/7/3 143/5/3
f 142/8/4 137/9/4 141/7/4
f 143/5/5 137/10/5 139/11/5
f 140/12/6 142/8/6 144/6/6
f 146/1/1 147/2/1 145/3/1
f 148/4/2 151/5/2 147/2/2
f 152/6/3 149/7/3 151/5/3
f 150/8/4 145/9/4 149/7/4
f 151/5/5 145/10/5 147/11/5
f 148/12/6 150/8/6 152/6/6
f 154/1/1 155/2/1 153/3/1
f 156/4/2 159/5/2 155/2/2
f 160/6/3 157/7/3 159/5/3
f 158/8/4 153/9/4 157/7/4
f 159/5/5 153/10/5 155/11/5
f 156/12/6 158/8/6 160/6/6
f 162/1/1 163/2/1 161/3/1
f 164/4/2 167/5/2 163/2/2
f 168/6/3 165/7/3 167/5/3
f 166/8/4 161/9/4 165/7/4
f 167/5/5 161/10/5 163/11/5
f 164/12/6 166/8/6 168/6/6
f 170/1/1 171/2/1 169/3/1
f 172/4/2 175/5/2 171/2/2
f 176/6/3 173/7/3 175/5/3
f 174/8/4 169/9/4 173/7/4
f 175/5/5 169/10/5 171/11/5
f 172/12/6 174/8/6 176/6/6
f 178/1/1 179/2/1 177/3/1
f 180/4/2 183/5/2 179/2/2
f 184/6/3 181/7/3 183/5/3
f 182/8/4 177/9/4 181/7/4
f 183/5/5 177/10/5 179/11/5
f 180/12/6 182/8/6 184/6/6
f 186/1/1 187/2/1 185/3/1
f 188/4/2 191/5/2 187/2/2
f 192/6/3 189/7/3 191/5/3
f 190/8/4 185/9/4 189/7/4
f 191/5/5 185/10/5 187/11/5
f 188/12/6 190/8/6 192/6/6
f 194/1/7 195/2/7 193/3/7
f 196/4/8 199/5/8 195/2/8
f 200/6/9 197/7/9 199/5/9
f 197/7/10 194/13/10 193/9/10
f 199/5/11 193/10/11 195/11/11
f 200/6/12 194/14/12 198/8/12
f 202/1/1 203/2/1 201/3/1
f 204/4/2 207/5/2 203/2/2
f 208/6/3 205/7/3 207/5/3
f 206/8/4 201/9/4 205/7/4
f 207/5/5 201/10/5 203/11/5
f 204/12/6 206/8/6 208/6/6
f 210/1/1 211/2/1 209/3/1
f 212/4/2 215/5/2 211/2/2
f 216/6/3 213/7/3 215/5/3
f 214/8/4 209/9/4 213/7/4
f 215/5/5 209/10/5 211/11/5
f 212/12/6 214/8/6 216/6/6
f 218/1/4 219/2/4 217/3/4
f 220/4/1 223/5/1 219/2/1
f 224/6/2 221/7/2 223/5/2
f 222/8/3 217/9/3 221/7/3
f 223/5/5 217/10/5 219/11/5
f 220/12/6 222/8/6 224/6/6
f 226/1/1 227/2/1 225/3/1
f 228/4/2 231/5/2 227/2/2
f 232/6/3 229/7/3 231/5/3
f 230/8/4 225/9/4 229/7/4
f 231/5/5 225/10/5 227/11/5
f 228/12/6 230/8/6 232/6/6
f 234/1/1 235/2/1 233/3/1
f 236/4/2 239/5/2 235/2/2
f 240/6/3 237/7/3 239/5/3
f 238/8/4 233/9/4 237/7/4
f 239/5/5 233/10/5 235/11/5
f 236/12/6 238/8/6 240/6/6
f 242/1/1 243/2/1 241/3/1
f 244/4/2 247/5/2 243/2/2
f 248/6/3 245/7/3 247/5/3
f 246/8/4 241/9/4 245/7/4
f 247/5/5 241/10/5 243/11/5
f 244/12/6 246/8/6 248/6/6
f 250/1/3 251/2/3 249/3/3
f 252/4/4 255/5/4 251/2/4
f 256/6/1 253/7/1 255/5/1
f 254/8/2 249/9/2 253/7/2
f 255/5/5 249/10/5 251/11/5
f 256/6/6 250/14/6 254/8/6
f 258/1/3 259/2/3 257/3/3
f 260/4/4 263/5/4 259/2/4
f 264/6/1 261/7/1 263/5/1
f 262/8/2 257/9/2 261/7/2
f 263/5/5 257/10/5 259/11/5
f 264/6/6 258/14/6 262/8/6
f 266/1/3 267/2/3 265/3/3
f 268/4/4 271/5/4 267/2/4
f 272/6/1 269/7/1 271/5/1
f 270/8/2 265/9/2 269/7/2
f 271/5/5 265/10/5 267/11/5
f 272/6/6 266/14/6 270/8/6
f 274/1/3 275/2/3 273/3/3
f 276/4/4 279/5/4 275/2/4
f 280/6/1 277/7/1 279/5/1
f 278/8/2 273/9/2 277/7/2
f 279/5/5 273/10/5 275/11/5
f 276/12/6 278/8/6 280/6/6
f 282/1/3 283/2/3 281/3/3
f 284/4/4 287/5/4 283/2/4
f 288/6/1 285/7/1 287/5/1
f 286/8/2 281/9/2 285/7/2
f 287/5/5 281/10/5 283/11/5
f 288/6/6 282/14/6 286/8/6
f 290/1/3 291/2/3 289/3/3
f 292/4/4 295/5/4 291/2/4
f 296/6/1 293/7/1 295/5/1
f 294/8/2 289/9/2 293/7/2
f 295/5/5 289/10/5 291/11/5
f 292/12/6 294/8/6 296/6/6
f 298/1/3 299/2/3 297/3/3
f 300/4/4 303/5/4 299/2/4
f 304/6/1 301/7/1 303/5/1
f 302/8/2 297/9/2 301/7/2
f 303/5/5 297/10/5 299/11/5
f 300/12/6 302/8/6 304/6/6
f 306/1/3 307/2/3 305/3/3
f 308/4/4 311/5/4 307/2/4
f 312/6/1 309/7/1 311/5/1
f 310/8/2 305/9/2 309/7/2
f 311/5/5 305/10/5 307/11/5
f 312/6/6 306/14/6 310/8/6
f 314/1/3 315/2/3 313/3/3
f 316/4/4 319/5/4 315/2/4
f 320/6/1 317/7/1 319/5/1
f 318/8/2 313/9/2 317/7/2
f 319/5/5 313/10/5 315/11/5
f 320/6/6 314/14/6 318/8/6
f 322/1/3 323/2/3 321/3/3
f 324/4/4 327/5/4 323/2/4
f 328/6/1 325/7/1 327/5/1
f 326/8/2 321/9/2 325/7/2
f 327/5/5 321/10/5 323/11/5
f 328/6/6 322/14/6 326/8/6
f 330/1/3 331/2/3 329/3/3
f 332/4/4 335/5/4 331/2/4
f 336/6/1 333/7/1 335/5/1
f 334/8/2 329/9/2 333/7/2
f 335/5/5 329/10/5 331/11/5
f 336/6/6 330/14/6 334/8/6
f 338/1/3 339/2/3 337/3/3
f 340/4/4 343/5/4 339/2/4
f 344/6/1 341/7/1 343/5/1
f 342/8/2 337/9/2 341/7/2
f 343/5/5 337/10/5 339/11/5
f 340/12/6 342/8/6 344/6/6
f 346/1/3 347/2/3 345/3/3
f 348/4/4 351/5/4 347/2/4
f 352/6/1 349/7/1 351/5/1
f 350/8/2 345/9/2 349/7/2
f 351/5/5 345/10/5 347/11/5
f 348/12/6 350/8/6 352/6/6
f 354/1/13 355/2/13 353/3/13
f 356/4/10 359/5/10 355/2/10
f 360/6/14 357/7/14 359/5/14
f 358/8/8 353/9/8 357/7/8
f 355/11/15 357/7/15 353/10/15
f 360/6/16 354/14/16 358/8/16
f 362/1/3 363/2/3 361/3/3
f 364/4/4 367/5/4 363/2/4
f 368/6/1 365/7/1 367/5/1
f 366/8/2 361/9/2 365/7/2
f 367/5/5 361/10/5 363/11/5
f 368/6/6 362/14/6 366/8/6
f 370/1/3 371/2/3 369/3/3
f 372/4/4 375/5/4 371/2/4
f 376/6/1 373/7/1 375/5/1
f 374/8/2 369/9/2 373/7/2
f 375/5/5 369/10/5 371/11/5
f 376/6/6 370/14/6 374/8/6
f 378/1/2 379/2/2 377/3/2
f 380/4/3 383/5/3 379/2/3
f 384/6/4 381/7/4 383/5/4
f 382/8/1 377/9/1 381/7/1
f 379/11/5 381/7/5 377/10/5
f 384/6/6 378/14/6 382/8/6
f 386/1/3 387/2/3 385/3/3
f 388/4/4 391/5/4 387/2/4
f 392/6/1 389/7/1 391/5/1
f 390/8/2 385/9/2 389/7/2
f 391/5/5 385/10/5 387/11/5
f 388/12/6 390/8/6 392/6/6
f 394/1/3 395/2/3 393/3/3
f 396/4/4 399/5/4 395/2/4
f 400/6/1 397/7/1 399/5/1
f 398/8/2 393/9/2 397/7/2
f 399/5/5 393/10/5 395/11/5
f 396/12/6 398/8/6 400/6/6
f 402/1/2 403/2/2 401/3/2
f 404/4/3 407/5/3 403/2/3
f 408/6/4 405/7/4 407/5/4
f 406/8/1 401/9/1 405/7/1
f 403/11/5 405/7/5 401/10/5
f 404/12/6 406/8/6 408/6/6
f 410/1/2 411/2/2 409/3/2
f 412/4/3 415/5/3 411/2/3
f 416/6/4 413/7/4 415/5/4
f 414/8/1 409/9/1 413/7/1
f 415/5/5 409/10/5 411/11/5
f 412/12/6 414/8/6 416/6/6
f 418/1/2 419/2/2 417/3/2
f 420/4/3 423/5/3 419/2/3
f 424/6/4 421/7/4 423/5/4
f 422/8/1 417/9/1 421/7/1
f 423/5/5 417/10/5 419/11/5
f 420/12/6 422/8/6 424/6/6
f 426/1/3 427/2/3 425/3/3
f 428/4/4 431/5/4 427/2/4
f 432/6/1 429/7/1 431/5/1
f 430/8/2 425/9/2 429/7/2
f 427/11/5 429/7/5 425/10/5
f 428/12/6 430/8/6 432/6/6
f 434/1/3 435/2/3 433/3/3
f 436/4/4 439/5/4 435/2/4
f 440/6/1 437/7/1 439/5/1
f 438/8/2 433/9/2 437/7/2
f 439/5/5 433/10/5 435/11/5
f 436/12/6 438/8/6 440/6/6
f 442/1/3 443/2/3 441/3/3
f 444/4/4 447/5/4 443/2/4
f 448/6/1 445/7/1 447/5/1
f 446/8/2 441/9/2 445/7/2
f 447/5/5 441/10/5 443/11/5
f 448/6/6 442/14/6 446/8/6
f 2/1/1 4/4/1 3/2/1
f 4/4/2 8/6/2 7/5/2
f 8/6/3 6/8/3 5/7/3
f 6/8/4 2/13/4 1/9/4
f 7/5/5 5/7/5 1/10/5
f 4/12/6 2/14/6 6/8/6
f 10/1/1 12/4/1 11/2/1
f 12/4/2 16/6/2 15/5/2
f 16/6/3 14/8/3 13/7/3
f 14/8/4 10/13/4 9/9/4
f 15/5/5 13/7/5 9/10/5
f 12/12/6 10/14/6 14/8/6
f 18/1/1 20/4/1 19/2/1
f 20/4/2 24/6/2 23/5/2
f 24/6/3 22/8/3 21/7/3
f 22/8/4 18/13/4 17/9/4
f 23/5/5 21/7/5 17/10/5
f 20/12/6 18/14/6 22/8/6
f 26/1/1 28/4/1 27/2/1
f 28/4/2 32/6/2 31/5/2
f 32/6/3 30/8/3 29/7/3
f 30/8/4 26/13/4 25/9/4
f 31/5/5 29/7/5 25/10/5
f 28/12/6 26/14/6 30/8/6
f 34/1/1 36/4/1 35/2/1
f 36/4/2 40/6/2 39/5/2
f 40/6/3 38/8/3 37/7/3
f 38/8/4 34/13/4 33/9/4
f 39/5/5 37/7/5 33/10/5
f 36/12/6 34/14/6 38/8/6
f 42/1/1 44/4/1 43/2/1
f 44/4/2 48/6/2 47/5/2
f 48/6/3 46/8/3 45/7/3
f 46/8/4 42/13/4 41/9/4
f 47/5/5 45/7/5 41/10/5
f 44/12/6 42/14/6 46/8/6
f 50/1/1 52/4/1 51/2/1
f 52/4/2 56/6/2 55/5/2
f 56/6/3 54/8/3 53/7/3
f 54/8/4 50/13/4 49/9/4
f 55/5/5 53/7/5 49/10/5
f 52/12/6 50/14/6 54/8/6
f 58/1/1 60/4/1 59/2/1
f 60/4/2 64/6/2 63/5/2
f 64/6/3 62/8/3 61/7/3
f 62/8/4 58/13/4 57/9/4
f 63/5/5 61/7/5 57/10/5
f 60/12/6 58/14/6 62/8/6
f 66/1/1 68/4/1 67/2/1
f 68/4/2 72/6/2 71/5/2
f 72/6/3 70/8/3 69/7/3
f 70/8/4 66/13/4 65/9/4
f 71/5/5 69/7/5 65/10/5
f 68/12/6 66/14/6 70/8/6
f 74/1/1 76/4/1 75/2/1
f 76/4/2 80/6/2 79/5/2
f 80/6/3 78/8/3 77/7/3
f 78/8/4 74/13/4 73/9/4
f 79/5/5 77/7/5 73/10/5
f 76/12/6 74/14/6 78/8/6
f 82/1/1 84/4/1 83/2/1
f 84/4/2 88/6/2 87/5/2
f 88/6/3 86/8/3 85/7/3
f 86/8/4 82/13/4 81/9/4
f 87/5/5 85/7/5 81/10/5
f 84/12/6 82/14/6 86/8/6
f 90/1/1 92/4/1 91/2/1
f 92/4/2 96/6/2 95/5/2
f 96/6/3 94/8/3 93/7/3
f 94/8/4 90/13/4 89/9/4
f 95/5/5 93/7/5 89/10/5
f 92/12/6 90/14/6 94/8/6
f 98/1/1 100/4/1 99/2/1
f 100/4/2 104/6/2 103/5/2
f 104/6/3 102/8/3 101/7/3
f 102/8/4 98/13/4 97/9/4
f 103/5/5 101/7/5 97/10/5
f 100/12/6 98/14/6 102/8/6
f 106/1/1 108/4/1 107/2/1
f 108/4/2 112/6/2 111/5/2
f 112/6/3 110/8/3 109/7/3
f 110/8/4 106/13/4 105/9/4
f 111/5/5 109/7/5 105/10/5
f 108/12/6 106/14/6 110/8/6
f 114/1/1 116/4/1 115/2/1
f 116/4/2 120/6/2 119/5/2
f 120/6/3 118/8/3 117/7/3
f 118/8/4 114/13/4 113/9/4
f 119/5/5 117/7/5 113/10/5
f 116/12/6 114/14/6 118/8/6
f 122/1/1 124/4/1 123/2/1
f 124/4/2 128/6/2 127/5/2
f 128/6/3 126/8/3 125/7/3
f 126/8/4 122/13/4 121/9/4
f 127/5/5 125/7/5 121/10/5
f 124/12/6 122/14/6 126/8/6
f 130/1/1 132/4/1 131/2/1
f 132/4/2 136/6/2 135/5/2
f 136/6/3 134/8/3 133/7/3
f 134/8/4 130/13/4 129/9/4
f 135/5/5 133/7/5 129/10/5
f 132/12/6 130/14/6 134/8/6
f 138/1/1 140/4/1 139/2/1
f 140/4/2 144/6/2 143/5/2
f 144/6/3 142/8/3 141/7/3
f 142/8/4 138/13/4 137/9/4
f 143/5/5 141/7/5 137/10/5
f 140/12/6 138/14/6 142/8/6
f 146/1/1 148/4/1 147/2/1
f 148/4/2 152/6/2 151/5/2
f 152/6/3 150/8/3 149/7/3
f 150/8/4 146/13/4 145/9/4
f 151/5/5 149/7/5 145/10/5
f 148/12/6 146/14/6 150/8/6
f 154/1/1 156/4/1 155/2/1
f 156/4/2 160/6/2 159/5/2
f 160/6/3 158/8/3 157/7/3
f 158/8/4 154/13/4 153/9/4
f 159/5/5 157/7/5 153/10/5
f 156/12/6 154/14/6 158/8/6
f 162/1/1 164/4/1 163/2/1
f 164/4/2 168/6/2 167/5/2
f 168/6/3 166/8/3 165/7/3
f 166/8/4 162/13/4 161/9/4
f 167/5/5 165/7/5 161/10/5
f 164/12/6 162/14/6 166/8/6
f 170/1/1 172/4/1 171/2/1
f 172/4/2 176/6/2 175/5/2
f 176/6/3 174/8/3 173/7/3
f 174/8/4 170/13/4 169/9/4
f 175/5/5 173/7/5 169/10/5
f 172/12/6 170/14/6 174/8/6
f 178/1/1 180/4/1 179/2/1
f 180/4/2 184/6/2 183/5/2
f 184/6/3 182/8/3 181/7/3
f 182/8/4 178/13/4 177/9/4
f 183/5/5 181/7/5 177/10/5
f 180/12/6 178/14/6 182/8/6
f 186/1/1 188/4/1 187/2/1
f 188/4/2 192/6/2 191/5/2
f 192/6/3 190/8/3 189/7/3
f 190/8/4 186/13/4 185/9/4
f 191/5/5 189/7/5 185/10/5
f 188/12/6 186/14/6 190/8/6
f 194/1/7 196/4/7 195/2/7
f 196/4/8 200/6/8 199/5/8
f 200/6/9 198/8/9 197/7/9
f 197/7/10 198/8/10 194/13/10
f 199/5/11 197/7/11 193/10/11
f 200/6/12 196/12/12 194/14/12
f 202/1/1 204/4/1 203/2/1
f 204/4/2 208/6/2 207/5/2
f 208/6/3 206/8/3 205/7/3
f 206/8/4 202/13/4 201/9/4
f 207/5/5 205/7/5 201/10/5
f 204/12/6 202/14/6 206/8/6
f 210/1/1 212/4/1 211/2/1
f 212/4/2 216/6/2 215/5/2
f 216/6/3 214/8/3 213/7/3
f 214/8/4 210/13/4 209/9/4
f 215/5/5 213/7/5 209/10/5
f 212/12/6 210/14/6 214/8/6
f 218/1/4 220/4/4 219/2/4
f 220/4/1 224/6/1 223/5/1
f 224/6/2 222/8/2 221/7/2
f 222/8/3 218/13/3 217/9/3
f 223/5/5 221/7/5 217/10/5
f 220/12/6 218/14/6 222/8/6
f 226/1/1 228/4/1 227/2/1
f 228/4/2 232/6/2 231/5/2
f 232/6/3 230/8/3 229/7/3
f 230/8/4 226/13/4 225/9/4
f 231/5/5 229/7/5 225/10/5
f 228/12/6 226/14/6 230/8/6
f 234/1/1 236/4/1 235/2/1
f 236/4/2 240/6/2 239/5/2
f 240/6/3 238/8/3 237/7/3
f 238/8/4 234/13/4 233/9/4
f 239/5/5 237/7/5 233/10/5
f 236/12/6 234/14/6 238/8/6
f 242/1/1 244/4/1 243/2/1
f 244/4/2 248/6/2 247/5/2
f 248/6/3 246/8/3 245/7/3
f 246/8/4 242/13/4 241/9/4
f 247/5/5 245/7/5 241/10/5
f 244/12/6 242/14/6 246/8/6
f 250/1/3 252/4/3 251/2/3
f 252/4/4 256/6/4 255/5/4
f 256/6/1 254/8/1 253/7/1
f 254/8/2 250/13/2 249/9/2
f 255/5/5 253/7/5 249/10/5
f 256/6/6 252/12/6 250/14/6
f 258/1/3 260/4/3 259/2/3
f 260/4/4 264/6/4 263/5/4
f 264/6/1 262/8/1 261/7/1
f 262/8/2 258/13/2 257/9/2
f 263/5/5 261/7/5 257/10/5
f 264/6/6 260/12/6 258/14/6
f 266/1/3 268/4/3 267/2/3
f 268/4/4 272/6/4 271/5/4
f 272/6/1 270/8/1 269/7/1
f 270/8/2 266/13/2 265/9/2
f 271/5/5 269/7/5 265/10/5
f 272/6/6 268/12/6 266/14/6
f 274/1/3 276/4/3 275/2/3
f 276/4/4 280/6/4 279/5/4
f 280/6/1 278/8/1 277/7/1
f 278/8/2 274/13/2 273/9/2
f 279/5/5 277/7/5 273/10/5
f 276/12/6 274/14/6 278/8/6
f 282/1/3 284/4/3 283/2/3
f 284/4/4 288/6/4 287/5/4
f 288/6/1 286/8/1 285/7/1
f 286/8/2 282/13/2 281/9/2
f 287/5/5 285/7/5 281/10/5
f 288/6/6 284/12/6 282/14/6
f 290/1/3 292/4/3 291/2/3
f 292/4/4 296/6/4 295/5/4
f 296/6/1 294/8/1 293/7/1
f 294/8/2 290/13/2 289/9/2
f 295/5/5 293/7/5 289/10/5
f 292/12/6 290/14/6 294/8/6
f 298/1/3 300/4/3 299/2/3
f 300/4/4 304/6/4 303/5/4
f 304/6/1 302/8/1 301/7/1
f 302/8/2 298/13/2 297/9/2
f 303/5/5 301/7/5 297/10/5
f 300/12/6 298/14/6 302/8/6
f 306/1/3 308/4/3 307/2/3
f 308/4/4 312/6/4 311/5/4
f 312/6/1 310/8/1 309/7/1
f 310/8/2 306/13/2 305/9/2
f 311/5/5 309/7/5 305/10/5
f 312/6/6 308/12/6 306/14/6
f 314/1/3 316/4/3 315/2/3
f 316/4/4 320/6/4 319/5/4
f 320/6/1 318/8/1 317/7/1
f 318/8/2 314/13/2 313/9/2
f 319/5/5 317/7/5 313/10/5
f 320/6/6 316/12/6 314/14/6
f 322/1/3 324/4/3 323/2/3
f 324/4/4 328/6/4 327/5/4
f 328/6/1 326/8/1 325/7/1
f 326/8/2 322/13/2 321/9/2
f 327/5/5 325/7/5 321/10/5
f 328/6/6 324/12/6 322/14/6
f 330/1/3 332/4/3 331/2/3
f 332/4/4 336/6/4 335/5/4
f 336/6/1 334/8/1 333/7/1
f 334/8/2 330/13/2 329/9/2
f 335/5/5 333/7/5 329/10/5
f 336/6/6 332/12/6 330/14/6
f 338/1/3 340/4/3 339/2/3
f 340/4/4 344/6/4 343/5/4
f 344/6/1 342/8/1 341/7/1
f 342/8/2 338/13/2 337/9/2
f 343/5/5 341/7/5 337/10/5
f 340/12/6 338/14/6 342/8/6
f 346/1/3 348/4/3 347/2/3
f 348/4/4 352/6/4 351/5/4
f 352/6/1 350/8/1 349/7/1
f 350/8/2 346/13/2 345/9/2
f 351/5/5 349/7/5 345/10/5
f 348/12/6 346/14/6 350/8/6
f 354/1/13 356/4/13 355/2/13
f 356/4/10 360/6/10 359/5/10
f 360/6/14 358/8/14 357/7/14
f 358/8/8 354/13/8 353/9/8
f 355/11/15 359/5/15 357/7/15
f 360/6/16 356/12/16 354/14/16
f 362/1/3 364/4/3 363/2/3
f 364/4/4 368/6/4 367/5/4
f 368/6/1 366/8/1 365/7/1
f 366/8/2 362/13/2 361/9/2
f 367/5/5 365/7/5 361/10/5
f 368/6/6 364/12/6 362/14/6
f 370/1/3 372/4/3 371/2/3
f 372/4/4 376/6/4 375/5/4
f 376/6/1 374/8/1 373/7/1
f 374/8/2 370/13/2 369/9/2
f 375/5/5 373/7/5 369/10/5
f 376/6/6 372/12/6 370/14/6
f 378/1/2 380/4/2 379/2/2
f 380/4/3 384/6/3 383/5/3
f 384/6/4 382/8/4 381/7/4
f 382/8/1 378/13/1 377/9/1
f 379/11/5 383/5/5 381/7/5
f 384/6/6 380/12/6 378/14/6
f 386/1/3 388/4/3 387/2/3
f 388/4/4 392/6/4 391/5/4
f 392/6/1 390/8/1 389/7/1
f 390/8/2 386/13/2 385/9/2
f 391/5/5 389/7/5 385/10/5
f 388/12/6 386/14/6 390/8/6
f 394/1/3 396/4/3 395/2/3
f 396/4/4 400/6/4 399/5/4
f 400/6/1 398/8/1 397/7/1
f 398/8/2 394/13/2 393/9/2
f 399/5/5 397/7/5 393/10/5
f 396/12/6 394/14/6 398/8/6
f 402/1/2 404/4/2 403/2/2
f 404/4/3 408/6/3 407/5/3
f 408/6/4 406/8/4 405/7/4
f 406/8/1 402/13/1 401/9/1
f 403/11/5 407/5/5 405/7/5
f 404/12/6 402/14/6 406/8/6
f 410/1/2 412/4/2 411/2/2
f 412/4/3 416/6/3 415/5/3
f 416/6/4 414/8/4 413/7/4
f 414/8/1 410/13/1 409/9/1
f 415/5/5 413/7/5 409/10/5
f 412/12/6 410/14/6 414/8/6
f 418/1/2 420/4/2 419/2/2
f 420/4/3 424/6/3 423/5/3
f 424/6/4 422/8/4 421/7/4
f 422/8/1 418/13/1 417/9/1
f 423/5/5 421/7/5 417/10/5
f 420/12/6 418/14/6 422/8/6
f 426/1/3 428/4/3 427/2/3
f 428/4/4 432/6/4 431/5/4
f 432/6/1 430/8/1 429/7/1
f 430/8/2 426/13/2 425/9/2
f 427/11/5 431/5/5 429/7/5
f 428/12/6 426/14/6 430/8/6
f 434/1/3 436/4/3 435/2/3
f 436/4/4 440/6/4 439/5/4
f 440/6/1 438/8/1 437/7/1
f 438/8/2 434/13/2 433/9/2
f 439/5/5 437/7/5 433/10/5
f 436/12/6 434/14/6 438/8/6
f 442/1/3 444/4/3 443/2/3
f 444/4/4 448/6/4 447/5/4
f 448/6/1 446/8/1 445/7/1
f 446/8/2 442/13/2 441/9/2
f 447/5/5 445/7/5 441/10/5
f 448/6/6 444/12/6 442/14/6
