# Blender 4.4.1
# www.blender.org
mtllib player.mtl
o 立方体.004
v 0.664677 0.660227 -0.020620
v 0.362984 0.980664 0.054723
v 0.395879 0.429566 1.182327
v 0.222434 0.651099 1.234416
v -0.599980 0.660227 -0.020620
v -0.298287 0.980664 0.054723
v -0.331182 0.429566 1.182327
v -0.157737 0.651099 1.234416
v -0.347109 0.220410 3.809567
v -0.347109 -0.538504 3.809567
v -0.967652 0.857449 -1.273394
v -0.967652 -0.546641 -1.273394
v 0.411806 0.220410 3.809567
v 0.411806 -0.538504 3.809567
v 1.032348 0.857449 -1.273394
v 1.032348 -0.546641 -1.273394
v -0.831805 -0.215373 -1.213886
v -0.947573 0.102696 -1.213886
v -0.831805 -0.215374 1.025971
v -0.947573 0.102696 1.025971
v -3.616534 -1.228932 -1.213886
v -3.732302 -0.910862 -1.213886
v 0.992270 0.102696 -1.213886
v 0.876502 -0.215373 -1.213886
v 0.992270 0.102696 0.616658
v 0.876502 -0.215374 0.616658
v 3.776999 -0.910862 -1.213886
v 3.661231 -1.228932 -1.213886
v -2.085481 0.139885 -1.246800
v -2.085481 0.478368 -1.246800
v -0.721792 0.139885 -1.977943
v -0.721792 0.478368 -1.977943
v -0.532755 0.139885 1.731941
v -0.532755 0.478368 1.731941
v 2.156348 0.449809 -1.246799
v 2.142876 0.111595 -1.246800
v 0.793739 0.504083 -1.977943
v 0.780267 0.165869 -1.977943
v 0.604852 0.511607 1.731941
v 0.591380 0.173393 1.731941
v 0.032348 0.730527 -1.253743
v 0.032348 0.513325 -2.053743
v -0.084706 0.718998 -1.253743
v -0.042332 0.505969 -2.053743
v -0.197262 0.684855 -1.253743
v -0.114142 0.484186 -2.053743
v -0.300994 0.629409 -1.253743
v -0.180323 0.448812 -2.053743
v -0.391916 0.554791 -1.253743
v -0.238331 0.401206 -2.053743
v -0.466533 0.463869 -1.253743
v -0.285936 0.343198 -2.053743
v -0.521979 0.360137 -1.253742
v -0.321311 0.277017 -2.053742
v -0.556123 0.247581 -1.253743
v -0.343094 0.205207 -2.053743
v -0.567652 0.130527 -1.253742
v -0.350449 0.130527 -2.053743
v -0.556123 0.013473 -1.253743
v -0.343094 0.055847 -2.053743
v -0.521979 -0.099083 -1.253743
v -0.321311 -0.015964 -2.053742
v -0.466533 -0.202815 -1.253743
v -0.285936 -0.082144 -2.053743
v -0.391916 -0.293737 -1.253743
v -0.238331 -0.140152 -2.053743
v -0.300994 -0.368355 -1.253743
v -0.180323 -0.187758 -2.053743
v -0.197262 -0.423801 -1.253743
v -0.114142 -0.223132 -2.053743
v -0.084706 -0.457944 -1.253742
v -0.042332 -0.244916 -2.053743
v 0.032348 -0.469473 -1.253743
v 0.032348 -0.252271 -2.053743
v 0.149403 -0.457944 -1.253742
v 0.107029 -0.244916 -2.053743
v 0.261958 -0.423801 -1.253743
v 0.178839 -0.223132 -2.053743
v 0.365691 -0.368355 -1.253743
v 0.245019 -0.187758 -2.053743
v 0.456612 -0.293737 -1.253743
v 0.303027 -0.140152 -2.053743
v 0.531230 -0.202815 -1.253743
v 0.350633 -0.082144 -2.053743
v 0.586676 -0.099083 -1.253743
v 0.386007 -0.015964 -2.053742
v 0.620820 0.013473 -1.253743
v 0.407791 0.055847 -2.053743
v 0.632348 0.130527 -1.253742
v 0.415146 0.130527 -2.053743
v 0.620820 0.247581 -1.253743
v 0.407791 0.205207 -2.053743
v 0.586676 0.360137 -1.253742
v 0.386007 0.277017 -2.053742
v 0.531230 0.463869 -1.253743
v 0.350633 0.343198 -2.053743
v 0.456612 0.554791 -1.253743
v 0.303027 0.401206 -2.053743
v 0.365691 0.629409 -1.253743
v 0.245019 0.448812 -2.053743
v 0.261958 0.684855 -1.253743
v 0.178839 0.484186 -2.053743
v 0.149403 0.718998 -1.253743
v 0.107029 0.505969 -2.053743
vn 0.7307 0.6215 0.2825
vn -0.0000 -0.2289 0.9735
vn -0.7307 0.6215 0.2825
vn -0.0000 0.2289 -0.9735
vn -0.0000 -0.9821 -0.1883
vn -0.0000 0.9631 0.2691
vn -0.0000 0.9922 0.1244
vn -0.0000 -0.0000 -1.0000
vn 0.9926 -0.0000 0.1212
vn -0.0000 -1.0000 0.0016
vn -0.9926 -0.0000 0.1212
vn -0.0000 -0.0000 1.0000
vn 0.9397 0.3420 -0.0000
vn -0.5666 -0.2062 0.7978
vn 0.3420 -0.9397 -0.0000
vn -0.3420 0.9397 -0.0000
vn -0.9397 0.3420 -0.0000
vn 0.4938 -0.1797 0.8508
vn 0.3420 0.9397 -0.0000
vn -0.3420 -0.9397 -0.0000
vn -0.4725 -0.0000 -0.8813
vn 0.9987 -0.0000 -0.0509
vn -0.8868 -0.0000 0.4622
vn -0.0000 -1.0000 -0.0000
vn -0.0000 1.0000 -0.0000
vn 0.4721 -0.0188 -0.8813
vn -0.9979 0.0397 -0.0509
vn 0.8861 -0.0353 0.4622
vn 0.0398 0.9992 -0.0000
vn -0.0398 -0.9992 -0.0000
vn -0.0946 0.9607 -0.2608
vn -0.2802 0.9238 -0.2608
vn -0.4551 0.8514 -0.2608
vn -0.6124 0.7463 -0.2608
vn -0.7463 0.6124 -0.2608
vn -0.8514 0.4551 -0.2608
vn -0.9238 0.2802 -0.2608
vn -0.9607 0.0946 -0.2608
vn -0.9607 -0.0946 -0.2608
vn -0.9238 -0.2802 -0.2608
vn -0.8514 -0.4551 -0.2608
vn -0.7463 -0.6124 -0.2608
vn -0.6124 -0.7462 -0.2608
vn -0.4551 -0.8514 -0.2608
vn -0.2802 -0.9238 -0.2608
vn -0.0946 -0.9607 -0.2608
vn 0.0946 -0.9607 -0.2608
vn 0.2802 -0.9238 -0.2608
vn 0.4551 -0.8514 -0.2608
vn 0.6124 -0.7462 -0.2608
vn 0.7463 -0.6124 -0.2608
vn 0.8514 -0.4551 -0.2608
vn 0.9238 -0.2802 -0.2608
vn 0.9607 -0.0946 -0.2608
vn 0.9607 0.0946 -0.2608
vn 0.9238 0.2802 -0.2608
vn 0.8514 0.4551 -0.2608
vn 0.7462 0.6124 -0.2608
vn 0.6124 0.7463 -0.2608
vn 0.4551 0.8514 -0.2608
vn 0.2802 0.9238 -0.2608
vn 0.0946 0.9607 -0.2608
vn 0.7900 0.5596 0.2505
vn -0.7900 0.5596 0.2505
vn -0.6124 0.7462 -0.2608
vn -0.7462 0.6124 -0.2608
vn -0.7462 -0.6124 -0.2608
vn -0.6124 -0.7463 -0.2608
vn 0.7462 -0.6124 -0.2608
vn 0.6124 0.7462 -0.2608
vt 0.625000 0.000000
vt 0.375000 0.250000
vt 0.375000 0.000000
vt 0.625000 0.250000
vt 0.375000 0.500000
vt 0.625000 0.750000
vt 0.375000 0.750000
vt 0.375000 1.000000
vt 0.125000 0.750000
vt 0.125000 0.500000
vt 0.875000 0.500000
vt 0.625000 0.500000
vt 0.000000 0.000000
vt 0.875000 0.750000
vt 0.625000 1.000000
vt 1.000000 1.000000
vt 0.968750 0.500000
vt 1.000000 0.500000
vt 0.968750 1.000000
vt 0.937500 0.500000
vt 0.937500 1.000000
vt 0.906250 0.500000
vt 0.906250 1.000000
vt 0.875000 1.000000
vt 0.843750 0.500000
vt 0.843750 1.000000
vt 0.812500 0.500000
vt 0.812500 1.000000
vt 0.781250 0.500000
vt 0.781250 1.000000
vt 0.750000 0.500000
vt 0.750000 1.000000
vt 0.718750 0.500000
vt 0.718750 1.000000
vt 0.687500 0.500000
vt 0.687500 1.000000
vt 0.656250 0.500000
vt 0.656250 1.000000
vt 0.593750 0.500000
vt 0.562500 1.000000
vt 0.562500 0.500000
vt 0.531250 1.000000
vt 0.531250 0.500000
vt 0.500000 1.000000
vt 0.500000 0.500000
vt 0.468750 0.500000
vt 0.468750 1.000000
vt 0.437500 0.500000
vt 0.437500 1.000000
vt 0.406250 0.500000
vt 0.343750 1.000000
vt 0.343750 0.500000
vt 0.312500 1.000000
vt 0.312500 0.500000
vt 0.281250 1.000000
vt 0.281250 0.500000
vt 0.250000 1.000000
vt 0.250000 0.500000
vt 0.218750 1.000000
vt 0.218750 0.500000
vt 0.187500 1.000000
vt 0.187500 0.500000
vt 0.156250 1.000000
vt 0.156250 0.500000
vt 0.125000 1.000000
vt 0.093750 1.000000
vt 0.093750 0.500000
vt 0.062500 1.000000
vt 0.062500 0.500000
vt 0.419706 0.419706
vt 0.383337 0.449553
vt 0.080294 0.419706
vt 0.031250 1.000000
vt 0.031250 0.500000
vt 0.000000 1.000000
vt 0.000000 0.500000
vt 0.616663 0.449553
vt 0.658156 0.471731
vt 0.883337 0.449553
vt 0.593750 1.000000
vt 0.406250 1.000000
vt 0.341844 0.471731
vt 0.296822 0.485388
vt 0.203178 0.485388
vt 0.250000 0.490000
vt 0.158156 0.471731
vt 0.116663 0.449553
vt 0.050447 0.383337
vt 0.028269 0.341844
vt 0.449553 0.383337
vt 0.014612 0.296822
vt 0.485388 0.296822
vt 0.010000 0.250000
vt 0.490000 0.250000
vt 0.014612 0.203178
vt 0.485388 0.203178
vt 0.028269 0.158156
vt 0.471731 0.158156
vt 0.050447 0.116663
vt 0.080294 0.080294
vt 0.449553 0.116663
vt 0.116663 0.050447
vt 0.419706 0.080294
vt 0.158156 0.028269
vt 0.383337 0.050447
vt 0.203178 0.014612
vt 0.341844 0.028269
vt 0.250000 0.010000
vt 0.296822 0.014612
vt 0.471731 0.341844
vt 0.703178 0.485388
vt 0.750000 0.490000
vt 0.796822 0.485388
vt 0.841844 0.471731
vt 0.919706 0.419706
vt 0.580294 0.419706
vt 0.949553 0.383337
vt 0.550447 0.383337
vt 0.971731 0.341844
vt 0.985388 0.296822
vt 0.528269 0.341844
vt 0.990000 0.250000
vt 0.510000 0.250000
vt 0.985388 0.203178
vt 0.514612 0.203178
vt 0.971731 0.158156
vt 0.949553 0.116663
vt 0.528269 0.158156
vt 0.919706 0.080294
vt 0.580294 0.080294
vt 0.883337 0.050447
vt 0.616663 0.050447
vt 0.841844 0.028269
vt 0.796822 0.014612
vt 0.658156 0.028269
vt 0.750000 0.010000
vt 0.703178 0.014612
vt 0.550447 0.116663
vt 0.514612 0.296822
s 0
usemtl 
f 2/1/1 3/2/1 1/3/1
f 4/4/2 7/5/2 3/2/2
f 7/5/3 6/6/3 5/7/3
f 6/6/4 1/8/4 5/7/4
f 7/5/5 1/9/5 3/10/5
f 4/11/6 6/6/6 8/12/6
f 18/1/13 19/2/13 17/3/13
f 19/2/14 22/12/14 21/5/14
f 22/6/8 17/8/8 21/7/8
f 19/10/15 21/7/15 17/9/15
f 22/12/16 20/11/16 18/14/16
f 23/3/17 26/4/17 25/2/17
f 26/4/18 27/5/18 25/2/18
f 27/7/8 24/15/8 23/8/8
f 25/10/19 27/7/19 23/9/19
f 28/12/20 26/11/20 24/14/20
f 29/3/21 32/4/21 31/2/21
f 32/4/22 33/5/22 31/2/22
f 33/7/23 30/15/23 29/8/23
f 31/10/24 33/7/24 29/9/24
f 34/12/25 32/11/25 30/14/25
f 36/1/26 37/2/26 35/3/26
f 37/2/27 40/12/27 39/5/27
f 40/6/28 35/8/28 39/7/28
f 37/10/29 39/7/29 35/9/29
f 40/12/30 38/11/30 36/14/30
f 42/16/31 43/17/31 41/18/31
f 44/19/32 45/20/32 43/17/32
f 46/21/33 47/22/33 45/20/33
f 48/23/34 49/11/34 47/22/34
f 50/24/35 51/25/35 49/11/35
f 52/26/36 53/27/36 51/25/36
f 54/28/37 55/29/37 53/27/37
f 56/30/38 57/31/38 55/29/38
f 58/32/39 59/33/39 57/31/39
f 60/34/40 61/35/40 59/33/40
f 62/36/41 63/37/41 61/35/41
f 64/38/42 65/12/42 63/37/42
f 66/15/43 67/39/43 65/12/43
f 67/39/44 70/40/44 69/41/44
f 69/41/45 72/42/45 71/43/45
f 71/43/46 74/44/46 73/45/46
f 74/44/47 75/46/47 73/45/47
f 76/47/48 77/48/48 75/46/48
f 78/49/49 79/50/49 77/48/49
f 79/50/50 82/8/50 81/5/50
f 81/5/51 84/51/51 83/52/51
f 83/52/52 86/53/52 85/54/52
f 85/54/53 88/55/53 87/56/53
f 87/56/54 90/57/54 89/58/54
f 89/58/55 92/59/55 91/60/55
f 91/60/56 94/61/56 93/62/56
f 93/62/57 96/63/57 95/64/57
f 95/64/58 98/65/58 97/10/58
f 97/10/59 100/66/59 99/67/59
f 99/67/60 102/68/60 101/69/60
f 50/70/8 48/71/8 98/72/8
f 101/69/61 104/73/61 103/74/61
f 103/74/62 42/75/62 41/76/62
f 99/77/12 101/78/12 47/79/12
f 2/1/63 4/4/63 3/2/63
f 4/4/2 8/12/2 7/5/2
f 7/5/64 8/12/64 6/6/64
f 6/6/4 2/15/4 1/8/4
f 7/5/5 5/7/5 1/9/5
f 4/11/6 2/14/6 6/6/6
f 18/1/13 20/4/13 19/2/13
f 19/2/14 20/4/14 22/12/14
f 22/6/8 18/15/8 17/8/8
f 23/3/17 24/1/17 26/4/17
f 26/4/18 28/12/18 27/5/18
f 27/7/8 28/6/8 24/15/8
f 29/3/21 30/1/21 32/4/21
f 32/4/22 34/12/22 33/5/22
f 33/7/23 34/6/23 30/15/23
f 36/1/26 38/4/26 37/2/26
f 37/2/27 38/4/27 40/12/27
f 40/6/28 36/15/28 35/8/28
f 42/16/31 44/19/31 43/17/31
f 44/19/32 46/21/32 45/20/32
f 46/21/33 48/23/33 47/22/33
f 48/23/65 50/24/65 49/11/65
f 50/24/66 52/26/66 51/25/66
f 52/26/36 54/28/36 53/27/36
f 54/28/37 56/30/37 55/29/37
f 56/30/38 58/32/38 57/31/38
f 58/32/39 60/34/39 59/33/39
f 60/34/40 62/36/40 61/35/40
f 62/36/41 64/38/41 63/37/41
f 64/38/67 66/15/67 65/12/67
f 66/15/68 68/80/68 67/39/68
f 67/39/44 68/80/44 70/40/44
f 69/41/45 70/40/45 72/42/45
f 71/43/46 72/42/46 74/44/46
f 74/44/47 76/47/47 75/46/47
f 76/47/48 78/49/48 77/48/48
f 78/49/49 80/81/49 79/50/49
f 79/50/50 80/81/50 82/8/50
f 81/5/69 82/8/69 84/51/69
f 83/52/52 84/51/52 86/53/52
f 85/54/53 86/53/53 88/55/53
f 87/56/54 88/55/54 90/57/54
f 89/58/55 90/57/55 92/59/55
f 91/60/56 92/59/56 94/61/56
f 93/62/57 94/61/57 96/63/57
f 95/64/58 96/63/58 98/65/58
f 97/10/70 98/65/70 100/66/70
f 99/67/60 100/66/60 102/68/60
f 46/82/8 44/83/8 104/84/8
f 44/83/8 42/85/8 104/84/8
f 104/84/8 102/86/8 46/82/8
f 102/86/8 100/87/8 46/82/8
f 100/87/8 98/72/8 48/71/8
f 46/82/8 100/87/8 48/71/8
f 98/72/8 96/88/8 50/70/8
f 96/88/8 94/89/8 52/90/8
f 50/70/8 96/88/8 52/90/8
f 94/89/8 92/91/8 56/92/8
f 92/91/8 90/93/8 58/94/8
f 90/93/8 88/95/8 60/96/8
f 88/95/8 86/97/8 62/98/8
f 86/97/8 84/99/8 62/98/8
f 84/99/8 82/100/8 64/101/8
f 62/98/8 84/99/8 64/101/8
f 82/100/8 80/102/8 66/103/8
f 80/102/8 78/104/8 68/105/8
f 66/103/8 80/102/8 68/105/8
f 78/104/8 76/106/8 70/107/8
f 76/106/8 74/108/8 72/109/8
f 70/107/8 76/106/8 72/109/8
f 70/107/8 68/105/8 78/104/8
f 66/103/8 64/101/8 82/100/8
f 62/98/8 60/96/8 88/95/8
f 60/96/8 58/94/8 90/93/8
f 58/94/8 56/92/8 92/91/8
f 56/92/8 54/110/8 94/89/8
f 54/110/8 52/90/8 94/89/8
f 101/69/61 102/68/61 104/73/61
f 103/74/62 104/73/62 42/75/62
f 103/111/12 41/112/12 43/113/12
f 43/113/12 45/114/12 103/111/12
f 45/114/12 47/79/12 101/78/12
f 103/111/12 45/114/12 101/78/12
f 47/79/12 49/115/12 97/116/12
f 49/115/12 51/117/12 95/118/12
f 51/117/12 53/119/12 95/118/12
f 53/119/12 55/120/12 93/121/12
f 95/118/12 53/119/12 93/121/12
f 55/120/12 57/122/12 89/123/12
f 57/122/12 59/124/12 87/125/12
f 59/124/12 61/126/12 87/125/12
f 61/126/12 63/127/12 85/128/12
f 87/125/12 61/126/12 85/128/12
f 63/127/12 65/129/12 81/130/12
f 65/129/12 67/131/12 79/132/12
f 67/131/12 69/133/12 79/132/12
f 69/133/12 71/134/12 77/135/12
f 79/132/12 69/133/12 77/135/12
f 71/134/12 73/136/12 75/137/12
f 75/137/12 77/135/12 71/134/12
f 79/132/12 81/130/12 65/129/12
f 81/130/12 83/138/12 63/127/12
f 83/138/12 85/128/12 63/127/12
f 87/125/12 89/123/12 57/122/12
f 89/123/12 91/139/12 55/120/12
f 91/139/12 93/121/12 55/120/12
f 95/118/12 97/116/12 49/115/12
f 97/116/12 99/77/12 47/79/12
usemtl Material
f 13/13/7 11/13/7 9/13/7
f 11/13/8 16/13/8 12/13/8
f 15/13/9 14/13/9 16/13/9
f 10/13/10 16/13/10 14/13/10
f 10/13/11 11/13/11 12/13/11
f 13/13/12 10/13/12 14/13/12
f 13/13/7 15/13/7 11/13/7
f 11/13/8 15/13/8 16/13/8
f 15/13/9 13/13/9 14/13/9
f 10/13/10 12/13/10 16/13/10
f 10/13/11 9/13/11 11/13/11
f 13/13/12 9/13/12 10/13/12
