# Blender 4.4.1
# www.blender.org
mtllib bridge.mtl
o bridge
v -36.063068 7.244672 -34.597252
v 32.571903 -20.789188 32.509705
v -39.154751 14.471946 -28.415987
v 29.480221 -13.561913 38.690971
v -29.480221 13.561913 -38.690971
v 39.154751 -14.471946 28.415987
v -32.571903 20.789188 -32.509705
v 36.063068 -7.244672 34.597252
v -58.807922 -35.451500 -367.222839
v -58.807907 17.703293 -367.222839
v -58.807922 -35.451492 -377.222839
v -58.807907 17.703308 -377.222839
v -48.807938 -35.451500 -367.222839
v -48.807922 17.703300 -367.222839
v -48.807922 -35.451492 -377.222839
v -48.807907 17.703316 -377.222839
v -101.607185 -25.494019 -259.233826
v -1.607170 -25.494030 -259.233826
v -101.607170 -25.494026 -269.233826
v -1.607170 -25.494026 -269.233826
v -101.607170 -30.016922 -259.233826
v -1.607170 -30.016911 -259.233795
v -101.607162 -30.016907 -269.233826
v -1.607178 -30.016914 -269.233795
v -101.715645 -25.213123 -194.092056
v -1.715645 -25.213120 -194.092041
v -101.715637 -25.213123 -204.092041
v -1.715645 -25.213116 -204.092041
v -101.715637 -29.736019 -194.092041
v -1.715645 -29.736015 -194.092041
v -101.715637 -29.736008 -204.092041
v -1.715645 -29.736019 -204.092041
v -117.286194 -63.829277 -10.764736
v -37.279114 -3.838711 -10.764738
v -117.286194 -63.829277 -20.764734
v -37.279114 -3.838713 -20.764738
v -111.287140 -71.829971 -10.764740
v -31.280058 -11.839417 -10.764740
v -111.287140 -71.829979 -20.764738
v -31.280058 -11.839418 -20.764738
v -34.943390 -75.589851 -10.764750
v -34.943394 24.410149 -10.764750
v -34.943394 -75.589859 -20.764751
v -34.943394 24.410149 -20.764748
v -24.943394 -75.589851 -10.764754
v -24.943396 24.410152 -10.764751
v -24.943390 -75.589859 -20.764751
v -24.943394 24.410149 -20.764751
v -28.838455 -55.596508 74.396980
v -68.139069 -12.551924 -6.859568
v -30.712646 -64.622673 70.521965
v -70.013260 -21.578085 -10.734585
v -19.836121 -55.596508 70.042908
v -59.136734 -12.551923 -11.213644
v -21.710320 -64.622673 66.167885
v -61.010925 -21.578083 -15.088665
v -186.719574 -48.412605 -21.752869
v -222.413574 11.577957 -93.356461
v -195.669235 -48.412594 -17.291519
v -231.363220 11.577950 -88.895088
v -189.395966 -56.413311 -27.121819
v -225.089966 3.577244 -98.725388
v -198.345612 -56.413311 -22.660461
v -234.039612 3.577240 -94.264046
v -223.455658 -60.173092 -95.446884
v -223.455673 39.826904 -95.446884
v -232.405304 -60.173103 -90.985519
v -232.405304 39.826897 -90.985512
v -227.917023 -60.173096 -104.396545
v -227.917023 39.826897 -104.396530
v -236.866669 -60.173107 -99.935181
v -236.866669 39.826897 -99.935173
v -149.962387 -40.179752 -138.904282
v -205.150818 2.864834 -67.480164
v -152.594269 -49.205917 -135.498169
v -207.782684 -6.161335 -64.074051
v -157.875412 -40.179756 -145.018555
v -213.063812 2.864841 -73.594437
v -160.507263 -49.205921 -141.612427
v -215.695679 -6.161327 -70.188324
v -101.607147 -21.065840 -929.523560
v -1.607147 -21.065794 -929.523499
v -101.607147 -21.065840 -939.523560
v -1.607147 -21.065855 -939.523560
v -101.607178 -24.432816 -929.523560
v -1.607178 -24.432816 -929.523560
v -101.607147 -24.432831 -939.523560
v -1.607147 -24.432831 -939.523499
v -101.715576 -13.201429 -864.381775
v -1.715576 -13.201429 -864.381714
v -101.715546 -13.201445 -874.381714
v -1.715576 -13.201445 -874.381775
v -101.715576 -16.568420 -864.381714
v -1.715576 -16.568420 -864.381714
v -101.715576 -16.568436 -874.381714
v -1.715576 -16.568420 -874.381714
v 85.547363 -26.108727 -574.747864
v 49.853363 33.881851 -646.351440
v 76.597702 -26.108727 -570.286560
v 40.903748 33.881821 -641.890137
v 82.870972 -34.109436 -580.116821
v 47.176941 25.881111 -651.720398
v 73.921326 -34.109436 -575.655518
v 38.227325 25.881119 -647.259033
v 48.811188 -37.869324 -648.441895
v 48.811188 62.130653 -648.442017
v 39.861542 -37.869331 -643.980591
v 39.861542 62.130676 -643.980591
v 44.349823 -37.869331 -657.391602
v 44.349854 62.130646 -657.391602
v 35.400177 -37.869347 -652.930176
v 35.400177 62.130684 -652.930298
v 122.304474 -17.875916 -691.899292
v 67.116089 25.168648 -620.475159
v 119.672638 -26.902069 -688.493164
v 64.484222 16.142502 -617.069031
v 114.391479 -17.875938 -698.013550
v 59.203094 25.168663 -626.589478
v 111.759613 -26.902092 -694.607422
v 56.571228 16.142494 -623.183350
v 10.943146 -49.306824 -1085.718994
v 10.943176 -39.306854 -1085.719116
v 10.943146 -49.306824 -1095.718994
v 10.943176 -39.306854 -1095.718994
v 70.943176 -49.306870 -1085.718994
v 70.943146 -39.306885 -1085.719116
v 70.943146 -49.306854 -1095.718994
v 70.943176 -39.306885 -1095.718994
v 10.943146 -49.306778 -1007.769287
v 10.943176 -39.306793 -1007.769287
v 10.943146 -49.306808 -1017.769287
v 10.943176 -39.306824 -1017.769287
v 70.943207 -49.306808 -1007.769287
v 70.943207 -39.306824 -1007.769287
v 70.943176 -49.306824 -1017.769287
v 70.943207 -39.306854 -1017.769287
v 10.943176 -49.306793 -1049.201782
v 10.943146 -39.306824 -1049.201782
v 10.943146 -49.306793 -1059.201782
v 10.943176 -39.306824 -1059.201782
v 70.943146 -49.306824 -1049.201782
v 70.943176 -39.306824 -1049.201904
v 70.943176 -49.306854 -1059.201782
v 70.943207 -39.306824 -1059.201782
v 10.737549 -46.627274 -1136.481445
v 10.737610 -36.627304 -1136.481323
v 10.520844 -46.627319 -1126.483643
v 10.520813 -36.627289 -1126.483643
v -130.730743 -46.627319 -1139.548706
v -130.730652 -36.627304 -1139.548584
v -130.947540 -46.627289 -1129.551025
v -130.947510 -36.627304 -1129.551025
vn -0.6583 -0.6317 0.4094
vn -0.3092 0.7227 0.6181
vn 0.6583 0.6317 -0.4094
vn 0.3092 -0.7227 -0.6181
vn -0.6863 0.2803 -0.6711
vn 0.6863 -0.2803 0.6711
vn -1.0000 -0.0000 -0.0000
vn -0.0000 -0.0000 -1.0000
vn 1.0000 -0.0000 -0.0000
vn -0.0000 -0.0000 1.0000
vn -0.0000 -1.0000 -0.0000
vn -0.0000 1.0000 -0.0000
vn -0.5999 0.8001 -0.0000
vn 0.5999 -0.8001 -0.0000
vn -0.8001 -0.5999 -0.0000
vn 0.8001 0.5999 -0.0000
vn -0.9002 -0.0000 0.4354
vn -0.1874 -0.9026 -0.3875
vn 0.9002 -0.0000 -0.4354
vn 0.1874 0.9026 0.3875
vn 0.3930 -0.4304 0.8126
vn -0.3930 0.4304 -0.8126
vn 0.2676 0.8001 0.5369
vn -0.8950 -0.0000 0.4461
vn -0.2676 -0.8001 -0.5369
vn 0.8950 -0.0000 -0.4461
vn 0.3569 -0.5999 0.7160
vn -0.3569 0.5999 -0.7160
vn 0.4461 -0.0000 0.8950
vn -0.4461 -0.0000 -0.8950
vn 0.7913 -0.0000 0.6114
vn -0.2632 -0.9026 0.3406
vn -0.7913 -0.0000 -0.6114
vn 0.2632 0.9026 -0.3406
vn 0.5519 -0.4304 -0.7142
vn -0.5519 0.4304 0.7142
vn -0.5519 0.4305 0.7142
vn 0.9998 -0.0000 0.0217
vn -0.0217 -0.0000 0.9998
vn -0.9998 -0.0000 -0.0217
vn 0.0217 -0.0000 -0.9998
vt 0.625000 0.000000
vt 0.375000 0.250000
vt 0.375000 0.000000
vt 0.625000 0.500000
vt 0.375000 0.500000
vt 0.375000 0.750000
vt 0.625000 0.750000
vt 0.375000 1.000000
vt 0.125000 0.750000
vt 0.125000 0.500000
vt 0.875000 0.500000
vt 0.625000 0.250000
vt 0.625000 1.000000
vt 0.875000 0.750000
s 0
usemtl マテリアル.001
f 2/1/1 3/2/1 1/3/1
f 3/2/2 8/4/2 7/5/2
f 8/4/3 5/6/3 7/5/3
f 6/7/4 1/8/4 5/6/4
f 7/5/5 1/9/5 3/10/5
f 4/11/6 6/7/6 8/4/6
f 10/1/7 11/2/7 9/3/7
f 12/12/8 15/5/8 11/2/8
f 15/5/9 14/7/9 13/6/9
f 13/6/10 10/13/10 9/8/10
f 11/10/11 13/6/11 9/9/11
f 12/11/12 14/7/12 16/4/12
f 18/1/12 19/2/12 17/3/12
f 20/12/8 23/5/8 19/2/8
f 24/4/11 21/6/11 23/5/11
f 22/7/10 17/8/10 21/6/10
f 23/5/7 17/9/7 19/10/7
f 24/4/9 18/14/9 22/7/9
f 26/1/12 27/2/12 25/3/12
f 28/12/8 31/5/8 27/2/8
f 32/4/11 29/6/11 31/5/11
f 30/7/10 25/8/10 29/6/10
f 31/5/7 25/9/7 27/10/7
f 28/11/9 30/7/9 32/4/9
f 34/1/13 35/2/13 33/3/13
f 36/12/8 39/5/8 35/2/8
f 39/5/14 38/7/14 37/6/14
f 38/7/10 33/8/10 37/6/10
f 35/10/15 37/6/15 33/9/15
f 36/11/16 38/7/16 40/4/16
f 41/3/7 44/12/7 43/2/7
f 44/12/8 47/5/8 43/2/8
f 48/4/9 45/6/9 47/5/9
f 46/7/10 41/8/10 45/6/10
f 43/10/11 45/6/11 41/9/11
f 44/11/12 46/7/12 48/4/12
f 50/1/17 51/2/17 49/3/17
f 52/12/18 55/5/18 51/2/18
f 56/4/19 53/6/19 55/5/19
f 54/7/20 49/8/20 53/6/20
f 55/5/21 49/9/21 51/10/21
f 56/4/22 50/14/22 54/7/22
f 58/1/23 59/2/23 57/3/23
f 60/12/24 63/5/24 59/2/24
f 64/4/25 61/6/25 63/5/25
f 62/7/26 57/8/26 61/6/26
f 63/5/27 57/9/27 59/10/27
f 60/11/28 62/7/28 64/4/28
f 65/3/29 68/12/29 67/2/29
f 67/2/24 72/4/24 71/5/24
f 72/4/30 69/6/30 71/5/30
f 70/7/26 65/8/26 69/6/26
f 71/5/11 65/9/11 67/10/11
f 72/4/12 66/14/12 70/7/12
f 73/3/31 76/12/31 75/2/31
f 76/12/32 79/5/32 75/2/32
f 80/4/33 77/6/33 79/5/33
f 78/7/34 73/8/34 77/6/34
f 75/10/35 77/6/35 73/9/35
f 80/4/36 74/14/36 78/7/36
f 81/3/12 84/12/12 83/2/12
f 84/12/8 87/5/8 83/2/8
f 87/5/11 86/7/11 85/6/11
f 86/7/10 81/8/10 85/6/10
f 83/10/7 85/6/7 81/9/7
f 84/11/9 86/7/9 88/4/9
f 90/1/12 91/2/12 89/3/12
f 91/2/8 96/4/8 95/5/8
f 96/4/11 93/6/11 95/5/11
f 94/7/10 89/8/10 93/6/10
f 95/5/7 89/9/7 91/10/7
f 96/4/9 90/14/9 94/7/9
f 98/1/23 99/2/23 97/3/23
f 100/12/24 103/5/24 99/2/24
f 103/5/25 102/7/25 101/6/25
f 102/7/26 97/8/26 101/6/26
f 99/10/27 101/6/27 97/9/27
f 100/11/28 102/7/28 104/4/28
f 106/1/29 107/2/29 105/3/29
f 108/12/24 111/5/24 107/2/24
f 111/5/30 110/7/30 109/6/30
f 110/7/26 105/8/26 109/6/26
f 111/5/11 105/9/11 107/10/11
f 112/4/12 106/14/12 110/7/12
f 114/1/31 115/2/31 113/3/31
f 115/2/32 120/4/32 119/5/32
f 120/4/33 117/6/33 119/5/33
f 118/7/34 113/8/34 117/6/34
f 115/10/35 117/6/35 113/9/35
f 120/4/37 114/14/37 118/7/37
f 122/1/7 123/2/7 121/3/7
f 124/12/8 127/5/8 123/2/8
f 127/5/9 126/7/9 125/6/9
f 126/7/10 121/8/10 125/6/10
f 127/5/11 121/9/11 123/10/11
f 124/11/12 126/7/12 128/4/12
f 129/3/7 132/12/7 131/2/7
f 132/12/8 135/5/8 131/2/8
f 136/4/9 133/6/9 135/5/9
f 133/6/10 130/13/10 129/8/10
f 135/5/11 129/9/11 131/10/11
f 132/11/12 134/7/12 136/4/12
f 138/1/7 139/2/7 137/3/7
f 140/12/8 143/5/8 139/2/8
f 143/5/9 142/7/9 141/6/9
f 142/7/10 137/8/10 141/6/10
f 143/5/11 137/9/11 139/10/11
f 140/11/12 142/7/12 144/4/12
f 146/1/38 147/2/38 145/3/38
f 148/12/39 151/5/39 147/2/39
f 151/5/40 150/7/40 149/6/40
f 150/7/41 145/8/41 149/6/41
f 151/5/11 145/9/11 147/10/11
f 148/11/12 150/7/12 152/4/12
f 2/1/1 4/12/1 3/2/1
f 3/2/2 4/12/2 8/4/2
f 8/4/3 6/7/3 5/6/3
f 6/7/4 2/13/4 1/8/4
f 7/5/5 5/6/5 1/9/5
f 4/11/6 2/14/6 6/7/6
f 10/1/7 12/12/7 11/2/7
f 12/12/8 16/4/8 15/5/8
f 15/5/9 16/4/9 14/7/9
f 13/6/10 14/7/10 10/13/10
f 11/10/11 15/5/11 13/6/11
f 12/11/12 10/14/12 14/7/12
f 18/1/12 20/12/12 19/2/12
f 20/12/8 24/4/8 23/5/8
f 24/4/11 22/7/11 21/6/11
f 22/7/10 18/13/10 17/8/10
f 23/5/7 21/6/7 17/9/7
f 24/4/9 20/11/9 18/14/9
f 26/1/12 28/12/12 27/2/12
f 28/12/8 32/4/8 31/5/8
f 32/4/11 30/7/11 29/6/11
f 30/7/10 26/13/10 25/8/10
f 31/5/7 29/6/7 25/9/7
f 28/11/9 26/14/9 30/7/9
f 34/1/13 36/12/13 35/2/13
f 36/12/8 40/4/8 39/5/8
f 39/5/14 40/4/14 38/7/14
f 38/7/10 34/13/10 33/8/10
f 35/10/15 39/5/15 37/6/15
f 36/11/16 34/14/16 38/7/16
f 41/3/7 42/1/7 44/12/7
f 44/12/8 48/4/8 47/5/8
f 48/4/9 46/7/9 45/6/9
f 46/7/10 42/13/10 41/8/10
f 43/10/11 47/5/11 45/6/11
f 44/11/12 42/14/12 46/7/12
f 50/1/17 52/12/17 51/2/17
f 52/12/18 56/4/18 55/5/18
f 56/4/19 54/7/19 53/6/19
f 54/7/20 50/13/20 49/8/20
f 55/5/21 53/6/21 49/9/21
f 56/4/22 52/11/22 50/14/22
f 58/1/23 60/12/23 59/2/23
f 60/12/24 64/4/24 63/5/24
f 64/4/25 62/7/25 61/6/25
f 62/7/26 58/13/26 57/8/26
f 63/5/27 61/6/27 57/9/27
f 60/11/28 58/14/28 62/7/28
f 65/3/29 66/1/29 68/12/29
f 67/2/24 68/12/24 72/4/24
f 72/4/30 70/7/30 69/6/30
f 70/7/26 66/13/26 65/8/26
f 71/5/11 69/6/11 65/9/11
f 72/4/12 68/11/12 66/14/12
f 73/3/31 74/1/31 76/12/31
f 76/12/32 80/4/32 79/5/32
f 80/4/33 78/7/33 77/6/33
f 78/7/34 74/13/34 73/8/34
f 75/10/35 79/5/35 77/6/35
f 80/4/36 76/11/36 74/14/36
f 81/3/12 82/1/12 84/12/12
f 84/12/8 88/4/8 87/5/8
f 87/5/11 88/4/11 86/7/11
f 86/7/10 82/13/10 81/8/10
f 83/10/7 87/5/7 85/6/7
f 84/11/9 82/14/9 86/7/9
f 90/1/12 92/12/12 91/2/12
f 91/2/8 92/12/8 96/4/8
f 96/4/11 94/7/11 93/6/11
f 94/7/10 90/13/10 89/8/10
f 95/5/7 93/6/7 89/9/7
f 96/4/9 92/11/9 90/14/9
f 98/1/23 100/12/23 99/2/23
f 100/12/24 104/4/24 103/5/24
f 103/5/25 104/4/25 102/7/25
f 102/7/26 98/13/26 97/8/26
f 99/10/27 103/5/27 101/6/27
f 100/11/28 98/14/28 102/7/28
f 106/1/29 108/12/29 107/2/29
f 108/12/24 112/4/24 111/5/24
f 111/5/30 112/4/30 110/7/30
f 110/7/26 106/13/26 105/8/26
f 111/5/11 109/6/11 105/9/11
f 112/4/12 108/11/12 106/14/12
f 114/1/31 116/12/31 115/2/31
f 115/2/32 116/12/32 120/4/32
f 120/4/33 118/7/33 117/6/33
f 118/7/34 114/13/34 113/8/34
f 115/10/35 119/5/35 117/6/35
f 120/4/36 116/11/36 114/14/36
f 122/1/7 124/12/7 123/2/7
f 124/12/8 128/4/8 127/5/8
f 127/5/9 128/4/9 126/7/9
f 126/7/10 122/13/10 121/8/10
f 127/5/11 125/6/11 121/9/11
f 124/11/12 122/14/12 126/7/12
f 129/3/7 130/1/7 132/12/7
f 132/12/8 136/4/8 135/5/8
f 136/4/9 134/7/9 133/6/9
f 133/6/10 134/7/10 130/13/10
f 135/5/11 133/6/11 129/9/11
f 132/11/12 130/14/12 134/7/12
f 138/1/7 140/12/7 139/2/7
f 140/12/8 144/4/8 143/5/8
f 143/5/9 144/4/9 142/7/9
f 142/7/10 138/13/10 137/8/10
f 143/5/11 141/6/11 137/9/11
f 140/11/12 138/14/12 142/7/12
f 146/1/38 148/12/38 147/2/38
f 148/12/39 152/4/39 151/5/39
f 151/5/40 152/4/40 150/7/40
f 150/7/41 146/13/41 145/8/41
f 151/5/11 149/6/11 145/9/11
f 148/11/12 146/14/12 150/7/12
